<?xml version="1.0" encoding="UTF-8"?>
<!DOCTYPE svg PUBLIC "-//W3C//DTD SVG 1.1//EN" "http://www.w3.org/Graphics/SVG/1.1/DTD/svg11.dtd">
<!-- Creator: CorelDRAW 2020 (64-Bit) -->
<svg xmlns="http://www.w3.org/2000/svg" xml:space="preserve" width="3.92263in" height="3.92263in" version="1.1" style="shape-rendering:geometricPrecision; text-rendering:geometricPrecision; image-rendering:optimizeQuality; fill-rule:evenodd; clip-rule:evenodd"
viewBox="0 0 165.76 165.76"
 xmlns:xlink="http://www.w3.org/1999/xlink"
 xmlns:xodm="http://www.corel.com/coreldraw/odm/2003">
 <defs>
  <style type="text/css">
   <![CDATA[
    .fil1 {fill:#2A428C;fill-rule:nonzero}
    .fil2 {fill:#3C58A0;fill-rule:nonzero}
    .fil3 {fill:#73C3F9;fill-rule:nonzero}
    .fil5 {fill:#BEC8F7;fill-rule:nonzero}
    .fil4 {fill:#E9EFFF;fill-rule:nonzero}
    .fil6 {fill:#E6E6E6;fill-opacity:0.301961}
    .fil0 {fill:url(#id0)}
   ]]>
  </style>
  <linearGradient id="id0" gradientUnits="userSpaceOnUse" x1="127.11" y1="152.97" x2="38.65" y2="12.79">
   <stop offset="0" style="stop-opacity:1; stop-color:#EB9A52"/>
   <stop offset="1" style="stop-opacity:1; stop-color:#F8DB44"/>
  </linearGradient>
 </defs>
 <g id="Layer_x0020_1">
  <metadata id="CorelCorpID_0Corel-Layer"/>
  <g id="_2592663913728">
   <circle class="fil0" cx="82.88" cy="82.88" r="82.88"/>
   <g>
    <g>
     <path class="fil1" d="M103.69 135.22l-41.61 0c-4.92,0 -8.92,-4 -8.92,-8.92l0 -86.82c0,-4.92 4,-8.92 8.92,-8.92l41.61 -0c4.92,0 8.92,4 8.92,8.92l0 86.82c0,4.92 -4,8.92 -8.92,8.92z"/>
    </g>
    <g>
     <path class="fil2" d="M76.31 36.94l-0.89 0c-0.85,0 -1.54,-0.69 -1.54,-1.54 0,-0.85 0.69,-1.54 1.54,-1.54l0.89 0c0.85,0 1.54,0.69 1.54,1.54 0,0.85 -0.69,1.54 -1.54,1.54l0 0z"/>
    </g>
    <g>
     <path class="fil2" d="M90.13 36.94l-8.56 0c-0.85,0 -1.54,-0.69 -1.54,-1.54 0,-0.85 0.69,-1.54 1.54,-1.54l8.56 0c0.85,0 1.54,0.69 1.54,1.54 0,0.85 -0.69,1.54 -1.54,1.54l0 0z"/>
    </g>
    <path class="fil3" d="M103.69 36.1l-6.25 0c-1.17,0 -2.11,0.95 -2.11,2.11 0,1.36 -1.11,2.47 -2.47,2.47l-19.95 0c-1.36,0 -2.47,-1.11 -2.47,-2.47 0,-1.17 -0.95,-2.11 -2.11,-2.11l-6.25 0c-1.86,0 -3.37,1.51 -3.37,3.37l0 86.82c0,1.86 1.51,3.37 3.37,3.37l41.61 0c1.86,0 3.37,-1.51 3.37,-3.37 0,-8.93 0,-84.44 0,-86.82 0,-1.86 -1.51,-3.37 -3.37,-3.37l0 -0z"/>
    <g>
     <path class="fil4" d="M70.33 52.4l25.09 0c1.58,0 2.86,-1.28 2.86,-2.86 0,-1.58 -1.28,-2.86 -2.86,-2.86l-25.09 0c-1.58,0 -2.86,1.28 -2.86,2.86 0,1.58 1.28,2.86 2.86,2.86l0 -0z"/>
    </g>
    <g>
     <path class="fil4" d="M100.5 78.47l-35.23 0c-1.41,0 -2.57,-1.16 -2.57,-2.57l0 -14.78c0,-1.41 1.16,-2.57 2.57,-2.57l35.23 0c1.41,0 2.57,1.16 2.57,2.57l0 14.78c0,1.41 -1.16,2.57 -2.57,2.57z"/>
     <path class="fil4" d="M100.5 102.36l-35.23 0c-1.41,0 -2.57,-1.16 -2.57,-2.57l0 -14.78c0,-1.41 1.16,-2.57 2.57,-2.57l35.23 0c1.41,0 2.57,1.16 2.57,2.57l0 14.78c0,1.41 -1.16,2.57 -2.57,2.57z"/>
     <path class="fil4" d="M100.5 126.25l-35.23 0c-1.41,0 -2.57,-1.16 -2.57,-2.57l0 -14.78c0,-1.41 1.16,-2.57 2.57,-2.57l35.23 0c1.41,0 2.57,1.16 2.57,2.57l0 14.78c0,1.41 -1.16,2.57 -2.57,2.57z"/>
     <path class="fil4" d="M100.5 78.47l-35.23 0c-1.41,0 -2.57,-1.16 -2.57,-2.57l0 -14.78c0,-1.41 1.16,-2.57 2.57,-2.57l35.23 0c1.41,0 2.57,1.16 2.57,2.57l0 14.78c0,1.41 -1.16,2.57 -2.57,2.57z"/>
     <path class="fil4" d="M100.5 102.36l-35.23 0c-1.41,0 -2.57,-1.16 -2.57,-2.57l0 -14.78c0,-1.41 1.16,-2.57 2.57,-2.57l35.23 0c1.41,0 2.57,1.16 2.57,2.57l0 14.78c0,1.41 -1.16,2.57 -2.57,2.57z"/>
     <path class="fil4" d="M100.5 126.25l-35.23 0c-1.41,0 -2.57,-1.16 -2.57,-2.57l0 -14.78c0,-1.41 1.16,-2.57 2.57,-2.57l35.23 0c1.41,0 2.57,1.16 2.57,2.57l0 14.78c0,1.41 -1.16,2.57 -2.57,2.57z"/>
    </g>
    <g>
     <path class="fil2" d="M81.49 66.81l-10.3 0c-1.06,0 -1.92,-0.86 -1.92,-1.92 0,-1.06 0.86,-1.92 1.92,-1.92l10.3 0c1.06,0 1.92,0.86 1.92,1.92 0,1.06 -0.86,1.92 -1.92,1.92l0 -0z"/>
    </g>
    <g>
     <path class="fil5" d="M94.57 74.05l-23.39 0c-1.06,0 -1.92,-0.86 -1.92,-1.92 0,-1.06 0.86,-1.92 1.92,-1.92l23.39 0c1.06,0 1.92,0.86 1.92,1.92 0,1.06 -0.86,1.92 -1.92,1.92z"/>
    </g>
    <g>
     <path class="fil5" d="M89.53 66.81l-1.45 0c-1.06,0 -1.92,-0.86 -1.92,-1.92 0,-1.06 0.86,-1.92 1.92,-1.92l1.45 0c1.06,0 1.92,0.86 1.92,1.92 0,1.06 -0.86,1.92 -1.92,1.92l0 -0z"/>
    </g>
    <g>
     <path class="fil2" d="M81.49 90.7l-10.3 0c-1.06,0 -1.92,-0.86 -1.92,-1.92 0,-1.06 0.86,-1.92 1.92,-1.92l10.3 0c1.06,0 1.92,0.86 1.92,1.92 0,1.06 -0.86,1.92 -1.92,1.92l0 0z"/>
    </g>
    <g>
     <path class="fil5" d="M94.57 97.95l-23.39 0c-1.06,0 -1.92,-0.86 -1.92,-1.92 0,-1.06 0.86,-1.92 1.92,-1.92l23.39 0c1.06,0 1.92,0.86 1.92,1.92 0,1.06 -0.86,1.92 -1.92,1.92z"/>
    </g>
    <g>
     <path class="fil5" d="M89.53 90.7l-1.45 0c-1.06,0 -1.92,-0.86 -1.92,-1.92 0,-1.06 0.86,-1.92 1.92,-1.92l1.45 0c1.06,0 1.92,0.86 1.92,1.92 0,1.06 -0.86,1.92 -1.92,1.92l0 0z"/>
    </g>
    <g>
     <path class="fil2" d="M81.49 114.59l-10.3 0c-1.06,0 -1.92,-0.86 -1.92,-1.92 0,-1.06 0.86,-1.92 1.92,-1.92l10.3 0c1.06,0 1.92,0.86 1.92,1.92 0,1.06 -0.86,1.92 -1.92,1.92z"/>
    </g>
    <g>
     <path class="fil5" d="M94.57 121.84l-23.39 0c-1.06,0 -1.92,-0.86 -1.92,-1.92 0,-1.06 0.86,-1.92 1.92,-1.92l23.39 0c1.06,0 1.92,0.86 1.92,1.92 0,1.06 -0.86,1.92 -1.92,1.92z"/>
    </g>
    <g>
     <path class="fil5" d="M89.53 114.59l-1.45 0c-1.06,0 -1.92,-0.86 -1.92,-1.92 0,-1.06 0.86,-1.92 1.92,-1.92l1.45 0c1.06,0 1.92,0.86 1.92,1.92 0,1.06 -0.86,1.92 -1.92,1.92z"/>
    </g>
   </g>
   <path class="fil6" d="M53.43 128.51l0 -0 0 0 -0 -0zm101.21 -4.14c-14.34,24.74 -41.1,41.38 -71.76,41.38 -4.02,0 -7.97,-0.29 -11.83,-0.84l-16.09 -33.24c1.63,2.15 4.21,3.54 7.11,3.54l41.61 0c4.92,0 8.92,-4 8.92,-8.92l0 -86.82c0,-1.02 -0.17,-2.01 -0.49,-2.92l42.52 87.83zm-43.42 -89.69l0 -0 0 0 -0 -0z"/>
  </g>
 </g>
</svg>
