<?xml version="1.0" encoding="UTF-8"?>
<!DOCTYPE svg PUBLIC "-//W3C//DTD SVG 1.1//EN" "http://www.w3.org/Graphics/SVG/1.1/DTD/svg11.dtd">
<!-- Creator: CorelDRAW 2020 (64-Bit) -->
<svg xmlns="http://www.w3.org/2000/svg" xml:space="preserve" width="3.92263in" height="3.92263in" version="1.1" style="shape-rendering:geometricPrecision; text-rendering:geometricPrecision; image-rendering:optimizeQuality; fill-rule:evenodd; clip-rule:evenodd"
viewBox="0 0 294.29 294.29"
 xmlns:xlink="http://www.w3.org/1999/xlink"
 xmlns:xodm="http://www.corel.com/coreldraw/odm/2003">
 <defs>
  <style type="text/css">
   <![CDATA[
    .str0 {stroke:black;stroke-width:18.17;stroke-linecap:round;stroke-linejoin:round;stroke-miterlimit:2.61313}
    .fil11 {fill:#1785B8;fill-rule:nonzero}
    .fil5 {fill:#24D9DE;fill-rule:nonzero}
    .fil12 {fill:#2C5871;fill-rule:nonzero}
    .fil10 {fill:#44798C;fill-rule:nonzero}
    .fil9 {fill:#CADDEA;fill-rule:nonzero}
    .fil6 {fill:#D0D1D2;fill-rule:nonzero}
    .fil8 {fill:#E1EFFB;fill-rule:nonzero}
    .fil3 {fill:#F4D5BA;fill-rule:nonzero}
    .fil7 {fill:#F9644B;fill-rule:nonzero}
    .fil14 {fill:#FF901D;fill-rule:nonzero}
    .fil13 {fill:#FFB125;fill-rule:nonzero}
    .fil2 {fill:#FFE7CF;fill-rule:nonzero}
    .fil4 {fill:white;fill-rule:nonzero}
    .fil1 {fill:#CCCCCC;fill-opacity:0.301961}
    .fil0 {fill:url(#id0)}
   ]]>
  </style>
  <linearGradient id="id0" gradientUnits="userSpaceOnUse" x1="221.74" y1="273.99" x2="72.56" y2="20.31">
   <stop offset="0" style="stop-opacity:1; stop-color:#4588FB"/>
   <stop offset="1" style="stop-opacity:1; stop-color:#4EBCFE"/>
  </linearGradient>
 </defs>
 <g id="Layer_x0020_1">
  <metadata id="CorelCorpID_0Corel-Layer"/>
  <g id="_2592658539104">
   <circle class="fil0" cx="147.15" cy="147.15" r="147.15"/>
   <path class="fil1" d="M168.74 163.37c-0.27,-0.16 -0.52,-0.35 -0.77,-0.54l0 0c-0.09,-0.07 -0.18,-0.15 -0.27,-0.23l-0 0c-0.04,-0.04 -0.09,-0.08 -0.13,-0.12l0 0c-0.04,-0.04 -0.09,-0.08 -0.13,-0.12l-0 0c-0.04,-0.04 -0.08,-0.08 -0.13,-0.12l0 0 -0.12 -0.13 0 0c-0.08,-0.09 -0.16,-0.17 -0.24,-0.26l-0 -0c-0.08,-0.09 -0.16,-0.18 -0.23,-0.27l-0 0c-0.08,-0.09 -0.15,-0.19 -0.22,-0.28l-0 -0 -0.11 -0.15 -0 0c-0.14,-0.2 -0.27,-0.4 -0.4,-0.6l-0 -0 -0.09 -0.16 -0 0c-0.06,-0.1 -0.12,-0.21 -0.18,-0.32l0 0 -0.08 -0.16 -0 -0 -0.08 -0.16 -0 -0 -0.08 -0.16 -0 0 -0.08 -0.17 -0 0 -0.07 -0.17 -0 0c-0.05,-0.11 -0.09,-0.22 -0.14,-0.34l0 -0c-0.04,-0.11 -0.09,-0.23 -0.12,-0.34l0 0 -0.06 -0.17 -0 0c-0.04,-0.11 -0.07,-0.23 -0.11,-0.35l-0 0 -0.05 -0.17 0 0 -0.04 -0.17 -0 -0 -0.04 -0.17 -0 0 -0.04 -0.17 -0 0 -0.03 -0.17 0 0c-0.01,-0.06 -0.02,-0.12 -0.03,-0.17l0 0c-0.01,-0.06 -0.02,-0.12 -0.03,-0.17l-0 0c-0.01,-0.06 -0.02,-0.12 -0.02,-0.17l0 0 -0.02 -0.17 -0 0 -0.02 -0.17 -0 -0c-0.01,-0.06 -0.01,-0.12 -0.01,-0.17l-0 0 -0.01 -0.17 -0 0c-0,-0.06 -0,-0.11 -0.01,-0.17l-0 0 -0 -0.17 0 -8.89c0.24,0.09 0.5,0.14 0.77,0.15 10.06,0.48 17.94,8.73 17.97,18.8l-10.35 -3.12c-0.44,-0.13 -0.88,-0.2 -1.33,-0.19l-0.07 0 -0 0c-0.09,0 -0.18,0.01 -0.27,0.01l0 0 -0.13 0.01 -0 0 -0.07 0.01 0 0c-0.04,0.01 -0.09,0.01 -0.13,0.02l0 0 -0.13 0.02 0 0 -0.06 0.01 -0 0 -0.13 0.03 0 0 -0.06 0.01 0 0 -0.06 0.02 0 0c-0.11,0.03 -0.21,0.06 -0.32,0.09l0 0 -0.06 0.02 -0 0c-0.04,0.01 -0.08,0.03 -0.12,0.05l-0 0 -0.12 0.05 0 0 -0.06 0.03 -0 0 -0.06 0.03 0 0c-0.04,0.02 -0.08,0.04 -0.12,0.06l0 0 -0.06 0.03 -0 0 -0.06 0.03 0 0 -0.06 0.03 -0 0 -0.06 0.03 -0.06 0.03 -0 0 -0.06 0.03 0 0 -0.06 0.03 0 0 -0.06 0.04 -0.06 0.04 -0.06 0.04 0 0 -0.06 0.04 -0.06 0.04 0 0 -0.05 0.04 -0.14 0.1zm97.31 70.62c-26.77,36.56 -70,60.31 -118.79,60.31 -17.73,0 -34.72,-3.14 -50.46,-8.88l-25.65 -51.2c0.9,0.73 2.06,1.18 3.33,1.18l60.2 0 24.91 0 46.74 0 13.46 0 0 0c0.05,0 0.1,-0 0.15,-0l0 0c0.05,-0 0.1,-0 0.15,-0.01l0 0c0.05,-0 0.1,-0.01 0.15,-0.01l0 0c0.05,-0 0.1,-0.01 0.15,-0.01l0 0c0.05,-0.01 0.1,-0.01 0.15,-0.02l0 0c0.05,-0.01 0.1,-0.01 0.15,-0.02l0 0c0.05,-0.01 0.1,-0.02 0.15,-0.03l0 0c0.05,-0.01 0.1,-0.02 0.14,-0.03l0 0c0.05,-0.01 0.09,-0.02 0.14,-0.03l0 0c0.05,-0.01 0.09,-0.03 0.14,-0.04l0 0c0.05,-0.01 0.09,-0.03 0.14,-0.04l0 0c0.05,-0.01 0.09,-0.03 0.14,-0.05l0 0c0.14,-0.05 0.27,-0.1 0.4,-0.16l0 0c0.04,-0.02 0.09,-0.04 0.13,-0.06l0 0c0.04,-0.02 0.09,-0.04 0.13,-0.06l0 0c0.17,-0.09 0.33,-0.18 0.49,-0.29l0 0c0.24,-0.16 0.46,-0.33 0.67,-0.52l0 0c0.24,-0.22 0.46,-0.46 0.66,-0.73l0 0c0.23,-0.3 0.42,-0.62 0.58,-0.96l0 -0c0.02,-0.04 0.04,-0.09 0.06,-0.13l0 -0 0.05 -0.13 0.05 -0.13 0 -0c0.05,-0.13 0.09,-0.27 0.13,-0.41l0 -0c0.01,-0.05 0.03,-0.09 0.04,-0.14l0 -0 0.03 -0.14 0 0 0.03 -0.14 0 -0c0.01,-0.05 0.02,-0.09 0.03,-0.14l0 -0 0.02 -0.14 0 -0c0.01,-0.05 0.01,-0.1 0.02,-0.14 0.01,-0.05 0.01,-0.1 0.01,-0.15l0 -0c0.01,-0.15 0.02,-0.29 0.02,-0.44l0 0c0,-0.05 -0,-0.1 -0,-0.15 -0,-0.05 -0,-0.1 -0.01,-0.15 -0,-0.05 -0.01,-0.1 -0.01,-0.15l0 -0 -0.02 -0.15c-0.01,-0.05 -0.01,-0.1 -0.02,-0.15 -0.01,-0.05 -0.01,-0.1 -0.02,-0.15l-8.04 -47.09c-0.14,-0.82 -0.37,-1.61 -0.69,-2.36l-0 0c-0.12,-0.29 -0.25,-0.57 -0.4,-0.84l-0 0c-0.09,-0.17 -0.18,-0.33 -0.27,-0.49l-0 0c-0.19,-0.32 -0.39,-0.63 -0.62,-0.93l-0 0c-1.36,-1.84 -3.29,-3.23 -5.57,-3.91l-20.83 -6.29 0 -1.55c0,-11.63 -8.17,-21.38 -19.2,-23.69l0.05 -0.06c0.12,-0.13 0.23,-0.26 0.35,-0.38l0.2 -0.22c0.13,-0.15 0.26,-0.29 0.38,-0.44l0.18 -0.22c0.11,-0.13 0.22,-0.26 0.33,-0.4l0.23 -0.29c0.09,-0.11 0.17,-0.22 0.26,-0.32 0.09,-0.11 0.17,-0.22 0.26,-0.33l0.26 -0.33 0.18 -0.24c0.11,-0.15 0.22,-0.29 0.32,-0.44l0.18 -0.25c0.11,-0.15 0.21,-0.3 0.32,-0.45l0.18 -0.26c0.08,-0.11 0.16,-0.23 0.23,-0.34 0.08,-0.12 0.16,-0.24 0.24,-0.35l0.2 -0.31 0.2 -0.32c0.08,-0.13 0.16,-0.26 0.24,-0.39l0.15 -0.25c0.1,-0.16 0.19,-0.31 0.28,-0.47l0.14 -0.23c0.09,-0.16 0.19,-0.32 0.28,-0.47l0.14 -0.24c0.07,-0.12 0.13,-0.23 0.2,-0.35l0.17 -0.3c0.07,-0.13 0.14,-0.27 0.22,-0.4l0.11 -0.2c0.08,-0.16 0.17,-0.32 0.25,-0.48l0.11 -0.23c0.08,-0.16 0.16,-0.32 0.24,-0.48l0.1 -0.2c0.08,-0.16 0.15,-0.31 0.22,-0.47l0.1 -0.22c0.06,-0.13 0.12,-0.26 0.18,-0.4l0.1 -0.22c0.06,-0.15 0.13,-0.3 0.19,-0.44l0.08 -0.2c0.06,-0.15 0.13,-0.31 0.19,-0.46l0.09 -0.22c0.06,-0.16 0.12,-0.31 0.18,-0.46l0.07 -0.18c0.06,-0.15 0.11,-0.29 0.16,-0.44l0.07 -0.18c0.05,-0.14 0.1,-0.28 0.15,-0.42l0.05 -0.13c0.05,-0.16 0.11,-0.32 0.16,-0.48l0.05 -0.16c0.05,-0.15 0.1,-0.31 0.14,-0.46l0.05 -0.16c0.04,-0.15 0.09,-0.3 0.13,-0.45l0.04 -0.14c0.04,-0.14 0.08,-0.29 0.11,-0.43l0.02 -0.08c0.04,-0.15 0.08,-0.31 0.11,-0.46l0.03 -0.14c0.03,-0.15 0.07,-0.29 0.1,-0.44l0.02 -0.11c0.03,-0.15 0.06,-0.3 0.09,-0.45l0.01 -0.08c0.03,-0.15 0.05,-0.31 0.08,-0.46l0.01 -0.04c0.02,-0.15 0.04,-0.3 0.06,-0.44l0.01 -0.04c0.02,-0.15 0.04,-0.29 0.05,-0.43l0.01 -0.07c0.01,-0.13 0.02,-0.26 0.03,-0.39l0.01 -0.1c0.01,-0.13 0.02,-0.25 0.02,-0.38l0 -0.04c0.01,-0.13 0.01,-0.27 0.01,-0.4l0 -0 0 -0.32 4.15 0c2.89,0 5.23,-2.34 5.23,-5.23l0 -4.05c0,-2.5 -1.75,-4.59 -4.09,-5.11l0.08 -29.36c0,0 46.51,90.71 80.89,157.92z"/>
   <path class="fil2" d="M159.43 183.16l18.75 -17.61 -7.44 -1.38c-3.59,-0.72 -6.18,-4.89 -6.18,-8.55l0 -16.33 -17.41 0 0 0 -17.41 0 0 16.33c0,3.66 -2.58,7.83 -6.18,8.55l-7.44 1.38 18.75 17.61c6.9,6.48 17.66,6.48 24.56,0z"/>
   <path class="fil3" d="M156.12 139.28l0 24.76c0,3.66 2.58,7.83 6.18,8.55l6.41 1.84 9.46 -8.88 -7.44 -1.38c-3.59,-0.72 -6.18,-4.89 -6.18,-8.55l0 -16.33 -8.43 0 0 0z"/>
   <polygon class="fil4 str0" points="144.79,220.64 144.79,220.64 "/>
   <path class="fil5" d="M168.88 163.27l-21.73 16.24 -21.73 -16.24c-1.16,-0.87 -2.67,-1.14 -4.07,-0.72l-36.51 11.02c-3.93,1.19 -6.85,4.49 -7.54,8.53l-8.04 47.09c-0.55,3.24 1.94,6.2 5.23,6.2l145.31 0c3.29,0 5.78,-2.96 5.23,-6.2l-8.04 -47.09c-0.69,-4.04 -3.61,-7.35 -7.54,-8.53l-36.51 -11.02c-1.39,-0.42 -2.9,-0.15 -4.07,0.72z"/>
   <g>
    <path class="fil6" d="M121.35 162.55l-6.28 1.89 13.86 19.4c1.09,1.53 3.1,2.09 4.82,1.36l13.39 -5.69 0 0 -21.73 -16.24c-1.16,-0.87 -2.67,-1.14 -4.07,-0.72z"/>
    <path class="fil6" d="M160.54 185.2c1.73,0.73 3.73,0.17 4.82,-1.36l13.86 -19.4 -0.03 -0.01 -6.25 -1.89c-1.39,-0.42 -2.9,-0.15 -4.07,0.72l-21.73 16.24 0 0 0 0 13.39 5.69z"/>
   </g>
   <g>
    <polygon class="fil7" points="147.15,179.51 136.61,183.99 142.77,191.14 151.52,191.14 157.68,183.99 "/>
    <polygon class="fil7" points="151.52,191.14 147.15,191.14 142.77,191.14 134.69,235.39 159.6,235.39 "/>
   </g>
   <path class="fil8" d="M147.15 227.18c0,0 -24.4,-65.04 -25.8,-64.62l-36.51 11.02c-3.93,1.19 -6.85,4.49 -7.54,8.53l-8.04 47.09c-0.55,3.24 1.94,6.2 5.23,6.2l145.31 0c3.29,0 5.78,-2.96 5.23,-6.2l-8.04 -47.09c-0.69,-4.04 -3.61,-7.35 -7.54,-8.53l-36.51 -11.02c-1.39,-0.42 -25.8,64.62 -25.8,64.62z"/>
   <path class="fil9" d="M225.03 229.19l-8.04 -47.09c-0.69,-4.04 -3.61,-7.35 -7.54,-8.53l-36.51 -11.02c-0.38,-0.11 -2.46,4.61 -5.28,11.55l26.48 7.99c2,0.6 3.49,2.29 3.84,4.35l8.36 48.95 13.46 0c3.29,0 5.78,-2.96 5.23,-6.2z"/>
   <g>
    <path class="fil10" d="M185.96 198.62c-1.47,0 -2.66,-1.19 -2.66,-2.66l0 -30.22c0,-10.1 -7.9,-18.38 -17.97,-18.86 -1.47,-0.07 -2.6,-1.32 -2.53,-2.79 0.07,-1.47 1.32,-2.6 2.79,-2.53 12.92,0.61 23.05,11.23 23.05,24.18l0 30.22c0,1.47 -1.19,2.66 -2.66,2.66z"/>
    <path class="fil10" d="M108.34 178.91c-1.47,0 -2.66,-1.19 -2.66,-2.66l0 -10.52c0,-12.91 10.09,-23.53 22.98,-24.18 1.47,-0.08 2.72,1.06 2.79,2.53 0.07,1.47 -1.06,2.72 -2.53,2.79 -10.05,0.5 -17.92,8.79 -17.92,18.86l0 10.52c0,1.47 -1.19,2.66 -2.66,2.66z"/>
   </g>
   <circle class="fil11" cx="185.93" cy="197.7" r="11.11"/>
   <circle class="fil8" cx="185.93" cy="197.7" r="4.9"/>
   <path class="fil12" d="M117.14 219.51l-3.32 0c-1.47,0 -2.66,-1.19 -2.66,-2.66 0,-1.47 1.19,-2.66 2.66,-2.66l3.32 0c0.4,0 0.79,-0.17 1.06,-0.46 0.27,-0.29 0.41,-0.69 0.38,-1.09l-1.94 -24.89c-0.07,-0.88 -0.28,-1.74 -0.62,-2.56 -1.23,-2.9 -4.14,-4.77 -7.43,-4.77 -0.02,0 -0.04,0 -0.06,0l-0.44 0c-3.39,0.02 -6.41,2.09 -7.54,5.13 -0.26,0.7 -0.42,1.44 -0.48,2.19l-1.94 24.89c-0.03,0.4 0.11,0.8 0.38,1.09 0.27,0.29 0.66,0.46 1.06,0.46l3.32 0c1.47,0 2.66,1.19 2.66,2.66 0,1.47 -1.19,2.66 -2.66,2.66l-3.32 0c-1.88,0 -3.69,-0.79 -4.97,-2.17 -1.28,-1.38 -1.93,-3.25 -1.78,-5.12l1.94 -24.89c0.1,-1.24 0.36,-2.45 0.79,-3.62 1.88,-5.11 6.9,-8.58 12.5,-8.62l0.44 -0c0.03,0 0.07,-0 0.1,-0 5.44,0 10.27,3.14 12.34,8.02 0.57,1.34 0.92,2.76 1.03,4.22l1.94 24.89c0.15,1.87 -0.5,3.74 -1.78,5.12 -1.28,1.38 -3.09,2.17 -4.97,2.17z"/>
   <g>
    <path class="fil3" d="M116.43 115.26l0 -9.96 -6.08 0c-2.89,0 -5.23,2.34 -5.23,5.23l0 4.05c0,2.89 2.34,5.23 5.23,5.23l6.08 0 0 -4.55z"/>
    <path class="fil3" d="M183.94 105.3l-6.08 0 0 9.96 0 4.55 6.08 0c2.89,0 5.23,-2.34 5.23,-5.23l0 -4.05c0,-2.89 -2.34,-5.23 -5.23,-5.23z"/>
   </g>
   <path class="fil2" d="M169.48 71.37c-5.24,-4.51 -12.61,-4.22 -22.34,-4.33 -9.73,0.11 -17.1,-0.18 -22.34,4.33 -6.68,5.76 -10.31,14.3 -10.31,23.12l0 25.64c0,8.82 11.09,32.22 32.64,32.22 21.56,0 32.64,-23.4 32.64,-32.22l0 -25.64c0,-8.82 -3.62,-17.37 -10.3,-23.12z"/>
   <path class="fil3" d="M169.48 71.37c-2.08,-1.79 -4.5,-2.82 -7.27,-3.43 0,0.01 0,0.02 0,0.04l0 52.15c0,7.53 -8.08,25.68 -23.86,30.83 2.7,0.88 5.63,1.39 8.79,1.39 21.56,0 32.64,-23.4 32.64,-32.22l0 -25.64c0,-8.82 -3.62,-17.37 -10.3,-23.12z"/>
   <path class="fil13" d="M166.78 58.9l-19.64 0 -19.64 0c-10.11,0 -18.3,8.19 -18.3,18.3l0 30.04c0,0 5.04,-0.11 8.28,3.09 0.67,0.67 1.82,0.18 1.82,-0.77l0 -24.58c0,-4.47 3.62,-8.09 8.09,-8.09l7.35 0c1.93,0 3.8,0.67 5.29,1.89l0.72 0.59c1.8,1.48 4.06,2.28 6.39,2.28 2.33,0 4.59,-0.81 6.39,-2.28l0.72 -0.59c1.49,-1.22 3.36,-1.89 5.29,-1.89l7.35 0c4.47,0 8.09,3.62 8.09,8.09l0 24.58c0,0.95 1.15,1.44 1.82,0.77 3.24,-3.2 8.28,-3.09 8.28,-3.09l0 -30.04c0,-10.11 -8.19,-18.3 -18.3,-18.3z"/>
   <path class="fil14" d="M166.78 58.9l-17.57 0c10.01,0 18.14,8.04 18.29,18.02 4.18,0.31 7.48,3.8 7.48,8.06l0 24.58c0,0.95 1.15,1.44 1.82,0.77 3.24,-3.2 8.28,-3.09 8.28,-3.09l-0 -30.04c0,-10.11 -8.19,-18.3 -18.3,-18.3z"/>
  </g>
 </g>
</svg>
