<?xml version="1.0" encoding="UTF-8"?>
<!DOCTYPE svg PUBLIC "-//W3C//DTD SVG 1.1//EN" "http://www.w3.org/Graphics/SVG/1.1/DTD/svg11.dtd">
<!-- Creator: CorelDRAW 2020 (64-Bit) -->
<svg xmlns="http://www.w3.org/2000/svg" xml:space="preserve" width="10.3952in" height="9.74123in" version="1.1" style="shape-rendering:geometricPrecision; text-rendering:geometricPrecision; image-rendering:optimizeQuality; fill-rule:evenodd; clip-rule:evenodd"
viewBox="0 0 338.23 316.95"
 xmlns:xlink="http://www.w3.org/1999/xlink"
 xmlns:xodm="http://www.corel.com/coreldraw/odm/2003">
 <defs>
  <style type="text/css">
   <![CDATA[
    .fil4 {fill:#FEFEFE;fill-rule:nonzero}
    .fil25 {fill:#F48E92;fill-rule:nonzero}
    .fil9 {fill:#F7F7F6;fill-rule:nonzero}
    .fil18 {fill:#EFEFEF;fill-rule:nonzero}
    .fil0 {fill:#EAEAE9;fill-rule:nonzero}
    .fil10 {fill:#E5E6E5;fill-rule:nonzero}
    .fil2 {fill:#D9DAD9;fill-rule:nonzero}
    .fil28 {fill:#C46E70;fill-rule:nonzero}
    .fil21 {fill:#CED1D1;fill-rule:nonzero}
    .fil6 {fill:#42616A;fill-rule:nonzero}
    .fil8 {fill:#384E55;fill-rule:nonzero}
    .fil27 {fill:#354B53;fill-rule:nonzero}
    .fil29 {fill:#33484E;fill-rule:nonzero}
    .fil17 {fill:#2A2F32;fill-rule:nonzero}
    .fil1 {fill:#00B3A9;fill-rule:nonzero}
    .fil11 {fill:#2C3C43;fill-rule:nonzero}
    .fil13 {fill:#222124;fill-rule:nonzero}
    .fil30 {fill:#00AF9C;fill-rule:nonzero}
    .fil26 {fill:#00AB93;fill-rule:nonzero}
    .fil16 {fill:#05202D;fill-rule:nonzero}
    .fil15 {fill:#666666;fill-rule:nonzero}
    .fil20 {fill:gray;fill-rule:nonzero}
    .fil12 {fill:#97E2DD;fill-rule:nonzero}
    .fil14 {fill:#B3B3B3;fill-rule:nonzero}
    .fil23 {fill:#E93939;fill-rule:nonzero}
    .fil24 {fill:#ED5E51;fill-rule:nonzero}
    .fil3 {fill:#F06A5F;fill-rule:nonzero}
    .fil19 {fill:#F06A5F;fill-rule:nonzero}
    .fil7 {fill:#FE917D;fill-rule:nonzero}
    .fil22 {fill:#FEC8BE;fill-rule:nonzero}
    .fil5 {fill:#FFC6BE;fill-rule:nonzero}
   ]]>
  </style>
 </defs>
 <g id="Layer_x0020_1">
  <metadata id="CorelCorpID_0Corel-Layer"/>
  <path class="fil0" d="M288.7 150.27c33.02,19.06 49.53,44.05 49.53,69.03l0 0.02c-0,24.98 -16.52,49.97 -49.53,69.03 -33.02,19.07 -76.3,28.6 -119.58,28.6 -43.28,0 -86.56,-9.53 -119.58,-28.6 -33.02,-19.07 -49.53,-44.05 -49.53,-69.04 0,-24.99 16.51,-49.98 49.53,-69.04 66.04,-38.13 173.12,-38.13 239.17,-0z"/>
  <g id="_1638818246352">
   <polygon class="fil0" points="169.12,286.26 22.61,201.68 169.12,117.2 315.62,201.68 "/>
   <polygon class="fil1" points="22.61,201.68 22.61,208.69 169.12,293.28 169.12,286.26 "/>
   <polygon class="fil2" points="169.12,293.28 22.61,208.69 22.61,201.68 169.12,286.26 "/>
   <polygon class="fil1" points="169.12,293.28 315.62,208.69 315.62,201.68 169.12,286.26 "/>
   <polygon class="fil2" points="169.12,293.28 169.12,286.26 315.62,201.68 315.62,208.69 "/>
   <path class="fil1" d="M274.08 182.06c-0.53,-3.65 1,-11.6 4.09,-16.9 3.1,-5.3 8.54,-9.63 12.99,-8.81 4.14,0.77 4.47,6 0.19,10.13 -4.28,4.13 -13.47,11.91 -14.71,18.14l-0.72 5.49 -1.85 -8.05z"/>
   <path class="fil3" d="M274.88 185.56l-0.03 -0.14c1.15,-12.25 9.33,-23.12 14.83,-26.13 0.13,-0.07 0.18,-0.24 0.11,-0.37 -0.05,-0.09 -0.14,-0.14 -0.23,-0.14 -0.04,0 -0.09,0.01 -0.13,0.03 -5.37,2.94 -13.26,13.23 -14.93,25.04l-0.41 -1.8c-0.07,-0.48 -0.1,-1.04 -0.1,-1.65 0,-4.05 1.51,-10.65 4.2,-15.24 2.84,-4.86 7.66,-8.91 11.86,-8.91 0.38,0 0.76,0.03 1.12,0.1 2.13,0.4 3.26,1.98 3.25,3.99 -0,1.88 -0.99,4.14 -3.07,6.14 -3.14,3.02 -8.91,8.02 -12.26,12.92 -1.6,1.63 -3.1,3.73 -4.21,6.16z"/>
   <path class="fil4" d="M274.54 187.1c0.11,-0.03 0.2,-0.13 0.21,-0.25 0.62,-12.82 9.22,-24.43 14.93,-27.55 0.13,-0.07 0.18,-0.24 0.11,-0.37 -0.07,-0.13 -0.23,-0.18 -0.37,-0.11 -5.82,3.18 -14.58,14.98 -15.21,28 -0.01,0.15 0.11,0.27 0.26,0.28l0.07 -0.01z"/>
   <path class="fil1" d="M274.46 197.88c0.29,-2.14 2.3,-5.89 5.94,-9.28 4.03,-3.75 9.5,-6.01 10.46,-8.61 1.15,-3.12 -1.69,-5.5 -6.22,-4.26 -4.52,1.25 -11.7,8.72 -11.61,18.37l1.43 3.77z"/>
   <path class="fil5" d="M274.46 197.88l-1.43 -3.77c-0,-0.06 -0,-0.11 -0,-0.17 -0.01,-9.57 7.12,-16.97 11.61,-18.2 0.84,-0.23 1.62,-0.34 2.33,-0.34 2.53,0 4.14,1.36 4.14,3.24 0,0.43 -0.08,0.88 -0.26,1.36 -0.96,2.6 -6.42,4.86 -10.46,8.61 -3.65,3.39 -5.66,7.15 -5.94,9.28z"/>
   <path class="fil4" d="M273.25 195.86c0.1,-0.02 0.18,-0.1 0.2,-0.21 2.26,-11.24 9.86,-16.18 13.56,-17.22 0.14,-0.04 0.23,-0.19 0.19,-0.33 -0.04,-0.14 -0.18,-0.23 -0.33,-0.19 -4.09,1.15 -11.64,6.16 -13.94,17.63 -0.03,0.15 0.07,0.29 0.21,0.32l0.11 -0z"/>
   <path class="fil1" d="M65.5 178.49c0,0 0.47,-7.89 -2.33,-14.57 -2.8,-6.68 -7.44,-11.35 -12.31,-12.6 -4.87,-1.25 -9.65,2.59 -4.91,6.63 4.74,4.04 13.56,8.86 15.85,21.28l3.7 -0.74z"/>
   <path class="fil3" d="M65.52 176.68c-0.32,-0.85 -0.67,-1.69 -1.18,-2.44 -0.04,-0.06 -0.08,-0.12 -0.12,-0.17 -3.33,-12.54 -11.71,-19.08 -15.85,-20.83 -0.03,-0.01 -0.07,-0.02 -0.1,-0.02 -0.1,0 -0.2,0.06 -0.25,0.16 -0.06,0.14 0.01,0.29 0.14,0.35 3.93,1.66 11.78,7.76 15.24,19.4 -1.02,-0.97 -2.33,-1.62 -3.72,-1.83 -0.21,-0.03 -0.43,-0.05 -0.64,-0.07 -3.67,-6.8 -9.53,-10.27 -13.09,-13.3 -1.38,-1.18 -1.95,-2.34 -1.95,-3.36 0,-2.03 2.27,-3.52 4.97,-3.52 0.61,0 1.25,0.08 1.89,0.24 4.87,1.25 9.5,5.92 12.31,12.6 1.98,4.72 2.33,10.05 2.36,12.77z"/>
   <path class="fil4" d="M64.4 176.22l0.05 -0.01c0.14,-0.03 0.24,-0.17 0.2,-0.32 -2.97,-13.74 -11.95,-20.82 -16.28,-22.65 -0.14,-0.06 -0.29,0.01 -0.35,0.14 -0.06,0.14 0.01,0.29 0.14,0.35 4.25,1.79 13.05,8.75 15.97,22.27 0.03,0.13 0.14,0.21 0.26,0.21z"/>
   <path class="fil1" d="M44.65 172.36c0.11,1.05 0.96,1.85 1.77,2.53 0.81,0.67 1.69,1.41 1.91,2.44 0.45,2.08 -2.02,4 -1.49,6.07 0.22,0.86 0.95,1.52 1.74,1.94 0.65,0.36 1.36,0.58 2.04,0.87 0.34,0.1 0.68,0.19 1.03,0.25 1.01,0.17 2.07,0.47 2.8,1.25 1.14,1.24 1,3.13 1.4,4.76 0.49,1.95 1.93,3.6 3.74,4.47 1.51,0.72 3.99,1.14 4.63,0.57 0.48,-0.43 0.08,-2.33 0.26,-2.95 0.46,-1.59 0.77,-3.23 0.93,-4.88 0.08,-0.8 0.14,-1.46 0.39,-2.23 0.27,-0.8 0.53,-1.61 0.79,-2.42 0.28,-0.88 0.71,-1.5 0.68,-2.48 -0.03,-0.94 -0.32,-1.86 -0.62,-2.74 -0.3,-0.87 -0.61,-1.74 -0.92,-2.61 -0.37,-1.02 -0.76,-2.05 -1.37,-2.95 -1.06,-1.56 -2.79,-2.65 -4.66,-2.93 -1.55,-0.23 -3.25,0.13 -4.75,-0.43 -1.45,-0.55 -2.77,-1.41 -4.3,-1.79 -1.61,-0.4 -3.43,-0.26 -4.76,0.8 -0.75,0.59 -1.32,1.52 -1.22,2.47z"/>
   <path class="fil5" d="M63.11 197.77c-1.04,0 -2.5,-0.35 -3.52,-0.84 -1.8,-0.87 -3.25,-2.51 -3.74,-4.47 -0.41,-1.63 -0.26,-3.53 -1.4,-4.76 -0.72,-0.78 -1.79,-1.08 -2.8,-1.25 -0.34,-0.06 -0.69,-0.14 -1.03,-0.25 -0.68,-0.29 -1.39,-0.52 -2.04,-0.87 -0.79,-0.42 -1.51,-1.07 -1.74,-1.94 -0.05,-0.21 -0.08,-0.41 -0.08,-0.61 0,-1.66 1.61,-3.25 1.62,-4.93 0,-0.17 -0.02,-0.35 -0.05,-0.52 -0.22,-1.03 -1.11,-1.77 -1.91,-2.44 -0.81,-0.68 -1.66,-1.48 -1.77,-2.53 -0.01,-0.07 -0.01,-0.14 -0.01,-0.21 -0,-0.88 0.54,-1.71 1.23,-2.26 0.89,-0.71 2.01,-1.01 3.13,-1.01 0.55,0 1.11,0.07 1.64,0.21 1.54,0.38 2.85,1.25 4.3,1.79 1.49,0.56 3.2,0.2 4.75,0.43 1.87,0.28 3.6,1.37 4.66,2.93 0.61,0.9 1,1.93 1.37,2.95 0.31,0.87 0.62,1.74 0.92,2.61 0.09,0.25 0.17,0.51 0.25,0.77l0 3.62c-0.1,0.26 -0.21,0.53 -0.31,0.82 -0.26,0.81 -0.52,1.62 -0.79,2.42 -0.26,0.77 -0.32,1.42 -0.39,2.23 -0.15,1.65 -0.46,3.29 -0.93,4.88 -0.04,0.13 -0.05,0.32 -0.05,0.53 0,0.39 0.04,0.88 0.04,1.33 0,0.49 -0.05,0.92 -0.25,1.1 -0.21,0.18 -0.61,0.26 -1.11,0.26z"/>
   <path class="fil4" d="M65.02 193.32l0.02 0c0.13,0 0.24,-0.1 0.24,-0.23 0.46,-14.93 -13.51,-21.3 -16.99,-22.07 -0.13,-0.03 -0.25,0.05 -0.28,0.18 -0.03,0.13 0.05,0.25 0.18,0.28 3.41,0.76 17.07,6.99 16.62,21.59 -0,0.12 0.09,0.23 0.21,0.24z"/>
   <path class="fil4" d="M50.44 181.53l0.14 -0.04c0.05,-0.03 4.65,-2.93 10.73,-0.62 0.12,0.05 0.26,-0.02 0.31,-0.14 0.05,-0.12 -0.02,-0.26 -0.14,-0.31 -6.31,-2.39 -11.11,0.64 -11.16,0.67 -0.11,0.07 -0.14,0.22 -0.07,0.33 0.04,0.07 0.12,0.11 0.19,0.11z"/>
   <path class="fil6" d="M63.36 7.56l-4.71 2.72c0.02,-0.21 0.04,-0.42 0.04,-0.62l0 -1.37c0,-2.43 -1.71,-3.42 -3.81,-2.2 -0.85,0.49 -1.64,1.27 -2.27,2.18 -0.34,-3.06 -2.74,-4.19 -5.66,-2.51 -3.15,1.82 -5.7,6.24 -5.7,9.88l0 2.04c0,0.94 0.17,1.73 0.48,2.37l-3.92 2.26c-1.17,0.67 -2.11,2.31 -2.11,3.66 0,1.35 0.95,1.89 2.11,1.22l25.55 -14.75c1.17,-0.67 2.11,-2.31 2.11,-3.66 0,-1.35 -0.95,-1.89 -2.11,-1.22z"/>
   <path class="fil6" d="M270.73 3.41l6.25 3.61c-0.03,-0.28 -0.05,-0.56 -0.05,-0.83l0 -1.81c0,-3.22 2.26,-4.53 5.05,-2.92 1.13,0.65 2.17,1.69 3.01,2.89 0.46,-4.05 3.63,-5.56 7.49,-3.33 4.17,2.41 7.56,8.27 7.56,13.09l0 2.71c0,1.25 -0.23,2.3 -0.64,3.14l5.19 3c1.55,0.89 2.8,3.07 2.8,4.85 0,1.79 -1.25,2.51 -2.8,1.62l-33.85 -19.54c-1.55,-0.89 -2.8,-3.07 -2.8,-4.85 0,-1.79 1.25,-2.51 2.8,-1.62z"/>
   <path class="fil6" d="M244 21.61l4.71 2.72c-0.02,-0.21 -0.04,-0.42 -0.04,-0.62l0 -1.37c0,-2.43 1.71,-3.42 3.81,-2.2 0.85,0.49 1.64,1.27 2.27,2.18 0.34,-3.06 2.74,-4.2 5.65,-2.51 3.15,1.82 5.7,6.24 5.7,9.88l0 2.04c0,0.94 -0.17,1.74 -0.48,2.37l3.92 2.26c1.17,0.67 2.11,2.31 2.11,3.66 0,1.35 -0.95,1.9 -2.11,1.22l-25.55 -14.75c-1.17,-0.67 -2.12,-2.31 -2.12,-3.66 0,-1.35 0.95,-1.89 2.12,-1.22z"/>
   <polygon class="fil1" points="169.1,136.52 169.1,31.14 271.31,90.15 271.31,195.53 "/>
   <g>
    <path class="fil5" d="M271.31 189.68l-77.24 -44.6c-0.11,-0.58 -0.31,-1.12 -0.51,-1.7 -0.32,0.33 -0.71,0.58 -1.14,0.75l-0.42 -0.24c0.25,-0.53 0.47,-1.07 0.65,-1.63 0.1,-0.31 0.19,-0.64 0.19,-0.96 0,-0.15 -0.02,-0.29 -0.06,-0.44 -0.22,-0.71 -0.97,-1.09 -1.64,-1.39 -0.17,-0.07 -0.35,-0.15 -0.54,-0.15 -0.06,0 -0.13,0.01 -0.19,0.03 -0.27,0.1 -0.39,0.39 -0.53,0.65 -0.12,0.22 -0.33,0.45 -0.57,0.45 -0.03,0 -0.06,-0 -0.09,-0.01 0.1,-0.49 0.21,-0.99 0.21,-1.49 0,-0.19 -0.02,-0.38 -0.05,-0.57 -0.23,-1.22 -1.39,-1.55 -2.34,-2.08 -0.87,-0.48 -1.8,-0.99 -2.77,-1.24 -0.33,-0.09 -0.74,-0.26 -1.11,-0.26 -0.1,0 -0.19,0.01 -0.28,0.04 -0.53,0.17 -0.63,0.88 -0.82,1.33 -0.22,0.53 -0.43,1.08 -0.6,1.64l-12.36 -7.14 0 -99.53 102.21 59.01 0 99.53 0 0zm-66.72 -61.33l-1.3 0.75 32.57 18.8 1.3 -0.75 -1.3 -0.75 0 -31.21 -31.26 -18.05 -0 31.21z"/>
   </g>
   <polygon class="fil1" points="169.1,136.52 169.1,31.14 66.89,90.15 66.89,195.53 "/>
   <path class="fil5" d="M66.89 195.53l0 -105.38 102.21 -59.01 0 99.53 -0 0 0 5.85 -19.57 11.3 -0.01 -0.01 -4.91 -2.84 -1.44 -10.85c-0.15,-1.16 -1.11,-2.58 -2.12,-3.17l-0.82 -0.47 -0.68 -0.39c-0.51,-0.29 -1.17,-0.44 -1.84,-0.44 -0.53,0 -1.05,0.09 -1.5,0.27 -0.12,0.05 -0.23,0.1 -0.34,0.17l-24.29 14.03c-0.14,-0.03 -0.28,-0.07 -0.41,-0.11 -0.72,-0.22 -1.41,-0.5 -2.15,-0.65 -0.36,-0.07 -0.68,-0.11 -0.98,-0.11 -0.57,0 -1.09,0.12 -1.74,0.31 -1.81,0.55 -2.71,2.24 -2.73,2.27 -0.87,0.22 -1.41,0.76 -1.64,1.08 -0.47,0.63 -0.75,1.46 -0.87,2.24 -0.05,0.31 -0.07,0.63 -0.07,0.95 0,0.05 0,0.09 0,0.14l-17.89 10.34c-0.06,0.04 -0.13,0.08 -0.19,0.12 -0,0 -0,0 -0,0 0,0 0,-0 0.01,-0 -0.04,0.03 -0.09,0.06 -0.13,0.09 -0.86,0.67 -1.53,1.93 -1.53,2.97l0 23.47 -14.35 8.29 0 0zm19.47 -48l0 0 44.26 -25.55 -0 -27.05 -1 -0.58 -44.26 25.55 0 27.06 1 0.58z"/>
   <path class="fil7" d="M169.11 254.54l-102.22 -59.02 14.35 -8.29 0 6.16c0,0.55 0.18,1.15 0.48,1.7l-2.47 1.43c-1,0.57 -1,1.51 -0,2.08l26.81 15.48c0.5,0.29 1.15,0.43 1.8,0.43 0.65,0 1.3,-0.14 1.8,-0.43l13.16 -7.6c-1.87,2.6 -0.98,5.71 2.68,7.82 1.22,0.7 2.62,1.23 4.12,1.58l-3.22 1.86c-0.06,0.03 -0.09,0.1 -0.09,0.16 0,0.07 0.04,0.13 0.09,0.16l0.4 0.23 -2.03 1.17 31.75 18.39 50.87 -29.29 -1.72 -0.99 0.08 -0.05c0.06,-0.03 0.09,-0.1 0.09,-0.16 0,-0.07 -0.04,-0.13 -0.09,-0.16l-30.45 -17.58 -0.19 0 -3.09 1.79c-0.65,-0.74 -1.51,-1.44 -2.58,-2.06 -2.12,-1.23 -4.77,-1.98 -7.52,-2.24 -0.14,-0.56 -0.27,-1.11 -0.38,-1.57 0.01,-0.01 0.03,-0.02 0.04,-0.04l0 0c-0.04,-0.26 -0.11,-0.7 -0.2,-1.28l5.51 -3.18c0.99,-0.57 0.99,-1.51 0,-2.08l-1.8 -1.04c0.16,-0.4 0.24,-0.81 0.24,-1.2l0 -17.67c0,-0.13 -0.01,-0.26 -0.03,-0.4 1.99,-0.16 3.91,-0.69 5.44,-1.57 3.76,-2.17 3.76,-5.69 0,-7.86 -1.88,-1.09 -4.34,-1.63 -6.81,-1.63 -2.46,0 -4.93,0.54 -6.81,1.63 -0.91,0.52 -1.6,1.13 -2.07,1.77l-5.52 -3.19 19.57 -11.3 11.36 6.56c-0.09,0.2 -0.11,0.43 -0.11,0.67 0,0.17 0.01,0.33 0.03,0.49 0.06,0.66 0.19,1.42 0.78,1.72 0.24,0.12 0.51,0.14 0.78,0.14 0.1,0 0.2,-0 0.31,-0 0.03,0 0.05,-0 0.08,-0 0.42,0 0.84,0.04 1.26,0.11 0.2,0.03 0.42,0.1 0.5,0.28 0.02,0.04 0.03,0.08 0.03,0.13 -0,0.15 -0.1,0.3 -0.22,0.39 -0.16,0.12 -0.35,0.18 -0.53,0.27 -0.5,0.27 -0.69,0.58 -0.69,0.9 0,0.11 0.02,0.22 0.06,0.33 -0.46,0.6 -0.67,1.24 -0.65,1.88 -0.62,3.2 0.15,8.49 1.54,11.59 -1.32,1.49 -0.9,3.37 1.26,4.62 1.34,0.78 3.11,1.16 4.87,1.16 1.76,0 3.52,-0.39 4.87,-1.16 2.17,-1.25 2.59,-3.13 1.26,-4.62 1.06,-2.36 1.75,-5.98 1.76,-8.99l28.49 16.45c-0.02,0.18 -0.04,0.38 -0.05,0.62 -0.01,0.15 -0.01,0.31 -0.01,0.46 0,0.66 0.07,1.23 0.07,1.23 0,0 -0.44,-0.48 -0.93,-0.95 -0.41,-0.39 -0.64,-0.52 -0.79,-0.52 -0.05,0 -0.09,0.01 -0.13,0.04 -0.05,0.03 -0.09,0.14 -0.09,0.32 0,0.28 0.09,0.74 0.37,1.37 -0.66,-0.04 -1.33,-0.06 -1.99,-0.06 -4.76,0 -9.53,1.05 -13.16,3.15l0 0c-3.63,2.1 -5.45,4.85 -5.45,7.6l-0 0 0 1.48c0.03,1.72 0.77,3.44 2.23,5l0.29 5.72 0 0c0,0.13 0.09,0.26 0.27,0.37 0.18,0.1 0.41,0.16 0.65,0.16 0.23,0 0.47,-0.05 0.65,-0.16 0.18,-0.1 0.26,-0.23 0.27,-0.37l0 0 0.13 -2.49 0 0 0.07 -1.3c0.29,0.19 0.59,0.38 0.91,0.56 3.33,1.92 7.6,2.96 11.95,3.12l0.3 5.85 0 0c0,0.13 0.09,0.26 0.27,0.37 0.18,0.1 0.41,0.16 0.65,0.16 0.23,0 0.47,-0.05 0.65,-0.16 0.18,-0.1 0.26,-0.23 0.27,-0.37l0 0 0.23 -4.49 0 0 0.07 -1.35c4.35,-0.16 8.62,-1.2 11.95,-3.12 0.25,-0.15 0.5,-0.3 0.74,-0.45l0.19 3.68 0 0c0,0.13 0.09,0.26 0.27,0.37 0.18,0.1 0.41,0.16 0.65,0.16 0.23,0 0.47,-0.05 0.65,-0.16 0.18,-0.1 0.26,-0.23 0.27,-0.37l0 0 0.21 -4.11c0,-0 0,-0 0,-0l0.07 -1.42c1.58,-1.61 2.39,-3.4 2.41,-5.19l0 -1.48 -0 0c0,-2.62 -1.65,-5.24 -4.95,-7.3 -0.16,-0.1 -0.33,-0.2 -0.5,-0.3 -1.19,-0.69 -2.51,-1.27 -3.91,-1.73 -0.03,-0.05 -0.07,-0.09 -0.11,-0.14 -0.17,-0.19 -0.39,-0.38 -0.65,-0.55 0.04,-0.1 0.08,-0.2 0.12,-0.31l40.14 23.17 -102.2 59.02zm-23.33 -47.99c-0.61,-0.87 -1.52,-1.68 -2.73,-2.38 -2.42,-1.4 -5.6,-2.1 -8.78,-2.1 -1.63,0 -3.25,0.18 -4.78,0.55l3.84 -2.22c1.59,0.7 3.49,1.06 5.39,1.06 2.27,0 4.55,-0.5 6.28,-1.51 0.84,-0.48 1.48,-1.05 1.91,-1.65 0.68,0.87 1.61,1.68 2.85,2.4 1.07,0.62 2.27,1.11 3.56,1.49l-7.54 4.35zm10.35 -19.3l1.46 -0.84c0.01,0 0.02,0 0.02,0 0.07,0.2 0.15,0.42 0.23,0.65 -0.57,0.04 -1.14,0.11 -1.71,0.19zm73.58 -15.59c0,0 0.01,-0.05 0.03,-0.13l0.06 0.04c-0.06,0.06 -0.09,0.1 -0.09,0.1zm-1.94 -0.33c0,0 -0.08,-0.5 -0.21,-1.07l0.41 0.24c-0.13,0.49 -0.2,0.83 -0.2,0.83z"/>
   <polygon class="fil8" points="169.1,258.76 169.11,254.54 271.31,195.53 271.31,90.15 274.96,92.26 274.52,197.89 "/>
   <polygon class="fil6" points="169.12,258.76 169.11,254.54 66.91,195.53 66.91,90.15 63.25,88.04 63.69,197.89 "/>
   <polygon class="fil9" points="271.31,195.53 271.31,189.68 169.1,130.67 169.1,136.52 "/>
   <polygon class="fil10" points="66.89,195.53 66.89,189.68 169.1,130.67 169.1,136.52 "/>
   <polygon class="fil6" points="107.04,20.6 52.28,90.15 88.79,111.23 143.54,41.68 "/>
   <polygon class="fil11" points="52.28,90.15 52.28,94.37 88.79,115.44 88.79,111.23 "/>
   <polygon class="fil8" points="143.54,41.68 143.54,45.89 88.79,115.44 88.79,111.23 "/>
   <polygon class="fil8" points="175.03,32.14 107.04,20.6 216.55,83.83 284.54,95.37 "/>
   <polygon class="fil11" points="143.54,45.89 216.55,88.04 216.55,83.83 143.54,41.68 "/>
   <polygon class="fil6" points="216.55,88.04 284.54,99.58 284.54,95.37 216.55,83.83 "/>
   <polygon class="fil2" points="71.35,51.46 85.14,59.42 85.14,84.68 71.35,76.72 "/>
   <polygon class="fil0" points="85.14,59.42 98.93,51.46 98.93,67.17 85.14,84.68 "/>
   <polygon class="fil6" points="85.14,37.92 69.92,46.69 69.92,50.66 85.14,59.42 100.36,50.66 100.36,46.69 "/>
   <polygon class="fil8" points="85.14,40.86 85.14,52.51 75.02,46.68 "/>
   <polygon class="fil11" points="85.14,40.86 95.26,46.68 85.14,52.51 "/>
   <polygon class="fil8" points="69.92,50.66 85.14,59.42 85.14,55.44 69.92,46.69 "/>
   <polygon class="fil11" points="100.36,50.66 85.14,59.42 85.14,55.44 100.36,46.69 "/>
   <polygon class="fil6" points="237.15,147.15 235.85,147.9 203.29,129.1 204.59,128.34 "/>
   <polygon class="fil1" points="204.59,128.34 235.85,146.4 235.85,115.18 204.59,97.13 "/>
   <polygon class="fil12" points="235.85,146.4 235.85,115.18 204.59,97.13 204.59,128.34 "/>
   <polygon class="fil8" points="219.57,105.03 219.57,137.75 218.26,137 218.26,104.28 "/>
   <polygon class="fil11" points="220.22,104.65 219.57,105.03 219.57,137.75 220.22,137.37 "/>
   <polygon class="fil9" points="219.57,105.03 218.26,104.28 218.92,103.9 220.22,104.65 "/>
   <path class="fil8" d="M203.29 96.38l32.57 18.8 0 32.72 -32.57 -18.8 0 -32.72zm-1.3 33.47l35.17 20.31 0 -35.73 -35.17 -20.31 0 35.72z"/>
   <polygon class="fil11" points="203.29,129.1 204.59,128.34 204.59,97.13 203.29,96.38 "/>
   <polygon class="fil6" points="201.98,94.12 203.28,93.37 238.46,113.68 237.15,114.43 "/>
   <polygon class="fil11" points="238.46,113.68 237.15,114.43 237.15,150.16 238.46,149.4 "/>
   <polygon class="fil11" points="219.57,105.78 218.27,105.03 218.27,105.78 219.57,106.53 "/>
   <polygon class="fil13" points="219.57,106.53 220.22,106.16 219.57,105.78 "/>
   <polygon class="fil8" points="156.51,237.85 124.76,219.47 126.79,218.3 132.45,221.57 132.45,221.57 132.45,221.57 156.84,235.65 156.93,235.68 157.03,235.65 205.66,207.57 207.38,208.56 "/>
   <polygon class="fil1" points="175.2,189.78 205.65,207.4 156.91,235.47 126.48,217.85 "/>
   <path class="fil14" d="M156.93 235.27l-5.39 -3.11 10.81 -0.01 -5.41 3.12zm-5.9 -3.49l-0 -6.52 11.27 6.51 -11.27 0.01zm11.99 -0.03l-26.75 -15.45c2.48,-0.23 4.86,-0.9 6.77,-2 0.2,-0.12 0.39,-0.23 0.57,-0.35l25.12 14.5 -5.71 3.3zm-12.37 -0.11l-8.42 -4.86 8.42 -1.62 0 6.48zm18.46 -3.41l-5.39 -3.11 10.8 -0.01 -5.41 3.12zm-27.21 -1.77l-0.01 -6.48 8.42 4.86 -8.41 1.62zm-0.37 -0.09l-8.42 -4.86 8.41 -1.62 0.01 6.48zm21.69 -1.62l-0 -6.52 11.27 6.51 -11.27 0.01zm11.99 -0.03l-28.66 -16.55c-0.11,-0.44 -0.3,-0.88 -0.56,-1.31l7.84 -4.53c0.94,0.25 1.92,0.43 2.92,0.55l0 4.47 0.07 0.14 0.16 0.04 8.91 -1.71 0.01 6.8 0.07 0.14 0.15 0.04 8.91 -1.71 0 6.81 0.06 0.13 0.13 0.05 11.5 -0.01 -11.5 6.64zm-12.37 -0.11l-8.42 -4.86 8.42 -1.62 0 6.48zm-30.08 -3.42l0 -4.85c0.5,0.04 1,0.05 1.51,0.05 0.45,0 0.9,-0.01 1.34,-0.04l5.57 3.22 -8.42 1.62zm-0.37 -0.1l-5.52 -3.19 3.3 -1.91c0.73,0.15 1.47,0.25 2.22,0.32l0 4.78zm21.7 -1.66l-0.01 -6.48 8.42 4.86 -8.41 1.62zm-0.37 -0.09l-8.42 -4.86 8.41 -1.62 0.01 6.48zm21.69 -1.62l-0 -6.52 11.27 6.51 -11.27 0.01zm11.99 -0.03l-25.53 -14.74c2.77,-0.26 5.43,-1.01 7.56,-2.23l23.68 13.67 -5.72 3.3zm6.09 -3.52l-5.39 -3.11 10.8 -0.01 -5.41 3.12zm-48.53 -0.01l0 -1.26c1.33,-1.3 1.9,-2.78 1.7,-4.24l6.72 3.88 -8.42 1.62zm-0.37 -0.1l-0.6 -0.35c0.21,-0.15 0.42,-0.31 0.6,-0.47l0 0.82zm21.7 -1.66l-0.01 -6.48 8.42 4.86 -8.41 1.62zm21.31 -1.72l-0 -6.52 11.27 6.51 -11.27 0.01zm11.99 -0.03l-26.09 -15.06c0.16,-1.33 -0.24,-2.67 -1.22,-3.9l2.95 -1.7 30.07 17.36 -5.71 3.3zm-12.36 -0.11l-8.42 -4.86 8.42 -1.62 0 6.48zm-30.08 -3.42l0 -4.2c0.82,0.08 1.65,0.13 2.48,0.13 0.53,0 1.07,-0.02 1.6,-0.05l4.34 2.51 -8.42 1.62zm21.32 -1.76l-0.01 -6.48 8.42 4.86 -8.41 1.62zm-0.37 -0.09l-8.28 -4.78c0.08,-0.05 0.16,-0.1 0.24,-0.15l8.03 -1.55 0.01 6.48zm-7.31 -5.46c1.48,-1.15 2.36,-2.47 2.65,-3.83l4.31 2.49 -6.96 1.34z"/>
   <path class="fil9" d="M126.86 217.91l30.07 17.36 48.34 -27.91 -30.07 -17.36 -48.34 27.91zm30.07 17.77l-0.09 -0.03 -30.45 -17.58c-0.06,-0.03 -0.09,-0.09 -0.09,-0.16 0,-0.07 0.04,-0.13 0.09,-0.16l48.72 -28.13 0.19 0 30.45 17.58c0.06,0.03 0.09,0.09 0.09,0.16 0,0.07 -0.04,0.13 -0.09,0.16l-48.72 28.13 -0.09 0.03z"/>
   <path class="fil9" d="M175.2 189.97c-0.07,0 -0.13,-0.03 -0.16,-0.09 -0.05,-0.09 -0.02,-0.2 0.07,-0.26l1.34 -0.77c0.09,-0.05 0.2,-0.02 0.26,0.07 0.05,0.09 0.02,0.2 -0.07,0.26l-1.34 0.77 -0.09 0.03z"/>
   <path class="fil9" d="M176.9 190.94c-0.07,0 -0.13,-0.03 -0.16,-0.09 -0.05,-0.09 -0.02,-0.2 0.07,-0.26l1.34 -0.78c0.09,-0.05 0.21,-0.02 0.26,0.07 0.05,0.09 0.02,0.2 -0.07,0.26l-1.34 0.77 -0.09 0.03z"/>
   <path class="fil9" d="M178.59 191.92c-0.06,0 -0.13,-0.03 -0.16,-0.09 -0.05,-0.09 -0.02,-0.2 0.07,-0.26l1.34 -0.77c0.09,-0.05 0.2,-0.02 0.26,0.07 0.05,0.09 0.02,0.2 -0.07,0.26l-1.34 0.77 -0.09 0.03z"/>
   <path class="fil9" d="M180.28 192.89c-0.07,0 -0.13,-0.03 -0.16,-0.09 -0.05,-0.09 -0.02,-0.2 0.07,-0.26l1.34 -0.77c0.09,-0.05 0.2,-0.02 0.26,0.07 0.05,0.09 0.02,0.2 -0.07,0.26l-1.34 0.77 -0.09 0.03z"/>
   <path class="fil9" d="M181.98 193.87c-0.06,0 -0.13,-0.03 -0.16,-0.09 -0.05,-0.09 -0.02,-0.2 0.07,-0.26l1.34 -0.78c0.09,-0.05 0.21,-0.02 0.26,0.07 0.05,0.09 0.02,0.2 -0.07,0.26l-1.34 0.78 -0.09 0.03z"/>
   <path class="fil9" d="M183.67 194.84c-0.06,0 -0.13,-0.03 -0.16,-0.09 -0.05,-0.09 -0.02,-0.2 0.07,-0.26l1.34 -0.78c0.09,-0.05 0.2,-0.02 0.26,0.07 0.05,0.09 0.02,0.2 -0.07,0.26l-1.34 0.78 -0.09 0.03z"/>
   <path class="fil9" d="M185.37 195.82c-0.06,0 -0.13,-0.03 -0.16,-0.09 -0.05,-0.09 -0.02,-0.2 0.07,-0.26l1.34 -0.78c0.09,-0.05 0.21,-0.02 0.26,0.07 0.05,0.09 0.02,0.2 -0.07,0.26l-1.34 0.78 -0.09 0.03z"/>
   <path class="fil9" d="M187.06 196.79c-0.07,0 -0.13,-0.03 -0.16,-0.09 -0.05,-0.09 -0.02,-0.2 0.07,-0.26l1.34 -0.77c0.09,-0.05 0.2,-0.02 0.26,0.07 0.05,0.09 0.02,0.2 -0.07,0.26l-1.34 0.77 -0.09 0.03z"/>
   <path class="fil9" d="M188.75 197.77c-0.07,0 -0.13,-0.03 -0.16,-0.09 -0.05,-0.09 -0.02,-0.21 0.07,-0.26l1.34 -0.77c0.09,-0.05 0.2,-0.02 0.26,0.07 0.05,0.09 0.02,0.2 -0.07,0.26l-1.34 0.77 -0.09 0.03z"/>
   <path class="fil9" d="M190.45 198.74c-0.06,0 -0.13,-0.03 -0.16,-0.09 -0.05,-0.09 -0.02,-0.2 0.07,-0.26l1.34 -0.77c0.09,-0.05 0.21,-0.02 0.26,0.07 0.05,0.09 0.02,0.2 -0.07,0.26l-1.34 0.77 -0.09 0.03z"/>
   <path class="fil9" d="M192.14 199.72c-0.06,0 -0.13,-0.03 -0.16,-0.09 -0.05,-0.09 -0.02,-0.2 0.07,-0.26l1.34 -0.77c0.09,-0.05 0.21,-0.02 0.26,0.07 0.05,0.09 0.02,0.2 -0.07,0.26l-1.34 0.77 -0.09 0.03z"/>
   <path class="fil9" d="M193.84 200.7c-0.07,0 -0.13,-0.03 -0.16,-0.09 -0.05,-0.09 -0.02,-0.2 0.07,-0.26l1.34 -0.78c0.09,-0.05 0.2,-0.02 0.26,0.07 0.05,0.09 0.02,0.2 -0.07,0.26l-1.34 0.78 -0.09 0.03z"/>
   <path class="fil9" d="M195.53 201.67c-0.07,0 -0.13,-0.03 -0.16,-0.09 -0.05,-0.09 -0.02,-0.2 0.07,-0.26l1.34 -0.78c0.09,-0.05 0.2,-0.02 0.26,0.07 0.05,0.09 0.02,0.2 -0.07,0.26l-1.34 0.78 -0.09 0.03z"/>
   <path class="fil9" d="M197.22 202.65c-0.06,0 -0.13,-0.03 -0.16,-0.09 -0.05,-0.09 -0.02,-0.2 0.07,-0.26l1.34 -0.78c0.09,-0.05 0.21,-0.02 0.26,0.07 0.05,0.09 0.02,0.2 -0.07,0.26l-1.34 0.78 -0.09 0.03z"/>
   <path class="fil9" d="M198.92 203.62c-0.06,0 -0.13,-0.03 -0.16,-0.09 -0.05,-0.09 -0.02,-0.2 0.07,-0.26l1.34 -0.77c0.09,-0.05 0.21,-0.02 0.26,0.07 0.05,0.09 0.02,0.21 -0.07,0.26l-1.34 0.77 -0.09 0.03z"/>
   <path class="fil9" d="M200.61 204.6c-0.07,0 -0.13,-0.03 -0.16,-0.09 -0.05,-0.09 -0.02,-0.2 0.07,-0.26l1.34 -0.77c0.09,-0.05 0.21,-0.02 0.26,0.07 0.05,0.09 0.02,0.2 -0.07,0.26l-1.34 0.77 -0.09 0.03z"/>
   <path class="fil9" d="M202.31 205.57c-0.07,0 -0.13,-0.03 -0.16,-0.09 -0.05,-0.09 -0.02,-0.2 0.07,-0.26l1.34 -0.77c0.09,-0.05 0.2,-0.02 0.26,0.07 0.05,0.09 0.02,0.2 -0.07,0.26l-1.34 0.77 -0.09 0.03z"/>
   <path class="fil9" d="M204 206.55c-0.06,0 -0.13,-0.03 -0.16,-0.09 -0.05,-0.09 -0.02,-0.2 0.07,-0.26l1.34 -0.77c0.09,-0.05 0.21,-0.02 0.26,0.07 0.05,0.09 0.02,0.21 -0.07,0.26l-1.34 0.77 -0.09 0.03z"/>
   <path class="fil9" d="M205.69 207.52c-0.07,0 -0.13,-0.03 -0.16,-0.09 -0.05,-0.09 -0.02,-0.2 0.07,-0.26l1.34 -0.78c0.09,-0.05 0.21,-0.02 0.26,0.07 0.05,0.09 0.02,0.2 -0.07,0.26l-1.34 0.78 -0.09 0.03z"/>
   <path class="fil9" d="M125.13 218.88c-0.06,0 -0.13,-0.03 -0.16,-0.09 -0.05,-0.09 -0.02,-0.2 0.07,-0.26l1.34 -0.78c0.09,-0.05 0.21,-0.02 0.26,0.07 0.05,0.09 0.02,0.2 -0.07,0.26l-1.34 0.78 -0.09 0.03z"/>
   <path class="fil9" d="M126.82 219.85c-0.06,0 -0.13,-0.03 -0.16,-0.09 -0.05,-0.09 -0.02,-0.2 0.07,-0.26l1.34 -0.78c0.09,-0.05 0.21,-0.02 0.26,0.07 0.05,0.09 0.02,0.2 -0.07,0.26l-1.34 0.78 -0.09 0.03z"/>
   <path class="fil9" d="M128.51 220.83c-0.07,0 -0.13,-0.03 -0.16,-0.09 -0.05,-0.09 -0.02,-0.2 0.07,-0.26l1.34 -0.78c0.09,-0.05 0.2,-0.02 0.26,0.07 0.05,0.09 0.02,0.2 -0.07,0.26l-1.34 0.78 -0.09 0.03z"/>
   <path class="fil9" d="M130.21 221.8c-0.06,0 -0.13,-0.03 -0.16,-0.09 -0.05,-0.09 -0.02,-0.2 0.07,-0.26l1.34 -0.77c0.09,-0.05 0.21,-0.02 0.26,0.07 0.05,0.09 0.02,0.2 -0.07,0.26l-1.34 0.77 -0.09 0.03z"/>
   <path class="fil9" d="M131.9 222.78c-0.06,0 -0.13,-0.03 -0.16,-0.09 -0.05,-0.09 -0.02,-0.2 0.07,-0.26l1.34 -0.77c0.09,-0.05 0.21,-0.02 0.26,0.07 0.05,0.09 0.02,0.2 -0.07,0.26l-1.34 0.77 -0.09 0.03z"/>
   <path class="fil9" d="M133.59 223.76c-0.07,0 -0.13,-0.03 -0.16,-0.09 -0.05,-0.09 -0.02,-0.2 0.07,-0.26l1.34 -0.77c0.09,-0.05 0.21,-0.02 0.26,0.07 0.05,0.09 0.02,0.21 -0.07,0.26l-1.34 0.77 -0.09 0.03z"/>
   <path class="fil9" d="M135.29 224.73c-0.07,0 -0.13,-0.03 -0.16,-0.09 -0.05,-0.09 -0.02,-0.21 0.07,-0.26l1.34 -0.77c0.09,-0.05 0.21,-0.02 0.26,0.07 0.05,0.09 0.02,0.2 -0.07,0.26l-1.34 0.77 -0.09 0.03z"/>
   <path class="fil9" d="M136.98 225.71c-0.07,0 -0.13,-0.03 -0.16,-0.09 -0.05,-0.09 -0.02,-0.2 0.07,-0.26l1.34 -0.78c0.09,-0.05 0.21,-0.02 0.26,0.07 0.05,0.09 0.02,0.2 -0.07,0.26l-1.34 0.78 -0.09 0.03z"/>
   <path class="fil9" d="M138.68 226.68c-0.06,0 -0.13,-0.03 -0.16,-0.09 -0.05,-0.09 -0.02,-0.2 0.07,-0.26l1.34 -0.78c0.09,-0.05 0.21,-0.02 0.26,0.07 0.05,0.09 0.02,0.2 -0.07,0.26l-1.34 0.78 -0.09 0.03z"/>
   <path class="fil9" d="M140.37 227.66c-0.06,0 -0.13,-0.03 -0.16,-0.09 -0.05,-0.09 -0.02,-0.2 0.07,-0.26l1.34 -0.78c0.09,-0.05 0.21,-0.02 0.26,0.07 0.05,0.09 0.02,0.2 -0.07,0.26l-1.34 0.78 -0.09 0.03z"/>
   <path class="fil9" d="M142.07 228.63c-0.07,0 -0.13,-0.03 -0.16,-0.09 -0.05,-0.09 -0.02,-0.21 0.07,-0.26l1.34 -0.77c0.09,-0.05 0.2,-0.02 0.26,0.07 0.05,0.09 0.02,0.2 -0.07,0.26l-1.34 0.77 -0.09 0.03z"/>
   <path class="fil9" d="M143.76 229.61c-0.06,0 -0.13,-0.03 -0.16,-0.09 -0.05,-0.09 -0.02,-0.21 0.07,-0.26l1.34 -0.77c0.09,-0.05 0.21,-0.02 0.26,0.07 0.05,0.09 0.02,0.2 -0.07,0.26l-1.34 0.77 -0.09 0.03z"/>
   <path class="fil9" d="M145.45 230.58c-0.06,0 -0.13,-0.03 -0.16,-0.09 -0.05,-0.09 -0.02,-0.2 0.07,-0.26l1.34 -0.77c0.09,-0.05 0.21,-0.02 0.26,0.07 0.05,0.09 0.02,0.2 -0.07,0.26l-1.34 0.77 -0.09 0.03z"/>
   <path class="fil9" d="M147.15 231.56c-0.06,0 -0.13,-0.03 -0.16,-0.09 -0.05,-0.09 -0.02,-0.2 0.07,-0.26l1.34 -0.77c0.09,-0.05 0.2,-0.02 0.26,0.07 0.05,0.09 0.02,0.2 -0.07,0.26l-1.34 0.77 -0.09 0.03z"/>
   <path class="fil9" d="M148.84 232.53c-0.07,0 -0.13,-0.03 -0.16,-0.09 -0.05,-0.09 -0.02,-0.2 0.07,-0.26l1.34 -0.78c0.09,-0.05 0.2,-0.02 0.26,0.07 0.05,0.09 0.02,0.2 -0.07,0.26l-1.34 0.78 -0.09 0.02z"/>
   <path class="fil9" d="M150.54 233.51c-0.06,0 -0.13,-0.03 -0.16,-0.09 -0.05,-0.09 -0.02,-0.2 0.07,-0.26l1.34 -0.78c0.09,-0.05 0.21,-0.02 0.26,0.07 0.05,0.09 0.02,0.2 -0.07,0.26l-1.34 0.78 -0.09 0.02z"/>
   <path class="fil9" d="M152.23 234.48c-0.07,0 -0.13,-0.03 -0.16,-0.09 -0.05,-0.09 -0.02,-0.2 0.07,-0.26l1.34 -0.77c0.09,-0.05 0.2,-0.02 0.26,0.07 0.05,0.09 0.02,0.2 -0.07,0.26l-1.34 0.78 -0.09 0.03z"/>
   <path class="fil9" d="M153.92 235.46c-0.06,0 -0.13,-0.03 -0.16,-0.09 -0.05,-0.09 -0.02,-0.21 0.07,-0.26l1.34 -0.77c0.09,-0.05 0.2,-0.02 0.26,0.07 0.05,0.09 0.02,0.2 -0.07,0.26l-1.34 0.77 -0.09 0.03z"/>
   <path class="fil9" d="M155.62 236.43c-0.07,0 -0.13,-0.03 -0.16,-0.09 -0.05,-0.09 -0.02,-0.21 0.07,-0.26l1.34 -0.77c0.09,-0.05 0.2,-0.02 0.26,0.07 0.05,0.09 0.02,0.2 -0.07,0.26l-1.34 0.77 -0.09 0.03z"/>
   <path class="fil9" d="M163.02 232.16l-0.09 -0.03 -30.45 -17.58c-0.09,-0.05 -0.12,-0.17 -0.07,-0.26 0.05,-0.09 0.17,-0.12 0.26,-0.07l30.45 17.58c0.09,0.05 0.12,0.17 0.07,0.26 -0.03,0.06 -0.1,0.09 -0.16,0.09z"/>
   <path class="fil9" d="M169.11 228.64l-0.09 -0.02 -30.45 -17.58c-0.09,-0.05 -0.12,-0.17 -0.07,-0.26 0.05,-0.09 0.17,-0.12 0.26,-0.07l30.45 17.58c0.09,0.05 0.12,0.17 0.07,0.26 -0.03,0.06 -0.1,0.09 -0.16,0.09z"/>
   <path class="fil9" d="M175.2 225.13l-0.09 -0.03 -30.45 -17.58c-0.09,-0.05 -0.12,-0.17 -0.07,-0.26 0.05,-0.09 0.17,-0.12 0.26,-0.07l30.45 17.58c0.09,0.05 0.12,0.17 0.07,0.26 -0.03,0.06 -0.1,0.09 -0.16,0.09z"/>
   <path class="fil9" d="M181.29 221.61l-0.09 -0.03 -30.45 -17.58c-0.09,-0.05 -0.12,-0.17 -0.07,-0.26 0.05,-0.09 0.17,-0.12 0.26,-0.07l30.45 17.58c0.09,0.05 0.12,0.17 0.07,0.26 -0.03,0.06 -0.1,0.09 -0.16,0.09z"/>
   <path class="fil9" d="M187.38 218.09l-0.09 -0.03 -30.45 -17.58c-0.09,-0.05 -0.12,-0.17 -0.07,-0.26 0.05,-0.09 0.17,-0.12 0.26,-0.07l30.45 17.58c0.09,0.05 0.12,0.17 0.07,0.26 -0.03,0.06 -0.1,0.09 -0.16,0.09z"/>
   <path class="fil9" d="M193.47 214.58l-0.09 -0.03 -30.45 -17.58c-0.09,-0.05 -0.12,-0.17 -0.07,-0.26 0.05,-0.09 0.17,-0.12 0.26,-0.07l30.45 17.58c0.09,0.05 0.12,0.17 0.07,0.26 -0.03,0.06 -0.1,0.09 -0.16,0.09z"/>
   <path class="fil9" d="M199.56 211.06l-0.09 -0.03 -30.45 -17.58c-0.09,-0.05 -0.12,-0.17 -0.07,-0.26 0.05,-0.09 0.17,-0.12 0.26,-0.07l30.45 17.58c0.09,0.05 0.12,0.17 0.07,0.26 -0.03,0.06 -0.1,0.09 -0.16,0.09z"/>
   <path class="fil9" d="M150.84 232.16l-0.13 -0.05 -0.06 -0.13 -0 -6.81 -8.91 1.71 -0.15 -0.04 -0.07 -0.14 -0.01 -6.8 -8.91 1.71 -0.16 -0.04 -0.07 -0.14 0 -7.03c0,-0.1 0.08,-0.19 0.19,-0.19 0.1,0 0.19,0.08 0.19,0.19l0 6.81 8.91 -1.71 0.15 0.04 0.07 0.14 0.01 6.8 8.91 -1.71 0.15 0.04 0.07 0.14 0 6.85 11.99 -0.01c0.1,0 0.19,0.08 0.19,0.19 0,0.1 -0.08,0.19 -0.19,0.19l-12.18 0.01z"/>
   <path class="fil9" d="M163.02 225.13l-0.13 -0.05 -0.06 -0.13 -0 -6.81 -8.91 1.71 -0.16 -0.04 -0.07 -0.14 -0.01 -6.8 -8.91 1.71 -0.15 -0.04 -0.07 -0.14 0 -7.03c0,-0.1 0.08,-0.19 0.19,-0.19 0.1,0 0.19,0.08 0.19,0.19l0 6.81 8.91 -1.71 0.15 0.04 0.07 0.14 0.01 6.8 8.91 -1.71 0.15 0.04 0.07 0.14 0 6.85 11.99 -0.01c0.1,0 0.19,0.08 0.19,0.19 0,0.1 -0.08,0.19 -0.19,0.19l-12.18 0.01z"/>
   <path class="fil9" d="M175.2 218.09l-0.13 -0.05 -0.06 -0.13 -0 -6.81 -8.91 1.71 -0.15 -0.04 -0.07 -0.14 -0.01 -6.8 -8.91 1.71 -0.16 -0.04 -0.07 -0.14 0 -7.04c0,-0.1 0.08,-0.19 0.19,-0.19 0.1,0 0.19,0.08 0.19,0.19l0 6.81 8.91 -1.71 0.15 0.04 0.07 0.14 0.01 6.8 8.91 -1.71 0.15 0.04 0.07 0.14 0 6.85 11.99 -0.01c0.1,0 0.19,0.08 0.19,0.19 0,0.1 -0.08,0.19 -0.19,0.19l-12.18 0.01z"/>
   <path class="fil9" d="M187.39 211.06l-0.13 -0.05 -0.06 -0.13 -0 -6.81 -8.91 1.71 -0.15 -0.04 -0.07 -0.14 -0.01 -6.8 -8.91 1.71 -0.15 -0.04 -0.07 -0.14 0 -7.04c0,-0.1 0.08,-0.19 0.19,-0.19 0.1,0 0.19,0.08 0.19,0.19l0 6.81 8.91 -1.71 0.15 0.04 0.07 0.14 0.01 6.8 8.91 -1.71 0.15 0.04 0.07 0.14 0 6.85 11.99 -0.01c0.1,0 0.19,0.08 0.19,0.19 0,0.1 -0.08,0.19 -0.19,0.19l-12.18 0.01z"/>
   <path class="fil15" d="M165.29 158.66c-0.11,-0.76 -0.51,-1.57 -1.06,-2.17 -0.23,-0.25 -0.49,-0.47 -0.76,-0.63l-8.43 -4.86c0.47,-0.64 1.16,-1.25 2.07,-1.77 1.88,-1.09 4.34,-1.63 6.81,-1.63 2.46,0 4.93,0.54 6.81,1.63 3.76,2.17 3.76,5.69 0,7.86 -1.53,0.88 -3.45,1.41 -5.44,1.57z"/>
   <path class="fil8" d="M159.21 149.32c-2.6,1.5 -2.6,3.94 0,5.44 2.6,1.5 6.83,1.5 9.43,0 2.6,-1.5 2.6,-3.94 0,-5.44 -2.6,-1.5 -6.83,-1.5 -9.43,0z"/>
   <path class="fil11" d="M170.59 152.04l-0.01 0c0,-0.99 -0.64,-1.97 -1.95,-2.72 -2.6,-1.5 -6.83,-1.5 -9.43,0 -1.3,0.75 -1.95,1.74 -1.95,2.72l-0.01 0 0 0.92c0.02,0.97 0.67,1.94 1.95,2.68 2.6,1.5 6.83,1.5 9.43,0 1.29,-0.74 1.94,-1.71 1.95,-2.68l0 -0.92z"/>
   <path class="fil8" d="M159.21 149.32c-2.6,1.5 -2.6,3.94 0,5.44 2.6,1.5 6.83,1.5 9.43,0 2.6,-1.5 2.6,-3.94 0,-5.44 -2.6,-1.5 -6.83,-1.5 -9.43,0z"/>
   <path class="fil6" d="M164.64 108.34l-1.44 0 0 43.27 0.01 0c-0.02,0.12 0.05,0.24 0.2,0.33 0.28,0.16 0.73,0.16 1.01,0 0.16,-0.09 0.22,-0.21 0.2,-0.33l0.01 0 0 -43.27z"/>
   <path class="fil3" d="M173.29 106.98l0 0 -2.31 -11.05 -14.12 0 -2.31 11.05 0 0c-0.63,1.76 0.24,3.66 2.6,5.03 3.74,2.16 9.79,2.16 13.53,0 2.36,-1.37 3.23,-3.27 2.6,-5.03z"/>
   <path class="fil9" d="M158.9 99.25c2.77,1.6 7.27,1.6 10.04,0 2.77,-1.6 2.77,-4.2 0,-5.8 -2.77,-1.6 -7.27,-1.6 -10.04,0 -2.77,1.6 -2.77,4.2 0,5.8z"/>
   <path class="fil2" d="M163.92 99.44c-1.66,0 -3.2,-0.37 -4.35,-1.03 -1.02,-0.59 -1.57,-1.32 -1.57,-2.06 0,-0.74 0.56,-1.48 1.57,-2.06 1.15,-0.66 2.69,-1.03 4.35,-1.03 1.66,0 3.2,0.37 4.35,1.03 1.02,0.59 1.57,1.32 1.57,2.06 0,0.74 -0.56,1.48 -1.57,2.06 -1.15,0.66 -2.69,1.03 -4.35,1.03z"/>
   <path class="fil8" d="M206.08 187.37c0,-0.19 0.13,-0.38 0.38,-0.53 0.51,-0.29 1.33,-0.29 1.84,0 0.25,0.15 0.38,0.34 0.38,0.53l-0.38 7.5 -0 0c-0,0.13 -0.09,0.26 -0.27,0.37 -0.36,0.21 -0.94,0.21 -1.3,0 -0.18,-0.1 -0.26,-0.23 -0.27,-0.37l-0 0 -0.38 -7.5z"/>
   <path class="fil16" d="M208.3 186.84c-0.51,-0.29 -1.33,-0.29 -1.84,0 -0.25,0.15 -0.38,0.34 -0.38,0.53l0.16 3.21c0.61,0.64 1.33,1.24 2.18,1.81l0.25 -5.02c0,-0.19 -0.13,-0.38 -0.38,-0.53z"/>
   <path class="fil8" d="M238.86 187.37c0,-0.19 -0.13,-0.38 -0.38,-0.53 -0.51,-0.29 -1.33,-0.29 -1.84,0 -0.25,0.15 -0.38,0.34 -0.38,0.53l0.38 7.5 0 0c0,0.13 0.09,0.26 0.27,0.37 0.36,0.21 0.94,0.21 1.3,0 0.18,-0.1 0.26,-0.23 0.27,-0.37l0 0 0.38 -7.5z"/>
   <path class="fil16" d="M238.48 186.84c-0.51,-0.29 -1.33,-0.29 -1.84,0 -0.25,0.15 -0.38,0.34 -0.38,0.53l0.26 5.14c0.83,-0.55 1.56,-1.13 2.16,-1.74l0.17 -3.4c0,-0.19 -0.13,-0.38 -0.38,-0.53z"/>
   <path class="fil8" d="M223.86 193.11c0,-0.19 -0.13,-0.38 -0.38,-0.53 -0.51,-0.29 -1.33,-0.29 -1.84,0 -0.25,0.15 -0.38,0.34 -0.38,0.53l0.38 7.5 0 0c0,0.13 0.09,0.26 0.27,0.37 0.36,0.21 0.94,0.21 1.3,0 0.18,-0.1 0.26,-0.23 0.27,-0.37l0 0 0.38 -7.5z"/>
   <path class="fil16" d="M223.71 196.12l0.15 -3.01c0,-0.19 -0.13,-0.38 -0.38,-0.53 -0.51,-0.29 -1.33,-0.29 -1.84,0 -0.25,0.15 -0.38,0.34 -0.38,0.53l0.15 3.01c0.76,0.03 1.53,0.03 2.29,0z"/>
   <path class="fil17" d="M241.18 182.67l-0.02 0c0,-2.75 -1.8,-5.5 -5.44,-7.6 -7.27,-4.2 -19.06,-4.2 -26.33,0 -3.63,2.1 -5.44,4.85 -5.44,7.6l-0.02 0 0 1.48c0.04,2.71 1.87,5.42 5.45,7.49 7.27,4.2 19.06,4.2 26.33,0 3.59,-2.07 5.41,-4.78 5.45,-7.49l0 -1.48z"/>
   <path class="fil1" d="M209.4 175.07c-7.27,4.2 -7.27,11 0,15.2 7.27,4.2 19.06,4.2 26.33,0 7.27,-4.2 7.27,-11 0,-15.2 -7.27,-4.2 -19.06,-4.2 -26.33,0z"/>
   <path class="fil8" d="M222.56 193.42c-4.76,0 -9.53,-1.05 -13.16,-3.15 -3.64,-2.1 -5.45,-4.85 -5.45,-7.6 0,-2.75 1.82,-5.5 5.45,-7.6 3.64,-2.1 8.4,-3.15 13.16,-3.15 0.66,0 1.33,0.02 1.99,0.06 0.09,0.22 0.21,0.45 0.35,0.71 0,0.01 0.01,0.01 0.01,0.02 -0.22,0.15 -0.41,0.31 -0.56,0.48 -0.06,0.07 -0.12,0.14 -0.17,0.22 -0.1,0.14 -0.17,0.29 -0.21,0.44 -0.38,1.06 -0.13,2.66 0.44,3.95 -1,0.93 -0.8,2.17 0.6,2.97 0.82,0.47 1.88,0.71 2.95,0.71 1.07,0 2.14,-0.24 2.95,-0.71 1.36,-0.78 1.58,-1.97 0.68,-2.89 0.6,-1.29 0.86,-2.93 0.48,-4.01 -0.05,-0.16 -0.13,-0.33 -0.24,-0.48 -0.01,-0.01 -0.01,-0.02 -0.02,-0.03 1.4,0.46 2.71,1.04 3.91,1.73 3.64,2.1 5.45,4.85 5.45,7.6 0,2.75 -1.82,5.5 -5.45,7.6 -3.63,2.1 -8.4,3.15 -13.16,3.15z"/>
   <polygon class="fil6" points="224.49,185.9 217.66,189.83 208.16,184.35 215,180.42 "/>
   <path class="fil18" d="M217.59 189.58l6.63 -3.84c-0.14,-0.41 -0.13,-0.9 0.03,-1.45l-6.6 3.8c0,0 -0.11,0.35 -0.07,1.48z"/>
   <path class="fil11" d="M217.94 187.65c-0.29,0.17 -0.53,0.58 -0.53,0.92l0 1.08c0,0.34 0.24,0.48 0.53,0.31l6.55 -3.79 0 -0.27 -6.48 3.73c-0.18,0.1 -0.32,0.02 -0.32,-0.18l0.01 -1c0,-0.2 0.14,-0.45 0.32,-0.55l6.47 -3.73 0 -0.3 -6.55 3.79z"/>
   <path class="fil11" d="M224.49 183.86l-9.49 -5.48 -6.55 3.79c-0.29,0.17 -0.53,0.58 -0.53,0.92l-0 1.08c0,0.17 0.06,0.29 0.16,0.34l9.5 5.48c-0.1,-0.06 -0.16,-0.18 -0.16,-0.34l-0 -1.08c0,-0.34 0.24,-0.75 0.53,-0.92l6.55 -3.79z"/>
   <path class="fil16" d="M217.56 188.05c-0.1,0.17 -0.16,0.36 -0.16,0.52l0 1.08c0,0.17 0.06,0.29 0.16,0.34l-9.5 -5.48c-0.1,-0.06 -0.16,-0.18 -0.16,-0.34l0 -1.08c0,-0.17 0.06,-0.36 0.16,-0.53l9.49 5.48z"/>
   <path class="fil16" d="M227.96 181.47c-1.07,0 -2.14,-0.24 -2.95,-0.71 -1.4,-0.81 -1.6,-2.04 -0.6,-2.97 0.26,0.58 0.59,1.1 0.96,1.48l0.03 0.03 0.06 0.06 0.12 0.11 0.04 0.03 0.1 0.08c0.06,0.04 0.12,0.08 0.19,0.12 0.58,0.34 1.35,0.51 2.11,0.51 0.77,0 1.53,-0.17 2.11,-0.51 0.06,-0.03 0.12,-0.08 0.18,-0.12l0.11 -0.08 0.03 -0.03 0.13 -0.11 0.05 -0.05 0.04 -0.04c0.35,-0.36 0.66,-0.85 0.92,-1.4 0.9,0.92 0.68,2.11 -0.68,2.89 -0.81,0.47 -1.88,0.71 -2.95,0.71z"/>
   <path class="fil10" d="M225.37 179.27c-1.42,-1.45 -2.25,-5.07 -0.87,-6.22l7.05 0c1.38,1.15 0.55,4.76 -0.87,6.21l-0.04 0.04 -0.05 0.05 -0.13 0.11 -0.03 0.03 -0.11 0.08c-0.06,0.04 -0.12,0.08 -0.18,0.12 -1.17,0.67 -3.06,0.67 -4.23,0 -0.06,-0.03 -0.12,-0.08 -0.19,-0.12l-0.1 -0.08 -0.04 -0.03 -0.12 -0.11 -0.06 -0.06 -0.03 -0.03z"/>
   <path class="fil9" d="M230.93 172.59c1.61,0.93 1.61,2.43 0,3.36 -1.61,0.93 -4.21,0.93 -5.82,0 -1.61,-0.93 -1.61,-2.43 0,-3.36 1.61,-0.93 4.21,-0.93 5.82,0z"/>
   <path class="fil10" d="M229.79 173.25c0.98,0.56 0.98,1.48 0,2.05 -0.98,0.56 -2.56,0.56 -3.54,0 -0.98,-0.56 -0.98,-1.48 0,-2.05 0.98,-0.56 2.56,-0.56 3.54,0z"/>
   <path class="fil2" d="M226.25 174.22c0.98,-0.56 2.56,-0.56 3.54,0 0.27,0.16 0.47,0.34 0.59,0.54 -0.12,0.2 -0.31,0.38 -0.59,0.54 -0.98,0.56 -2.56,0.56 -3.54,0 -0.27,-0.16 -0.47,-0.34 -0.59,-0.54 0.12,-0.2 0.31,-0.38 0.59,-0.54z"/>
   <path class="fil1" d="M229.58 174.76c0,0 0.69,-0.66 1.28,-1.7 0.59,-1.05 0.7,-2.45 0.4,-2.62 -0.31,-0.17 -1.55,1.23 -1.55,1.23 0,0 0.18,-0.85 0.13,-1.79 -0.05,-0.93 -0.28,-1.78 -0.55,-1.95 -0.27,-0.17 -0.86,1 -1.12,1.86 -0.26,0.85 -0.41,1.55 -0.41,1.55 0,0 -0.18,-1.15 -0.46,-1.96 -0.31,-0.88 -0.59,-1.08 -0.81,-1 -0.22,0.09 -0.36,0.5 -0.43,1.68 -0.04,0.82 0.05,1.69 0.05,1.69 0,0 -0.44,-0.48 -0.93,-0.95 -0.54,-0.51 -0.76,-0.59 -0.92,-0.49 -0.15,0.1 -0.2,0.9 0.63,2.4 0.73,1.32 1.56,2.06 1.56,2.06 0,0 1.15,0.74 3.11,0z"/>
   <path class="fil3" d="M227.9 175.08c-0.92,0 -1.43,-0.33 -1.43,-0.33 0,0 -0.83,-0.74 -1.56,-2.06 -0.56,-1.01 -0.72,-1.7 -0.72,-2.08 0,-0.18 0.04,-0.29 0.09,-0.32 0.04,-0.02 0.08,-0.04 0.13,-0.04 0.15,0 0.38,0.14 0.79,0.52 0.49,0.47 0.93,0.95 0.93,0.95l0 0c0,0 -0.07,-0.57 -0.07,-1.23 0,-0.15 0,-0.3 0.01,-0.46 0.06,-1.18 0.21,-1.59 0.43,-1.68 0.03,-0.01 0.06,-0.02 0.09,-0.02 0.2,0 0.45,0.25 0.72,1.02 0.28,0.81 0.46,1.96 0.46,1.96 0,0 0.15,-0.7 0.41,-1.55 0.24,-0.8 0.78,-1.87 1.06,-1.87 0.02,0 0.04,0.01 0.06,0.02 0.27,0.17 0.49,1.02 0.55,1.95 0.01,0.12 0.01,0.23 0.01,0.34 0,0.57 -0.07,1.08 -0.11,1.31 -0.02,0.09 -0.03,0.13 -0.03,0.13l0 0c0,0 1.1,-1.24 1.49,-1.24 0.02,0 0.05,0 0.06,0.01 0.11,0.06 0.17,0.28 0.17,0.58 0,0.37 -0.08,0.85 -0.25,1.34 -0.08,0.24 -0.19,0.48 -0.31,0.7 -0.59,1.05 -1.28,1.7 -1.28,1.7 -0.65,0.25 -1.22,0.33 -1.68,0.33z"/>
   <path class="fil19" d="M129.61 215.88c-1.5,-0.35 -2.91,-0.87 -4.12,-1.58 -3.66,-2.12 -4.55,-5.22 -2.68,-7.82l-13.16 7.6c-0.5,0.29 -1.15,0.43 -1.8,0.43 -0.65,0 -1.3,-0.14 -1.8,-0.43l-26.81 -15.48c-0.99,-0.57 -0.99,-1.51 0,-2.08l2.47 -1.43c0.34,0.62 0.82,1.18 1.36,1.49l23.93 13.82c0.07,0.04 0.14,0.08 0.22,0.11l0.05 0.02c0.1,0.05 0.21,0.08 0.32,0.12 0.39,0.13 0.82,0.19 1.26,0.19 0.57,0 1.13,-0.11 1.6,-0.32l0.02 -0.01 0.08 -0.04 0.14 -0.07 1.5 -0.86 0.02 -0.01c0.91,-0.53 1.66,-1.74 1.8,-2.82l0.41 0.24c0.25,0.15 0.59,0.22 0.92,0.22 0.33,0 0.67,-0.07 0.92,-0.22l0 0c3.04,-1.75 10.77,-6.22 18.79,-10.86 0.13,0.14 0.26,0.29 0.39,0.44 0.32,0.36 1.18,0.97 2.56,0.97 0.05,0 0.11,-0 0.16,-0 1.54,-0.05 2.09,-0.63 2.24,-0.84 0.1,-0.14 0.1,-0.42 0.06,-0.63 0,0 -0.01,-0 -0.03,-0.01 0.02,-0.06 0.03,-0.12 0.03,-0.18 0,-0.01 0,-0.03 0,-0.04 0,-0.57 -0.9,-0.96 -1.28,-1.19 -0.28,-0.17 -0.48,-0.3 -0.72,-0.48 0.43,-0.25 0.86,-0.5 1.29,-0.74 0.16,0.17 0.31,0.36 0.48,0.54 0.32,0.36 1.18,0.97 2.56,0.97 0.05,0 0.11,-0 0.16,-0 1.54,-0.05 2.09,-0.63 2.24,-0.84 0.1,-0.14 0.1,-0.42 0.06,-0.63 0,0 -0.01,-0 -0.03,-0.01 0.02,-0.06 0.03,-0.12 0.03,-0.18 0,-0.01 0,-0.03 0,-0.04 0,-0.57 -0.9,-0.96 -1.28,-1.19 -0.32,-0.19 -0.54,-0.34 -0.83,-0.57l5.25 -3.03c0.33,0.76 0.69,1.61 1.1,2.64 0.08,0.05 0.19,0.08 0.32,0.11 0.24,1.09 0.54,2.68 0.39,3.43 -0.03,0.13 -0.05,0.25 -0.07,0.35 -0.08,0.35 0.04,0.71 0.29,0.95 0.27,0.25 0.63,0.6 1.02,0.96 0.78,0.72 1.88,2.22 3.17,3.1 0.47,0.32 1.07,0.5 1.67,0.57l-2.94 1.7c-1.28,-0.37 -2.49,-0.87 -3.56,-1.49 -1.23,-0.72 -2.17,-1.53 -2.85,-2.4 -0.43,0.6 -1.07,1.16 -1.91,1.65 -1.73,1 -4.01,1.51 -6.28,1.51 -1.9,0 -3.8,-0.35 -5.39,-1.06l-3.84 2.22c1.52,-0.37 3.15,-0.55 4.78,-0.55 3.17,0 6.35,0.7 8.78,2.1 1.22,0.7 2.13,1.51 2.73,2.38l-1.1 0.63c-0.02,0.01 -0.03,0.02 -0.04,0.03l-12.13 7c-0.02,0.01 -0.04,0.02 -0.05,0.03l-2.84 1.64zm28.87 -16.66c-0.28,-0.26 -0.73,-0.67 -0.96,-0.9 -1.24,-1.32 -2.04,-2.55 -2.86,-3.98 -0.47,-0.81 -0.94,-2.75 -1.22,-4.04 0.03,-0.04 0.07,-0.08 0.09,-0.12l0 0c-0.06,-0.59 -0.21,-2.36 -0.43,-4.53l3.17 -1.83c0.44,0.93 0.78,1.58 1.24,2.58 0.02,0 0.05,0 0.07,0l-1.46 0.84c0.56,-0.08 1.13,-0.15 1.71,-0.19 0.32,0.96 0.62,2.12 0.47,2.75 -0.03,0.13 -0.06,0.25 -0.09,0.35 -0.09,0.34 0,0.71 0.25,0.96 0.26,0.27 0.61,0.63 0.98,1.01 0.74,0.76 1.78,2.3 3.03,3.24 0.45,0.34 1.02,0.54 1.6,0.64l-1.11 0.64c-0.02,0.01 -0.04,0.02 -0.05,0.03l-4.42 2.55zm7.8 -4.5c-0.26,-0.27 -0.63,-0.63 -0.82,-0.84 -1.18,-1.37 -1.92,-2.64 -2.68,-4.1 -0.29,-0.55 -0.61,-1.62 -0.87,-2.66 2.76,0.27 5.4,1.02 7.52,2.24 1.07,0.62 1.93,1.31 2.58,2.06l-2.97 1.71c-0.02,0.01 -0.04,0.02 -0.06,0.03l-2.71 1.56z"/>
   <path class="fil20" d="M134.27 216.4c-0.5,0 -1.01,-0.02 -1.51,-0.05l0 -1.64 2.85 1.65c-0.45,0.03 -0.9,0.04 -1.34,0.04zm-1.88 -0.08c-0.75,-0.07 -1.5,-0.17 -2.22,-0.32l2.22 -1.28 0 1.6zm3.89 -0.01l-3.32 -1.92 5.72 -3.3 4.96 2.86c-0.18,0.12 -0.37,0.24 -0.57,0.35 -1.91,1.1 -4.29,1.77 -6.77,2zm7.69 -2.59l-4.92 -2.84 5.53 -3.19 0 5.56c-0.19,0.16 -0.39,0.32 -0.6,0.47zm0.98 -0.81l0 -5.22 1.7 0.98c0.2,1.46 -0.37,2.94 -1.7,4.24zm1.6 -4.73l-1.41 -0.82 0.85 -0.49c0.26,0.43 0.45,0.87 0.56,1.31zm13.05 -5.12c-0.83,0 -1.66,-0.04 -2.48,-0.13l0 -2.28 4.08 2.35c-0.53,0.04 -1.07,0.05 -1.6,0.05zm2.26 -0.11l-4.28 -2.47c0.48,-0.07 0.86,-0.22 1.04,-0.4 0.2,-0.21 0.22,-0.4 0.13,-0.57l4.29 -2.48 6.39 3.69c-2.14,1.23 -4.79,1.97 -7.56,2.23zm-5.11 -0.06c-1,-0.12 -1.98,-0.3 -2.92,-0.55l2.92 -1.69 0 2.24zm13.04 -2.39l-0.14 -0.08 0.38 -0.07c-0.08,0.05 -0.16,0.1 -0.24,0.15zm-0.48 -0.4l0 -6.48 4.11 2.37c-0.28,1.36 -1.16,2.68 -2.65,3.83l-1.46 0.28zm-0.38 -0.1l-5.53 -3.19 1.3 -0.75c0.07,0 0.14,0 0.2,0 0.71,0 1.32,-0.15 1.56,-0.38 0.25,-0.24 0.24,-0.48 0.08,-0.69l2.38 -1.38 0 6.38zm4.55 -4.41l-3.99 -2.3 2.77 -1.6c0.97,1.23 1.38,2.57 1.22,3.9z"/>
   <path class="fil21" d="M130.16 216c-0.18,-0.04 -0.37,-0.08 -0.54,-0.12l2.84 -1.64c-0.04,0.03 -0.07,0.09 -0.07,0.14l0 0.33 -2.22 1.28zm2.79 -1.61l-0.28 -0.16c-0.01,-0.01 -0.02,-0.01 -0.03,-0.01 -0.02,-0.01 -0.04,-0.01 -0.07,-0.01 -0.02,0 -0.04,0 -0.07,0.01l12.13 -7c-0.04,0.03 -0.07,0.09 -0.07,0.15l0 0.33 -5.53 3.19 -0.28 -0.16c-0.03,-0.02 -0.06,-0.03 -0.09,-0.03 -0.07,0 -0.13,0.03 -0.16,0.09 -0.05,0.09 -0.02,0.2 0.07,0.26l0.09 0.05 -5.72 3.3zm12.18 -7.03l-0.27 -0.16c-0.03,-0.02 -0.07,-0.03 -0.1,-0.03 -0.03,0 -0.05,0 -0.07,0.01l1.1 -0.63c0.07,0.1 0.14,0.21 0.2,0.31l-0.85 0.49zm8.7 -5.02c-0.17,-0.04 -0.34,-0.09 -0.51,-0.14l2.94 -1.7c0.16,0.02 0.33,0.03 0.49,0.03l0 0.12 -2.92 1.69zm4.91 -2.83c-0.03,-0.05 -0.06,-0.1 -0.11,-0.15 -0.04,-0.04 -0.09,-0.09 -0.14,-0.14l4.42 -2.55c-0.02,0.01 -0.03,0.03 -0.04,0.05 -0.05,0.09 -0.02,0.2 0.07,0.26l0.1 0.06 -4.29 2.48zm4.67 -2.69l-0.28 -0.16c-0.03,-0.02 -0.06,-0.03 -0.09,-0.03 -0.02,0 -0.05,0 -0.07,0.01l1.11 -0.64c0.21,0.04 0.43,0.06 0.64,0.07l-1.3 0.75zm3.15 -1.82c-0.01,-0.01 -0.02,-0.02 -0.03,-0.03 -0.06,-0.07 -0.14,-0.15 -0.24,-0.25l2.71 -1.56c-0.02,0.01 -0.03,0.03 -0.04,0.05 -0.02,0.04 -0.03,0.09 -0.02,0.13l0 0.29 -2.38 1.38zm2.94 -1.7l-0.26 -0.15c-0.03,-0.02 -0.06,-0.03 -0.09,-0.04 -0.01,-0 -0.02,-0 -0.03,-0 -0.02,0 -0.04,0 -0.06,0.01l2.97 -1.71c0.08,0.1 0.17,0.19 0.24,0.29l-2.77 1.6z"/>
   <path class="fil21" d="M135.61 216.36l-2.85 -1.65 0 -0.32c0,-0.08 -0.05,-0.15 -0.12,-0.17 0.01,0 0.02,0.01 0.03,0.01l0.28 0.16 3.32 1.92c-0.22,0.02 -0.44,0.04 -0.66,0.05z"/>
   <path class="fil21" d="M143.62 213.95l-4.96 -2.86 -0.09 -0.05c-0.09,-0.05 -0.12,-0.17 -0.07,-0.26 0.03,-0.06 0.1,-0.09 0.16,-0.09 0.03,0 0.06,0.01 0.09,0.03l0.28 0.16 4.92 2.84c-0.11,0.08 -0.22,0.16 -0.34,0.24z"/>
   <path class="fil21" d="M146.64 208.66l-1.7 -0.98 0 -0.32c0,-0.07 -0.03,-0.12 -0.08,-0.16l0.27 0.16 1.41 0.82c0.04,0.16 0.07,0.32 0.1,0.49z"/>
   <path class="fil21" d="M161.2 203.01l-4.08 -2.35 0 -0.13c0.16,-0.01 0.31,-0.02 0.45,-0.05l4.28 2.47c-0.22,0.02 -0.44,0.04 -0.66,0.05z"/>
   <path class="fil21" d="M169.41 200.72l-6.39 -3.69 -0.1 -0.06c-0.09,-0.05 -0.12,-0.17 -0.07,-0.26 0.01,-0.02 0.03,-0.04 0.04,-0.05 0.02,-0.01 0.03,-0.02 0.05,-0.03 0.02,-0.01 0.04,-0.01 0.07,-0.01 0.03,0 0.06,0.01 0.09,0.03l0.28 0.16 5.53 3.19 0 0.33 0.07 0.14 0.15 0.04 0.5 -0.09 0.14 0.08c-0.11,0.07 -0.23,0.14 -0.35,0.21 -0.01,0 -0.01,0.01 -0.02,0.01z"/>
   <path class="fil21" d="M173.41 195.99l-4.11 -2.37 0 -0.33c0,-0.06 -0.03,-0.11 -0.07,-0.15l0.26 0.15 3.99 2.3c-0.02,0.13 -0.04,0.26 -0.06,0.39zm-4.48 -2.66c-0.01,-0.04 -0,-0.09 0.02,-0.13 0.01,-0.02 0.02,-0.04 0.04,-0.05 0.02,-0.02 0.04,-0.03 0.06,-0.03 0.02,-0.01 0.04,-0.01 0.06,-0.01 0.01,0 0.02,0 0.03,0 -0.01,-0 -0.01,-0 -0.02,-0 -0.1,0 -0.19,0.08 -0.19,0.19l0 0.04z"/>
   <path class="fil21" d="M132.76 216.35c-0.12,-0.01 -0.25,-0.02 -0.37,-0.03l0 -1.93c0,-0.06 0.03,-0.11 0.07,-0.14 0.02,-0.01 0.03,-0.02 0.05,-0.03 0.02,-0.01 0.04,-0.01 0.07,-0.01 0.02,0 0.05,0 0.07,0.01 0.07,0.03 0.12,0.09 0.12,0.17l0 1.96z"/>
   <path class="fil21" d="M144.56 213.24l0 -5.89c0,-0.06 0.03,-0.11 0.07,-0.15 0.01,-0.01 0.03,-0.02 0.04,-0.03 0.02,-0.01 0.05,-0.01 0.07,-0.01 0.04,0 0.07,0.01 0.1,0.03 0.05,0.03 0.08,0.09 0.08,0.16l0 5.54c-0.12,0.11 -0.24,0.23 -0.37,0.34z"/>
   <path class="fil21" d="M157.12 202.93c-0.12,-0.01 -0.25,-0.03 -0.37,-0.04l0 -2.36c0.03,0 0.06,0 0.09,0 0.1,0 0.19,-0 0.29,-0.01l0 2.41z"/>
   <path class="fil21" d="M169.15 200.51l-0.15 -0.04 -0.07 -0.14 0 -7.04c0,-0.1 0.08,-0.19 0.19,-0.19 0.01,0 0.02,0 0.02,0 0.04,0 0.07,0.02 0.09,0.04 0.04,0.03 0.07,0.09 0.07,0.15l0 6.81 1.46 -0.28c-0.23,0.18 -0.48,0.35 -0.74,0.52l-0.38 0.07 -0.5 0.09z"/>
   <path class="fil19" d="M161.37 184.22c-0.07,-0.43 -0.14,-0.93 -0.23,-1.48 0.06,-0.02 0.12,-0.05 0.17,-0.08 0.22,-0.13 0.34,-0.29 0.37,-0.46l0.01 0 0.23 -1.39c0,-0 0,-0 0,-0 0,-0 0,-0 0.01,-0 0,-0 0.01,-0 0.01,-0 0.01,-0.01 0.02,-0.01 0.03,-0.02l0.02 -0.01 1.5 -0.87c0.68,-0.39 1.28,-1.17 1.6,-1.99l1.8 1.04c0.99,0.57 0.99,1.51 0,2.08l-5.51 3.18z"/>
   <path class="fil6" d="M107.27 207.24l-3.79 0 0.61 3.7 0.01 0c0.03,0.17 0.15,0.33 0.37,0.46 0.51,0.29 1.33,0.29 1.83,0 0.22,-0.13 0.34,-0.29 0.37,-0.46l0.01 0 0.61 -3.7z"/>
   <path class="fil6" d="M87.98 196.01l-3.79 0 0.61 3.7 0.01 0c0.03,0.17 0.15,0.33 0.37,0.46 0.51,0.29 1.33,0.29 1.83,0 0.22,-0.13 0.34,-0.29 0.37,-0.46l0.01 0 0.61 -3.7z"/>
   <path class="fil11" d="M162.29 178.5l-3.79 0 0.61 3.7 0.01 0c0.03,0.17 0.15,0.33 0.37,0.46 0.51,0.29 1.33,0.29 1.83,0 0.22,-0.13 0.34,-0.29 0.37,-0.46l0.01 0 0.61 -3.7z"/>
   <path class="fil11" d="M142.99 167.27l-3.79 0 0.61 3.7 0.01 0c0.03,0.17 0.15,0.33 0.37,0.46 0.51,0.29 1.33,0.29 1.83,0 0.22,-0.13 0.34,-0.29 0.37,-0.46l0.01 0 0.61 -3.7z"/>
   <path class="fil8" d="M165.32 159.05l0 17.67c0,1.17 -0.83,2.6 -1.84,3.19l-1.5 0.87 -0.03 0.01c-0.59,0.33 -1.54,0.49 -2.3,0.39l-45.63 25.29c-0.05,1.14 -0.85,2.49 -1.82,3.06l-0.02 0.01 -1.5 0.86 -0.14 0.07 -0.08 0.04 -0.02 0.01c-0.82,0.38 -1.96,0.42 -2.85,0.13 -0.11,-0.03 -0.22,-0.07 -0.32,-0.12l-0.05 -0.02c-0.08,-0.03 -0.15,-0.07 -0.22,-0.11l-23.93 -13.82c-1.02,-0.59 -1.84,-2.02 -1.84,-3.19l-0 -29.63c0,-1.17 0.83,-2.6 1.84,-3.19l52.79 -30.49c1.02,-0.59 2.67,-0.59 3.68,0l1.5 0.86c1.01,0.59 1.97,2.01 2.12,3.17l1.44 10.85 18.87 10.9c1.01,0.58 1.84,2.02 1.84,3.19z"/>
   <path class="fil6" d="M141.04 130.95l-1.5 -0.87c-1.02,-0.59 -2.66,-0.59 -3.68,0l-52.79 30.5c-0.11,0.06 -0.22,0.14 -0.19,0.12 -0.84,0.59 -1.52,1.73 -1.63,2.76 0.14,-0.94 0.9,-1.28 1.82,-0.75 -0.12,-0.07 1.5,0.87 1.5,0.87 1.02,0.59 2.66,0.59 3.68,0l52.79 -30.49c1.02,-0.59 1.02,-1.54 0,-2.12z"/>
   <path class="fil16" d="M165.32 159.05l0 17.67c0,1.17 -0.83,2.6 -1.84,3.19l-1.5 0.87 -0.03 0.01c-0.59,0.33 -1.39,0.47 -2.15,0.41 -0.55,-0.04 -1.08,-0.18 -1.5,-0.42l-17.03 -9.84c-1.01,-0.58 -1.84,-2.02 -1.84,-3.19l0 -17.67c0,-1.17 0.82,-2.6 1.84,-3.19l3.34 -1.93 18.87 10.9c1.01,0.58 1.84,2.02 1.84,3.19z"/>
   <path class="fil6" d="M144.6 144.97l-3.34 1.93c-1.01,0.58 -1.01,1.54 0,2.12l17.03 9.83c1.01,0.58 1.84,2.02 1.84,3.19l0 17.67c0,1.17 0.83,1.65 1.84,1.06l1.5 -0.87c1.01,-0.58 1.84,-2.02 1.84,-3.19l0 -17.67c0,-1.17 -0.83,-2.6 -1.84,-3.19l-18.87 -10.89z"/>
   <path class="fil8" d="M160.14 162.04l0 17.67c0,1.17 0.83,1.65 1.84,1.06l1.5 -0.87c1.01,-0.58 1.84,-2.02 1.84,-3.19l0 -17.67c0,-0.58 -0.21,-1.23 -0.54,-1.81l-5.18 2.99c0.33,0.58 0.54,1.23 0.54,1.81z"/>
   <path class="fil16" d="M159.37 181.2c-0.17,0.36 -0.4,0.71 -0.67,1.01 -0.39,0.44 -1.22,0.92 -1.73,1.21 -6.47,3.74 -34.25,19.79 -40.72,23.53 -0.51,0.29 -1.33,0.29 -1.84,0l-5.98 -3.46 -11.97 -6.91c-1.02,-0.59 -1.84,-1.95 -1.84,-3.05 0,-1.1 0.82,-2.47 1.84,-3.05l6.79 -3.92 5.18 -2.99 28.74 -16.61c0.51,-0.29 1.17,-0.44 1.84,-0.44 0.67,0 1.33,0.14 1.84,0.44l17.03 9.84c1.02,0.59 1.84,1.95 1.84,3.05 0,0.43 -0.13,0.9 -0.34,1.35z"/>
   <path class="fil8" d="M116.25 202.97l42.54 -24.58c0.51,-0.29 0.92,-0.06 0.92,0.53l0 1.86c0,0.59 -0.41,1.3 -0.92,1.59l-42.54 24.58c-0.51,0.29 -0.92,0.06 -0.92,-0.53l0 -1.86c0,-0.59 0.41,-1.3 0.92,-1.59z"/>
   <path class="fil8" d="M137.16 157.84l-40.71 23.52c-1.02,0.59 -1.84,2.01 -1.84,3.19l0 3.72c0,1.17 0.82,2.6 1.84,3.19l17.03 9.83c1.02,0.59 2.66,0.59 3.68,0l40.7 -23.52c1.02,-0.59 1.84,-2.01 1.84,-3.19l0 -3.72c0,-1.17 -0.82,-2.6 -1.84,-3.19l-17.03 -9.83c-1.02,-0.59 -2.66,-0.59 -3.68,0z"/>
   <path class="fil16" d="M115.33 193.76l0 7.97c-0.67,0 -1.33,-0.15 -1.84,-0.44l-17.03 -9.83c-1.02,-0.59 -1.84,-2.01 -1.84,-3.19l0 -3.72c0,-1.1 0.73,-2.42 1.65,-3.07 -0.82,0.59 -0.76,1.46 0.19,2.01l17.03 9.83c0.51,0.29 1.17,0.44 1.84,0.44z"/>
   <path class="fil6" d="M117.17 193.32l40.7 -23.52c1.02,-0.59 1.02,-1.54 0,-2.12l-17.03 -9.83c-1.02,-0.59 -2.66,-0.59 -3.68,0l-40.71 23.52c-1.02,0.59 -1.02,1.54 0,2.12l17.03 9.83c1.02,0.59 2.66,0.59 3.68,0z"/>
   <path class="fil22" d="M153.19 189.07c0,0 0.74,4.01 1.47,5.27 0.82,1.42 1.62,2.66 2.86,3.98 0.27,0.29 0.88,0.81 1.1,1.05 0.2,0.21 0.24,0.45 -0.02,0.72 -0.5,0.52 -2.73,0.74 -4.02,-0.14 -1.29,-0.88 -2.39,-2.38 -3.17,-3.1 -0.39,-0.36 -0.75,-0.71 -1.02,-0.96 -0.26,-0.24 -0.37,-0.6 -0.29,-0.95 0.02,-0.1 0.05,-0.21 0.07,-0.35 0.24,-1.22 -0.67,-4.59 -0.67,-4.59 1.01,-1.53 2.33,-1.1 3.69,-0.92z"/>
   <path class="fil11" d="M150.03 196.11c0,0 -0.05,0.36 0.09,0.65 0.14,0.29 1,0.79 1.44,0.98 0.44,0.19 0.79,0.51 1.2,1.14 0.56,0.87 1.39,1.78 2.39,2.19 1,0.41 2.47,0.64 4.2,0.25 1.74,-0.39 1.83,-1.43 1.83,-1.43 0,0 0.05,-0.98 -0.39,-1.11 -0.44,-0.13 -10.76,-2.67 -10.76,-2.67z"/>
   <path class="fil8" d="M149.74 194.92c0.02,0.41 0.1,0.82 0.29,1.18 0.55,0.69 1.78,0.87 2.52,1.82 0.75,0.94 1.65,2.41 3.96,2.76 2.31,0.35 4.02,-0.45 4.41,-1.12 0.39,-0.67 -0.02,-1.27 -1.52,-2 -1.6,-0.77 -3.55,-2.94 -3.55,-2.94 -0.64,-0.74 -0.96,-1.75 -1.34,-2.64 -0.04,-0.09 -0.1,-0.19 -0.19,-0.19 -0.11,0 -0.16,0.15 -0.21,0.25 -0.09,0.17 -0.26,0.23 -0.43,0.3 -0.19,0.08 -0.39,0.15 -0.6,0.21 -0.4,0.12 -0.82,0.19 -1.24,0.21 -0.14,0.01 -0.3,0.02 -0.39,0.12 -0.08,0.09 -0.07,0.23 -0.06,0.35 0.02,0.15 0.05,0.31 0.09,0.46 0.02,0.07 0.04,0.15 0.02,0.22 -0.03,0.11 -0.14,0.18 -0.25,0.19 -0.11,0.01 -0.22,-0.03 -0.32,-0.08 -0.39,-0.2 -0.69,-0.47 -0.8,-0.9 0,0 -0.03,-0.23 -0.06,-0.44 -0.12,0.08 -0.24,0.2 -0.26,0.35 -0.03,0.18 -0.01,0.37 -0.03,0.55 -0.04,0.45 -0.08,0.9 -0.05,1.35z"/>
   <path class="fil16" d="M150.03 196.11c0,0 -0.05,0.36 0.09,0.65 0.14,0.29 1,0.79 1.44,0.98 0.44,0.19 0.79,0.51 1.2,1.14 0.56,0.87 1.39,1.78 2.39,2.19 1,0.41 2.47,0.64 4.2,0.25 1.74,-0.39 1.83,-1.43 1.83,-1.43 0,0 0.05,-0.98 -0.39,-1.11 -0.44,-0.13 -10.76,-2.67 -10.76,-2.67z"/>
   <path class="fil8" d="M149.74 194.92c0.02,0.41 0.1,0.82 0.29,1.18 0.55,0.69 1.78,0.87 2.52,1.82 0.75,0.94 1.65,2.41 3.96,2.76 2.31,0.35 4.02,-0.45 4.41,-1.12 0.39,-0.67 -0.02,-1.27 -1.52,-2 -1.6,-0.77 -3.55,-2.94 -3.55,-2.94 -0.64,-0.74 -0.96,-1.75 -1.34,-2.64 -0.04,-0.09 -0.1,-0.19 -0.19,-0.19 -0.11,0 -0.16,0.15 -0.21,0.25 -0.09,0.17 -0.26,0.23 -0.43,0.3 -0.19,0.08 -0.39,0.15 -0.6,0.21 -0.4,0.12 -0.82,0.19 -1.24,0.21 -0.14,0.01 -0.3,0.02 -0.39,0.12 -0.08,0.09 -0.07,0.23 -0.06,0.35 0.02,0.15 0.05,0.31 0.09,0.46 0.02,0.07 0.04,0.15 0.02,0.22 -0.03,0.11 -0.14,0.18 -0.25,0.19 -0.11,0.01 -0.22,-0.03 -0.32,-0.08 -0.39,-0.2 -0.69,-0.47 -0.8,-0.9 0,0 -0.03,-0.23 -0.06,-0.44 -0.12,0.08 -0.24,0.2 -0.26,0.35 -0.03,0.18 -0.01,0.37 -0.03,0.55 -0.04,0.45 -0.08,0.9 -0.05,1.35z"/>
   <path class="fil11" d="M150.57 193.78c0.11,0.09 0.23,0.17 0.37,0.24 0.1,0.05 0.21,0.09 0.32,0.08 0.11,-0.01 0.22,-0.08 0.25,-0.19 0.02,-0.07 -0,-0.15 -0.02,-0.22 0.32,0.99 1.46,2.34 1.36,2.43 -0.09,0.1 -1.91,-1.83 -2.29,-2.35l0 -0z"/>
   <path class="fil22" d="M161.27 184.34c0,0 0.84,4.14 1.51,5.43 0.76,1.46 1.5,2.73 2.68,4.1 0.26,0.3 0.84,0.85 1.05,1.09 0.19,0.21 0.22,0.46 -0.05,0.72 -0.53,0.5 -2.76,0.62 -4.01,-0.32 -1.25,-0.94 -2.28,-2.48 -3.03,-3.24 -0.37,-0.38 -0.72,-0.74 -0.98,-1.01 -0.25,-0.26 -0.34,-0.62 -0.25,-0.96 0.03,-0.1 0.06,-0.21 0.09,-0.35 0.29,-1.2 -1.07,-4.34 -1.07,-4.34 1.08,-1.48 2.69,-1.38 4.04,-1.13z"/>
   <path class="fil16" d="M158.1 191.61c0,0 -0.05,0.36 0.09,0.65 0.14,0.29 1,0.79 1.44,0.98 0.44,0.19 0.79,0.51 1.2,1.14 0.56,0.87 1.39,1.78 2.39,2.19 1,0.41 2.47,0.64 4.2,0.25 1.74,-0.39 1.83,-1.43 1.83,-1.43 0,0 0.05,-0.97 -0.39,-1.11 -0.44,-0.13 -10.76,-2.67 -10.76,-2.67z"/>
   <path class="fil8" d="M157.81 190.42c0.02,0.41 0.1,0.82 0.29,1.18 0.55,0.69 1.78,0.87 2.52,1.82 0.75,0.94 1.65,2.41 3.96,2.76 2.31,0.35 4.02,-0.45 4.41,-1.12 0.39,-0.67 -0.02,-1.27 -1.52,-2 -1.6,-0.77 -3.55,-2.94 -3.55,-2.94 -0.64,-0.74 -0.96,-1.75 -1.34,-2.64 -0.04,-0.09 -0.1,-0.19 -0.19,-0.19 -0.11,0 -0.16,0.14 -0.21,0.24 -0.09,0.17 -0.26,0.23 -0.43,0.3 -0.19,0.08 -0.39,0.15 -0.59,0.21 -0.4,0.12 -0.82,0.19 -1.24,0.21 -0.14,0.01 -0.3,0.02 -0.39,0.13 -0.08,0.09 -0.07,0.23 -0.06,0.35 0.02,0.15 0.05,0.31 0.09,0.46 0.02,0.07 0.04,0.15 0.02,0.23 -0.03,0.11 -0.14,0.18 -0.25,0.19 -0.11,0.01 -0.22,-0.03 -0.32,-0.08 -0.39,-0.2 -0.66,-0.48 -0.77,-0.9 0,0 -0.04,-0.23 -0.09,-0.44 -0.12,0.08 -0.24,0.2 -0.26,0.35 -0.03,0.18 -0.01,0.37 -0.03,0.55 -0.04,0.45 -0.08,0.9 -0.05,1.35z"/>
   <path class="fil11" d="M159.66 190.67c-0.74,-0.83 -1.01,-1.39 -1.01,-1.39l0 0c0.11,0.09 0.23,0.17 0.36,0.24 0.1,0.05 0.21,0.09 0.32,0.08 0.11,-0.01 0.22,-0.08 0.25,-0.19 0.02,-0.07 -0,-0.15 -0.02,-0.23 0.28,0.79 1.01,1.88 1.43,2.32 0.42,0.44 -0.59,-0.02 -1.33,-0.85z"/>
   <path class="fil23" d="M150.42 191.2c-0.4,0 -0.75,-0.05 -0.95,-0.16 -0.4,-1.04 -0.76,-1.88 -1.1,-2.64 -0.49,-1.11 -0.92,-2.05 -1.39,-3.18 -0.11,-0.27 -0.22,-0.55 -0.34,-0.85 -1.46,-3.81 -0.8,-6.1 -1.22,-6.9 0,0 -0.14,-0.08 -0.4,-0.23 -0.89,-0.53 -3.25,-1.92 -6.5,-3.82 -2.1,-1.23 -3.89,-2.26 -5.07,-3.38 -1.29,-1.23 -2.06,-2.97 -2.57,-4.74 0.17,0.03 0.4,0.07 0.7,0.1 0.45,0.4 1.19,1.11 2.04,2.12 0.85,1.01 1.28,1.47 1.72,1.85 0.25,0.21 0.62,0.4 1.04,0.4 0.33,0 0.68,-0.12 1,-0.43 0.91,-0.87 2.01,-3.43 2.73,-5.31 3.39,-1.59 4.47,-4.56 4.63,-5.07 2.71,1.53 12.09,6.96 13.57,9.55 1,1.75 2.9,14.95 3.24,17.01 -0.63,0.61 -2.68,0.92 -3.76,0.92 -0.11,0 -0.21,-0 -0.3,-0.01 -0.46,-1 -0.79,-1.65 -1.24,-2.58 -0.26,-0.54 -0.55,-1.19 -0.93,-2.05 -0.18,-0.42 -0.35,-0.79 -0.49,-1.11 -0.52,-1.15 -0.84,-1.82 -1.22,-2.88 -0.82,-2.28 -0.92,-5.1 -0.92,-5.1l0 0 -5.02 -3.47 -4.06 -3.13c1.14,-2.56 0.8,-4.51 0.8,-4.51 -0.29,2.97 -2.04,4.48 -2.04,4.48l5.11 3.83c3.24,2.57 3.44,3.25 3.78,3.86 0.99,1.76 2.09,14.62 2.26,16.45 -0.39,0.62 -1.99,1.01 -3.11,1.01zm-14.04 -25.71c0,0 -0.07,-0.11 -0.18,-0.3 0.15,-0.03 0.29,-0.06 0.44,-0.09l-0.26 0.39z"/>
   <path class="fil24" d="M152.71 172.68l-5.22 -2.81 0 0 -5.11 -3.83c0,0 1.74,-1.5 2.04,-4.48 0,0 0.35,1.95 -0.8,4.51l4.06 3.13 5.02 3.47z"/>
   <path class="fil22" d="M150.38 153.69c0,0 -3.29,-4.5 -5.3,-7.28 -2.49,-3.44 -3.58,-3.58 -5.5,-3.39l2.01 7.89c0,0 5.57,6.04 6.6,6.92 1.03,0.88 2.11,1.14 3.72,-0.16 1.62,-1.32 5.28,-4.66 6.3,-5.64 1.02,-0.98 2.43,-1.93 3.2,-2.88 1.08,-1.33 0.68,-3.95 -0.49,-4.04 -0.68,-0.05 -1.1,0.62 -1.58,1.08 -0.62,0.58 -1.26,1.25 -1.74,1.68 -0.03,-0.27 0.18,-0.87 0.24,-1.13 0.06,-0.24 0.1,-0.49 0.04,-0.73 -0.04,-0.17 -0.25,-0.53 -0.48,-0.47 -0.16,0.04 -0.38,0.53 -0.47,0.66 -0.31,0.48 -0.58,0.98 -0.8,1.51 -0.14,0.33 -0.26,0.62 -0.29,0.97 -0.04,0.35 -0.17,1.06 -0.38,1.33 -0.97,1.23 -5.06,3.69 -5.06,3.69z"/>
   <path class="fil3" d="M139.33 143.02c1.2,-0.21 2.32,-0.26 3.36,0.6 1.05,0.86 2.61,2.62 4.8,5.98 0,0 -0.52,2.32 -4.08,3.77l-3.19 -3.61 -0.89 -6.74z"/>
   <path class="fil9" d="M133 143.32l-2.85 0.61c0,0 -0.2,6.96 -1.44,7.57 -0.16,6.51 1.89,13.72 1.89,13.72 0,0 3.53,0.95 8.62,-0.83 4.46,-1.56 5.56,-5.51 5.56,-5.51 0,0 -1.51,-2.12 -1.77,-2.98 -0.7,-2.3 -0.58,-6.42 -0.82,-7.99 -0.54,-3.61 -2.62,-4.88 -2.62,-4.88l-2.91 0 -3.67 0.3z"/>
   <path class="fil22" d="M130.13 144.33c-2.92,0.44 -3.39,2.1 -3.84,4.82 -0.39,2.38 -0.99,7.58 -1.77,10.62 -0.4,2.11 -0.95,5.48 -1.56,6.75 -0.15,0.3 -0.42,0.54 -0.75,0.68 -0.89,0.37 -1.56,1.09 -2.26,1.61 -0.55,0.4 -0.98,0.47 -0.93,0.62 0.06,0.2 0.36,0.54 0.97,0.44 0.31,-0.05 0.72,-0.22 1.25,-0.44 0,0 -0.47,0.87 -1.46,1.72 -1.33,1.15 -1.24,2.08 1.08,2.36 1.45,0.18 2.73,-0.51 4.24,-3.28 0.44,-0.8 0.99,-1.97 1.42,-3.03 1.02,-2.51 1.52,-3.91 2.13,-5.61 0.76,-2.11 1.04,-2.63 1.26,-4.18 0.29,-1.88 0.56,-4.36 0.86,-5.58 0.83,-3.39 0.27,-6.84 -0.65,-7.5z"/>
   <path class="fil3" d="M130.15 143.93c-1.45,0.16 -2.71,0.5 -3.65,2.07 -0.94,1.57 -1.82,8.29 -1.82,8.29 0,0 1.99,1.76 5.23,1.49l1.27 -6.02c0,0 1,-4.21 -1.03,-5.83z"/>
   <path class="fil16" d="M131.08 132.56c0.36,-0.37 0.97,-0.62 1.41,-0.22 0.07,0.06 0.12,0.15 0.16,0.24l0.07 0.16c0.18,0.47 0.07,0.89 0.09,1.36 0.02,0.4 0.04,0.8 0.06,1.2 0.03,0.51 0.05,1.02 0.08,1.53l0.31 -0.02 0.05 2.17 -0.03 1.8 -0.18 -0.02c-0.46,-0.1 -0.76,-0.47 -0.96,-0.87 -0.27,-0.54 -0.62,-1.04 -0.88,-1.6 -0.26,-0.57 -0.48,-1.16 -0.66,-1.77 -0.23,-0.78 -0.39,-1.59 -0.27,-2.39 0.08,-0.57 0.33,-1.14 0.73,-1.56l0.01 -0.01z"/>
   <path class="fil11" d="M142.1 132.09l0.08 -0.01 0.07 0.06c0.28,0.36 0.42,0.83 0.43,1.29 0.01,0.35 -0.06,0.71 -0.23,1.01 -0.17,0.31 -0.45,0.56 -0.79,0.66 -0.1,0.03 -0.21,0.05 -0.31,0.02 -0.11,-0.03 -0.21,-0.11 -0.29,-0.2 -0.14,-0.15 -0.25,-0.33 -0.35,-0.5 -0.18,-0.31 -0.35,-0.67 -0.27,-1.02l0.08 -0.16 0.13 -0.09c0.21,-0.11 0.37,-0.27 0.56,-0.4 0.17,-0.11 0.33,-0.23 0.49,-0.36 0.14,-0.11 0.22,-0.26 0.4,-0.31z"/>
   <path class="fil22" d="M133.32 137.18c-0.24,0.13 -0.55,-0.33 -0.82,-0.64 -0.27,-0.31 -1.19,-0.75 -1.69,0.21 -0.51,0.98 0.2,2.29 0.87,2.67 0.64,0.38 1.35,-0.26 1.35,-0.26l-0.17 4.45c0,0 1.07,1.45 3.32,1.69 1.56,0.17 1.89,-0.77 1.19,-1.7l0.05 -1.39c0,0 0.95,0.19 1.52,0.16 1.01,-0.05 1.61,-0.41 2.14,-1.97 0.5,-1.45 0.75,-2.74 0.61,-6.1 -0.15,-3.51 -4.56,-3.54 -6.8,-2.25 -2.24,1.29 -1.56,5.14 -1.56,5.14z"/>
   <path class="fil16" d="M133.31 137.57c-0.12,-0 -0.53,-0.75 -0.81,-1.03 -0.11,-0.11 -0.11,-0.34 -0.12,-0.49 -0.02,-0.51 0.09,-1 0.03,-1.5 -0.06,-0.49 -0.3,-0.93 -0.48,-1.38 -0.18,-0.48 -0.28,-1 -0.17,-1.5 0.12,-0.55 0.5,-1.01 0.97,-1.32 0.46,-0.31 1.01,-0.48 1.56,-0.59 1.19,-0.22 2.4,-0.15 3.61,-0.21 1.21,-0.06 2.46,-0.29 3.42,-1.02 0.08,-0.06 0.17,-0.12 0.26,-0.07l0.07 0.07c0.32,0.48 0.04,1.13 0.07,1.71 0.41,0.06 0.85,-0.03 1.2,-0.26 0.31,0.25 0.3,0.72 0.23,1.12 -0.12,0.66 -0.38,1.3 -0.84,1.8 -0.43,0.46 -1.22,0.43 -1.75,0.2l-0.1 -0.03 -0.14 0.1c-0.5,0.57 -1.33,0.72 -2.08,0.64 -0.75,-0.08 -1.47,-0.36 -2.21,-0.49 -0.28,-0.05 -0.59,-0.08 -0.87,-0 -0.35,0.1 -0.46,0.32 -0.65,0.61 -0.09,0.14 -0.18,0.27 -0.24,0.42 -0.06,0.16 -0.09,0.32 -0.12,0.49 -0.06,0.36 -0.19,2.76 -0.81,2.75z"/>
   <path class="fil25" d="M137.41 142.2c0,0 -2.06,-0.5 -2.77,-0.91 -0.48,-0.28 -0.86,-0.74 -0.96,-1.03 0,0 0.11,0.62 0.52,1.19 0.5,0.7 3.19,1.3 3.19,1.3l0.02 -0.55z"/>
   <path class="fil11" d="M137.15 136.72c-0.01,0.24 -0.2,0.42 -0.43,0.42 -0.23,-0.01 -0.41,-0.21 -0.4,-0.45 0.01,-0.24 0.2,-0.42 0.43,-0.42 0.23,0.01 0.41,0.21 0.4,0.45z"/>
   <path class="fil11" d="M136.57 135.06l-0.91 0.46c-0.12,-0.26 -0.02,-0.57 0.23,-0.7 0.25,-0.13 0.55,-0.02 0.67,0.24z"/>
   <path class="fil25" d="M136.85 139.42l1.35 0.54c-0.14,0.39 -0.56,0.58 -0.94,0.43 -0.37,-0.15 -0.56,-0.59 -0.41,-0.97z"/>
   <path class="fil11" d="M141.06 135.47l-0.79 -0.66c0.17,-0.23 0.49,-0.26 0.71,-0.08 0.22,0.18 0.25,0.51 0.08,0.74z"/>
   <path class="fil11" d="M140.73 136.82c-0.01,0.24 -0.2,0.42 -0.43,0.42 -0.23,-0.01 -0.41,-0.21 -0.4,-0.45 0.01,-0.24 0.2,-0.43 0.43,-0.42 0.23,0.01 0.41,0.21 0.4,0.45z"/>
   <polygon class="fil25" points="138.46,136.48 138.5,138.99 140.04,138.54 "/>
   <path class="fil22" d="M110.19 158.53c1.74,-0.08 2.67,0.32 3.84,1.53 1.17,1.21 6.48,6.46 6.48,6.46l-1.88 4 -7.93 -6.14 -0.52 -5.85z"/>
   <path class="fil16" d="M130.33 155.01c0.09,0.17 0.14,0.35 0.17,0.54 0.02,0.18 0.05,0.36 0.01,0.53 0.11,-0 0.24,0.04 0.34,0.11 0.15,0.12 0.27,0.27 0.35,0.44 0.12,0.26 0.13,0.58 0.04,0.85 0.28,0.15 0.48,0.43 0.55,0.73 0.09,0.39 -0.06,0.91 -0.37,1.17 0.23,0.23 0.35,0.56 0.31,0.88 -0.03,0.32 -0.21,0.62 -0.48,0.81 -0.08,0.05 -0.16,0.1 -0.2,0.18 -0.07,0.15 0.03,0.31 0.07,0.47 0.07,0.28 -0.09,0.57 -0.27,0.79 -0.19,0.22 -0.41,0.41 -0.55,0.66 -0.14,0.25 -0.15,0.61 0.07,0.79 -0.47,-0.28 -0.76,-0.83 -0.74,-1.38 0.02,-0.55 0.36,-1.07 0.85,-1.31 -0.15,-0.26 -0.3,-0.53 -0.34,-0.83 -0.04,-0.3 0.08,-0.64 0.35,-0.78 -0.3,-0.07 -0.56,-0.45 -0.67,-0.72 -0.12,-0.29 -0.14,-0.62 -0.06,-0.92 -0.21,-0.06 -0.39,-0.21 -0.5,-0.39 -0.11,-0.19 -0.14,-0.42 -0.08,-0.63 -0.55,-0.36 -0.76,-1.17 -0.38,-1.72 0.07,-0.1 0.11,-0.21 0.18,-0.31 0.1,-0.15 0.26,-0.26 0.4,-0.37 0.1,-0.07 0.2,-0.15 0.33,-0.15 0.13,-0 0.25,0.07 0.35,0.16 0.12,0.11 0.22,0.24 0.3,0.38z"/>
   <path class="fil22" d="M132.93 159.89c0.96,1.42 3.45,5.6 3.45,5.6l2.3 -3.39 2.21 -0.24c0,0 -1.99,6.03 -3.5,7.46 -0.74,0.7 -1.6,0.41 -2.04,0.03 -0.44,-0.38 -0.87,-0.84 -1.72,-1.85 -1.42,-1.68 -2.51,-2.52 -2.51,-2.52l-1.94 -6.73c0.96,0 2.5,-0.2 3.75,1.64z"/>
   <path class="fil25" d="M136.38 165.49c0,0 -0.64,0.55 -1.02,1.52 0,0 -0.04,-1.05 0.82,-1.86l0.2 0.34z"/>
   <path class="fil1" d="M141.12 157.66l0 0 -0.23 -0.2 0 0c-0.05,-0.04 -0.13,-0.05 -0.24,-0.02l-2.51 0.71c-0.23,0.07 -0.48,0.3 -0.56,0.53l-1.76 5.24c-0.04,0.12 -0.02,0.21 0.04,0.27l-0 0 0.24 0.2 0 -0c0.05,0.04 0.13,0.06 0.24,0.03l2.51 -0.71c0.23,-0.07 0.48,-0.3 0.56,-0.53 0.34,-1.03 1.41,-4.21 1.76,-5.24 0.04,-0.13 0.02,-0.23 -0.05,-0.28z"/>
   <path class="fil26" d="M136.1 164.39l-0 -0c0,0 0,0 0,0l0 0z"/>
   <path class="fil26" d="M136.1 164.39l-0.07 -0.06 0.06 0.05 0 0c-0.03,-0.03 -0.05,-0.08 -0.05,-0.14 0,-0.04 0.01,-0.08 0.02,-0.12l1.76 -5.23c0,-0.01 0.01,-0.03 0.02,-0.04 -0.01,0.01 -0.01,0.03 -0.02,0.04l-1.76 5.24c-0.02,0.05 -0.02,0.09 -0.02,0.13 0,0.06 0.02,0.11 0.06,0.14z"/>
   <path class="fil26" d="M135.86 164.19l-0 -0 0 -0 0 0c-0.04,-0.03 -0.06,-0.08 -0.06,-0.14 0,-0.01 0,-0.02 0,-0.03 -0,0.01 -0,0.02 -0,0.03 0,0.06 0.02,0.11 0.06,0.14l-0 0z"/>
   <path class="fil26" d="M138.93 163.68c0.21,-0.09 0.41,-0.3 0.48,-0.51 0.34,-1.01 1.38,-4.12 1.74,-5.19 -0.36,1.07 -1.4,4.18 -1.74,5.19 -0.07,0.2 -0.27,0.42 -0.48,0.51zm-1.52 -4.46l0.18 -0.53c0,-0 0,-0 0,-0.01 -0,0 -0,0 -0,0.01l-0.18 0.53z"/>
   <path class="fil6" d="M137.64 158.57c0.11,-0.19 0.31,-0.36 0.5,-0.41l2.51 -0.71c0.04,-0.01 0.08,-0.02 0.11,-0.02 0.05,0 0.1,0.01 0.13,0.04l0 -0 0.23 0.2 0 0c-0.03,-0.02 -0.08,-0.04 -0.13,-0.04 -0.03,0 -0.07,0.01 -0.11,0.02l-2.51 0.71c-0.1,0.03 -0.2,0.09 -0.29,0.16 0.01,-0 0.01,-0.01 0.02,-0.01l0 0 -0.26 -0.18c-0.08,0.07 -0.16,0.16 -0.21,0.25zm0.45 -0.05l0 0 0 0z"/>
   <path class="fil1" d="M136.06 164.12l1.76 -5.24c0.08,-0.23 0.33,-0.47 0.56,-0.53l2.51 -0.71c0.23,-0.07 0.36,0.07 0.28,0.3 -0.35,1.03 -1.41,4.21 -1.76,5.24 -0.08,0.23 -0.33,0.47 -0.56,0.53l-2.51 0.71c-0.23,0.07 -0.36,-0.07 -0.28,-0.3z"/>
   <path class="fil8" d="M136.23 164.43c-0.05,0 -0.1,-0.01 -0.13,-0.04 0,0 -0,0 -0,-0 -0.04,-0.03 -0.06,-0.08 -0.06,-0.15 -0,-0.04 0.01,-0.08 0.02,-0.13l1.76 -5.24c0,-0.01 0.01,-0.03 0.02,-0.04 0.05,-0.12 0.14,-0.24 0.25,-0.33l0 0c0,-0 0,-0 0,-0 0.09,-0.08 0.19,-0.13 0.29,-0.16l2.51 -0.71c0.04,-0.01 0.08,-0.02 0.11,-0.02 0.12,0 0.19,0.07 0.19,0.19 0,0.04 -0.01,0.08 -0.02,0.13 -0.35,1.03 -1.41,4.21 -1.76,5.24 -0.07,0.2 -0.27,0.42 -0.48,0.51 -0.03,0.01 -0.05,0.02 -0.08,0.03l-1.56 0.44 -0.95 0.27c-0.04,0.01 -0.08,0.02 -0.11,0.02z"/>
   <path class="fil1" d="M138.11 158.5c-0.13,0.1 -0.24,0.25 -0.29,0.39l-1.76 5.23c-0.04,0.12 -0.03,0.21 0.03,0.26l-0.23 -0.19 0 -0c-0.06,-0.05 -0.08,-0.14 -0.04,-0.27l1.76 -5.24c0.04,-0.13 0.14,-0.26 0.27,-0.37l0.26 0.18z"/>
   <path class="fil6" d="M136.09 164.38l-0.23 -0.19 0 -0 0 0c-0.04,-0.03 -0.06,-0.08 -0.06,-0.14 0,-0.04 0.01,-0.08 0.02,-0.12l1.76 -5.24c0.04,-0.13 0.14,-0.26 0.27,-0.37l0.26 0.18c-0.01,0 -0.01,0.01 -0.02,0.01 0,0 -0,0 -0,0l0 0c-0.11,0.09 -0.2,0.21 -0.25,0.33 -0.01,0.01 -0.01,0.03 -0.02,0.04l-1.76 5.23c-0.02,0.05 -0.02,0.09 -0.02,0.12 0,0.06 0.02,0.11 0.05,0.14z"/>
   <path class="fil22" d="M140.44 162.73c0.93,-1.33 0.73,-2.84 0.2,-3.23l-0.25 0.74c0,0 -1.58,0.53 -2.36,0.56 -0.78,0.02 -1.44,-0.09 -1.64,0.08 -0.42,0.37 -0.4,1.73 0.94,2.09 1.14,0.3 3.1,-0.23 3.1,-0.23z"/>
   <path class="fil22" d="M131.8 171c0,0 5.16,2.99 7.24,4.12 2.02,1.09 3.03,1.8 2.75,5.38 -0.28,3.6 -1.1,8.77 -1.1,8.77 -0.97,1.05 -2.24,2.55 -2.67,0.68l-0.08 -0.25c0.08,-0.21 0.1,-0.37 0.14,-0.6l-0.01 -0.26c0.04,-1.78 -1.62,-6.77 -0.87,-8.35l-6.37 -2.88 0.97 -6.61z"/>
   <path class="fil1" d="M137.03 180.52l-6.95 -2.82 -4.03 -4.38 5.76 -2.43 8.03 4.56c1.54,1.03 2.14,1.32 2.1,3.54 -0.04,2.22 -0.53,5.4 -0.53,5.4 0,0 -2.19,1.38 -4.05,0.43 0,0 -0.29,-1.23 -0.4,-2.31 -0.09,-0.79 0.08,-1.98 0.08,-1.98z"/>
   <path class="fil23" d="M138.81 185.14c-0.48,0 -0.97,-0.09 -1.45,-0.33 0,0 -0.17,-0.72 -0.3,-1.54l0 0c0.05,0.29 0.1,0.57 0.14,0.81 0.08,-1.07 0.41,-3.11 0.32,-3.8 -0.12,-0.96 -0.5,-1.55 -1.66,-2.29 -1.15,-0.73 -4.54,-2.93 -4.54,-2.93 0,0 0.66,-1.61 0.28,-2.46 0.1,-0.61 0.1,-1.15 0.2,-1.59l0 0 -0.36 0.04 0.36 -0.15 8.03 4.56c1.5,1 2.11,1.3 2.11,3.36 0,0.06 -0,0.12 -0,0.18 -0.04,2.22 -0.53,5.4 -0.53,5.4 0,0 -1.21,0.76 -2.6,0.76z"/>
   <path class="fil24" d="M137.2 184.08c-0.05,-0.24 -0.1,-0.52 -0.14,-0.81 0.05,-0.57 0.08,-1.15 0.09,-1.67 0,-0.07 0,-0.13 0,-0.19 -0,-2.05 -0.61,-2.36 -2.1,-3.35l-4.56 -2.81c0.74,-0.99 1,-1.88 1.12,-2.64 0.38,0.85 -0.28,2.46 -0.28,2.46 0,0 3.39,2.19 4.54,2.93 1.16,0.74 1.54,1.33 1.66,2.29 0.08,0.7 -0.24,2.73 -0.32,3.8z"/>
   <path class="fil16" d="M145.23 193.42c0.04,0.21 0.04,0.49 -0.06,0.63 -0.15,0.21 -0.7,0.79 -2.24,0.84 -1.48,0.05 -2.39,-0.59 -2.72,-0.96 -0.33,-0.37 -0.64,-0.74 -0.96,-1.04 -0.28,-0.26 -0.75,-0.41 -1.05,-0.48 -0.3,-0.07 -0.38,-0.17 -0.39,-0.59 0.06,-0.4 7.41,1.6 7.41,1.6z"/>
   <path class="fil1" d="M138.07 188.85c0.01,0.08 0.01,0.17 0.01,0.26 0,0 -0.09,0.58 0.31,0.69 0.47,0.13 0.42,-0.21 0.75,-0.51 0.72,-0.66 1.65,-0.68 1.91,-0.18 0.34,0.66 1.48,1.85 1.88,2.17 0.4,0.32 0.64,0.49 1.03,0.72 0.39,0.23 1.32,0.64 1.28,1.23 -0.04,0.59 -0.57,0.95 -1.3,1.12 -0.73,0.18 -1.96,0.18 -2.94,-0.36 -0.71,-0.39 -1.37,-1.2 -1.64,-1.43 -0.5,-0.42 -1.24,-0.46 -1.5,-0.67 -0.22,-0.29 -0.32,-0.77 -0.26,-1.31 0.05,-0.52 0.27,-0.98 0.27,-1.24 -0,-0.26 0.02,-0.45 0.21,-0.49z"/>
   <path class="fil8" d="M142.97 194.46c-0.63,0 -1.35,-0.12 -1.97,-0.46 -0.71,-0.39 -1.37,-1.2 -1.64,-1.43 -0.5,-0.42 -1.24,-0.46 -1.5,-0.67 -0.18,-0.23 -0.28,-0.6 -0.28,-1.01 0,-0.1 0.01,-0.2 0.02,-0.3 0.05,-0.52 0.27,-0.98 0.27,-1.24 0,-0 0,-0 0,-0 0,-0 0,-0 0,-0 0,-0.01 0,-0.02 0,-0.02 0,-0.25 0.03,-0.43 0.21,-0.46 0.01,0.08 0.01,0.17 0.01,0.25 0,0 0,0.01 0,0.01l0 0c0,0 -0.01,0.06 -0.01,0.14 0,0.18 0.04,0.48 0.32,0.55 0.07,0.02 0.13,0.03 0.18,0.03 0.28,0 0.29,-0.28 0.57,-0.54 0.39,-0.36 0.84,-0.53 1.22,-0.53 0.31,0 0.57,0.12 0.69,0.35 0.34,0.66 1.48,1.85 1.88,2.17 0.4,0.32 0.64,0.49 1.03,0.72 0.38,0.23 1.28,0.62 1.28,1.19 0,0.01 -0,0.03 -0,0.04 -0.04,0.59 -0.57,0.95 -1.3,1.12 -0.27,0.07 -0.6,0.11 -0.97,0.11z"/>
   <path class="fil0" d="M142.81 192.04c0.36,-0.14 0.69,-0.17 0.98,-0.14 0.08,-0.01 0.22,0.05 0.27,0.09 0.39,0.23 1.24,0.63 1.2,1.22 -0.05,0.59 -0.55,0.98 -1.28,1.16 -0.67,0.16 -1.86,0.24 -2.75,-0.26 0.01,-0.83 0.59,-1.68 1.57,-2.07z"/>
   <path class="fil22" d="M127.42 174.09c0,0 4.76,2.51 6.84,3.64 2.02,1.09 3.03,1.8 2.75,5.38 -0.28,3.6 -1.1,8.77 -1.1,8.77 -0.97,1.05 -2.24,2.55 -2.67,0.68l-0.08 -0.25c0.08,-0.21 0.1,-0.37 0.14,-0.6l-0.01 -0.26c0.04,-1.78 -1.62,-6.77 -0.87,-8.35l-9.69 -5.05 4.7 -3.98z"/>
   <path class="fil1" d="M132.25 183.13c0,0 -5.86,-3 -8.66,-4.34 -3.23,-1.55 -3.48,-3.67 -3.11,-6.69l11.32 -1.1c-0.21,1.01 0.01,2.47 -1.32,4.24l4.56 2.81c1.54,1.03 2.14,1.32 2.1,3.54 -0.04,2.22 -0.53,5.4 -0.53,5.4 0,0 -2.19,1.38 -4.05,0.43 0,0 -0.29,-1.23 -0.4,-2.31 -0.09,-0.79 0.08,-1.98 0.08,-1.98z"/>
   <path class="fil27" d="M132.15 184.67c-0,-0.03 -0,-0.05 -0,-0.08 0,0.03 0,0.05 0,0.08l0 0zm-10.43 -7.11c-0.01,-0 -0.02,-0.01 -0.03,-0.01 -0.97,-0.94 -1.31,-2.04 -1.34,-3.39 0.03,1.33 0.38,2.45 1.37,3.4z"/>
   <path class="fil23" d="M134.02 187.76c-0.48,0 -0.97,-0.09 -1.45,-0.33 0,0 -0.29,-1.23 -0.4,-2.31 -0.02,-0.14 -0.02,-0.29 -0.02,-0.45 -0,-0.03 -0,-0.05 -0,-0.08 0,-0.71 0.1,-1.45 0.1,-1.45l0 0c0,0 -2.21,-1.13 -4.57,-2.31 -1.08,-0.69 -2.4,-1.41 -3.76,-2.14 -0.62,-0.33 -1.39,-0.72 -2.2,-1.12 -0.98,-0.95 -1.33,-2.07 -1.37,-3.4 -0.01,-0.63 0.04,-1.31 0.13,-2.05l11.32 -1.1c-0.21,1.01 0.01,2.47 -1.32,4.24l0 0 4.56 2.81c1.49,1 2.1,1.3 2.1,3.35 0,0.06 -0,0.13 -0,0.19 -0.01,0.52 -0.04,1.1 -0.09,1.67l0 0c-0.15,1.87 -0.44,3.72 -0.44,3.72 0,0 -1.21,0.76 -2.6,0.76z"/>
   <path class="fil16" d="M140.44 196.03c0.04,0.21 0.04,0.49 -0.06,0.63 -0.15,0.21 -0.7,0.79 -2.24,0.84 -1.48,0.05 -2.39,-0.59 -2.72,-0.96 -0.33,-0.37 -0.64,-0.74 -0.96,-1.04 -0.28,-0.26 -0.76,-0.41 -1.05,-0.48 -0.3,-0.07 -0.39,-0.17 -0.39,-0.59 0.06,-0.4 7.41,1.6 7.41,1.6z"/>
   <path class="fil1" d="M133.29 191.46c0.01,0.08 0.01,0.17 0.01,0.26 0,0 -0.09,0.58 0.31,0.69 0.47,0.13 0.42,-0.21 0.75,-0.51 0.72,-0.66 1.65,-0.68 1.91,-0.18 0.34,0.66 1.48,1.85 1.88,2.17 0.4,0.32 0.64,0.49 1.03,0.72 0.39,0.23 1.32,0.64 1.28,1.23 -0.05,0.59 -0.57,0.94 -1.3,1.12 -0.73,0.18 -1.96,0.18 -2.94,-0.36 -0.71,-0.39 -1.37,-1.2 -1.64,-1.43 -0.5,-0.42 -1.24,-0.46 -1.5,-0.67 -0.22,-0.29 -0.32,-0.77 -0.26,-1.31 0.06,-0.52 0.27,-0.98 0.27,-1.24 -0,-0.26 0.02,-0.45 0.21,-0.49z"/>
   <path class="fil8" d="M138.18 197.07c-0.63,0 -1.35,-0.12 -1.97,-0.47 -0.71,-0.39 -1.37,-1.2 -1.64,-1.43 -0.5,-0.42 -1.24,-0.46 -1.5,-0.67 -0.18,-0.23 -0.28,-0.6 -0.28,-1.01 0,-0.1 0.01,-0.19 0.02,-0.3 0.06,-0.52 0.27,-0.98 0.27,-1.24 0,-0 0,-0 0,-0 0,-0.01 0,-0.02 0,-0.02 0,-0.25 0.03,-0.43 0.21,-0.46 0.01,0.08 0.01,0.17 0.01,0.26 0,0 -0.01,0.06 -0.01,0.14 0,0.18 0.04,0.48 0.32,0.55 0.07,0.02 0.13,0.03 0.18,0.03 0.28,0 0.29,-0.28 0.57,-0.54 0.39,-0.36 0.84,-0.53 1.22,-0.53 0.31,0 0.57,0.12 0.69,0.35 0.34,0.66 1.48,1.85 1.88,2.17 0.4,0.32 0.64,0.49 1.03,0.72 0.38,0.23 1.28,0.62 1.28,1.19 0,0.01 -0,0.03 -0,0.04 -0.05,0.59 -0.57,0.94 -1.3,1.12 -0.27,0.07 -0.6,0.11 -0.97,0.11z"/>
   <path class="fil0" d="M138.03 194.65c0.36,-0.14 0.69,-0.17 0.99,-0.14 0.08,-0.01 0.22,0.05 0.27,0.09 0.39,0.23 1.24,0.63 1.2,1.22 -0.05,0.59 -0.55,0.98 -1.28,1.16 -0.67,0.16 -1.87,0.24 -2.75,-0.26 0.01,-0.82 0.59,-1.68 1.57,-2.07z"/>
   <path class="fil23" d="M122.55 158.82c-0.98,0.16 -1.46,0.92 -1.69,1.89 -0.11,0.48 -0.07,1.05 0.06,2.08 0.12,1.02 0.68,5.5 0.68,5.5l-1.38 4.9c6.35,1.62 11.08,-0.88 11.76,-2.23 0,0 -0.22,-0.41 -0.86,-1.25 0.48,-2.19 0.42,-6.63 0.3,-7.55 -0.31,-2.35 -0.96,-3.61 -2.01,-3.86 -0.11,-0.03 -0.59,-0.06 -0.9,-0.04l-3.83 0.14 -2.13 0.44z"/>
   <path class="fil16" d="M124.44 157.1c-0.65,-1.03 -2.54,-2.1 -2.98,-3.95 -0.67,-2.8 1.01,-4.21 1.82,-4.32 0,0 0.39,-1.33 2.09,-2.09 1.47,-0.65 3.29,-0.47 4.65,0.37 0.74,0.46 1.37,1.03 1.72,1.8 0.37,0.81 0.51,1.94 0.24,2.79 -0.19,0.62 -0.66,1.12 -1.2,1.47 -0.55,0.35 -1.17,0.55 -1.8,0.72 -0.39,0.1 -0.78,0.19 -1.17,0.3 -0.19,0.05 -0.42,0.09 -0.6,0.18 -0.13,0.07 -0.23,0.21 -0.34,0.31 -0.66,0.58 -1.32,1.16 -1.97,1.73 -0.15,0.13 -0.33,0.56 -0.48,0.69z"/>
   <path class="fil22" d="M124.19 153.26l-0.05 0.04c-0.28,0.16 -0.49,-0.46 -0.63,-0.61 -0.12,-0.13 -0.28,-0.24 -0.46,-0.29 -0.33,-0.09 -0.69,0.02 -0.87,0.32 -0.38,0.62 -0.04,1.67 0.73,1.94 0.91,0.31 1.16,-0.31 1.16,-0.31l0.08 4.23c0,0 0.67,1.73 2.56,2.02 1.89,0.29 1.83,-1.26 1.22,-2.03l0.09 -1.13c0,0 0.69,0.07 1.41,-0.11 0.61,-0.15 1.07,-0.51 1.49,-1.42 0.12,-0.26 0.21,-0.52 0.29,-0.8 0.19,-0.67 0.23,-1.37 0.22,-2.06 -0.01,-0.46 -0.04,-0.91 -0.09,-1.36 -0.02,-0.23 -0.01,-0.47 -0.17,-0.65 -0.13,-0.15 -0.32,-0.25 -0.51,-0.3 -0.25,-0.07 -0.52,-0.06 -0.78,-0.06 -0.7,0.02 -1.54,0.27 -2.23,0.16 -0.69,-0.11 -1.22,-0.37 -1.75,-0.78 -0.04,0.55 -0.21,1.14 -0.39,1.43 -0.28,0.47 -0.68,0.69 -1.15,0.79 0.05,0.26 0.03,0.52 -0.05,0.77 -0.02,0.08 -0.06,0.16 -0.12,0.22z"/>
   <path class="fil11" d="M127.53 152.99c-0,0.23 -0.19,0.41 -0.4,0.4 -0.22,-0 -0.39,-0.19 -0.39,-0.42 0,-0.23 0.19,-0.41 0.4,-0.4 0.22,0 0.39,0.19 0.39,0.42z"/>
   <path class="fil11" d="M127.03 151.79l-0.85 0.45c-0.12,-0.24 -0.03,-0.54 0.21,-0.67 0.24,-0.12 0.52,-0.03 0.64,0.22z"/>
   <path class="fil28" d="M127.29 155.06l1.49 0.59c-0.16,0.43 -0.62,0.64 -1.03,0.48 -0.41,-0.16 -0.62,-0.64 -0.46,-1.07z"/>
   <path class="fil25" d="M127.26 155.54c0.1,-0.05 0.22,-0.07 0.34,-0.06 0.35,0.03 0.61,0.33 0.59,0.68 -0.14,0.03 -0.3,0.02 -0.44,-0.04 -0.26,-0.1 -0.43,-0.33 -0.49,-0.58z"/>
   <path class="fil11" d="M131.1 151.81l-0.91 -0.35c0.09,-0.26 0.36,-0.38 0.61,-0.29 0.25,0.1 0.38,0.38 0.29,0.64z"/>
   <path class="fil11" d="M130.84 153.02c-0,0.23 -0.19,0.41 -0.4,0.4 -0.22,-0 -0.39,-0.19 -0.39,-0.42 0,-0.23 0.19,-0.41 0.4,-0.4 0.22,0 0.39,0.19 0.39,0.42z"/>
   <polygon class="fil25" points="128.73,152.58 128.8,154.7 129.92,154.34 "/>
   <path class="fil25" d="M128.02 157.44c0,0 -1.89,-0.23 -2.73,-0.8 -0.39,-0.26 -0.74,-0.61 -0.83,-0.86 0,0 0.09,0.54 0.47,1 0.83,1.02 3.07,1.1 3.07,1.1l0.03 -0.45z"/>
   <path class="fil22" d="M125.74 176.91c0.4,0.24 0.8,0.84 1.46,1.13 0.38,0.17 0.76,0.19 1.16,0.33 0.21,0.07 0.63,0.17 0.8,0.3 0.2,0.15 0.51,0.52 0.72,0.66 0.4,0.28 0.53,0.31 1.02,0.38 0.34,0.05 0.7,0.03 0.99,-0.16 0.44,-0.28 0.39,-0.78 0.2,-1.2 -0.29,-0.63 -0.64,-1.24 -1.12,-1.73 -0.35,-0.36 -0.77,-0.66 -1.25,-0.84 -0.46,-0.17 -0.86,-0.4 -1.34,-0.52 -0.25,-0.06 -0.5,-0.11 -0.73,-0.23 -1.47,-0.76 -5.64,-4.14 -5.64,-4.14l0.56 -6.05c0,0 0.65,-4.46 -0.38,-5.93 0,0 -2.1,0.28 -2.83,1.57 -0.57,1.01 -0.82,5.27 -0.98,9.8 -0.06,1.8 -0.04,2.52 0.99,3.22 2.08,1.41 5.69,3 6.37,3.4z"/>
   <path class="fil16" d="M122.05 155.92c-0.03,0.19 -0.03,0.38 0.01,0.56 0.04,0.18 0.07,0.36 0.16,0.51 -0.11,0.03 -0.21,0.11 -0.28,0.21 -0.11,0.16 -0.18,0.34 -0.19,0.53 -0.03,0.29 0.06,0.59 0.23,0.82 -0.21,0.23 -0.32,0.56 -0.29,0.87 0.04,0.4 0.35,0.84 0.72,0.99 -0.14,0.29 -0.15,0.64 -0.02,0.94 0.13,0.3 0.4,0.53 0.71,0.61 0.09,0.03 0.19,0.04 0.25,0.11 0.12,0.12 0.07,0.31 0.09,0.47 0.03,0.29 0.26,0.51 0.51,0.66 0.25,0.15 0.52,0.26 0.73,0.46 0.21,0.2 0.33,0.53 0.18,0.78 0.35,-0.42 0.46,-1.03 0.27,-1.54 -0.19,-0.51 -0.68,-0.9 -1.22,-0.98 0.06,-0.3 0.12,-0.6 0.06,-0.9 -0.06,-0.3 -0.28,-0.58 -0.57,-0.63 0.26,-0.16 0.39,-0.6 0.41,-0.89 0.02,-0.31 -0.06,-0.63 -0.23,-0.89 0.18,-0.12 0.31,-0.32 0.35,-0.53 0.04,-0.21 -0,-0.44 -0.12,-0.62 0.41,-0.51 0.38,-1.43 -0.15,-1.83 -0.1,-0.07 -0.19,-0.2 -0.28,-0.27 -0.14,-0.11 -0.25,-0.23 -0.42,-0.29 -0.12,-0.04 -0.23,-0.07 -0.34,-0.04 -0.13,0.04 -0.32,0.32 -0.39,0.44 -0.08,0.14 -0.13,0.3 -0.16,0.46z"/>
   <path class="fil16" d="M123.09 197.82c-0.25,0.26 -0.53,0.56 -0.5,0.89 0.03,0.33 0.2,1.12 0.89,1.86 0.69,0.74 1.14,2.16 1.27,3.13 0.13,0.96 0.21,3.42 1.44,4.39 1.22,0.97 4.19,1.45 4.19,-0.34 0,-1.79 -3.54,-8.69 -3.54,-8.69l-3.74 -1.24z"/>
   <path class="fil22" d="M124.73 198.97c0.35,0.9 0.89,2.41 1.2,3.85 0.3,1.44 0.73,2.45 1.46,2.84 0.73,0.39 1.83,0.32 1.42,-0.66 -0.41,-0.98 -1.98,-5.94 -1.98,-5.94l-2.1 -0.09z"/>
   <path class="fil23" d="M115.26 174.49c0,0 5.83,2.67 8.66,4.19 2.83,1.52 5.53,3.01 6.09,4.24 0.6,1.3 0.44,4.38 0.13,7.35 -0.31,2.97 -0.96,8.31 -0.96,8.31l-8.3 -12.44 -8.34 -5.51 2.71 -6.14z"/>
   <path class="fil29" d="M129.39 197.02l-0.01 -0.02c0,-0 0,-0.01 0,-0.01 0.01,0.02 0.01,0.03 0.01,0.03z"/>
   <path class="fil24" d="M129.37 196.99l-5.84 -10.45 -8.54 -6.37 0.35 -0.57c0.48,-0.85 0.89,-1.78 0.89,-1.78 -0,0.77 -0.24,1.54 -0.43,2.05 1.3,0.76 4.62,2.68 5.95,3.51 1.67,1.04 3.46,2.3 4.28,4.21 0.79,1.83 3.16,8.86 3.35,9.41 -0,0 -0,0.01 -0,0.01z"/>
   <path class="fil16" d="M129.96 207.69c-0.21,0.14 -0.18,0.67 -0.16,1.05 0.02,0.38 -0.26,0.89 0.3,1.49 0.56,0.59 1.5,0.65 2.27,1.46 0.76,0.81 1.94,2.31 4.04,2.42 2.1,0.11 3.54,-0.81 3.83,-1.48 0.28,-0.67 -0.15,-1.19 -1.57,-1.72 -1.51,-0.57 -1.93,-0.74 -1.93,-0.74l-6.77 -2.48z"/>
   <path class="fil22" d="M131.73 203.03c0,0 1.18,2.7 1.97,3.85 0.8,1.15 1.93,2.18 3.15,3.12 0.27,0.2 0.85,0.56 1.07,0.73 0.19,0.15 0.26,0.35 0.08,0.61 -0.35,0.51 -2.19,0.99 -3.39,0.43 -1.2,-0.57 -2.53,-1.84 -3.28,-2.34 -0.38,-0.25 -0.73,-0.49 -0.99,-0.67 -0.25,-0.17 -0.39,-0.46 -0.38,-0.76 0.01,-0.09 0.01,-0.19 0.01,-0.3 0.02,-0.63 -1.28,-2.93 -1.28,-2.93l3.04 -1.73z"/>
   <path class="fil23" d="M101.72 177.81c0.46,2.5 0.84,3.53 2.22,5.71 1.33,2.11 4.08,3.65 7.66,4.85 2.96,0.99 7.32,2.41 8.18,2.6 0.86,0.19 1.04,0.65 1.24,2.18 0.2,1.53 1.23,3.89 3.54,6.63 2.44,2.89 4.7,6.37 4.7,6.37 0,0 2.33,0.04 3.26,-1.57 0,0 -6.65,-15.91 -7.72,-17.74 -1.08,-1.83 -9.8,-6.67 -9.8,-6.67 0,0 0.15,-3.28 0.26,-5.67l-13.54 3.32z"/>
   <path class="fil9" d="M101.26 159.68c0,0 1.92,2.45 1.52,6.02 -0.28,2.53 -1.12,2.93 -2.41,3.65 -0.22,5.19 2.02,11.29 2.02,11.29 0,0 3.76,1.09 9.09,-0.97 4.86,-1.88 5.23,-4.63 5.23,-4.63l-2.41 -2.78 -0.57 -3.59c0,0 1.78,-2.73 0.86,-5 -1.47,-3.62 -4.42,-5.14 -4.42,-5.14l-1.45 0 -4.08 0.33 -3.4 0.82z"/>
   <path class="fil1" d="M104.63 157.35c-0.74,-1.46 -2.08,-2.63 -2.87,-4.06 -0.67,-1.21 -0.93,-2.76 -0.72,-4.13 0.12,-0.78 0.39,-1.61 0.87,-2.24 0.24,-0.31 0.78,-0.86 1.64,-1.08 0.02,-0.03 0.92,-1.73 2.73,-2.27 1,-0.3 1.71,-0.41 2.72,-0.2 0.74,0.15 1.43,0.43 2.15,0.65 0.93,0.28 1.97,0.33 2.94,0.22 0.3,-0.04 0.63,-0.09 0.9,0.07 0.35,0.2 0.43,0.68 0.39,1.08 -0.07,0.71 -0.39,1.39 -0.9,1.9 0.3,0.11 0.48,0.45 0.48,0.77 0,0.32 -0.14,0.63 -0.32,0.89 -0.63,0.96 -1.63,1.43 -2.73,1.63 -0.66,0.6 -1.31,1.19 -1.97,1.79 -0.94,0.86 -1.89,1.72 -2.83,2.57 -0.45,0.41 -0.9,0.82 -1.34,1.22 -0.19,0.18 -0.38,0.35 -0.58,0.52 -0.07,0.06 -0.53,0.73 -0.56,0.67z"/>
   <path class="fil16" d="M104.63 157.35c-0,0 -0,-0 -0.01,-0 -0.42,-0.83 -1.03,-1.56 -1.63,-2.3 -0.46,-0.57 -0.91,-1.14 -1.25,-1.77 -0.49,-0.9 -0.76,-1.98 -0.79,-3.04 -0,-0.05 -0,-0.09 -0,-0.14 0,-0.32 0.02,-0.64 0.07,-0.95 0.12,-0.78 0.39,-1.61 0.87,-2.24 0.24,-0.31 0.78,-0.86 1.64,-1.08 0.02,-0.03 0.92,-1.73 2.73,-2.27 0.65,-0.19 1.17,-0.31 1.74,-0.31 0.31,0 0.63,0.03 0.98,0.11 0.74,0.15 1.43,0.43 2.15,0.65 0.63,0.19 1.3,0.27 1.97,0.27 0.33,0 0.65,-0.02 0.97,-0.06 0.14,-0.02 0.29,-0.04 0.44,-0.04 0.16,0 0.32,0.02 0.46,0.11 0.3,0.17 0.4,0.54 0.4,0.89 0,0.06 -0,0.13 -0.01,0.19 -0.07,0.71 -0.39,1.39 -0.9,1.9l0 0c0.3,0.11 0.48,0.45 0.48,0.77 0,0 0,0 0,0.01 -0,0.32 -0.14,0.62 -0.32,0.89 -0.63,0.96 -1.63,1.43 -2.73,1.63 -0.66,0.6 -1.31,1.19 -1.97,1.79 -0.94,0.86 -1.89,1.72 -2.83,2.57 -0.45,0.41 -0.9,0.82 -1.34,1.22 -0.19,0.18 -0.38,0.35 -0.58,0.52 -0.07,0.06 -0.5,0.68 -0.56,0.68z"/>
   <path class="fil22" d="M112.45 147.22c0.2,0.23 1.08,1.2 0.85,5.34 -0.19,3.51 -0.99,4.17 -1.56,4.4 -0.58,0.23 -1.89,0.26 -2.95,0.05l0 1.53c0.4,0.29 1.74,1.28 1.49,2.01 -0.31,0.91 -2.44,1.02 -3.93,0.36 -1.72,-0.76 -1.73,-1.8 -1.73,-1.8l0.01 -4.65c-0.25,0.13 -0.57,0.14 -0.88,0.03 -0.34,-0.12 -0.55,-0.34 -0.86,-0.87 -0.29,-0.52 -0.35,-1.34 -0.14,-1.9 0.17,-0.43 0.66,-0.84 1.02,-0.89 0.47,-0.06 0.89,0.05 1.18,0.51 0.17,0.27 0.12,0.64 0.45,0.84 0.22,0.12 0.49,-0.01 0.68,-0.17 0.28,-0.24 0.43,-0.54 0.63,-0.84 0.21,-0.32 0.54,-0.66 0.85,-0.87 0.51,-0.35 1.09,-0.58 2,-0.82 1.02,-0.27 2.37,-1.05 2.88,-2.25z"/>
   <path class="fil28" d="M108.96 154.29c-0.13,0.46 0.14,0.94 0.59,1.07 0.46,0.13 0.94,-0.14 1.07,-0.6l-1.66 -0.47z"/>
   <path class="fil25" d="M110.01 155.34c-0.07,-0.39 -0.4,-0.69 -0.81,-0.69 -0.09,0 -0.17,0.02 -0.25,0.05 0.07,0.3 0.28,0.56 0.6,0.65 0.16,0.04 0.31,0.03 0.46,-0.01z"/>
   <path class="fil11" d="M109.57 151.79c-0.01,0.24 -0.22,0.43 -0.46,0.42 -0.24,-0.01 -0.43,-0.22 -0.42,-0.46 0.01,-0.24 0.22,-0.43 0.46,-0.42 0.24,0.01 0.43,0.22 0.42,0.46z"/>
   <path class="fil11" d="M112.82 151.78c-0.01,0.24 -0.22,0.43 -0.46,0.42 -0.24,-0.01 -0.43,-0.22 -0.42,-0.46 0.01,-0.24 0.22,-0.43 0.46,-0.42 0.24,0.01 0.43,0.22 0.42,0.46z"/>
   <path class="fil25" d="M108.78 157.01c-1.71,-0.49 -2.83,-1.14 -3.38,-2.35 0,0 -0.04,0.93 0.57,1.47 1.02,0.9 2.81,1.47 2.81,1.47l0 -0.58z"/>
   <path class="fil11" d="M113.1 150.75l-1.04 -0.32c0.08,-0.29 0.39,-0.45 0.68,-0.36 0.29,0.09 0.44,0.39 0.36,0.68z"/>
   <path class="fil11" d="M109.2 150.51l-0.95 0.52c-0.15,-0.26 -0.04,-0.59 0.23,-0.73 0.26,-0.14 0.57,-0.05 0.73,0.21z"/>
   <polygon class="fil25" points="110.55,151.32 110.64,153.99 112.01,153.72 "/>
   <path class="fil16" d="M108.85 209.34l0 -17.67c0,-1.17 -0.83,-2.6 -1.84,-3.19l-18.87 -10.89 -1.44 -10.85c-0.15,-1.16 -1.11,-2.58 -2.12,-3.17l-1.5 -0.86c-1.01,-0.58 -1.84,-0.11 -1.84,1.06l0 29.63c0,1.17 0.83,2.6 1.84,3.19l23.93 13.82c1.01,0.58 1.84,0.11 1.84,-1.06z"/>
   <path class="fil6" d="M114.03 188.68l0 17.67 -0 0.12c-0.05,1.14 -0.85,2.49 -1.82,3.06l-0.02 0.01 -1.5 0.86 -0.14 0.07 -0.08 0.04 -0.02 0.01 -0.15 0.06c-0.81,0.32 -1.86,0.34 -2.71,0.08 -0.11,-0.03 -0.22,-0.07 -0.32,-0.12 0.88,0.37 1.57,-0.13 1.57,-1.19l0 -17.67c0,-1.17 -0.83,-2.6 -1.84,-3.19l-3.34 -1.93 -15.53 -8.97 3.34 -1.93c1.01,-0.58 2.67,-0.58 3.68,0l13.69 7.91 3.34 1.92c1.02,0.59 1.84,2.02 1.84,3.19z"/>
   <path class="fil8" d="M108.85 191.67l0 17.67c-0,1.06 -0.69,1.56 -1.57,1.19 0.1,0.05 0.21,0.08 0.32,0.12 0.85,0.27 1.9,0.24 2.71,-0.08l0.15 -0.06 0.02 -0.01 0.08 -0.04 0.14 -0.07 1.5 -0.86 0.02 -0.01c0.97,-0.57 1.77,-1.92 1.82,-3.06l0 -0.12 0 -17.67c0,-0.58 -0.21,-1.23 -0.54,-1.81l-5.18 2.99c0.33,0.58 0.54,1.23 0.54,1.81z"/>
   <path class="fil22" d="M114.24 185.5c-1.19,-1.9 -2.09,-2.27 -3.09,-2.61 -1.38,-0.47 -2.2,-0.46 -3.16,-0.97 -0.96,-0.51 -6.73,-5.4 -6.73,-5.4 0,0 1.25,-6.21 1.71,-9.25 0.91,-6.05 -1.7,-7.58 -1.7,-7.58 -0.77,0.14 -2.08,0.7 -2.68,2.04 -0.9,2.01 -1.28,4.75 -1.59,7.48 -0.2,1.78 -0.48,4.42 -0.69,6.77 -0.12,1.25 -0.29,2.28 0.5,3.05 2.68,2.3 8.85,5.15 9.57,5.78 1.06,0.93 1.36,1.4 2.85,1.46 1.23,0.05 1.64,0.98 2.84,1.41 1.2,0.43 3.18,-0.58 2.17,-2.19z"/>
   <path class="fil15" d="M189.74 167.76c-1.76,0 -3.52,-0.39 -4.87,-1.16 -2.17,-1.25 -2.59,-3.13 -1.26,-4.62 0.36,0.8 0.76,1.45 1.18,1.88l0.07 0.07 0.09 0.09c0.07,0.07 0.15,0.14 0.24,0.21l0.06 0.05c0.07,0.05 0.13,0.1 0.2,0.15 0.11,0.08 0.23,0.15 0.34,0.22 1.09,0.63 2.51,0.94 3.94,0.94 1.43,0 2.85,-0.31 3.94,-0.94l0 0c0.12,-0.06 0.23,-0.14 0.34,-0.22 0.07,-0.05 0.13,-0.09 0.19,-0.14l0.08 -0.06c0.08,-0.07 0.16,-0.14 0.23,-0.21l0.11 -0.1 0.06 -0.06c0.43,-0.44 0.83,-1.09 1.19,-1.89 1.32,1.49 0.9,3.37 -1.26,4.62 -1.34,0.78 -3.11,1.16 -4.87,1.16z"/>
   <path class="fil8" d="M194.68 163.86c2.65,-2.7 4.2,-13.68 1.62,-15.83l-13.13 0c-2.58,2.14 -1.03,13.12 1.62,15.82l0.07 0.07 0.09 0.09c0.07,0.07 0.15,0.14 0.24,0.21l0.06 0.05c0.07,0.05 0.13,0.1 0.2,0.15 0.11,0.08 0.23,0.15 0.34,0.22 2.18,1.26 5.7,1.26 7.88,0l0 0c0.12,-0.06 0.23,-0.14 0.34,-0.22 0.07,-0.05 0.13,-0.09 0.19,-0.14l0.08 -0.06c0.08,-0.07 0.16,-0.14 0.23,-0.21l0.11 -0.1 0.06 -0.06z"/>
   <path class="fil6" d="M184.31 147.17c-3,1.73 -3,4.53 0,6.26 3,1.73 7.85,1.73 10.85,0 3,-1.73 3,-4.53 0,-6.26 -3,-1.73 -7.85,-1.73 -10.85,0z"/>
   <path class="fil11" d="M185.75 148c-2.2,1.27 -2.2,3.33 0,4.6 2.2,1.27 5.77,1.27 7.97,0 2.2,-1.27 2.2,-3.33 0,-4.6 -2.2,-1.27 -5.77,-1.27 -7.97,-0z"/>
   <path class="fil9" d="M193.72 150.19c-2.2,-1.27 -5.77,-1.27 -7.97,0 -0.61,0.35 -1.05,0.77 -1.32,1.21 0.27,0.44 0.71,0.86 1.32,1.21 2.2,1.27 5.77,1.27 7.97,0 0.61,-0.35 1.05,-0.77 1.32,-1.21 -0.27,-0.44 -0.71,-0.86 -1.32,-1.21z"/>
   <path class="fil1" d="M189.91 151.12c0,0 -2.03,0.43 -4.54,-0.51 -0.99,-0.37 -4.07,-2.22 -2.02,-3.34 0.18,-0.09 0.37,-0.15 0.53,-0.27 0.16,-0.12 0.27,-0.34 0.19,-0.52 -0.08,-0.18 -0.3,-0.25 -0.5,-0.28 -0.44,-0.08 -0.89,-0.11 -1.34,-0.11 -0.37,0 -0.76,0.03 -1.08,-0.14 -0.59,-0.3 -0.72,-1.06 -0.78,-1.72 -0.05,-0.49 -0.08,-1.05 0.25,-1.43 0.27,-0.31 0.7,-0.41 1.1,-0.49 0.47,-0.1 0.95,-0.19 1.42,-0.29 1.4,-0.28 -2.04,-1.63 -2.03,-1.53 -0.12,-1.51 0.38,-2.97 0.95,-4.34 0.19,-0.45 0.29,-1.16 0.82,-1.33 0.43,-0.14 0.98,0.11 1.4,0.22 0.96,0.25 1.9,0.76 2.77,1.24 0.95,0.53 2.11,0.87 2.34,2.08 0.13,0.68 -0.01,1.38 -0.16,2.06 0.28,0.07 0.52,-0.19 0.66,-0.44 0.14,-0.25 0.26,-0.55 0.53,-0.65 0.24,-0.09 0.5,0.02 0.73,0.12 0.68,0.3 1.43,0.68 1.64,1.39 0.14,0.46 0.02,0.95 -0.13,1.4 -0.23,0.71 -0.52,1.4 -0.86,2.06 0.67,-0.12 1.29,-0.45 1.77,-0.93 0.3,0.87 0.61,1.68 0.6,2.62 -0.03,1.46 -1.84,4.29 -4.24,5.12z"/>
   <path class="fil3" d="M188.69 151.22c-0.83,0 -2.01,-0.12 -3.32,-0.61 -0.75,-0.28 -2.71,-1.42 -2.71,-2.43 0,-0.32 0.2,-0.64 0.69,-0.9 0.18,-0.09 0.37,-0.15 0.53,-0.27 0.12,-0.09 0.22,-0.24 0.22,-0.39 0,-0.04 -0.01,-0.09 -0.03,-0.13 -0.08,-0.18 -0.3,-0.25 -0.5,-0.28 -0.42,-0.07 -0.84,-0.11 -1.26,-0.11 -0.03,0 -0.05,0 -0.08,0 -0.1,0 -0.2,0 -0.31,0 -0.27,0 -0.54,-0.02 -0.78,-0.14 -0.59,-0.3 -0.72,-1.06 -0.78,-1.72 -0.02,-0.16 -0.03,-0.33 -0.03,-0.49 0,-0.34 0.06,-0.68 0.28,-0.94 0.27,-0.31 0.7,-0.41 1.1,-0.49 0.47,-0.1 0.95,-0.19 1.42,-0.29 0.24,-0.05 0.34,-0.13 0.34,-0.22 -0,-0.45 -2.18,-1.31 -2.36,-1.31 -0.01,0 -0.01,0 -0.01,0l0 0c-0.01,-0.15 -0.02,-0.31 -0.02,-0.46 0,-1.34 0.46,-2.65 0.97,-3.88 0.19,-0.45 0.29,-1.16 0.82,-1.33 0.09,-0.03 0.19,-0.04 0.28,-0.04 0.37,0 0.78,0.18 1.11,0.26 0.96,0.25 1.9,0.76 2.77,1.24 0.95,0.53 2.11,0.87 2.34,2.08 0.04,0.19 0.05,0.38 0.05,0.57 0,0.5 -0.1,1 -0.21,1.49l0 0c0.03,0.01 0.06,0.01 0.09,0.01 0.24,0 0.45,-0.23 0.57,-0.45 0.14,-0.25 0.26,-0.55 0.53,-0.65 0.06,-0.02 0.13,-0.03 0.19,-0.03 0.18,0 0.37,0.08 0.54,0.15 0.68,0.3 1.43,0.68 1.64,1.39 0.04,0.14 0.06,0.29 0.06,0.44 0,0.32 -0.09,0.65 -0.19,0.96 -0.23,0.71 -0.52,1.4 -0.86,2.06l0 0c0.67,-0.12 1.29,-0.45 1.77,-0.93 0.29,0.85 0.6,1.64 0.6,2.55 0,0.02 0,0.04 0,0.07 -0.03,1.46 -1.84,4.29 -4.24,5.12 0,0 -0.46,0.1 -1.22,0.1z"/>
   <path class="fil4" d="M189.83 151.25l-0.08 -0.14c0.34,-4.91 -4.02,-13.32 -6.21,-15.21 -0.06,-0.05 -0.07,-0.15 -0.02,-0.21 0.05,-0.06 0.15,-0.07 0.21,-0.02 2.24,1.92 6.66,10.47 6.32,15.46 -0.01,0.08 -0.08,0.14 -0.16,0.14l-0.06 -0.02z"/>
   <path class="fil7" d="M189.46 152.17c0.95,0.88 2.3,1.31 3.58,1.13 1.32,-0.19 2.53,-1.02 3.18,-2.19 0.1,-0.18 0.19,-0.38 0.15,-0.58 -0.04,-0.2 -0.2,-0.36 -0.36,-0.49 -0.8,-0.67 -1.78,-1.13 -2.8,-1.31 0.55,0.09 1.23,-0.08 1.79,-0.08 0.81,-0 1.62,0.06 2.4,0.24 0,0 1.32,-0.49 1.07,-2.7 0,0 -1.25,-0.91 -4.12,-0.55 0,0 1.44,-1.02 3.96,-1.31 0.2,0 -0.07,-2.88 -0.31,-4.17 -0.24,-1.28 -0.72,-1.09 -1.75,-0.97 -1.03,0.11 -4.27,1.18 -4.66,1.92 -0.39,0.74 -0.01,2.61 -0.01,2.61 0,0 -0.94,-0.78 -1.15,-1.72 0,0 -1.06,0.04 -1.97,0.81 -0.91,0.77 -0.64,1.26 -0.35,2.02 0.32,0.82 0.61,1.33 1.19,2.15 -0.07,-0.1 -0.34,-0.25 -0.45,-0.33 -0.25,-0.2 -0.53,-0.35 -0.76,-0.57 -0.46,-0.42 -0.84,-0.92 -1.1,-1.49 -0.53,0.89 -0.98,1.85 -1.15,2.87 -0.17,1.02 -0.05,2.12 0.49,3 0.61,0.99 1.85,1.77 3.04,1.62l0.09 0.08z"/>
   <path class="fil4" d="M189.36 152.44l0.08 -0.11c0.35,-4.29 5.2,-10.98 7.34,-12.33 0.06,-0.04 0.08,-0.12 0.04,-0.18 -0.04,-0.06 -0.12,-0.08 -0.18,-0.04 -2.18,1.37 -7.11,8.17 -7.46,12.53 -0.01,0.07 0.05,0.13 0.12,0.14l0.06 -0.01z"/>
   <polygon class="fil2" points="130.61,121.98 130.61,94.92 129.61,94.35 85.35,119.9 85.35,146.95 86.35,147.53 "/>
   <polygon class="fil18" points="86.35,147.53 130.61,121.98 130.61,94.92 86.35,120.48 "/>
   <polygon class="fil1" points="88.96,143.02 127.96,120.45 127.96,117.5 119.58,111.76 112.61,120.94 114.31,123.48 102.23,115.45 88.96,134.01 "/>
   <path class="fil1" d="M112.39 109.73c1.04,-0.6 1.88,-0.11 1.88,1.09 0,1.2 -0.84,2.66 -1.88,3.26 -1.04,0.6 -1.88,0.11 -1.88,-1.09 0,-1.2 0.84,-2.66 1.88,-3.26z"/>
   <polygon class="fil8" points="88.96,143.02 88.96,134.01 102.23,115.45 114.31,123.48 112.61,120.94 119.58,111.76 127.96,117.5 127.96,120.45 "/>
   <path class="fil8" d="M111.55 114.33c-0.62,0 -1.04,-0.49 -1.04,-1.35 0,-1.2 0.84,-2.66 1.88,-3.26 0.3,-0.17 0.59,-0.26 0.84,-0.26 0.62,0 1.04,0.49 1.04,1.35 0,1.2 -0.84,2.66 -1.88,3.26 -0.3,0.17 -0.59,0.26 -0.84,0.26z"/>
   <path class="fil30" d="M196.99 19.97c-0.03,-0 -0.06,-0.01 -0.09,-0.01 0.01,-0.05 0.02,-0.1 0.02,-0.14 0,-0.05 0.01,-0.1 0.01,-0.15 0.03,0 0.06,0 0.09,0.01l-0 0.15 -0.02 0.15z"/>
  </g>
 </g>
</svg>
