<?xml version="1.0" encoding="UTF-8"?>
<!DOCTYPE svg PUBLIC "-//W3C//DTD SVG 1.1//EN" "http://www.w3.org/Graphics/SVG/1.1/DTD/svg11.dtd">
<!-- Creator: CorelDRAW 2020 (64-Bit) -->
<svg xmlns="http://www.w3.org/2000/svg" xml:space="preserve" width="10.3952in" height="9.17079in" version="1.1" style="shape-rendering:geometricPrecision; text-rendering:geometricPrecision; image-rendering:optimizeQuality; fill-rule:evenodd; clip-rule:evenodd"
viewBox="0 0 367.34 324.07"
 xmlns:xlink="http://www.w3.org/1999/xlink"
 xmlns:xodm="http://www.corel.com/coreldraw/odm/2003">
 <defs>
  <style type="text/css">
   <![CDATA[
    .fil51 {fill:#D9DAD9}
    .fil32 {fill:#FEFEFE;fill-rule:nonzero}
    .fil39 {fill:#FFD24B;fill-rule:nonzero}
    .fil15 {fill:#FFCE3E;fill-rule:nonzero}
    .fil44 {fill:#EF4B37;fill-rule:nonzero}
    .fil11 {fill:#FBCB2C;fill-rule:nonzero}
    .fil23 {fill:#F7FBFE;fill-rule:nonzero}
    .fil46 {fill:#FACD2C;fill-rule:nonzero}
    .fil45 {fill:#F7BC2F;fill-rule:nonzero}
    .fil0 {fill:#EAEAE9;fill-rule:nonzero}
    .fil40 {fill:#E49138;fill-rule:nonzero}
    .fil38 {fill:#DD8E38;fill-rule:nonzero}
    .fil43 {fill:#D43739;fill-rule:nonzero}
    .fil12 {fill:#DA8939;fill-rule:nonzero}
    .fil34 {fill:#D03739;fill-rule:nonzero}
    .fil16 {fill:#D88639;fill-rule:nonzero}
    .fil27 {fill:#D6DFE2;fill-rule:nonzero}
    .fil41 {fill:#BF3838;fill-rule:nonzero}
    .fil19 {fill:#CECCCD;fill-rule:nonzero}
    .fil42 {fill:#B93737;fill-rule:nonzero}
    .fil37 {fill:#B43437;fill-rule:nonzero}
    .fil18 {fill:#AB3436;fill-rule:nonzero}
    .fil35 {fill:#953133;fill-rule:nonzero}
    .fil36 {fill:#B9817C;fill-rule:nonzero}
    .fil26 {fill:#B2726F;fill-rule:nonzero}
    .fil28 {fill:#8D3232;fill-rule:nonzero}
    .fil20 {fill:#B6C1CA;fill-rule:nonzero}
    .fil24 {fill:#B4C0C8;fill-rule:nonzero}
    .fil29 {fill:#A4DBDB;fill-rule:nonzero}
    .fil30 {fill:#A5D4DC;fill-rule:nonzero}
    .fil25 {fill:#A6B3BB;fill-rule:nonzero}
    .fil21 {fill:#98A6B2;fill-rule:nonzero}
    .fil33 {fill:#94A5B0;fill-rule:nonzero}
    .fil22 {fill:#7E909D;fill-rule:nonzero}
    .fil2 {fill:#576C6D;fill-rule:nonzero}
    .fil49 {fill:#4F8C93;fill-rule:nonzero}
    .fil1 {fill:#424F51;fill-rule:nonzero}
    .fil8 {fill:#435457;fill-rule:nonzero}
    .fil9 {fill:#3A4546;fill-rule:nonzero}
    .fil3 {fill:#32393A;fill-rule:nonzero}
    .fil10 {fill:#313B3C;fill-rule:nonzero}
    .fil7 {fill:#364446;fill-rule:nonzero}
    .fil13 {fill:url(#id6)}
    .fil5 {fill:url(#id7)}
    .fil6 {fill:url(#id8)}
    .fil50 {fill:url(#id9)}
    .fil14 {fill:url(#id10)}
    .fil48 {fill:url(#id11)}
    .fil4 {fill:url(#id12)}
    .fil17 {fill:url(#id13)}
    .fil47 {fill:url(#id14)}
    .fil31 {fill:url(#id15)}
   ]]>
  </style>
   <clipPath id="id0">
    <path d="M254.11 113.86l0 -1.68 0.05 -22.36 0.04 -0.02 0 23.98 -0.09 0.08 0 0z"/>
   </clipPath>
   <clipPath id="id1">
    <path d="M254.12 112.17l0.05 -22.36 0 0 -0.05 22.36 0 0z"/>
   </clipPath>
   <clipPath id="id2">
    <path d="M242.05 207.55c0.69,-0.3 1.38,-0.6 2.06,-0.89 -0.69,0.3 -1.38,0.59 -2.06,0.89l0 0z"/>
   </clipPath>
   <clipPath id="id3">
    <path d="M180.39 254.65l0 0 54.75 -50.51 0 0 -54.75 50.51 0 0z"/>
   </clipPath>
   <clipPath id="id4">
    <path d="M254.17 89.82l0 -0 0.04 -0.02 0 0 -0.04 0.02 0 0z"/>
   </clipPath>
   <clipPath id="id5">
    <path d="M254.17 89.82l0 -0 0 0 0 0 0 0 0 0z"/>
   </clipPath>
  <linearGradient id="id6" gradientUnits="userSpaceOnUse" x1="101.56" y1="129.9" x2="106.06" y2="129.9">
   <stop offset="0" style="stop-opacity:1; stop-color:#FAEE35"/>
   <stop offset="1" style="stop-opacity:1; stop-color:#F79835"/>
  </linearGradient>
  <linearGradient id="id7" gradientUnits="userSpaceOnUse" x1="277.18" y1="119.35" x2="228.92" y2="119.35">
   <stop offset="0" style="stop-opacity:1; stop-color:#308A9B"/>
   <stop offset="1" style="stop-opacity:1; stop-color:#31393A"/>
  </linearGradient>
  <linearGradient id="id8" gradientUnits="userSpaceOnUse" xlink:href="#id7" x1="277.18" y1="119.35" x2="228.92" y2="119.35">
  </linearGradient>
  <linearGradient id="id9" gradientUnits="userSpaceOnUse" x1="277.18" y1="119.35" x2="228.92" y2="119.35">
   <stop offset="0" style="stop-opacity:1; stop-color:#4CAEBD"/>
   <stop offset="1" style="stop-opacity:1; stop-color:#4F8C93"/>
  </linearGradient>
  <linearGradient id="id10" gradientUnits="userSpaceOnUse" xlink:href="#id6" x1="65.72" y1="148.52" x2="132.31" y2="156.01">
  </linearGradient>
  <linearGradient id="id11" gradientUnits="userSpaceOnUse" xlink:href="#id9" x1="277.14" y1="119.47" x2="228.96" y2="119.47">
  </linearGradient>
  <linearGradient id="id12" gradientUnits="userSpaceOnUse" x1="276.5" y1="119.35" x2="229.66" y2="119.35">
   <stop offset="0" style="stop-opacity:1; stop-color:#3190A2"/>
   <stop offset="1" style="stop-opacity:1; stop-color:#424F51"/>
  </linearGradient>
  <radialGradient id="id13" gradientUnits="userSpaceOnUse" gradientTransform="matrix(98.6321 -0 -0 -98.6359 -17021 11914)" cx="174.34" cy="119.57" r="2.24" fx="174.34" fy="119.57">
   <stop offset="0" style="stop-opacity:1; stop-color:#7EB8B7"/>
   <stop offset="1" style="stop-opacity:1; stop-color:#2693A9"/>
  </radialGradient>
  <radialGradient id="id14" gradientUnits="userSpaceOnUse" gradientTransform="matrix(8.30774 -0 -0 -8.30771 -1275 1112)" cx="174.48" cy="119.52" r="26.61" fx="174.48" fy="119.52">
   <stop offset="0" style="stop-opacity:1; stop-color:#79CDD4"/>
   <stop offset="1" style="stop-opacity:1; stop-color:#4BBFD1"/>
  </radialGradient>
  <radialGradient id="id15" gradientUnits="userSpaceOnUse" gradientTransform="matrix(8.13587 -0 -0 -8.13592 -1244 1090)" cx="174.39" cy="119.35" r="27.18" fx="174.39" fy="119.35">
   <stop offset="0" style="stop-opacity:1; stop-color:#84D0D5"/>
   <stop offset="1" style="stop-opacity:1; stop-color:#2FAFC9"/>
  </radialGradient>
 </defs>
 <g id="Layer_x0020_1">
  <metadata id="CorelCorpID_0Corel-Layer"/>
  <path class="fil0" d="M313.55 143.05c35.86,20.7 53.79,47.84 53.8,74.97l0 0.02c-0.01,27.13 -17.94,54.27 -53.8,74.97 -35.86,20.71 -82.87,31.06 -129.88,31.06 -47.01,0 -94.01,-10.35 -129.87,-31.06 -35.86,-20.71 -53.8,-47.85 -53.8,-74.98 0,-27.14 17.93,-54.28 53.8,-74.98 71.73,-41.41 188.02,-41.41 259.75,-0z"/>
  <path class="fil1" d="M258.75 124.72c0.19,5.6 -42.2,35.78 -84.98,36.14 -43.48,0.37 -87.35,-29.15 -87.35,-36.1l0 26.22c0,6.96 29.04,31.99 87.35,31.99 55.43,0 85.17,-26.4 84.98,-31.99l0 -26.25z"/>
  <polygon class="fil1" points="258.74,124.9 258.74,124.87 258.74,124.92 "/>
  <path class="fil2" d="M258.7 123.9c-1.42,-17.11 -39.43,-30.82 -86.12,-30.82 -46.71,0 -84.73,13.72 -86.12,30.85 -0.03,0.32 -0.04,0.65 -0.04,0.97 0,17.43 37.96,35.73 85.02,35.96 0.38,0 0.76,0.01 1.15,0.01 0.05,0 0.1,-0 0.15,-0 0.35,0 0.69,0.01 1.04,0 0.21,-0 0.42,-0.01 0.63,-0.01 46.73,-0.36 84.32,-18.59 84.35,-35.93l0 -0.05c-0,-0.32 -0.02,-0.65 -0.05,-0.97z"/>
  <path class="fil1" d="M254.25 51.86l-81.67 44.6 -81.67 -44.6 0.16 71.68c0,6.58 25.45,31.01 82.64,31.01 61.5,0 80.57,-25.72 80.39,-31.01l0.16 -71.68z"/>
  <path class="fil3" d="M208.5 149.54c-8.56,-0.74 -17.91,-4.49 -27.63,-9.61 19.52,-0.83 35.82,-4.54 48.06,-9.56l0.18 6.17 -0.86 0.78c-0.19,-0.01 -0.37,-0.01 -0.56,-0.01 -3.34,0 -6.33,0.92 -8.69,2.87l-0.06 -0.06 -10.45 9.42zm-117.48 -41.97l-0.04 -18.03 0.04 0.02 0.03 8.58c0,2.01 0.38,4.04 1.11,6.08 -0.67,0.92 -1.06,2.04 -1.14,3.35z"/>
  <g style="clip-path:url(#id0)">
   <image x="253.96" y="89.64" width="0.47" height="24.45" xlink:href="khoa_hoc_Images\khoa_hoc_ImgID1.png"/>
  </g>
  <polygon class="fil4" points="254.11,113.86 254.12,112.17 254.11,113.86 "/>
  <g style="clip-path:url(#id1)">
   <image x="253.96" y="89.64" width="0.38" height="22.66" xlink:href="khoa_hoc_Images\khoa_hoc_ImgID2.png"/>
  </g>
  <path class="fil5" d="M229.11 136.54l-0.18 -6.17c16.12,-6.61 25.16,-15.5 25.16,-23.08l0.05 -17.47 0.02 -0.01 -0.05 22.36 -0 1.69 -25 22.67z"/>
  <path class="fil1" d="M172.56 140.1c-15.85,0 -30.57,-2.73 -43.02,-7.12l-5.46 -2.09c-16.65,-6.9 -28.38,-16.81 -31.9,-26.67 1.58,-2.18 4.71,-3.28 9,-3.28 5.75,0 13.58,1.98 22.55,6.01 18.45,8.28 38.49,23.15 57.15,32.98 -2.71,0.12 -5.48,0.18 -8.31,0.18z"/>
  <path class="fil3" d="M180.87 139.93c-18.66,-9.83 -38.7,-24.7 -57.15,-32.98 -8.98,-4.03 -16.81,-6.01 -22.55,-6.01 -4.29,0 -7.42,1.1 -9,3.28 -0.73,-2.04 -1.11,-4.07 -1.11,-6.08l-0.03 -8.58 81.49 36.19 55.55 -24.45 0.86 29.07c-12.24,5.02 -28.54,8.73 -48.06,9.56z"/>
  <path class="fil6" d="M228.93 130.37l-0.86 -29.07 26.07 -11.48 -0.05 17.47c0,7.58 -9.05,16.47 -25.16,23.08z"/>
  <polygon class="fil1" points="261.37,50.9 172.52,10.93 84.39,50.9 42.18,59.16 42.18,67.87 42.18,67.87 172.52,125.75 304.03,67.87 304.03,67.87 304.03,59.16 "/>
  <polygon class="fil2" points="172.52,0 42.18,59.16 172.52,117.05 304.03,59.16 "/>
  <path class="fil7" d="M109.37 95.92l-5.17 -2.98c0.26,-2.2 0.62,-4.18 1.11,-5.75l4.5 2c-0.41,2.61 -0.45,6.72 -0.45,6.72z"/>
  <path class="fil8" d="M109.81 89.2l-4.5 -2c0.25,-0.81 0.53,-1.51 0.86,-2.08 6.49,-11.45 39.17,-23.82 56.85,-29.81 1.11,0.89 2.72,1.62 4.65,2.1 -18.04,6.17 -50.91,18.69 -57.35,29.97 -0.21,0.36 -0.37,1.02 -0.49,1.82z"/>
  <path class="fil9" d="M172.97 58.02c-1.92,0 -3.72,-0.22 -5.32,-0.62 7.09,-2.42 11.89,-3.87 11.89,-3.87l-5.13 -1.9c0,0 -4.59,1.36 -11.4,3.67 -1.03,-0.83 -1.61,-1.79 -1.61,-2.82 0,-3.06 5.18,-5.54 11.58,-5.54 6.39,0 11.58,2.48 11.58,5.54 0,3.06 -5.19,5.54 -11.58,5.54z"/>
  <path class="fil10" d="M167.66 57.4c-1.93,-0.48 -3.54,-1.21 -4.65,-2.1 6.82,-2.31 11.4,-3.67 11.4,-3.67l5.13 1.9c0,0 -4.8,1.44 -11.89,3.87z"/>
  <path class="fil11" d="M102.71 114.95c-0.23,-4.85 -1,-25.78 2.26,-31.53 8.31,-14.66 61.82,-31.26 67.27,-32.92l2.03 1.54c-10.05,3.03 -58.47,18.23 -66.76,32.74 -3.26,5.71 -2.23,25.34 -1.95,29.74l-2.85 0.43z"/>
  <path class="fil12" d="M164.7 55.07l3.44 -0.99c0,0 -1.59,-1.67 -1.84,-1.8 -0.25,-0.12 -1.47,0.48 -1.47,0.48l-0.67 0.28c0.6,-0.1 1.31,1.71 0.54,2.02z"/>
  <path class="fil1" d="M183.75 49.68c0,2.85 -4.83,5.15 -10.78,5.15 -5.95,0 -10.78,-2.31 -10.78,-5.15 0,-2.85 4.82,-5.16 10.78,-5.16 5.95,0 10.78,2.31 10.78,5.16z"/>
  <polygon class="fil13" points="101.56,137.15 106.06,137.15 106.06,122.64 101.56,122.64 "/>
  <path class="fil14" d="M119.29 173.52c0,-1.92 -1.7,-17.06 -4.64,-30.39 -2.29,-10.4 -4.85,-19.88 -11.17,-19.88 -14.43,0 -16.11,46.33 -15.82,50.27 0.17,2.32 1.36,4.71 4.69,6.58 1.05,0.59 2.69,1.03 3.35,1.19 2.06,0.5 4.61,0.8 7.78,0.8 1.49,0 2.85,0.01 4.08,-0.2 1.62,-0.28 2.38,-0.36 3.27,-0.55 6.57,-1.43 8.47,-5.2 8.47,-7.82z"/>
  <path class="fil15" d="M104.97 123.45c-0.43,-0.11 -0.88,-0.18 -1.35,-0.19 -0.72,0.43 -1.66,1.03 -2.87,1.84 -9.53,6.36 -12.11,39.19 -12.17,51.48 0.72,1.27 1.91,2.48 3.78,3.52 1.05,0.59 2.69,1.03 3.35,1.19 0.9,0.22 1.9,0.4 3,0.53 0.2,-20.87 2.81,-53.19 4.35,-56.5 0,0 1.13,-1.02 1.92,-1.88z"/>
  <path class="fil16" d="M116.33 178.9c2.19,-1.68 2.96,-3.73 2.96,-5.38 0,-3.41 -1.38,-50.27 -15.81,-50.27 -1.99,0 -3.74,0.89 -5.28,2.42 -0.83,1.19 6.33,1.65 8.52,4.94 5.21,7.81 9.65,22.51 9.65,47.94 0,0.12 -0.02,0.24 -0.04,0.35z"/>
  <path class="fil17" d="M241.98 207.58c-0.58,-1.44 -1.56,-2.85 -2.89,-4.2l0 0c1.33,1.35 2.31,2.75 2.89,4.2 0.02,-0.01 0.05,-0.02 0.07,-0.03 -0.02,0.01 -0.05,0.02 -0.07,0.03z"/>
  <g style="clip-path:url(#id2)">
   <image x="241.83" y="206.43" width="2.44" height="1.25" xlink:href="khoa_hoc_Images\khoa_hoc_ImgID3.png"/>
  </g>
  <path class="fil18" d="M237.29 166.99c10.1,13.61 12.02,29.3 4.28,35.05 -7.74,5.75 -22.21,-0.63 -32.31,-14.23 -10.1,-13.61 -12.02,-29.3 -4.28,-35.05 7.74,-5.75 22.21,0.62 32.31,14.23z"/>
  <path class="fil19" d="M278.02 92.19l0.05 0.05c6.87,-5.69 20.06,-1.35 29.56,9.77 8.94,10.46 11.44,23.21 6.13,29.6l-134.4 122.27 -35.94 -39.63 134.6 -122.06z"/>
  <path class="fil20" d="M149.37 244.48c-4.2,-4.92 -8.14,-9.82 -9.35,-14.85 -0.47,-1.95 4.01,-4.27 3.15,-5.91 -1.54,-2.92 -1.38,-7.79 1.28,-10.07 6.84,-5.84 20.13,-1.51 29.69,9.67 9.56,11.18 11.76,24.99 4.92,30.83 -6.84,5.84 -20.13,1.51 -29.69,-9.67z"/>
  <path class="fil21" d="M173.21 248.28c4.27,-4.01 1.99,-11.78 -4.33,-19.18l0 0c-0.17,-0.2 -0.34,-0.4 -0.51,-0.59 -4.3,-4.98 -7.48,-7.92 -10.55,-7.92 -1.14,0 -2.26,0.41 -3.42,1.27 -1.53,0.08 -2.46,0.4 -2.46,0.4l9.43 -8.91c4.41,2.06 8.89,5.46 12.75,9.99 2.05,2.4 3.76,4.91 5.11,7.45l2.64 9.65 -8.67 7.86zm0.56 -1.48c0.43,-1.38 0.87,-3.63 0.48,-6.48 0.28,1.01 0.44,1.98 0.47,2.9 0.04,1.31 -0.42,2.57 -0.95,3.58z"/>
  <path class="fil21" d="M172.4 248.96c-0.07,0 0.71,-0.87 1.38,-2.17 -0.31,0.98 -0.61,1.52 -0.61,1.52l0.04 -0.04c-0.08,0.08 -0.17,0.15 -0.25,0.23 -0.37,0.32 -0.54,0.46 -0.56,0.46zm1.86 -8.65c-1.18,-4.3 -4.39,-9.13 -7.37,-12.61 -0.11,-0.12 -0.25,-0.18 -0.44,-0.18 -0.98,0 -2.97,1.61 -4.95,3.22 -1.97,1.61 -3.93,3.22 -4.83,3.22 -0.17,0 -0.29,-0.05 -0.38,-0.17 -4.38,-5.84 -6.07,-8.39 -2.41,-11.51 0.18,-0.15 0.35,-0.29 0.53,-0.42 0.24,-0.01 0.49,-0.02 0.75,-0.02 3.18,0 8.26,1.07 13.21,6.67 0.17,0.19 0.34,0.39 0.51,0.59l0 0c3.52,4.22 4.95,8.08 5.37,11.22z"/>
  <path class="fil22" d="M173.17 248.32c0,0 0.3,-0.54 0.61,-1.52 0.52,-1 0.99,-2.27 0.95,-3.58 -0.03,-0.92 -0.19,-1.9 -0.47,-2.9 -0.43,-3.13 -1.85,-7 -5.37,-11.22 6.32,7.4 8.6,15.17 4.33,19.18l-0.04 0.04zm-4.8 -19.81c-4.95,-5.6 -10.04,-6.67 -13.21,-6.67 -0.26,0 -0.52,0.01 -0.75,0.02 1.16,-0.86 2.28,-1.27 3.42,-1.27 3.06,0 6.25,2.94 10.55,7.92z"/>
  <path class="fil23" d="M174.13 223.32c-9.56,-11.18 -22.85,-15.51 -29.69,-9.67 -0.3,0.25 -0.57,0.53 -0.83,0.81l-0.2 -0.22 134.6 -122.06 0.05 0.05c6.87,-5.69 20.06,-1.35 29.56,9.77 8.94,10.46 11.44,23.21 6.13,29.6l-133.37 123.05 -1.03 -0.79c6.46,-5.99 4.18,-19.54 -5.22,-30.55z"/>
  <path class="fil24" d="M183.02 244.58l-1.14 -4.16 0.69 -0.62c0.33,1.66 0.48,3.26 0.45,4.78z"/>
  <path class="fil25" d="M181.88 240.42l-2.64 -9.65c1.63,3.05 2.75,6.11 3.32,9.03l-0.69 0.62z"/>
  <path class="fil26" d="M201.54 161.54c-0.15,-0.16 -0.32,-0.33 -0.51,-0.53 1.2,-0.71 1.82,-1.07 3.03,-1.78 -0.45,-0.74 -0.69,-1.18 -1.06,-1.85 0.3,-0.16 0.55,-0.22 0.78,-0.22 0.29,0 0.55,0.1 0.8,0.19 0.26,0.1 0.52,0.19 0.84,0.19 0.2,0 0.43,-0.04 0.69,-0.15l-4.57 4.14z"/>
  <path class="fil27" d="M183.45 246.16l-0.43 -1.58c0.03,-1.52 -0.13,-3.13 -0.45,-4.78 -0.58,-2.91 -1.69,-5.98 -3.32,-9.03l-1.74 -6.37 -5.88 -5.2 42.44 -37.93c-0.6,0.22 -1.2,0.43 -2,0.71 -0.15,-1.34 -0.19,-2.04 -0.29,-3.43 -1.63,0.37 -2.44,0.55 -4.04,0.88 0.17,-1.33 0.26,-2.01 0.44,-3.35 -1.59,0.15 -2.38,0.22 -3.92,0.32 0.44,-1.26 0.67,-1.9 1.12,-3.17 -1.47,-0.07 -2.2,-0.11 -3.59,-0.27 0.68,-1.15 1.03,-1.74 1.72,-2.9 -1.28,-0.3 -1.89,-0.49 -3.06,-0.92 0.88,-1.01 1.35,-1.55 2.27,-2.61 -1.04,-0.53 -1.54,-0.82 -2.5,-1.43 1.06,-0.87 1.62,-1.33 2.7,-2.23 -0.58,-0.53 -0.94,-0.88 -1.39,-1.33l4.57 -4.14c0.24,-0.1 0.51,-0.25 0.82,-0.49 1.4,-1.05 3.22,-1.52 5.3,-1.52 6.87,0 16.5,5.22 22.65,12.41 6.48,7.59 9.94,16.1 9.21,23.15l-0.48 0.44 -0.66 0.58 -20.09 18.31 -39.42 35.88zm79.68 -71.84c-0.32,-6.96 -3.73,-15.22 -9.87,-22.55l0 0c-0.01,-0.01 -0.02,-0.03 -0.03,-0.04 -0,-0 -0,-0 -0,-0 -0.01,-0.01 -0.02,-0.03 -0.03,-0.04 -0,-0 -0,-0 -0,-0 -0.03,-0.04 -0.07,-0.08 -0.1,-0.12 -0,-0 -0.01,-0.01 -0.01,-0.01 -0.01,-0.01 -0.02,-0.02 -0.03,-0.03 -0,-0 -0.01,-0.01 -0.01,-0.01 -0.01,-0.01 -0.02,-0.02 -0.02,-0.03 -0,-0 -0.01,-0.01 -0.01,-0.01 -0.01,-0.01 -0.02,-0.02 -0.03,-0.03 -0,-0 -0.01,-0.01 -0.01,-0.01 -0.01,-0.01 -0.02,-0.03 -0.03,-0.04 -1.73,-2.02 -3.57,-3.85 -5.46,-5.47 1.42,-0.14 2.33,-0.23 3.93,-0.39 -0.31,1.23 -0.47,1.87 -0.78,3.07l54.8 -48.97c0.75,0.76 1.48,1.55 2.19,2.38 5.19,6.07 8.21,12.91 8.79,18.83 0.07,0.94 0.09,1.9 0.04,2.88l0 0 -53.33 50.6zm-16.4 -29.02c-0.75,-0.61 -1.51,-1.2 -2.28,-1.74 0.65,-0.16 1.31,-0.33 2.17,-0.54 0.04,0.94 0.07,1.51 0.11,2.29z"/>
  <g style="clip-path:url(#id3)">
   <image x="180.17" y="203.91" width="55.19" height="50.96" xlink:href="khoa_hoc_Images\khoa_hoc_ImgID4.png"/>
  </g>
  <polygon class="fil28" points="235.14,204.14 240.93,198.8 240.93,198.8 235.14,204.14 "/>
  <path class="fil29" d="M180.39 254.66l-0.56 -0.42 5.69 -9.91 37.35 -34.04 20.75 -18.89 0.48 -0.42c-0.31,2.92 -1.33,5.58 -3.16,7.83l-5.79 5.35 -54.75 50.52z"/>
  <polygon class="fil30" points="222.87,210.28 242.95,191.97 243.61,191.39 "/>
  <path class="fil31" d="M262.92 178.51l0 0 50.84 -46.91 -50.84 46.91zm50.84 -46.91l0 0zm0.02 -0.02l0 -0 0 0 0 -0 0 -0 -0 0 -0 0 -0 0 -0 0zm0.02 -0.02l0 -0 0 0 0 -0 0 0 0 -0 -0 0 -0 0 -0 0 -0 0 -0 0z"/>
  <path class="fil29" d="M262.92 178.51c0.2,-1.31 0.27,-2.69 0.21,-4.12l53.33 -50.67 0.04 -0.01c-0.13,3.08 -1.01,5.79 -2.7,7.85 -0,0 -0,0 -0,0.01 -0.01,0.01 -0.01,0.01 -0.01,0.02 -0,0 -0,0 -0,0.01 -0.01,0.01 -0.01,0.02 -0.02,0.02l0 0 -50.84 46.91z"/>
  <path class="fil30" d="M263.13 174.39c-0,-0.02 -0,-0.05 -0,-0.07l53.33 -50.6 -53.33 50.67z"/>
  <path class="fil32" d="M175.95 258.07c3.99,-1.39 6.97,-4.28 8.52,-8.32 2.71,-7.07 0.45,-16.5 -6.04,-25.22 -11.99,-16.11 -24.08,-17.85 -31.4,-14.1 -2.66,1.37 -4.4,3.37 -5.16,5.94 -1.88,6.36 2.85,14.55 5.39,18.95l0.37 0.64c3.25,5.66 16.26,16.82 23.57,13.87 2.38,-0.96 3.97,-2.5 4.73,-4.56 1.66,-4.52 -1.28,-10.12 -2.85,-13.12l-0.23 -0.44c-2.14,-4.12 -12.66,-14.53 -18.64,-11.59 -1.85,0.91 -3,2.4 -3.34,4.3 -0.67,3.79 2.16,8.37 4.23,10.52 0.63,0.66 1.67,0.68 2.33,0.05 0.66,-0.63 0.68,-1.67 0.05,-2.33 -1.6,-1.67 -3.78,-5.27 -3.36,-7.67 0.15,-0.86 0.64,-1.47 1.55,-1.91 3.17,-1.57 12.3,6.4 14.26,10.16l0.24 0.45c1.24,2.37 3.83,7.31 2.68,10.45 -0.43,1.17 -1.37,2.03 -2.87,2.64 -4.59,1.87 -16.27,-6.86 -19.48,-12.45l-0.37 -0.65c-2.29,-3.97 -6.56,-11.37 -5.09,-16.37 0.5,-1.7 1.65,-2.99 3.5,-3.94 5.84,-2.99 16.48,-1.34 27.25,13.14 5.81,7.81 7.91,16.07 5.61,22.08 -1.39,3.62 -4.3,6.05 -8.19,6.84 -8.56,1.73 -25.14,-7.67 -31.63,-26.32 -0.3,-0.86 -1.24,-1.31 -2.1,-1.01 -0.86,0.3 -1.31,1.24 -1.01,2.1 7.18,20.62 25.45,30.48 35.4,28.47 0.73,-0.15 1.43,-0.34 2.1,-0.57z"/>
  <path class="fil33" d="M236.88 165.87c-7.45,-8.72 -16.87,-13.8 -24.61,-14.07l-7.77 7.04c0.3,-0.08 0.63,-0.25 1.05,-0.56 6.02,-4.5 19.95,1.52 27.95,10.89 9.02,10.56 12.19,22.92 6.34,30.62l6.94 -6.4c1.41,-7.8 -2.12,-18.42 -9.9,-27.52z"/>
  <path class="fil18" d="M238.26 164.49c-10.91,-12.76 -26.05,-17.75 -33.94,-11.21l-1.21 1.26 -1.06 2.21 0.36 1.03c1.05,-0.87 1.6,-0.65 2.17,-0.43 0.58,0.22 1.18,0.43 2.35,-0.44 6.02,-4.5 19.95,1.52 27.95,10.89 9.28,10.86 12.37,23.63 5.83,31.26 -0.6,0.7 1.13,2.05 0.55,2.75 0,0 0.49,0.08 0.62,-0.02 1.31,-1 3.43,-3.33 3.43,-3.33 6.1,-7.33 3.22,-21.97 -7.04,-33.98z"/>
  <path class="fil34" d="M252.94 151.39c-10.91,-12.76 -26.05,-17.75 -33.94,-11.21l-0.06 -0.06 -14.35 12.94c8,-5.99 22.89,-0.99 33.59,11.53 10.26,12.01 13.14,26.65 7.04,33.98l14.75 -13.2c6.1,-7.33 3.22,-21.97 -7.04,-33.98z"/>
  <path class="fil35" d="M248.34 186.96c-0.47,-6.79 -3.8,-14.72 -9.68,-21.81 5.88,7.08 9.22,15.02 9.69,21.81l-0 0zm-9.69 -21.81c-0.01,-0.01 -0.02,-0.03 -0.03,-0.04 0.01,0.01 0.02,0.02 0.03,0.04zm-0.04 -0.04c-0.01,-0.01 -0.02,-0.03 -0.03,-0.04 0.01,0.01 0.02,0.03 0.03,0.04zm-0.03 -0.04c-0.02,-0.03 -0.05,-0.06 -0.07,-0.08 0.02,0.03 0.05,0.06 0.07,0.08zm-0.07 -0.09c-0.01,-0.01 -0.02,-0.02 -0.03,-0.04 0.01,0.01 0.02,0.02 0.03,0.04zm-0.04 -0.04c-0.01,-0.01 -0.02,-0.02 -0.03,-0.03 0.01,0.01 0.02,0.02 0.03,0.03zm-0.03 -0.04c-0.01,-0.01 -0.02,-0.02 -0.03,-0.03 0.01,0.01 0.02,0.02 0.03,0.03zm-0.03 -0.04c-0.02,-0.03 -0.05,-0.05 -0.07,-0.08 0.02,0.03 0.05,0.05 0.07,0.08zm-0.08 -0.09c-0.01,-0.01 -0.02,-0.02 -0.02,-0.03 0.01,0.01 0.02,0.02 0.02,0.03zm-0.04 -0.04c-0.01,-0.01 -0.01,-0.02 -0.02,-0.03 0.01,0.01 0.01,0.02 0.02,0.03zm-0.03 -0.04c-0.01,-0.01 -0.02,-0.02 -0.02,-0.03 0.01,0.01 0.02,0.02 0.02,0.03zm-0.03 -0.04c-0.01,-0.01 -0.02,-0.03 -0.03,-0.04 -1.13,-1.33 -2.32,-2.56 -3.53,-3.72 0,-0 0,-0 0,-0 1.21,1.15 2.39,2.39 3.53,3.72 0.01,0.01 0.02,0.03 0.03,0.04z"/>
  <path class="fil36" d="M253.26 151.77l0 0zm-0.03 -0.04c-0,-0 -0,-0 -0,-0 0,0 0,0 0,0zm-0.04 -0.04c-0,-0 -0,-0 -0,-0 0,0 0,0 0,0zm-0.1 -0.12c-0,-0 -0.01,-0.01 -0.01,-0.01 0,0 0.01,0.01 0.01,0.01zm-0.03 -0.04c-0,-0 -0.01,-0.01 -0.01,-0.01 0,0 0.01,0.01 0.01,0.01zm-0.03 -0.04c-0,-0 -0.01,-0.01 -0.01,-0.01 0,0 0.01,0.01 0.01,0.01zm-0.04 -0.04c-0,-0 -0.01,-0.01 -0.01,-0.01 0,0 0.01,0.01 0.01,0.01z"/>
  <path class="fil37" d="M248.34 186.96c-0.47,-6.79 -3.81,-14.72 -9.69,-21.81 -0,-0 -0,-0 -0,-0 -0.01,-0.01 -0.02,-0.02 -0.03,-0.04 -0,-0 -0,-0 -0,-0.01 -0.01,-0.01 -0.02,-0.03 -0.03,-0.04 -0,-0 -0,-0 -0,-0 -0.02,-0.03 -0.05,-0.06 -0.07,-0.08 -0,-0 -0,-0 -0,-0 -0.01,-0.01 -0.02,-0.02 -0.03,-0.04 -0,-0 -0.01,-0.01 -0.01,-0.01 -0.01,-0.01 -0.02,-0.02 -0.03,-0.03 -0,-0 -0.01,-0.01 -0.01,-0.01 -0.01,-0.01 -0.02,-0.02 -0.03,-0.03 -0,-0 -0.01,-0.01 -0.01,-0.01 -0.02,-0.03 -0.05,-0.05 -0.07,-0.08 -0,-0 -0.01,-0.01 -0.01,-0.01 -0.01,-0.01 -0.02,-0.02 -0.02,-0.03 -0,-0 -0.01,-0.01 -0.01,-0.01 -0.01,-0.01 -0.01,-0.02 -0.02,-0.03 -0,-0 -0.01,-0.01 -0.01,-0.01 -0.01,-0.01 -0.02,-0.02 -0.02,-0.03 -0,-0 -0.01,-0.01 -0.01,-0.01 -0.01,-0.01 -0.02,-0.03 -0.03,-0.04 -1.13,-1.33 -2.31,-2.57 -3.53,-3.72 3.83,-3.15 10.91,-8.72 11.16,-9.13 0.19,-0.32 3.75,-0.49 6.91,-0.59 0.07,0.08 0.14,0.16 0.21,0.24 0.01,0.01 0.02,0.03 0.03,0.04 0,0 0.01,0.01 0.01,0.01 0.01,0.01 0.02,0.02 0.03,0.03 0,0 0.01,0.01 0.01,0.01 0.01,0.01 0.02,0.02 0.02,0.03 0,0 0.01,0.01 0.01,0.01 0.01,0.01 0.02,0.02 0.03,0.03 0,0 0.01,0.01 0.01,0.01 0.03,0.04 0.07,0.08 0.1,0.12 0,0 0,0 0,0 0.01,0.01 0.02,0.03 0.03,0.04 0,0 0,0 0,0 0.01,0.01 0.02,0.03 0.03,0.04l0 0c5.86,6.99 9.23,14.83 9.8,21.58l-14.72 13.6z"/>
  <polygon class="fil38" points="271.2,154.6 270.69,157.72 235.88,159.28 234.82,156.22 "/>
  <polygon class="fil39" points="263.55,144.23 271.2,154.6 234.82,156.22 244.69,144.73 "/>
  <polygon class="fil38" points="236.58,175.26 237.63,178.32 218.89,167.68 217.83,164.62 "/>
  <polygon class="fil38" points="258.41,169.5 259.46,172.56 237.63,178.32 236.58,175.26 "/>
  <polygon class="fil39" points="234.52,156.57 258.41,169.5 236.58,175.26 217.83,164.62 "/>
  <polygon class="fil40" points="240.43,171.46 241.47,168.86 245.36,168.41 245.59,165.9 249.53,164.93 249.46,164.66 234.52,156.57 217.83,164.62 233.9,173.74 234.96,173.95 236.76,171.36 "/>
  <polygon class="fil41" points="241.36,131.11 243.47,137.22 244.05,139.52 241.94,133.41 "/>
  <polygon class="fil42" points="202.52,148.49 204.62,154.6 203.23,152.61 201.12,146.5 "/>
  <polygon class="fil42" points="245.88,132.43 247.99,138.54 247.74,141.05 245.63,134.94 "/>
  <polygon class="fil42" points="201.11,151.96 203.22,158.07 201.09,156.47 198.98,150.36 "/>
  <polygon class="fil42" points="249.52,134.48 251.63,140.59 250.57,143.18 248.47,137.07 "/>
  <polygon class="fil42" points="200.8,155.31 202.91,161.42 200.13,160.28 198.03,154.17 "/>
  <polygon class="fil42" points="252.14,137.16 254.25,143.27 252.42,145.85 250.32,139.74 "/>
  <polygon class="fil42" points="201.58,158.38 203.69,164.49 200.4,163.87 198.29,157.76 "/>
  <polygon class="fil42" points="253.62,140.36 255.72,146.47 253.21,148.92 251.1,142.81 "/>
  <polygon class="fil42" points="203.44,161.04 205.54,167.15 201.87,167.07 199.76,160.96 "/>
  <polygon class="fil42" points="253.87,143.95 255.98,150.06 252.89,152.27 250.79,146.16 "/>
  <polygon class="fil42" points="206.27,163.18 208.37,169.29 204.48,169.75 202.38,163.64 "/>
  <polygon class="fil42" points="252.92,147.75 255.02,153.86 251.49,155.73 249.39,149.62 "/>
  <polygon class="fil42" points="209.96,164.71 212.07,170.82 208.14,171.8 206.03,165.69 "/>
  <polygon class="fil43" points="250.78,151.62 252.89,157.73 249.07,159.18 246.96,153.07 "/>
  <polygon class="fil43" points="214.36,165.55 216.46,171.65 212.65,173.12 210.54,167.01 "/>
  <polygon class="fil42" points="246.96,153.07 249.07,159.18 249.67,161.48 247.56,155.37 "/>
  <polygon class="fil43" points="247.56,155.37 249.67,161.48 245.73,162.45 243.62,156.34 "/>
  <polygon class="fil43" points="219.25,165.66 221.36,171.77 217.84,173.65 215.74,167.54 "/>
  <polygon class="fil42" points="215.74,167.54 217.84,173.65 216.46,171.65 214.36,165.55 "/>
  <polygon class="fil42" points="243.4,158.84 245.5,164.95 241.61,165.4 239.51,159.29 "/>
  <polygon class="fil43" points="243.62,156.34 245.73,162.45 245.5,164.95 243.4,158.84 "/>
  <polygon class="fil43" points="224.45,165.05 226.55,171.16 223.48,173.38 221.37,167.27 "/>
  <polygon class="fil42" points="221.37,167.27 223.48,173.38 221.36,171.77 219.25,165.66 "/>
  <polygon class="fil42" points="238.47,161.89 240.57,168 236.9,167.91 234.8,161.8 "/>
  <polygon class="fil43" points="239.51,159.29 241.61,165.4 240.57,168 238.47,161.89 "/>
  <polygon class="fil43" points="229.7,163.75 231.81,169.86 229.32,172.31 227.21,166.2 "/>
  <polygon class="fil42" points="227.21,166.2 229.32,172.31 226.55,171.16 224.45,165.05 "/>
  <polygon class="fil42" points="232.99,164.38 235.1,170.49 231.81,169.86 229.7,163.75 "/>
  <polygon class="fil44" points="246.96,153.06 247.56,155.36 243.62,156.33 243.39,158.84 239.51,159.29 238.46,161.89 234.8,161.79 232.99,164.38 229.7,163.74 227.21,166.2 224.45,165.05 221.37,167.26 219.25,165.66 215.74,167.53 214.35,165.54 210.54,167 209.96,164.7 206.03,165.68 206.26,163.18 202.38,163.64 203.43,161.03 199.76,160.96 201.58,158.38 198.29,157.75 200.8,155.3 198.02,154.17 201.11,151.96 198.98,150.36 202.51,148.49 201.12,146.49 204.94,145.04 204.34,142.74 208.28,141.77 208.5,139.27 212.39,138.82 213.43,136.22 217.1,136.31 218.91,133.73 222.19,134.36 224.69,131.91 227.45,133.06 230.53,130.84 232.65,132.45 236.17,130.57 237.55,132.57 241.36,131.1 241.94,133.41 245.88,132.42 245.63,134.93 249.52,134.47 248.47,137.07 252.14,137.15 250.31,139.73 253.61,140.36 251.1,142.81 253.87,143.94 250.78,146.15 252.91,147.75 249.39,149.62 250.78,151.61 "/>
  <polygon class="fil43" points="234.8,161.8 236.9,167.91 235.1,170.49 232.99,164.38 "/>
  <path class="fil45" d="M111.57 118.48c0,4.29 -3.48,7.76 -7.76,7.76 -4.29,0 -7.76,-3.48 -7.76,-7.76 0,-4.29 3.48,-7.76 7.76,-7.76 4.29,0 7.76,3.48 7.76,7.76z"/>
  <path class="fil16" d="M106.63 111.25c1.35,1.4 2.18,3.29 2.18,5.39 0,4.29 -3.48,7.76 -7.76,7.76 -1,0 -1.95,-0.2 -2.82,-0.54 0.25,0.26 0.52,0.5 0.8,0.72 1.32,1.04 2.98,3.19 4.78,3.19 4.45,0 2.84,-1.94 4.01,-2.65 2.25,-1.36 3.76,-3.83 3.76,-6.65 0,-3.29 -2.05,-6.09 -4.94,-7.23z"/>
  <path class="fil43" d="M236.96 136.23c9.21,1.76 11.75,8.93 5.67,16 -6.08,7.08 -18.48,11.4 -27.69,9.64 -9.21,-1.76 -11.75,-8.92 -5.67,-16.01 6.08,-7.08 18.47,-11.39 27.68,-9.64z"/>
  <path class="fil46" d="M235.5 137.92c-8,-1.53 -18.76,2.22 -24.04,8.36 -5.28,6.15 -3.07,12.37 4.93,13.9 8,1.53 18.76,-2.22 24.04,-8.37 5.28,-6.15 3.07,-12.37 -4.93,-13.9z"/>
  <polygon class="fil47" points="254.21,89.8 254.21,89.8 304.03,67.87 304.03,67.87 304.03,59.16 304.03,67.87 "/>
  <g style="clip-path:url(#id4)">
   <image x="253.96" y="89.64" width="0.47" height="0.38" xlink:href="khoa_hoc_Images\khoa_hoc_ImgID5.png"/>
  </g>
  <g style="clip-path:url(#id5)">
   <image x="253.96" y="89.64" width="0.38" height="0.38" xlink:href="khoa_hoc_Images\khoa_hoc_ImgID6.png"/>
  </g>
  <polygon class="fil48" points="254.15,89.82 254.15,89.82 254.17,89.81 254.17,89.82 "/>
  <polygon class="fil49" points="172.52,125.75 172.52,125.75 228.07,101.3 228.07,101.3 "/>
  <polygon class="fil50" points="228.07,101.3 228.07,101.3 254.15,89.82 254.15,89.82 "/>
  <polygon class="fil29" points="172.52,125.75 172.52,117.05 304.03,59.16 304.03,67.87 304.03,67.87 254.21,89.8 254.17,89.81 254.17,89.81 254.15,89.82 228.07,101.3 "/>
  <path class="fil51" d="M140.21 233.8c-25.18,-3.71 -42.75,-12.04 -42.75,-21.73 0,-13.13 32.33,-23.78 72.2,-23.78 1.03,0 2.04,0 3.07,0.03l-30.07 27.26 0.24 0.26c-1.89,2.48 -1.87,6.62 -0.49,9.22 0.88,1.64 -3.63,3.96 -3.15,5.91 0.24,0.95 0.56,1.9 0.97,2.83l0 0z"/>
  <path class="fil51" d="M280.89 195.59c-4.76,-1.44 -8.92,-1.35 -12.48,0 -4.63,1.44 -11.58,4.41 -23.12,9.37 -0.69,0.29 -1.37,0.59 -2.06,0.88 -0.04,0.02 -0.04,0.04 -0.09,0.04 -0.56,-1.44 -0.86,-2.09 -2.19,-3.44 -0.6,0.7 -3.99,1.8 -5.83,1.69l-51.59 47.61c-2.36,4.14 -5.79,6.03 -9.69,6.89 6,0.41 8.79,-0.83 11.71,-1.78 37.23,-12.34 105.76,-36.03 114.08,-47.74 2.02,-2.97 -8.66,-10.68 -18.74,-13.53z"/>
 </g>
</svg>
