<?xml version="1.0" encoding="UTF-8"?>
<!DOCTYPE svg PUBLIC "-//W3C//DTD SVG 1.1//EN" "http://www.w3.org/Graphics/SVG/1.1/DTD/svg11.dtd">
<!-- Creator: CorelDRAW 2020 (64-Bit) -->
<svg xmlns="http://www.w3.org/2000/svg" xml:space="preserve" width="8.64489in" height="9.69009in" version="1.1" style="shape-rendering:geometricPrecision; text-rendering:geometricPrecision; image-rendering:optimizeQuality; fill-rule:evenodd; clip-rule:evenodd"
viewBox="0 0 1311.23 1469.76"
 xmlns:xlink="http://www.w3.org/1999/xlink"
 xmlns:xodm="http://www.corel.com/coreldraw/odm/2003">
 <defs>
  <style type="text/css">
   <![CDATA[
    .fil8 {fill:#88BADD}
    .fil2 {fill:#9B055B}
    .fil7 {fill:#9D015A}
    .fil0 {fill:#F2A6A8}
    .fil3 {fill:#F3DA6C}
    .fil5 {fill:#F7E58A}
    .fil4 {fill:#F8CAA8}
    .fil1 {fill:#FCE3CF}
    .fil6 {fill:#FEFCAC}
    .fil10 {fill:#88BADD;fill-rule:nonzero}
    .fil9 {fill:#F2A6A8;fill-rule:nonzero}
   ]]>
  </style>
 </defs>
 <g id="Layer_x0020_1">
  <metadata id="CorelCorpID_0Corel-Layer"/>
  <g id="_2398466636848">
   <path class="fil0" d="M623.74 573.71c8.98,4.31 14.23,55.25 9.49,75.18 -4.91,20.66 -15.29,34.72 -32.38,46.19 -4.87,3.27 -4.88,3.3 -7.71,2.43 2.22,11.39 10.96,27.01 16.65,35.35 15.17,22.24 36.18,36.17 64.44,37.95 22.39,1.41 26.82,-2.08 42.73,-6.29 -2.81,4.85 -21.94,16.36 -27.7,18.91 -41.27,18.29 -74.28,-0.05 -95.47,-36.64 -1.11,0.75 -0.51,0.08 -1.73,1.54 -18.67,22.49 -45.98,184.8 -48.26,189.18l-0.13 -26.05c-2.75,7.41 -1.9,26.46 -1.25,34.71 1.36,17.16 8.69,12.34 18.59,19.97 33.81,0.71 63.99,32.86 81.67,56.26 27.59,36.51 84.51,91.98 127.84,103.73 2.2,-1.1 14.96,0.09 19.1,0.02 12.21,-0.21 30.62,-4.63 41.79,-9.54l12.05 -5.49c5.8,-2.98 2.37,-0.04 4.68,-4.08l-24.24 7.6c0.07,-0.67 0.42,-1.31 0.53,-1.1l10.76 -7.49c3.81,-2.6 7.85,-5.62 11.07,-8.02 50.51,-37.73 89.25,-88.65 73.36,-157.71 -2.55,-11.1 -6.51,-20.7 -9,-30.96 -35.8,-3.53 -39.13,-11.25 -59.8,-28.92 18.55,7.11 45.59,24.87 74.94,-1.42 5.42,-4.86 12.46,-15.23 8.18,-22.95l-0.54 5.65c-3.06,1.08 -3.9,0.61 -6.67,1.63l-5.77 2.73c-28.96,10.62 -42.94,11.29 -71.89,-2.08 -2.69,-1.24 -19.19,-12 -20.76,-16.03 0.13,-8.76 6.68,-15.46 11.48,-21.49 -2.05,-5.8 -5.32,-6.58 -7.47,-12.74 -3.09,-8.85 -2.21,-6.66 -7.74,-13.81 -4.33,-5.6 -18.14,-20.16 -16.6,-22.19 -1.77,-2.93 -0.58,-1.36 -3.09,-3.59 -6.62,-5.88 -22.61,-13.95 -25.8,-16.47 21.68,-3.78 38.78,-11.26 50.17,-22.97 10.54,-10.83 22.5,-32.15 18.92,-54.9 -4.95,-31.43 -37.59,-56.93 -59.15,-79.64l-5.06 -4.26c-19.36,18.53 -42.41,37.37 -77.44,21.25 -12.96,-5.96 -23.29,-15.99 -30.71,-23.27 -12.95,-12.7 -15.48,-19.47 -23.48,-29.94l-0.8 -3 -6.22 4.15c-2.44,1.69 -3.61,2.43 -6.01,3.54 -4.31,1.98 -12.05,2.75 -15.56,5.08z"/>
   <path class="fil1" d="M545.57 1071.37l4.56 -3.22c0.17,-0.18 0.38,-0.45 0.55,-0.63 10.72,-11.54 12.36,-16.25 17.26,-12.05 0.25,0.21 0.94,0.93 1.18,1.17 16.62,16.23 61.97,42.78 79.02,49.71 4.44,1.8 6.87,2.24 11.21,4.33 10.34,4.99 59.2,17.82 72.24,16.37 3.55,-0.4 1.57,0.26 3.38,-1.25 -32.33,-12.36 -43.54,-25.02 -64.59,-41.56l-59.56 -69.43c-39.97,-50.72 -48.45,-38.19 -61.39,-46.02l11.58 -2.66c-9.9,-7.62 -17.23,-2.81 -18.59,-19.97 -0.65,-8.25 -1.5,-27.3 1.25,-34.71 -1.07,-35.94 6.49,-84.95 13.52,-119.16 8.11,-39.46 18.32,-66.99 33.36,-100.12l2.6 5.33c2.82,0.87 2.84,0.84 7.71,-2.43 17.09,-11.47 27.47,-25.53 32.38,-46.19 4.74,-19.93 -0.51,-70.86 -9.49,-75.18 -6.68,-1.33 -14.26,-0.94 -20.85,-2.23 -18.7,-3.66 -51.15,-16.87 -72.26,5.51 -21.11,22.39 -28.86,46.99 -35.32,78.22 -8.05,38.95 -12.3,82.7 -14.63,122.3 -3.43,58.38 -4.21,119.44 -1.7,177.92 1.57,36.64 24.72,73.15 49.2,97.83 2.2,2.22 3.45,3.93 5.46,6.47 3.65,4.6 7.84,9.11 11.91,11.64z"/>
   <path class="fil2" d="M854.47 357.16c-14.83,42.74 -54.47,93.64 -93.3,118.32 -16.46,10.46 -17.69,11.28 -32.91,-4.43 -2.96,-3.06 -5.86,-4.82 -8.7,-8.02 -8.83,-9.94 -21.42,-28.43 -28,-42.42 -1.68,-3.58 -10.21,-22.36 -10.17,-25.23 0.08,-5.44 29.48,-55.91 34.88,-67.42 12.3,-26.2 14.01,-47.29 17.23,-53.31 4.06,2.45 9.16,8.06 14.51,11.85 28.64,20.32 90.43,48.11 106.45,70.64zm118.72 252.74c-3.61,-6.75 -23.7,-25.98 -32.22,-29.81 -6.38,-11.39 -87.3,-46.88 -111.86,-80.87 -5.04,-6.97 -8.55,-12.25 -10.98,-21.24 -1.23,-4.55 -2.31,-10.68 -1.31,-15.74 0.78,-3.91 1.55,-4.6 7.62,-10.2 4.01,-4.52 8.47,-10.49 12.15,-15.72l22.62 -34.71c3.87,-6.46 6.04,-13.09 10.43,-18.37 0.15,0.25 0.38,0.36 0.43,0.78 0.8,6.01 5.98,12.45 1.39,35.84 -2.5,12.73 -6.66,20.91 -10.26,31.92 6.35,-3.45 15.74,-17.22 20.27,-25.5 5.66,-10.35 9.51,-22.57 9.34,-36.45 -1.69,-70.41 -97.87,-95.47 -149.46,-136.06 -7.4,-5.82 -16.17,-14.75 -21.86,-18.1 -1.47,22.3 -1.51,34.55 -9.2,54.1 -4.8,12.2 -15.36,32.75 -21.14,41.6 -40.45,61.9 -31.56,73.16 -38.02,86.13 -0.56,18.03 -2.13,28.97 3.16,46.36 1.79,5.88 4.51,13.04 7.59,18.64 1.72,3.13 9.57,14.59 9.76,15.29 3.68,-1.48 1.2,-0.76 -0.95,-13.38 -3.05,-17.9 -1.5,-32.32 0.27,-50.16 1.27,0.65 12.5,20 14.73,23.24 2.76,4 5.32,6.79 8.21,10.89 2.55,3.62 6.16,8.44 9.05,11.32 11.55,11.55 18.14,18.17 32.1,26.35 7.36,4.31 6.45,4.85 15,2 6.39,-3.73 15.39,-7.22 23.16,-12.08 6.7,-4.19 16.09,-12.17 21.23,-14.48 10.98,42.51 63.52,72.71 98.88,95.65l33.1 22.98c85.26,62.8 30.8,115.98 29.66,131.28 9.8,-6.32 15.71,-12.65 22.39,-20.63 8.44,-10.06 9.44,-14.79 15.73,-26.78 5.91,-29.23 1.56,-46.34 -17.35,-71 -1.9,-2.48 -1.47,-2.05 -3.63,-3.09z"/>
   <path class="fil2" d="M675.89 511.56c-5.44,11 -27.31,32.93 -44.71,35.7 -24.91,3.95 -45.85,-9.13 -70.84,-8 -26.32,1.19 -37.8,10.43 -53.63,27 -56.79,59.44 -50.75,266.03 -49.19,351.37 0.46,25.16 1.69,55.98 9.93,78 18.41,49.2 64.02,98.99 106.85,126.22 33.66,21.4 67.35,38.51 113.11,49.38 34.58,8.21 74.71,10.21 110.69,4.06 8.23,-1.41 27.81,-6.82 33.5,-6.91 -0.28,-0.16 -0.74,-0.61 -0.9,-0.33l-3.86 -0.7c-1.4,-0.06 -3.79,0.2 -5.14,0.28 -26.45,1.63 -52.65,-0.16 -78.74,-4.32 -70.29,-11.21 -152.74,-47 -197.38,-91.94 -4.07,-2.53 -8.27,-7.04 -11.91,-11.64 -2.02,-2.54 -3.26,-4.26 -5.46,-6.47 -24.48,-24.67 -47.63,-61.19 -49.2,-97.83 -2.51,-58.48 -1.73,-119.55 1.7,-177.92 2.33,-39.6 6.57,-83.35 14.63,-122.3 6.46,-31.23 14.21,-55.82 35.32,-78.22 21.11,-22.39 53.56,-9.17 72.26,-5.51 6.59,1.29 14.17,0.9 20.85,2.23 3.51,-2.33 11.25,-3.1 15.56,-5.08 2.4,-1.11 3.57,-1.85 6.01,-3.54l6.22 -4.15c1.72,-3.18 6.01,-6.7 9.25,-10.2 2.78,-3 5.78,-7.7 8.28,-11.96 5.3,-9.03 9.33,-18.72 10.93,-30.34l-4.11 3.12z"/>
   <path class="fil1" d="M854.47 357.16c-16.02,-22.53 -77.81,-50.32 -106.45,-70.64 -5.34,-3.79 -10.45,-9.41 -14.51,-11.85 -3.22,6.02 -4.92,27.11 -17.23,53.31 -5.4,11.5 -34.8,61.98 -34.88,67.42 -0.04,2.87 8.49,21.65 10.17,25.23 6.58,13.99 19.17,32.48 28,42.42 2.84,3.2 5.74,4.96 8.7,8.02 15.22,15.71 16.45,14.89 32.91,4.43 38.83,-24.68 78.47,-75.58 93.3,-118.32z"/>
   <path class="fil3" d="M750.03 508.06c-1.15,11.84 0.6,14.38 2.04,22.72 0.91,5.25 0.57,5.3 -0.72,6.7 2.05,2.05 6.61,10.88 8.79,13.98 3.51,4.99 7.05,9.13 10.55,13.32 6.9,8.27 16.13,15.45 24.9,22.85 4.31,3.64 8,6.39 13.28,10.61 32.13,25.68 72.64,52.42 62.37,105.68 -3.5,18.16 -13.59,33.89 -25.38,46.23 -4.8,5.03 -8.63,6.98 -13.64,11.83 3.7,5.48 12.3,14.95 17.27,18.9 -1.93,-5.26 0.25,-1.54 2.35,-2.28 0.44,-0.16 24.35,-0.86 31.53,-7.58 0.09,-0.57 8.76,-11.71 10.19,-13.79 50.06,-73.14 -17.4,-118.2 -65.82,-163.52 -5.21,-4.88 -8.87,-8.84 -13.8,-13.71 -10.89,-10.75 -35.98,-45.28 -39.95,-66.6 3.69,2.93 16.39,20.47 22.78,27.65 33.74,37.96 45.99,37.86 81.74,68.73 17.11,14.78 33.71,30.73 46.27,54.08 16.34,30.37 12.76,49.74 -2.87,76.66 14.4,0.42 18.86,-3.18 28.33,-7.76 5.48,-2.65 2.47,1.77 5.79,-1.35 1.15,-15.3 55.6,-68.48 -29.66,-131.28l-33.1 -22.98c-35.36,-22.94 -87.9,-53.14 -98.88,-95.65 -5.14,2.31 -14.53,10.3 -21.23,14.48 -7.77,4.86 -16.76,8.35 -23.16,12.08z"/>
   <path class="fil3" d="M723.29 218.9c-8.16,1.28 -1.57,0.24 -6.18,2.63 -4.34,2.24 -3.65,1.72 -9.41,1.1 0.98,1.64 0.46,1.61 0.73,1.29 -11.61,-3.36 -17.63,-4.34 -28.6,1.97 -43.95,25.27 -55.29,97.88 -42.15,149.48l5.99 19.34c1.42,4.61 0.41,4.98 -0.36,6.1 3.16,4.99 8.96,8.64 7.83,16.7 6.46,-12.96 -2.44,-24.22 38.02,-86.13 5.78,-8.85 16.34,-29.4 21.14,-41.6 7.69,-19.55 7.73,-31.8 9.2,-54.1 5.69,3.35 14.46,12.29 21.86,18.1 51.59,40.59 147.77,65.65 149.46,136.06 2.22,-2.91 4.49,-11.45 5.69,-15.25 3.06,-9.69 2.25,-10.71 2.21,-20.89 -2.03,-1.6 -1.69,2.78 -1.77,-3.87 -2.06,-3.38 -2.19,-10.51 -3.51,-15.21l-5.04 -13.12c-6.8,-20.95 -18.75,-40.1 -33.98,-55.37 -12.28,-12.32 -6.48,-7.33 -19.54,-17.6 -9.99,-7.85 -22.38,-14.95 -34.34,-19.24 -9.7,-3.48 -15.8,-6.08 -27.6,-8.27 -3.5,-0.65 -29.91,-4.26 -30.5,-4.55l-20.04 3.96 0.88 -1.53z"/>
   <path class="fil4" d="M545.57 1071.37c44.65,44.94 127.09,80.74 197.38,91.94 26.09,4.16 52.29,5.94 78.74,4.32 1.35,-0.08 3.74,-0.34 5.14,-0.28l3.86 0.7c0.16,-0.28 0.63,0.17 0.9,0.33l24.22 -10.51c10.07,-5.32 14.7,-7.22 21.43,-14.47 5.66,-6.1 11.23,-13.72 12.58,-23.34 1.49,-10.62 -0.32,-23.88 -4.31,-31.09 -2.2,0.9 -37.35,18.05 -37.37,18.07 -2.32,4.04 1.12,1.1 -4.68,4.08l-12.05 5.49c-11.17,4.91 -29.58,9.33 -41.79,9.54 -4.14,0.07 -16.9,-1.13 -19.1,-0.02 4.4,3.52 16.91,4.73 23.43,5.44 -8.69,6.24 -41.67,1.23 -58.97,-5.75 -1.81,1.51 0.17,0.86 -3.38,1.25 -13.04,1.45 -61.9,-11.38 -72.24,-16.37 -4.33,-2.09 -6.77,-2.53 -11.21,-4.33 -17.05,-6.93 -62.4,-33.48 -79.02,-49.71 -0.24,-0.24 -0.93,-0.96 -1.18,-1.17 -4.91,-4.2 -6.54,0.52 -17.26,12.05 -0.17,0.18 -0.38,0.45 -0.55,0.63l-4.56 3.22z"/>
   <path class="fil2" d="M933.94 856.06c4.27,7.72 -2.76,18.09 -8.18,22.95 -29.34,26.29 -56.38,8.53 -74.94,1.42 20.67,17.67 24,25.39 59.8,28.92 2.49,10.25 6.45,19.86 9,30.96 15.89,69.05 -22.86,119.98 -73.36,157.71 -3.22,2.4 -7.25,5.42 -11.07,8.02l-10.76 7.49c-0.11,-0.22 -0.46,0.43 -0.53,1.1l24.24 -7.6c0.02,-0.02 35.17,-17.17 37.37,-18.07 2.7,-3.04 14.77,-10.05 19.17,-13.7 3.67,-3.05 5.75,-5.49 8.71,-8.01 13.24,-11.3 27.84,-31.61 34.06,-50.78 13.26,-40.84 3.04,-77.72 -9.59,-113.57 4.3,-5.32 14.24,-8.33 18.42,-27.96 9,-42.31 -31.85,-65.7 -69.44,-71.14 -1.37,1.26 -3.68,-0.73 1.47,2.61 9.73,6.31 15.95,9.38 25.4,19 5.76,5.87 20.68,18.02 20.24,30.67z"/>
   <path class="fil1" d="M652.34 563.94c8,10.47 10.53,17.24 23.48,29.94 7.42,7.28 17.76,17.31 30.71,23.27 35.03,16.12 58.08,-2.72 77.44,-21.25 -2.11,-3.7 -7.61,-9.35 -10.93,-13.18 -3.36,-3.89 -7,-8.84 -10.11,-13.75 -7.04,-11.11 -11.23,-19.59 -14.04,-34.64 -6.75,2.23 -2.58,10.06 -16.75,3.24 -6.17,-2.97 -10.38,-5.92 -15.16,-9.8 -2.51,-2.03 -6.19,-3.73 -7.91,-5.27l-12.55 -12.6c-3.68,-4.15 -1.01,-4.1 -6.01,-6.33l-2.16 11.24c-0.56,4.35 -1.33,6.19 -2.52,9.57 -11.6,32.92 -29.21,34.83 -33.51,39.55z"/>
   <path class="fil5" d="M940.97 580.1c8.52,3.82 28.6,23.06 32.22,29.81 2.16,1.05 1.73,0.61 3.63,3.09 18.91,24.66 23.26,41.76 17.35,71 14.8,-6.41 20.02,-30.38 23.94,-39.7 1.39,-3.3 2.66,-2.14 3.71,-3.63 -2,-2.95 -2.23,-6.25 -2.93,-10.02 -0.63,-3.35 -1.35,-6.7 -2.09,-9.83 -4.72,-20.01 -9.51,-31.97 -22.39,-48.08 -14.61,-18.28 -36.17,-27.93 -58.15,-34.96 -42.06,-13.43 -116.23,-24.35 -107.07,-78.27 0.01,0.01 1.9,1.65 2.34,2.31 -0.54,-3.82 -0.56,-2.36 -1.44,-4.37 -0.34,-0.76 -1.69,-3.66 -2.24,-4.97l-3.4 -0.43c-6.08,5.61 -6.84,6.29 -7.62,10.2 -1.01,5.06 0.08,11.19 1.31,15.74 2.43,8.99 5.94,14.27 10.98,21.24 24.57,33.99 105.48,69.48 111.86,80.87z"/>
   <path class="fil2" d="M783.97 595.9l5.06 4.26c21.56,22.71 54.2,48.21 59.15,79.64 3.58,22.75 -8.38,44.07 -18.92,54.9 -11.39,11.71 -28.49,19.19 -50.17,22.97 3.19,2.51 19.18,10.59 25.8,16.47 2.51,2.23 1.32,0.65 3.09,3.59 3.28,1.26 23.29,21.02 25.83,23.82 4.52,-0.9 7.74,-3.85 13.22,-4.88 5,-0.93 13.1,0.01 15.98,-0.88l-13.51 -14.9c-4.96,-3.95 -13.57,-13.42 -17.27,-18.9 5,-4.84 8.83,-6.79 13.64,-11.83 11.79,-12.35 21.88,-28.07 25.38,-46.23 10.27,-53.27 -30.25,-80.01 -62.37,-105.68 -5.28,-4.22 -8.97,-6.97 -13.28,-10.61 -8.77,-7.41 -18,-14.59 -24.9,-22.85 -3.5,-4.19 -7.04,-8.33 -10.55,-13.32 -2.18,-3.1 -6.74,-11.94 -8.79,-13.98 -0.91,-3.33 0.08,-1.47 -1.15,-3.39 -1.59,-2.48 0.02,-2.78 -1.31,0.25 2.8,15.05 7,23.52 14.04,34.64 3.11,4.91 6.76,9.86 10.11,13.75 3.31,3.83 8.82,9.48 10.93,13.18z"/>
   <path class="fil2" d="M543.67 911.45l0.13 26.05c2.29,-4.38 29.6,-166.69 48.26,-189.18 1.21,-1.46 0.62,-0.79 1.73,-1.54 21.19,36.59 54.21,54.93 95.47,36.64 5.76,-2.55 24.89,-14.06 27.7,-18.91 -15.9,4.21 -20.34,7.7 -42.73,6.29 -28.26,-1.78 -49.28,-15.72 -64.44,-37.95 -5.69,-8.34 -14.43,-23.96 -16.65,-35.35l-2.6 -5.33c-15.04,33.13 -25.25,60.66 -33.36,100.12 -7.03,34.21 -14.59,83.22 -13.52,119.16z"/>
   <path class="fil1" d="M933.94 856.06c0.44,-12.65 -14.48,-24.8 -20.24,-30.67 -9.45,-9.62 -15.66,-12.69 -25.4,-19 -5.15,-3.34 -2.84,-1.35 -1.47,-2.61 -1.51,-1.23 -1.11,-1.97 -6.45,-1.55 -1.46,-4.12 1.39,1.01 0,-1.54 -6.16,-1.03 -12.36,-3.17 -17.37,-4.91 -2.89,0.89 -10.99,-0.05 -15.98,0.88 -5.48,1.02 -8.7,3.98 -13.22,4.88 -2.54,-2.8 -22.55,-22.56 -25.83,-23.82 -1.54,2.04 12.27,16.59 16.6,22.19 5.53,7.15 4.65,4.96 7.74,13.81 2.15,6.16 5.42,6.94 7.47,12.74 -4.8,6.04 -11.35,12.73 -11.48,21.49 1.57,4.03 18.08,14.79 20.76,16.03 28.95,13.38 42.93,12.7 71.89,2.08l5.77 -2.73c2.77,-1.02 3.61,-0.56 6.67,-1.63l0.54 -5.65z"/>
   <path class="fil2" d="M883.39 771.02c13.44,-3.69 31.1,-22.1 38.54,-30.5 15.63,-26.92 19.22,-46.29 2.87,-76.66 -12.56,-23.35 -29.16,-39.3 -46.27,-54.08 -35.75,-30.87 -48,-30.77 -81.74,-68.73 -6.39,-7.18 -19.09,-24.72 -22.78,-27.65 3.97,21.32 29.05,55.85 39.95,66.6 4.93,4.87 8.58,8.83 13.8,13.71 48.42,45.31 115.88,90.38 65.82,163.52 -1.42,2.08 -10.1,13.21 -10.19,13.79z"/>
   <path class="fil2" d="M723.29 218.9l-0.88 1.53 20.04 -3.96c46.13,-7.61 85.04,5.43 113.57,27.73 28.43,22.23 41.35,57.45 40.93,105.63 0.08,6.66 -0.27,2.27 1.77,3.87 3.7,-11.7 9.98,-18.31 12.69,-34.81 2.33,-14.18 2.28,-29.85 -2.01,-43.22 -7.62,-23.75 -25.65,-42.32 -41.75,-53.83 -45.61,-32.61 -95.52,-33.95 -144.36,-2.93z"/>
   <path class="fil2" d="M1021.82 640.67c1.39,-27.44 7.91,-47.68 -11.51,-77.94 -11.01,-17.16 -29.09,-31.22 -52.39,-40.75 -22.02,-9.01 -47.34,-14.73 -71.11,-22.02 -20.81,-6.39 -52.04,-17.52 -55.29,-38.12 -0.44,-0.66 -2.34,-2.3 -2.34,-2.31 -9.16,53.92 65.01,64.83 107.07,78.27 21.99,7.02 43.54,16.68 58.15,34.96 12.88,16.11 17.67,28.07 22.39,48.08 0.74,3.13 1.46,6.48 2.09,9.83 0.71,3.77 0.94,7.07 2.93,10.02z"/>
   <path class="fil2" d="M734.97 1125.8c17.31,6.98 50.29,11.99 58.97,5.75 -6.51,-0.71 -19.03,-1.92 -23.43,-5.44 -43.33,-11.74 -100.25,-67.22 -127.84,-103.73 -17.68,-23.4 -47.86,-55.55 -81.67,-56.26l-11.58 2.66c12.94,7.82 21.42,-4.71 61.39,46.02l59.56 69.43c21.05,16.54 32.26,29.2 64.59,41.56z"/>
   <path class="fil2" d="M643.3 400.8c0.78,-1.11 1.78,-1.48 0.36,-6.1l-5.99 -19.34c-13.13,-51.6 -1.79,-124.2 42.15,-149.48 10.97,-6.31 16.99,-5.33 28.6,-1.97 -0.27,0.31 0.25,0.35 -0.73,-1.29 -5.43,-5.89 -12.29,-13.91 -24.43,-16.01 -48.3,-8.37 -92.29,97.13 -56.28,168.65 5.28,10.49 11.91,17.33 16.31,25.54z"/>
   <path class="fil4" d="M671.64 497.81l3.39 6.3c0.46,1.83 0.57,4.77 0.85,7.46l4.11 -3.12c-1.59,11.63 -5.63,21.31 -10.93,30.34 -2.5,4.26 -5.5,8.95 -8.28,11.96 -3.24,3.5 -7.53,7.02 -9.25,10.2l0.8 3c4.3,-4.72 21.91,-6.62 33.51,-39.55 1.19,-3.38 1.96,-5.22 2.52,-9.57l2.16 -11.24c5.01,2.23 2.34,2.17 6.01,6.33l12.55 12.6c1.72,1.54 5.4,3.24 7.91,5.27 4.79,3.87 8.99,6.83 15.16,9.8 14.17,6.82 10,-1.01 16.75,-3.24 1.33,-3.04 -0.27,-2.73 1.31,-0.25 1.23,1.92 0.24,0.07 1.15,3.39 1.28,-1.4 1.62,-1.45 0.72,-6.7 -1.44,-8.34 -3.19,-10.88 -2.04,-22.72 -8.55,2.86 -7.64,2.31 -15,-2 -13.96,-8.17 -20.55,-14.8 -32.1,-26.35 -2.88,-2.88 -6.5,-7.7 -9.05,-11.32 -2.88,-4.1 -5.45,-6.89 -8.21,-10.89 -2.23,-3.24 -13.46,-22.59 -14.73,-23.24 -1.76,17.84 -3.32,32.26 -0.27,50.16 2.15,12.62 4.63,11.9 0.95,13.38z"/>
   <path class="fil6" d="M742.45 216.47c0.59,0.28 27.01,3.9 30.5,4.55 11.8,2.19 17.89,4.79 27.6,8.27 11.96,4.29 24.36,11.39 34.34,19.24 13.06,10.27 7.25,5.27 19.54,17.6 15.22,15.27 27.18,34.42 33.98,55.37l5.04 13.12c1.32,4.7 1.45,11.83 3.51,15.21 0.42,-48.18 -12.5,-83.4 -40.93,-105.63 -28.53,-22.3 -67.44,-35.34 -113.57,-27.73z"/>
   <path class="fil1" d="M534.97 544.37c-39.45,-13.37 -69.31,-37.01 -81.53,-72.59l6.48 -16.97c3.88,-10.29 4.95,-20.73 3.85,-34.26 21.92,39.8 70.2,73.39 110.86,81.65l0.01 0.01 0.01 -0.01c9.58,1.95 18.75,2.49 27.04,1.37 15.46,-21.5 34.14,-43.98 48.88,-61.08 0.41,5.84 1.57,14.32 3.72,21.37 1.79,5.88 4.51,13.04 7.59,18.64 1.72,3.13 9.57,14.59 9.76,15.29l3.4 6.32c0.46,1.83 0.56,4.75 0.84,7.44 -5.44,11 -29.6,32.93 -47,35.7 -24.91,3.95 -45.85,-9.13 -70.84,-8 -14.09,1.81 -12.95,1.65 -23.08,5.11z"/>
   <path class="fil4" d="M453.44 471.78c11.59,-0.95 14.13,-11.38 17.42,-21.35 17.73,31.02 61.4,65.62 130.83,53.15 -43.47,5.88 -110.84,-33.84 -137.93,-83.03l-0 0c1.22,13.26 -0.36,23.45 -3.85,34.26 -2.81,6.04 -4.09,11.72 -6.47,16.94l-0.01 0.02z"/>
   <path class="fil0" d="M451.42 474.74l2.03 -2.98 1.16 3.25c12.82,33.76 41.01,55.92 79.25,68.88 -0.02,0.01 1.13,0.47 1.11,0.48 -11.23,4.45 -19.42,12.67 -29.35,23.06 -32.63,40.51 -40.27,114.47 -45.05,160.64 -8.43,-32.19 -21.53,-63.27 -36.9,-76.2 12.9,38.68 24.11,80.32 27.74,123.64 -44.57,2.4 -100.21,19.71 -138.82,5.41 -0.91,-12.12 -1.99,-22.2 -3.93,-34.07 -9.12,-73.38 -15.03,-118.41 1.31,-172.66 4.21,-13.2 16.37,-57.8 106.68,-77.53 9.76,-2.12 25.01,-8.7 34.76,-21.92z"/>
   <path class="fil1" d="M312.59 780.92c38.6,14.3 94.24,-3.02 138.82,-5.41 3.02,36.04 0.79,73.24 -10.09,110.84 5.79,-6.54 11.14,-14.03 15.33,-23.91l1.56 76.94 -11.85 -8.01c63.61,76.23 161.21,29.13 228.43,54.53 22.31,2.88 24.04,-2 36.56,-2.49 3.79,-0.15 11.2,-0.62 16.6,-2.33 12.79,-3.65 -0.84,-14.39 69.66,4.03 -1.85,6.37 -2.67,5.48 -30.66,9.59 -40.15,9.13 -18.52,43.89 7.5,42.85 30.36,0.26 59.97,-24.43 78.94,-1.97 14.26,21.65 -0.85,45.96 -19.5,40.53 -14.22,-4.14 -20.45,3.3 -30.76,6.65 -17.51,5.41 -38.56,9.37 -70.26,-3.04 -44.05,-20.29 -56.47,-6.78 -153.63,-17.43 -60.94,-6.34 -158.27,1.43 -205.65,-58.13 -68.42,-82.34 -55.9,-184.25 -60.99,-223.24z"/>
   <path class="fil4" d="M364.41 992.37c2.88,3.97 5.93,7.9 9.17,11.79 47.38,59.56 144.71,57.71 205.65,64.05 97.16,10.65 109.58,-8.79 153.63,11.5 31.7,12.41 59.58,9.14 77.1,3.73 10.88,-2.85 18.56,-5.88 34.37,-7.08 6.91,-0.52 16.3,-15.6 14.68,-22.26 -438.12,19.31 -521.43,-110.57 -494.59,-61.75z"/>
   <path class="fil3" d="M714.93 252.39c12.89,50.47 2.91,80.3 -5.81,88.51 -4.62,-21.58 -25.89,-11.08 -46.51,-32.66 -22.7,-23.81 -44.51,-31.67 -60.59,-55.84 -4.65,-6.53 -8.4,-13.84 -10.75,-22.25l-27.39 22.25c-30.65,34.79 -49.19,29.31 -57.06,57.27 -5.2,12.51 -27.59,0.86 -45.68,10.51 -11.4,2.88 -15.61,-12.86 -16.47,-39.28 0.48,-9.7 1.28,-19.22 2.38,-28.58 5.02,-34.36 16.88,-59.95 40.35,-81.46 32.84,-30.1 73.07,-43.15 128.04,-38.92 8.05,2.07 14.06,16.86 26.28,18.8 14.24,11.72 23.1,13.28 39,31.86 16.77,19.61 28.07,44.9 34.22,69.79z"/>
   <path class="fil1" d="M662.61 308.23c-27.12,-3.64 -67.37,-22.29 -78.15,-55.84 -19.17,23.7 -51.16,35.27 -77.64,57.27 -0.51,1.22 -1.18,2.22 -2,3.02 -2.06,2.14 -4.87,2.93 -8.18,3.12 -9.51,0.96 -23.46,-2.06 -35.5,4.36 7.12,63.08 6.17,103.54 86.63,150.33 35.46,20.62 50.18,22.49 73.31,-14.51 13.62,-17.6 29.98,-46.84 65.95,-68.11l-0 -0 0 0c0.81,-0.48 6.99,-6.36 7.81,-6.83 7.57,-1.57 13.88,-28.23 19.58,-42.5 -0.94,0.42 -4.32,2.02 -5.3,2.34 -3.75,-15.34 -12.85,-13.72 -29.48,-20.7 -5.48,-2.42 -11.28,-5.94 -17.03,-11.96z"/>
   <path class="fil6" d="M719.22 318.02c6.09,-19.61 3.28,-86.57 -38.51,-135.42 -18.38,-17.26 -50.17,-54.65 -77.3,-51.32 82.56,49.2 106.82,124.79 115.82,186.74z"/>
   <path class="fil1" d="M437.01 323.31c-0.24,-5.18 1.96,-27.29 8.68,-27.21l0 0c1.93,17.02 6.45,26.34 15.44,24.07l-8.11 34.25c-16.49,-6.32 -13,-10.84 -16.01,-31.12z"/>
   <path class="fil2" d="M854.47 357.16c-14.83,42.74 -54.47,93.64 -93.3,118.32 -16.46,10.46 -17.69,11.28 -32.91,-4.43 -2.96,-3.06 -5.86,-4.82 -8.7,-8.02 -8.83,-9.94 -21.42,-28.43 -28,-42.42 -1.68,-3.58 -10.21,-22.36 -10.17,-25.23 0.08,-5.44 29.48,-55.91 34.88,-67.42 12.3,-26.2 14.01,-47.29 17.23,-53.31 4.06,2.45 9.16,8.06 14.51,11.85 28.64,20.32 90.43,48.11 106.45,70.64zm-31.13 133.45c-2.13,-3.68 -3.85,-7.56 -5.21,-12.63 -1.23,-4.55 -2.31,-10.68 -1.31,-15.74 0.78,-3.91 1.55,-4.6 7.62,-10.2 4.01,-4.52 8.47,-10.49 12.15,-15.72l22.62 -34.71c3.87,-6.46 6.04,-13.09 10.43,-18.37 0.15,0.25 0.38,0.36 0.43,0.78 0.8,6.01 5.98,12.45 1.39,35.84 -2.5,12.73 -6.66,20.91 -10.26,31.92 6.35,-3.45 15.74,-17.22 20.27,-25.5 5.66,-10.35 9.51,-22.57 9.34,-36.45 -1.69,-70.41 -97.87,-95.47 -149.46,-136.06 -7.4,-5.82 -16.17,-14.75 -21.86,-18.1 -1.47,22.3 -1.51,34.55 -9.2,54.1 -4.8,12.2 -15.36,32.75 -21.14,41.6 -40.45,61.9 -31.56,73.16 -38.02,86.13 -0.56,18.03 -2.13,28.97 3.16,46.36 1.79,5.88 4.51,13.04 7.59,18.64 0.82,1.5 3.04,4.89 5.16,8.1l4.95 0c-0.41,-1.6 -0.87,-3.62 -1.3,-6.2 -3.05,-17.9 -1.5,-32.32 0.27,-50.16 1.27,0.65 12.5,20 14.73,23.24 2.76,4 5.32,6.79 8.21,10.89 2.55,3.62 6.16,8.44 9.05,11.32 4.18,4.18 7.7,7.71 11.17,10.9l66.78 0c5.04,-3.7 10.19,-7.62 13.54,-9.12 0.8,3.11 1.83,6.15 3.06,9.12l25.87 0z"/>
   <path class="fil1" d="M854.47 357.16c-16.02,-22.53 -77.81,-50.32 -106.45,-70.64 -5.34,-3.79 -10.45,-9.41 -14.51,-11.85 -3.22,6.02 -4.92,27.11 -17.23,53.31 -5.4,11.5 -34.8,61.98 -34.88,67.42 -0.04,2.87 8.49,21.65 10.17,25.23 6.58,13.99 19.17,32.48 28,42.42 2.84,3.2 5.74,4.96 8.7,8.02 15.22,15.71 16.45,14.89 32.91,4.43 38.83,-24.68 78.47,-75.58 93.3,-118.32z"/>
   <path class="fil3" d="M797.47 490.62c-1.22,-2.98 -2.25,-6.02 -3.06,-9.12 -3.35,1.5 -8.5,5.42 -13.54,9.12l16.59 0z"/>
   <path class="fil3" d="M723.29 218.9c-8.16,1.28 -1.57,0.24 -6.18,2.63 -4.34,2.24 -3.65,1.72 -9.41,1.1 0.98,1.64 0.46,1.61 0.73,1.29 -11.61,-3.36 -17.63,-4.34 -28.6,1.97 -43.95,25.27 -55.29,97.88 -42.15,149.48l5.99 19.34c1.42,4.61 0.41,4.98 -0.36,6.1 3.16,4.99 8.96,8.64 7.83,16.7 6.46,-12.96 -2.44,-24.22 38.02,-86.13 5.78,-8.85 16.34,-29.4 21.14,-41.6 7.69,-19.55 7.73,-31.8 9.2,-54.1 5.69,3.35 14.46,12.29 21.86,18.1 51.59,40.59 147.77,65.65 149.46,136.06 2.22,-2.91 4.49,-11.45 5.69,-15.25 3.06,-9.69 2.25,-10.71 2.21,-20.89 -2.03,-1.6 -1.69,2.78 -1.77,-3.87 -2.06,-3.38 -2.19,-10.51 -3.51,-15.21l-5.04 -13.12c-6.8,-20.95 -18.75,-40.1 -33.98,-55.37 -12.28,-12.32 -6.48,-7.33 -19.54,-17.6 -9.99,-7.85 -22.38,-14.95 -34.34,-19.24 -9.7,-3.48 -15.8,-6.08 -27.6,-8.27 -3.5,-0.65 -29.91,-4.26 -30.5,-4.55l-20.04 3.96 0.88 -1.53z"/>
   <path class="fil5" d="M834.8 490.62c-5.38,-8.44 -7.74,-18.62 -5.62,-31.1 0.01,0.01 1.9,1.65 2.34,2.31 -0.54,-3.82 -0.56,-2.36 -1.44,-4.37 -0.34,-0.76 -1.69,-3.66 -2.24,-4.97l-3.4 -0.43c-6.08,5.61 -6.84,6.29 -7.62,10.2 -1.01,5.06 0.08,11.19 1.31,15.74 1.37,5.06 3.08,8.95 5.21,12.63l11.46 0z"/>
   <path class="fil2" d="M723.29 218.9l-0.88 1.53 20.04 -3.96c46.13,-7.61 85.04,5.43 113.57,27.73 28.43,22.23 41.35,57.45 40.93,105.63 0.08,6.66 -0.27,2.27 1.77,3.87 3.7,-11.7 9.98,-18.31 12.69,-34.81 2.33,-14.18 2.28,-29.85 -2.01,-43.22 -7.62,-23.75 -25.65,-42.32 -41.75,-53.83 -45.61,-32.61 -95.52,-33.95 -144.36,-2.93z"/>
   <path class="fil2" d="M861.26 490.62c-14.61,-6.64 -27.69,-15.84 -29.74,-28.79 -0.44,-0.66 -2.34,-2.3 -2.34,-2.31 -2.12,12.49 0.23,22.66 5.62,31.1l26.46 0z"/>
   <path class="fil2" d="M643.3 400.8c0.78,-1.11 1.78,-1.48 0.36,-6.1l-5.99 -19.34c-13.13,-51.6 -1.79,-124.2 42.15,-149.48 10.97,-6.31 16.99,-5.33 28.6,-1.97 -0.27,0.31 0.25,0.35 -0.73,-1.29 -5.43,-5.89 -12.29,-13.91 -24.43,-16.01 -48.3,-8.37 -92.29,97.13 -56.28,168.65 5.28,10.49 11.91,17.33 16.31,25.54z"/>
   <path class="fil4" d="M714.1 490.62c-3.46,-3.19 -6.99,-6.73 -11.17,-10.9 -2.88,-2.88 -6.5,-7.7 -9.05,-11.32 -2.88,-4.1 -5.45,-6.89 -8.21,-10.89 -2.23,-3.24 -13.46,-22.59 -14.73,-23.24 -1.76,17.84 -3.32,32.26 -0.27,50.16 0.44,2.58 0.89,4.6 1.3,6.2l42.11 0z"/>
   <path class="fil6" d="M742.45 216.47c0.59,0.28 27.01,3.9 30.5,4.55 11.8,2.19 17.89,4.79 27.6,8.27 11.96,4.29 24.36,11.39 34.34,19.24 13.06,10.27 7.25,5.27 19.54,17.6 15.22,15.27 27.18,34.42 33.98,55.37l5.04 13.12c1.32,4.7 1.45,11.83 3.51,15.21 0.42,-48.18 -12.5,-83.4 -40.93,-105.63 -28.53,-22.3 -67.44,-35.34 -113.57,-27.73z"/>
   <path class="fil0" d="M675.05 504.12l-3.4 -6.32 -2.28 -3.65c-13.74,32.17 -35.96,44.3 -58.78,53.05 11.5,2.64 8.11,2.04 20.59,0.06 17.4,-2.76 37.62,-21.86 43.06,-32.86 0.54,-1.06 1.11,-1.77 1.65,-2.83 0.01,-2.78 -0.26,-5.35 -0.84,-7.44z"/>
   <path class="fil7" d="M705.18 223.01c-6.21,-14.65 -14.34,-28.57 -24.46,-40.41 -15.9,-18.58 -24.76,-20.14 -39,-31.86 46,-2.64 75.18,29.43 88.96,68.05l-8.26 1.63 0.88 -1.53c-8.16,1.28 -1.57,0.24 -6.18,2.63 -4.34,2.24 -3.65,1.72 -9.41,1.1 0.98,1.64 0.46,1.61 0.73,1.29 -1.13,-0.33 -2.21,-0.63 -3.25,-0.91z"/>
   <path class="fil7" d="M615.86 290.54c-14.14,-9.24 -26.2,-21.96 -31.4,-38.15 -19.17,23.7 -51.16,35.27 -77.64,57.27 1.05,-7.39 3.59,-7.83 5.13,-13.11 0.44,-0.62 9.24,-9.28 10.78,-10.74l68.53 -55.68c4.95,17.74 16.14,30.53 28.77,41.56 -1.73,6.08 -3.14,12.39 -4.18,18.84z"/>
   <path class="fil7" d="M601.69 503.58c-51.59,6.98 -136.86,-50.28 -148.48,-111.36 -8.58,-45.12 6.84,-16.62 -9.98,-32.32 -11.1,-10.36 -10.17,-23.2 -6.22,-36.58 3.01,20.28 -0.47,24.8 16.01,31.12l8.11 -34.25c7.12,63.08 6.17,103.54 86.63,150.33 35.46,20.62 50.18,22.49 73.31,-14.51 8.58,-11.09 17.21,-26.32 31.24,-41.31 -0.33,0.94 -0.72,1.88 -1.19,2.82 -0.3,9.67 -0.89,17.31 -0.56,24.99 -15.28,17.64 -32.67,38.52 -48.88,61.08z"/>
   <path class="fil7" d="M678.45 986.77c-69.08,-49.7 -144.09,6.48 -232.09,-55.41 64.63,78.03 165.15,34.59 232.09,55.41z"/>
   <path class="fil7" d="M441.32 886.35c53.46,-37.74 32.15,-199.66 -17.65,-234.49 23.62,70.85 41.62,151.68 17.65,234.49z"/>
   <path class="fil7" d="M805.23 994.97c-13.68,7.38 -43.66,7.35 -45.07,15.62 -0.08,27.78 57.24,3.46 77.3,15.45 -22.37,-1.14 -57.8,18.34 -75.24,8.94 -24.92,-13.43 -24.27,-34.15 7.75,-41 20.55,-3.88 25.47,-0.59 27.62,-8.88 -83.95,-22.08 -45.81,-2.57 -86.26,-1.7 13.39,-5.76 18.03,-16.22 27.83,-18.94 7.81,-2.33 21.63,2.86 30.54,5.45 42.12,11.99 50.1,2.37 35.52,25.05z"/>
   <path class="fil7" d="M373.09 483.1c-66.95,23.82 -104.67,83.55 -98.41,164.68 22.56,327.41 5.96,434.41 343.74,443.49 55.81,1.39 66.68,-17.1 125.25,8.1 39.17,13.35 70.95,-6.59 104.05,-22.98 -29.82,-3.77 -57.45,25.8 -114.87,3.32 -44.05,-20.29 -56.47,-0.85 -153.63,-11.5 -60.94,-6.34 -158.27,-4.49 -205.65,-64.05 -71.74,-87.61 -51.58,-175.69 -64.92,-257.31 -9.12,-73.38 -15.03,-118.41 1.31,-172.66 4.21,-13.2 16.37,-57.8 106.68,-77.53 13.79,-3 38.53,-14.88 43.26,-41.85 -32.97,21.77 -51.86,17.18 -86.82,28.29z"/>
   <path class="fil7" d="M615.44 131.94c-48.93,-4.2 -92.7,6.52 -128.04,38.92 -29.54,27.08 -40.23,60.73 -42.73,110.04 -44.75,-133.4 121.97,-204.16 170.77,-148.95z"/>
  </g>
  <path class="fil8" d="M900.59 1162.74l0 89.77c0,21.69 -17.74,39.43 -39.43,39.43l-424.33 0c-21.69,0 -39.43,-17.74 -39.43,-39.43l0 -166.78c37.11,16.15 78.49,24.17 118.34,28.95 13.09,12.07 27.26,23.25 42.23,32.76 39.12,24.87 76.9,42.49 122.37,53.29 39.12,9.29 83.11,11.23 122.81,4.44 9.65,-1.65 20.32,-5.3 29.73,-6.49l5.19 -0.08 30.84 -13.39 1.03 -0.55c12.1,-6.4 19.89,-10.31 29.49,-20.66 0.39,-0.42 0.78,-0.85 1.16,-1.27z"/>
  <path class="fil8" d="M921.98 394.38l333.56 0c21.69,0 39.43,17.74 39.43,39.43l0 424.33c0,21.69 -17.74,39.43 -39.43,39.43l-274.88 0c2.32,-5.18 4.02,-10.65 5.23,-16.32 10.51,-49.39 -21.77,-83.56 -62.92,-99.25 4.5,-3.78 8.78,-7.82 12.75,-11.84 7.88,-1.16 14.17,-3.66 22.31,-7.5 5.6,-0.74 11.11,-3.03 15.97,-6.77 11.03,-7.36 19.11,-15.43 27.65,-25.61 7.67,-9.14 11.22,-16.18 15.71,-25.07 8.17,-6.35 14.32,-14.93 19.02,-24.42 3.28,-6.62 5.2,-12.94 7.56,-19.35 0.94,-1.03 1.82,-2.13 2.65,-3.3l5.05 -7.17 0.44 -8.76c0.57,-11.19 2.12,-22.21 2.21,-33.45 0.19,-23.34 -5.87,-42.77 -18.48,-62.41 -15.64,-24.38 -39.92,-41.59 -66.44,-52.45 -23.91,-9.78 -49.08,-15.39 -73.7,-22.95 -2.5,-0.77 -5.01,-1.56 -7.51,-2.39 8.06,-8.25 15.09,-18.94 19.89,-27.72 7.41,-13.54 11.85,-28.24 12.85,-43.52 0.39,-0.97 0.75,-1.95 1.1,-2.94z"/>
  <path class="fil0" d="M436.83 0l424.33 0c21.69,0 39.43,17.74 39.43,39.43l0 170.17c-4.88,-4.48 -10.02,-8.65 -15.34,-12.45 -44.46,-31.78 -94.03,-39.15 -142.18,-21.76 -19.16,-29.94 -47.96,-51.04 -84.91,-54.6 -8,-5.95 -16.63,-11.24 -25.85,-14.9 -41.26,-38.21 -110.74,-23.74 -153.93,4.37 -61.07,39.76 -85.24,106.69 -63.92,175.89 -5.24,10.02 -7.64,22.27 -7.86,33.26 -5.51,22.27 -2.95,43.64 13.94,60.74 0.65,6.2 1.8,12.28 2.84,17.72 2.04,10.71 5.66,21.04 10.42,30.83 0,0.35 0.01,0.7 0,1.04 -0.01,1.84 -0.14,3.61 -0.36,5.35 -22.2,11.03 -44.85,11.24 -69.57,19.1l-0.49 0.16 -0.49 0.17c-85.25,30.33 -124.73,107.36 -118.51,195.4 2.93,41.48 5.37,82.99 8.4,124.45 2.5,34.3 5.36,68.84 10.35,102.88 0.99,6.75 2.07,13.53 3.27,20.31l-223.93 0c-21.69,0 -39.43,-17.74 -39.43,-39.43l0 -424.33c0,-21.69 17.74,-39.43 39.43,-39.43l354.95 0 0 -354.95c0,-21.69 17.74,-39.43 39.43,-39.43z"/>
  <g id="_2398468235312">
   <path class="fil9" d="M75.48 1466.7c-1.02,0.28 -2.62,0.56 -4.8,0.84 -2.18,0.28 -4.34,0.42 -6.48,0.42 -2.14,0 -4.02,-0.16 -5.64,-0.49 -1.62,-0.32 -2.99,-0.91 -4.11,-1.74 -1.11,-0.84 -1.95,-2 -2.51,-3.48 -0.56,-1.49 -0.84,-3.43 -0.84,-5.85l0 -21.72 -26.74 0 0 32.03c-1.02,0.28 -2.62,0.56 -4.8,0.84 -2.18,0.28 -4.34,0.42 -6.48,0.42 -2.13,0 -4.01,-0.16 -5.64,-0.49 -1.62,-0.32 -2.99,-0.91 -4.11,-1.74 -1.11,-0.84 -1.95,-2 -2.51,-3.48 -0.56,-1.49 -0.84,-3.43 -0.84,-5.85l0 -73.53c1.02,-0.19 2.65,-0.44 4.87,-0.77 2.23,-0.32 4.36,-0.49 6.41,-0.49 2.14,0 4.02,0.16 5.64,0.49 1.62,0.33 2.99,0.91 4.11,1.74 1.11,0.84 1.95,2 2.51,3.48 0.56,1.49 0.84,3.44 0.84,5.85l0 22.28 26.74 0 0 -32.59c1.02,-0.19 2.65,-0.44 4.87,-0.77 2.23,-0.32 4.36,-0.49 6.41,-0.49 2.13,0 4.01,0.16 5.64,0.49 1.62,0.33 2.99,0.91 4.11,1.74 1.11,0.84 1.95,2 2.51,3.48 0.56,1.49 0.84,3.44 0.84,5.85l0 73.53zm36.07 -81.32c1.58,-0.93 3.97,-1.81 7.17,-2.65 3.2,-0.84 6.43,-1.25 9.68,-1.25 4.64,0 8.75,0.67 12.32,2.02 3.57,1.35 5.87,3.46 6.89,6.34 1.67,4.83 3.48,10.44 5.43,16.85 1.95,6.41 3.9,13.02 5.85,19.84 1.95,6.82 3.85,13.55 5.71,20.19 1.86,6.64 3.48,12.51 4.87,17.62 -1.11,1.3 -2.79,2.34 -5.01,3.13 -2.23,0.79 -4.87,1.18 -7.94,1.18 -2.23,0 -4.11,-0.19 -5.64,-0.56 -1.53,-0.37 -2.79,-0.93 -3.76,-1.67 -0.97,-0.74 -1.76,-1.72 -2.37,-2.92 -0.6,-1.21 -1.14,-2.6 -1.6,-4.18l-2.51 -9.61 -25.21 0c-0.74,2.79 -1.49,5.66 -2.23,8.63 -0.74,2.97 -1.49,5.85 -2.23,8.63 -1.3,0.46 -2.67,0.86 -4.11,1.18 -1.44,0.32 -3.18,0.49 -5.22,0.49 -4.73,0 -8.24,-0.81 -10.51,-2.44 -2.27,-1.62 -3.41,-3.88 -3.41,-6.75 0,-1.3 0.19,-2.6 0.56,-3.9 0.37,-1.3 0.79,-2.83 1.25,-4.6 0.65,-2.51 1.55,-5.62 2.72,-9.33 1.16,-3.71 2.44,-7.73 3.83,-12.05 1.39,-4.32 2.88,-8.75 4.46,-13.3 1.58,-4.55 3.06,-8.84 4.46,-12.88 1.39,-4.04 2.67,-7.64 3.83,-10.79 1.16,-3.16 2.07,-5.57 2.72,-7.24zm16.71 17.96c-1.3,3.9 -2.76,8.24 -4.39,13.02 -1.62,4.78 -3.09,9.63 -4.39,14.55l17.27 0c-1.3,-5.01 -2.62,-9.91 -3.97,-14.69 -1.35,-4.78 -2.58,-9.07 -3.69,-12.88l-0.84 0zm84.25 18.66c3.9,0 6.89,-0.91 8.98,-2.72 2.09,-1.81 3.13,-4.57 3.13,-8.29 0,-3.53 -1.09,-6.24 -3.27,-8.15 -2.18,-1.9 -5.36,-2.85 -9.54,-2.85 -1.49,0 -2.72,0.02 -3.69,0.07 -0.97,0.05 -1.97,0.16 -2.99,0.35l0 21.58 7.38 0zm-7.24 44.7c-1.02,0.28 -2.62,0.56 -4.8,0.84 -2.18,0.28 -4.34,0.42 -6.48,0.42 -2.13,0 -4.01,-0.16 -5.64,-0.49 -1.62,-0.32 -2.99,-0.91 -4.11,-1.74 -1.11,-0.84 -1.95,-2 -2.51,-3.48 -0.56,-1.49 -0.84,-3.43 -0.84,-5.85l0 -65.59c0,-1.95 0.53,-3.46 1.6,-4.53 1.07,-1.07 2.53,-1.93 4.39,-2.58 3.16,-1.11 6.75,-1.93 10.79,-2.44 4.04,-0.51 8.1,-0.77 12.18,-0.77 12.81,0 22.61,2.74 29.38,8.22 6.78,5.48 10.17,12.9 10.17,22.28 0,4.55 -0.72,8.66 -2.16,12.32 -1.44,3.67 -3.57,6.82 -6.41,9.47 -2.83,2.65 -6.41,4.69 -10.72,6.13 -4.32,1.44 -9.31,2.16 -14.97,2.16l-9.89 0 0 25.62zm88.15 -44.7c3.9,0 6.89,-0.91 8.98,-2.72 2.09,-1.81 3.13,-4.57 3.13,-8.29 0,-3.53 -1.09,-6.24 -3.27,-8.15 -2.18,-1.9 -5.36,-2.85 -9.54,-2.85 -1.49,0 -2.72,0.02 -3.69,0.07 -0.97,0.05 -1.97,0.16 -2.99,0.35l0 21.58 7.38 0zm-7.24 44.7c-1.02,0.28 -2.62,0.56 -4.8,0.84 -2.18,0.28 -4.34,0.42 -6.48,0.42 -2.13,0 -4.01,-0.16 -5.64,-0.49 -1.62,-0.32 -2.99,-0.91 -4.11,-1.74 -1.11,-0.84 -1.95,-2 -2.51,-3.48 -0.56,-1.49 -0.84,-3.43 -0.84,-5.85l0 -65.59c0,-1.95 0.53,-3.46 1.6,-4.53 1.07,-1.07 2.53,-1.93 4.39,-2.58 3.16,-1.11 6.75,-1.93 10.79,-2.44 4.04,-0.51 8.1,-0.77 12.18,-0.77 12.81,0 22.61,2.74 29.38,8.22 6.78,5.48 10.17,12.9 10.17,22.28 0,4.55 -0.72,8.66 -2.16,12.32 -1.44,3.67 -3.57,6.82 -6.41,9.47 -2.83,2.65 -6.41,4.69 -10.72,6.13 -4.32,1.44 -9.31,2.16 -14.97,2.16l-9.89 0 0 25.62zm100.82 0c-1.02,0.28 -2.6,0.56 -4.73,0.84 -2.14,0.28 -4.22,0.42 -6.27,0.42 -4.27,0 -7.47,-0.72 -9.61,-2.16 -2.14,-1.44 -3.2,-4.48 -3.2,-9.12l0 -18.8c-2.32,-3.43 -4.83,-7.24 -7.52,-11.42 -2.69,-4.18 -5.34,-8.45 -7.94,-12.81 -2.6,-4.36 -5.01,-8.66 -7.24,-12.88 -2.23,-4.22 -4.04,-8.1 -5.43,-11.63 1.21,-1.67 2.85,-3.2 4.94,-4.6 2.09,-1.39 4.66,-2.09 7.73,-2.09 3.62,0 6.57,0.74 8.84,2.23 2.27,1.49 4.43,4.27 6.48,8.35l11.56 23.26 0.84 0c1.3,-2.88 2.44,-5.5 3.41,-7.87 0.97,-2.37 1.93,-4.73 2.85,-7.1 0.93,-2.37 1.9,-4.83 2.92,-7.38 1.02,-2.55 2.18,-5.5 3.48,-8.84 1.67,-0.84 3.53,-1.49 5.57,-1.95 2.04,-0.46 3.99,-0.7 5.85,-0.7 3.25,0 6.01,0.86 8.29,2.58 2.27,1.72 3.41,4.29 3.41,7.73 0,1.11 -0.23,2.46 -0.7,4.04 -0.46,1.58 -1.53,3.97 -3.2,7.17 -1.67,3.2 -4.11,7.54 -7.31,13.02 -3.2,5.48 -7.54,12.63 -13.02,21.44l0 28.27z"/>
   <path class="fil10" d="M482.11 1422c3.9,0 6.89,-0.91 8.98,-2.72 2.09,-1.81 3.13,-4.57 3.13,-8.29 0,-3.53 -1.09,-6.24 -3.27,-8.15 -2.18,-1.9 -5.36,-2.85 -9.54,-2.85 -1.49,0 -2.72,0.02 -3.69,0.07 -0.97,0.05 -1.97,0.16 -2.99,0.35l0 21.58 7.38 0zm-7.24 44.7c-1.02,0.28 -2.62,0.56 -4.8,0.84 -2.18,0.28 -4.34,0.42 -6.48,0.42 -2.13,0 -4.01,-0.16 -5.64,-0.49 -1.62,-0.32 -2.99,-0.91 -4.11,-1.74 -1.11,-0.84 -1.95,-2 -2.51,-3.48 -0.56,-1.49 -0.84,-3.43 -0.84,-5.85l0 -65.59c0,-1.95 0.53,-3.46 1.6,-4.53 1.07,-1.07 2.53,-1.93 4.39,-2.58 3.16,-1.11 6.75,-1.93 10.79,-2.44 4.04,-0.51 8.1,-0.77 12.18,-0.77 12.81,0 22.61,2.74 29.38,8.22 6.78,5.48 10.17,12.9 10.17,22.28 0,4.55 -0.72,8.66 -2.16,12.32 -1.44,3.67 -3.57,6.82 -6.41,9.47 -2.83,2.65 -6.41,4.69 -10.72,6.13 -4.32,1.44 -9.31,2.16 -14.97,2.16l-9.89 0 0 25.62zm80.77 -26.74l0 26.74c-1.02,0.28 -2.62,0.56 -4.8,0.84 -2.18,0.28 -4.34,0.42 -6.48,0.42 -2.13,0 -4.02,-0.16 -5.64,-0.49 -1.62,-0.32 -2.97,-0.91 -4.04,-1.74 -1.07,-0.84 -1.88,-2 -2.44,-3.48 -0.56,-1.49 -0.84,-3.43 -0.84,-5.85l0 -65.59c0,-1.95 0.53,-3.46 1.6,-4.53 1.07,-1.07 2.53,-1.93 4.39,-2.58 3.16,-1.11 6.82,-1.93 11,-2.44 4.18,-0.51 8.63,-0.77 13.37,-0.77 12.81,0 22.47,2.69 28.96,8.08 6.5,5.38 9.75,12.67 9.75,21.86 0,5.76 -1.49,10.68 -4.46,14.76 -2.97,4.09 -6.5,7.24 -10.58,9.47 3.34,4.55 6.64,8.82 9.89,12.81 3.25,3.99 5.8,7.61 7.66,10.86 -0.93,3.25 -2.62,5.73 -5.08,7.45 -2.46,1.72 -5.22,2.58 -8.29,2.58 -2.04,0 -3.81,-0.23 -5.29,-0.7 -1.49,-0.46 -2.79,-1.11 -3.9,-1.95 -1.11,-0.84 -2.14,-1.86 -3.06,-3.06 -0.93,-1.21 -1.81,-2.51 -2.65,-3.9l-11.7 -18.8 -7.38 0zm8.77 -18.52c3.53,0 6.31,-0.91 8.36,-2.72 2.04,-1.81 3.06,-4.48 3.06,-8.01 0,-3.53 -1.14,-6.2 -3.41,-8.01 -2.27,-1.81 -5.87,-2.72 -10.79,-2.72 -1.39,0 -2.51,0.05 -3.34,0.14 -0.84,0.09 -1.76,0.23 -2.79,0.42l0 20.89 8.91 0zm51.8 -25.62c0,-3.99 1.16,-7.15 3.48,-9.47 2.32,-2.32 5.48,-3.48 9.47,-3.48l45.95 0c0.65,1.02 1.23,2.37 1.74,4.04 0.51,1.67 0.77,3.43 0.77,5.29 0,3.53 -0.77,6.03 -2.3,7.52 -1.53,1.49 -3.55,2.23 -6.06,2.23l-29.38 0 0 12.95 31.33 0c0.65,1.02 1.23,2.34 1.74,3.97 0.51,1.62 0.77,3.36 0.77,5.22 0,3.53 -0.74,6.03 -2.23,7.52 -1.49,1.49 -3.48,2.23 -5.99,2.23l-25.62 0 0 14.62 35.79 0c0.65,1.02 1.23,2.37 1.74,4.04 0.51,1.67 0.77,3.43 0.77,5.29 0,3.53 -0.77,6.06 -2.3,7.59 -1.53,1.53 -3.55,2.3 -6.06,2.3l-40.66 0c-3.99,0 -7.15,-1.16 -9.47,-3.48 -2.32,-2.32 -3.48,-5.48 -3.48,-9.47l0 -58.9zm151.93 57.65c0,2.88 -0.51,5.01 -1.53,6.41 -1.02,1.39 -2.65,2.74 -4.87,4.04 -1.3,0.74 -2.92,1.46 -4.87,2.16 -1.95,0.7 -4.09,1.3 -6.41,1.81 -2.32,0.51 -4.76,0.91 -7.31,1.18 -2.55,0.28 -5.08,0.42 -7.59,0.42 -6.68,0 -12.95,-0.91 -18.8,-2.72 -5.85,-1.81 -10.93,-4.55 -15.25,-8.22 -4.32,-3.67 -7.73,-8.24 -10.24,-13.72 -2.51,-5.48 -3.76,-11.84 -3.76,-19.08 0,-7.61 1.37,-14.25 4.11,-19.91 2.74,-5.66 6.36,-10.37 10.86,-14.13 4.5,-3.76 9.65,-6.57 15.46,-8.42 5.8,-1.86 11.77,-2.79 17.89,-2.79 8.82,0 15.81,1.42 20.96,4.25 5.15,2.83 7.73,6.52 7.73,11.07 0,2.41 -0.6,4.5 -1.81,6.27 -1.21,1.76 -2.6,3.16 -4.18,4.18 -2.32,-1.39 -5.22,-2.76 -8.7,-4.11 -3.48,-1.35 -7.4,-2.02 -11.77,-2.02 -7.8,0 -14,2.23 -18.59,6.68 -4.6,4.46 -6.89,10.63 -6.89,18.52 0,4.27 0.63,7.96 1.88,11.07 1.25,3.11 2.95,5.66 5.08,7.66 2.14,2 4.6,3.48 7.38,4.46 2.79,0.97 5.76,1.46 8.91,1.46 2.04,0 3.85,-0.19 5.43,-0.56 1.58,-0.37 2.79,-0.79 3.62,-1.25l0 -13.09 -14.9 0c-0.56,-1.02 -1.09,-2.37 -1.6,-4.04 -0.51,-1.67 -0.77,-3.44 -0.77,-5.29 0,-3.34 0.77,-5.76 2.3,-7.24 1.53,-1.49 3.5,-2.23 5.92,-2.23l23.53 0c2.79,0 4.94,0.77 6.48,2.3 1.53,1.53 2.3,3.69 2.3,6.48l0 28.41zm92.46 10.86c-1.3,1.3 -3.18,2.3 -5.64,2.99 -2.46,0.7 -5.41,1.04 -8.84,1.04 -3.43,0 -6.68,-0.51 -9.75,-1.53 -3.06,-1.02 -5.57,-3.48 -7.52,-7.38l-13.79 -28.13c-1.39,-2.88 -2.65,-5.59 -3.76,-8.15 -1.11,-2.55 -2.32,-5.5 -3.62,-8.84l-0.84 0.14c0.37,5.01 0.58,10.12 0.63,15.32 0.05,5.2 0.07,10.3 0.07,15.32l0 21.58c-1.02,0.28 -2.58,0.56 -4.66,0.84 -2.09,0.28 -4.15,0.42 -6.2,0.42 -2.04,0 -3.85,-0.14 -5.43,-0.42 -1.58,-0.28 -2.88,-0.84 -3.9,-1.67 -1.02,-0.84 -1.81,-1.97 -2.37,-3.41 -0.56,-1.44 -0.84,-3.32 -0.84,-5.64l0 -69.63c1.3,-1.86 3.3,-3.25 5.99,-4.18 2.69,-0.93 5.57,-1.39 8.63,-1.39 3.43,0 6.71,0.53 9.82,1.6 3.11,1.07 5.59,3.5 7.45,7.31l13.93 28.13c1.39,2.88 2.65,5.59 3.76,8.15 1.11,2.55 2.32,5.5 3.62,8.84l0.7 -0.14c-0.37,-5.01 -0.6,-10.03 -0.7,-15.04 -0.09,-5.01 -0.14,-10.03 -0.14,-15.04l0 -22.56c1.02,-0.28 2.58,-0.56 4.66,-0.84 2.09,-0.28 4.15,-0.42 6.2,-0.42 4.08,0 7.19,0.72 9.33,2.16 2.14,1.44 3.2,4.43 3.2,8.98l0 71.58zm36.07 -78.96c1.58,-0.93 3.97,-1.81 7.17,-2.65 3.2,-0.84 6.43,-1.25 9.68,-1.25 4.64,0 8.75,0.67 12.32,2.02 3.57,1.35 5.87,3.46 6.89,6.34 1.67,4.83 3.48,10.44 5.43,16.85 1.95,6.41 3.9,13.02 5.85,19.84 1.95,6.82 3.85,13.55 5.71,20.19 1.86,6.64 3.48,12.51 4.87,17.62 -1.11,1.3 -2.79,2.34 -5.01,3.13 -2.23,0.79 -4.87,1.18 -7.94,1.18 -2.23,0 -4.11,-0.19 -5.64,-0.56 -1.53,-0.37 -2.79,-0.93 -3.76,-1.67 -0.97,-0.74 -1.76,-1.72 -2.37,-2.92 -0.6,-1.21 -1.14,-2.6 -1.6,-4.18l-2.51 -9.61 -25.21 0c-0.74,2.79 -1.49,5.66 -2.23,8.63 -0.74,2.97 -1.49,5.85 -2.23,8.63 -1.3,0.46 -2.67,0.86 -4.11,1.18 -1.44,0.32 -3.18,0.49 -5.22,0.49 -4.73,0 -8.24,-0.81 -10.51,-2.44 -2.27,-1.62 -3.41,-3.88 -3.41,-6.75 0,-1.3 0.19,-2.6 0.56,-3.9 0.37,-1.3 0.79,-2.83 1.25,-4.6 0.65,-2.51 1.55,-5.62 2.72,-9.33 1.16,-3.71 2.44,-7.73 3.83,-12.05 1.39,-4.32 2.88,-8.75 4.46,-13.3 1.58,-4.55 3.06,-8.84 4.46,-12.88 1.39,-4.04 2.67,-7.64 3.83,-10.79 1.16,-3.16 2.07,-5.57 2.72,-7.24zm16.71 17.96c-1.3,3.9 -2.76,8.24 -4.39,13.02 -1.62,4.78 -3.09,9.63 -4.39,14.55l17.27 0c-1.3,-5.01 -2.62,-9.91 -3.97,-14.69 -1.35,-4.78 -2.58,-9.07 -3.69,-12.88l-0.84 0zm129.09 60.99c-1.3,1.3 -3.18,2.3 -5.64,2.99 -2.46,0.7 -5.41,1.04 -8.84,1.04 -3.43,0 -6.68,-0.51 -9.75,-1.53 -3.06,-1.02 -5.57,-3.48 -7.52,-7.38l-13.79 -28.13c-1.39,-2.88 -2.65,-5.59 -3.76,-8.15 -1.11,-2.55 -2.32,-5.5 -3.62,-8.84l-0.84 0.14c0.37,5.01 0.58,10.12 0.63,15.32 0.05,5.2 0.07,10.3 0.07,15.32l0 21.58c-1.02,0.28 -2.58,0.56 -4.66,0.84 -2.09,0.28 -4.15,0.42 -6.2,0.42 -2.04,0 -3.85,-0.14 -5.43,-0.42 -1.58,-0.28 -2.88,-0.84 -3.9,-1.67 -1.02,-0.84 -1.81,-1.97 -2.37,-3.41 -0.56,-1.44 -0.84,-3.32 -0.84,-5.64l0 -69.63c1.3,-1.86 3.3,-3.25 5.99,-4.18 2.69,-0.93 5.57,-1.39 8.63,-1.39 3.43,0 6.71,0.53 9.82,1.6 3.11,1.07 5.59,3.5 7.45,7.31l13.93 28.13c1.39,2.88 2.65,5.59 3.76,8.15 1.11,2.55 2.32,5.5 3.62,8.84l0.7 -0.14c-0.37,-5.01 -0.6,-10.03 -0.7,-15.04 -0.09,-5.01 -0.14,-10.03 -0.14,-15.04l0 -22.56c1.02,-0.28 2.58,-0.56 4.66,-0.84 2.09,-0.28 4.15,-0.42 6.2,-0.42 4.08,0 7.19,0.72 9.33,2.16 2.14,1.44 3.2,4.43 3.2,8.98l0 71.58zm61.13 -64.48c-7.15,0 -12.63,2.18 -16.43,6.54 -3.81,4.36 -5.71,10.54 -5.71,18.52 0,8.08 2.11,14.3 6.34,18.66 4.22,4.36 9.91,6.55 17.06,6.55 3.81,0 7.03,-0.51 9.68,-1.53 2.65,-1.02 5.18,-2.18 7.59,-3.48 1.58,1.3 2.81,2.85 3.69,4.66 0.88,1.81 1.32,3.92 1.32,6.34 0,3.81 -2.11,7.03 -6.34,9.68 -4.22,2.65 -10.65,3.97 -19.29,3.97 -6.22,0 -12.07,-0.88 -17.55,-2.65 -5.48,-1.76 -10.26,-4.48 -14.34,-8.15 -4.09,-3.67 -7.31,-8.31 -9.68,-13.93 -2.37,-5.62 -3.55,-12.32 -3.55,-20.12 0,-7.24 1.14,-13.62 3.41,-19.15 2.27,-5.52 5.38,-10.19 9.33,-13.99 3.95,-3.81 8.56,-6.68 13.86,-8.63 5.29,-1.95 10.95,-2.92 16.99,-2.92 8.54,0 15.16,1.39 19.84,4.18 4.69,2.79 7.03,6.36 7.03,10.72 0,2.41 -0.6,4.5 -1.81,6.27 -1.21,1.76 -2.6,3.16 -4.18,4.18 -2.41,-1.58 -4.99,-2.92 -7.73,-4.04 -2.74,-1.11 -5.92,-1.67 -9.54,-1.67zm81.46 66.84c-1.02,0.28 -2.6,0.56 -4.73,0.84 -2.14,0.28 -4.22,0.42 -6.27,0.42 -4.27,0 -7.47,-0.72 -9.61,-2.16 -2.14,-1.44 -3.2,-4.48 -3.2,-9.12l0 -18.8c-2.32,-3.43 -4.83,-7.24 -7.52,-11.42 -2.69,-4.18 -5.34,-8.45 -7.94,-12.81 -2.6,-4.36 -5.01,-8.66 -7.24,-12.88 -2.23,-4.22 -4.04,-8.1 -5.43,-11.63 1.21,-1.67 2.85,-3.2 4.94,-4.6 2.09,-1.39 4.66,-2.09 7.73,-2.09 3.62,0 6.57,0.74 8.84,2.23 2.27,1.49 4.43,4.27 6.48,8.35l11.56 23.26 0.84 0c1.3,-2.88 2.44,-5.5 3.41,-7.87 0.97,-2.37 1.93,-4.73 2.85,-7.1 0.93,-2.37 1.9,-4.83 2.92,-7.38 1.02,-2.55 2.18,-5.5 3.48,-8.84 1.67,-0.84 3.53,-1.49 5.57,-1.95 2.04,-0.46 3.99,-0.7 5.85,-0.7 3.25,0 6.01,0.86 8.29,2.58 2.27,1.72 3.41,4.29 3.41,7.73 0,1.11 -0.23,2.46 -0.7,4.04 -0.46,1.58 -1.53,3.97 -3.2,7.17 -1.67,3.2 -4.11,7.54 -7.31,13.02 -3.2,5.48 -7.54,12.63 -13.02,21.44l0 28.27zm103.33 -6.41c-0.74,0.37 -2.11,0.67 -4.11,0.91 -2,0.23 -3.92,0.35 -5.78,0.35 -3.81,0 -6.68,-0.63 -8.63,-1.88 -1.95,-1.25 -2.92,-3.92 -2.92,-8.01l0 -15.32 -21.03 0c-0.65,-1.02 -1.18,-2.37 -1.6,-4.04 -0.42,-1.67 -0.63,-3.34 -0.63,-5.01 0,-3.34 0.74,-5.78 2.23,-7.31 1.49,-1.53 3.48,-2.3 5.99,-2.3l15.04 0 0 -23.4c0.93,-0.28 2.34,-0.58 4.25,-0.91 1.9,-0.32 3.78,-0.49 5.64,-0.49 3.71,0 6.57,0.65 8.56,1.95 2,1.3 2.99,4.04 2.99,8.22l0 14.62 20.61 0c0.46,1.11 0.95,2.48 1.46,4.11 0.51,1.62 0.77,3.32 0.77,5.08 0,3.25 -0.74,5.64 -2.23,7.17 -1.49,1.53 -3.43,2.3 -5.85,2.3l-14.76 0 0 23.95z"/>
  </g>
 </g>
</svg>
