<?xml version="1.0" encoding="UTF-8"?>
<!DOCTYPE svg PUBLIC "-//W3C//DTD SVG 1.1//EN" "http://www.w3.org/Graphics/SVG/1.1/DTD/svg11.dtd">
<!-- Creator: CorelDRAW 2020 (64-Bit) -->
<svg xmlns="http://www.w3.org/2000/svg" xml:space="preserve" width="9.23135in" height="11.7974in" version="1.1" style="shape-rendering:geometricPrecision; text-rendering:geometricPrecision; image-rendering:optimizeQuality; fill-rule:evenodd; clip-rule:evenodd"
viewBox="0 0 18582.03 23747.38"
 xmlns:xlink="http://www.w3.org/1999/xlink"
 xmlns:xodm="http://www.corel.com/coreldraw/odm/2003">
 <defs>
  <style type="text/css">
   <![CDATA[
    .fil1 {fill:#2F455C}
    .fil11 {fill:#46B7CD}
    .fil6 {fill:#E3BE5F}
    .fil3 {fill:#F3DA6A}
    .fil7 {fill:#F3DA6C}
    .fil5 {fill:#F7E58A}
    .fil4 {fill:#FCD7BB}
    .fil2 {fill:#FCE3CF}
    .fil9 {fill:#2F455C;fill-rule:nonzero}
    .fil10 {fill:#46B7CD;fill-rule:nonzero}
    .fil0 {fill:url(#id0)}
    .fil8 {fill:url(#id1)}
   ]]>
  </style>
  <linearGradient id="id0" gradientUnits="userSpaceOnUse" x1="13680.94" y1="17479.51" x2="4901.08" y2="1102.51">
   <stop offset="0" style="stop-opacity:1; stop-color:#264D79"/>
   <stop offset="1" style="stop-opacity:1; stop-color:#4DD0E1"/>
  </linearGradient>
  <linearGradient id="id1" gradientUnits="userSpaceOnUse" x1="6940.6" y1="15836.39" x2="10722.3" y2="7174.58">
   <stop offset="0" style="stop-opacity:1; stop-color:#2F455C"/>
   <stop offset="0.258824" style="stop-opacity:1; stop-color:#3E8A9E"/>
   <stop offset="1" style="stop-opacity:1; stop-color:#4DD0E1"/>
  </linearGradient>
 </defs>
 <g id="Layer_x0020_1">
  <metadata id="CorelCorpID_0Corel-Layer"/>
  <g id="_2152545256400">
   <path class="fil0" d="M567.09 5672.38l5105.29 0 0 -5105.29c0,-311.92 255.18,-567.09 567.08,-567.09l6103.1 0c311.9,0 567.08,255.17 567.08,567.09l0 2712.42c-114.01,-131.92 -244.86,-249.44 -384.37,-349.17 -667.45,-477.22 -1356.9,-600.11 -2059.06,-295.94 -256.19,-421.26 -594.8,-753.2 -1094.48,-831.62 -136.25,-101.86 -286.59,-195.95 -444.94,-255.18 -313.54,-227.44 -738.36,-256.7 -1110.9,-197.34 -441.48,70.35 -881.61,271.08 -1227.53,553.58 -151.76,123.92 -288.78,266.17 -403.44,425.19 -376.4,522.07 -448.44,1134.93 -253.45,1736.02 -0.32,10.1 -0.47,20.21 -0.47,30.31 -34.96,76.31 -56.39,160.26 -72.1,242.12 -13.9,72.49 -27.55,162.27 -30.96,243.33 -79.17,307.89 -47.64,602.25 196.59,836.08 8.36,97.38 27.06,193.46 42.41,274.21 37.04,194.85 112.02,381.01 212.59,554.6 -386.13,247.07 -659.45,309 -1098.99,448.67 -4.17,1.32 -7.69,2.5 -11.8,3.97 -1195.93,425.44 -1666.57,1340.93 -1574.89,2581.85 18.25,246.94 42.11,493.52 67.35,739.82 51.71,504.52 118.06,1020.39 139.46,1526.59 18.7,442.2 49.59,908.6 131.29,1363.04l-3364.84 0c-311.92,0 -567.09,-255.18 -567.09,-567.08l0 -6103.1c0,-311.9 255.17,-567.08 567.09,-567.08zm12561.39 0l4886.46 0c311.91,0 567.09,255.18 567.09,567.08l0 6103.1c0,311.9 -255.18,567.08 -567.09,567.08l-4151.81 0c12.83,-21.88 23.82,-43.71 32.19,-65.14 128.85,-329.91 52.08,-693.96 -143.38,-980.29 -928.28,-950.31 -887.4,-416.79 103.32,-1056.15 163.93,-105.81 280,-221.15 403.77,-368.76 18.92,-22.55 32.83,-43.67 46.1,-69.95 249.03,-218.49 657.13,-1048.63 662.5,-1154.32 8.11,-159.76 30.35,-317.64 31.64,-478.01 2.57,-321.74 -80.61,-587.6 -254.42,-858.44 -216.89,-337.99 -554.81,-576.28 -922.39,-726.73 -340.98,-139.55 -701.08,-216.89 -1051.41,-327.14 -43.8,-13.78 -132.5,-40.86 -226.11,-74.69 132.92,-101.9 201.84,-245.38 282.82,-394.46 56.36,-103.74 104.41,-210.33 141.17,-318.91 60.94,-107.14 128.52,-269.53 159.55,-364.25zm-218.84 10569.18l0 1773.38c0,311.91 -255.18,567.09 -567.08,567.09l-6103.1 0c-311.9,0 -567.08,-255.18 -567.08,-567.09l0 -2603.28c541.57,271.21 1155.97,417.86 1763.62,504.07 1045.95,946.26 2574.37,1412.17 3969.92,1334.26 14.49,-0.81 26.81,-2.2 41.11,-4.64 139.34,-23.81 300.58,-79.65 435.25,-94.43 126.57,-4.98 750.76,-260.26 1027.36,-909.35z"/>
   <path class="fil1" d="M9159.71 5746.61c11.18,-16.03 25.64,-21.3 5.23,-87.67l-86.18 -278.24c-188.92,-742.14 -25.81,-1786.41 606.26,-2149.92 142.36,-81.86 226.79,-78.4 364.63,-41.39 8.12,9.21 24.51,13.84 45.45,15.13 0.05,0.61 -0.06,0.53 0.12,0.01 75.22,4.57 209.19,-33.9 232.06,-58.21l0 -0.01 258.49 -51.06c663.46,-109.52 1223.09,78.06 1633.46,398.85 408.94,319.67 594.7,826.28 588.72,1519.23 1.14,95.72 -3.82,32.65 25.45,55.7 53.15,-168.32 70.54,-208.64 109.59,-446.01 33.58,-204 32.77,-429.35 -28.93,-621.7 -109.55,-341.52 -368.87,-608.7 -600.43,-774.26 -653.69,-467.39 -1296.49,-542.46 -1996.24,-101.35 -269.25,-558.89 -598.96,-977.3 -1180.53,-975.79 204.81,168.55 332.26,191.01 560.92,458.29 132.92,155.39 241.89,335.64 327.77,526.06 -93.97,-61.22 -239.07,-103.4 -347.49,-73.69 -354.47,110.43 -645.46,502.6 -782.38,994.03l0.15 -0.57c-222.65,-110.75 -495.31,-449.99 -525.54,-750.72 -333.7,226.22 -554.58,587.1 -942.43,794.03 -66.11,62.09 -218.16,246.37 -231.21,338.41 380.85,-316.43 840.95,-482.82 1116.72,-823.75 74.8,232.89 340.22,471.48 543.58,604.34l1.59 -7.33c-75.88,370.9 -65.4,784.38 66.51,1170.25 75.99,150.91 171.3,249.22 234.66,367.34zm-400.78 -3867.08c-703.76,-60.39 -1333.25,93.81 -1841.61,559.74 -424.92,389.45 -578.62,873.46 -614.55,1582.67 -654.38,-1790.33 1740.7,-2772.96 2456.17,-2142.42zm-3467.5 5162.48c-962.95,342.56 -1423.48,1044.4 -1333.42,2211.36 53.18,772 181.37,1660.44 207.48,2277.87 93.15,2202.5 506.51,3658.62 3434.61,4038.7 928.6,888.25 2382.76,1394.28 3785.96,1315.95 118.41,-20.24 400.02,-98.05 481.83,-99.35 -31.49,-18.42 -106.72,-12.79 -142.46,-10.62 -1383.16,40.65 -2846.42,-353.62 -3752.09,-1185.68 251.63,21.53 520.23,36.4 807.96,44.13 343.14,8.55 708.65,-27.24 923.98,-42.68 290.5,230.46 372.58,390.33 827.58,564.28 248.91,100.39 668.55,190.68 793.51,100.96 -93.63,-10.22 -273.69,-27.59 -336.92,-78.2 -294.93,-79.92 -633.6,-300.74 -950.66,-566.83 156.39,28.72 335.94,83.93 564.54,182.26 563.33,191.99 1020.45,-94.72 1496.56,-330.46 -16.73,-2.12 -33.42,-3.42 -50.08,-4.14 -38.9,11.91 -81.21,14.54 -125.26,5.72 -590.89,74.34 -849.71,387.63 -1490.45,64.38 -270.06,-124.41 -443.82,-163.2 -678.2,-157.72 -1358.8,97.85 -3704.84,71.41 -4475.65,-947.23 -93.49,-112.52 -176.43,-227.57 -250.13,-344.15 -245.37,-383.66 -383.5,-767.12 -465.26,-1147.55 -119.82,-529.19 -127.85,-1021.12 -140.13,-1378.86 -15.18,-280.94 -33.74,-558.13 -78.23,-830.32 -131.14,-1055.37 -216.15,-1703.08 18.9,-2483.39 60.57,-189.8 235.46,-831.39 1534.41,-1115.08 198.41,-43.14 554.16,-213.95 622.18,-601.94 -474.23,313.11 -727.66,358.79 -1230.57,518.6zm1231.74 3518.13c-104.34,-535.66 -287.72,-1007.55 -522.5,-1202.49 367.98,1103.62 583.17,2236.51 253.83,3372.62 81.48,-92 156.95,-196.52 217.85,-331.4l4.53 80.39 20.44 1008.82c-56.42,-33.58 -113.2,-70.2 -170.37,-110.41 929.54,1122.25 2375.32,497.53 3338.21,796.95 -869.54,-625.54 -1804.35,-84.9 -2872.56,-536.66 -36.96,-819.03 -101.55,-1725.81 -53.83,-2537 33.5,-569.63 94.51,-1198.89 210.37,-1759.04 92.89,-449.14 272.74,-853.08 576.4,-1175.14 303.59,-322 822.72,-163.86 1091.69,-111.2 542.02,106.18 999.98,-249.18 1070.16,-760.87 -152.8,292.53 -326.08,498.68 -702.07,558.37 -358.29,56.87 -659.49,-131.32 -1018.93,-115.09 -378.62,17.09 -543.66,150.03 -771.31,388.31 -414.74,434.1 -596.43,1413.83 -671.93,2433.85zm2038.07 -3335.34c-742.07,100.39 -1968.51,-723.19 -2135.56,-1601.76 -123.37,-648.98 98.32,-239.02 -143.59,-464.91 -159.6,-149.06 -146.33,-333.64 -89.5,-526.09 43.29,291.69 -6.82,356.64 230.33,447.55l116.69 -492.67c11.18,907.28 34.05,1575.79 1191.35,2248.83 510.04,296.61 803.87,277.89 1136.47,-254.22 123.35,-159.46 201.4,-330.94 403.23,-546.62l-0.67 20.53c55.11,-469.69 301.69,-928.69 549.14,-1307.35 83.18,-127.29 234.97,-422.87 304.04,-598.39 110.67,-281.23 111.19,-457.34 132.37,-778.15 81.9,48.19 208.04,176.71 314.44,260.4 796.68,830.01 2699.84,1145.95 1937.79,2549.53 -65.11,119.07 -122.69,248.76 -214.07,298.43 79.91,-243.83 270.31,-937.18 135.08,-1159.07 -120.73,145.44 -402.05,787.23 -727.6,1153.71 -232.85,297.42 -11.64,513.92 114.95,708.24 477.97,673.9 3012.87,1340.81 2163.93,3022.22 -96.14,114.66 -181.16,205.69 -322.09,296.66 16.48,-220.04 900.02,-1062.44 -326.29,-1965.67l-476.06 -330.56c-508.57,-329.97 -1311.81,-718.15 -1469.78,-1329.53 -73.87,33.22 -261.66,179.38 -357.99,239.63 -111.69,69.86 -241.12,120.09 -333.04,173.75 -122.96,41.08 -109.88,33.24 -215.7,-28.74 -200.74,-117.54 -295.6,-212.83 -461.7,-378.94 -41.49,-41.49 -93.5,-110.73 -130.15,-162.85 -41.47,-58.97 -78.35,-99.15 -118.03,-156.69 -32.09,-46.57 -271.1,-479.86 -289.35,-489.26 -25.32,256.61 29.79,618.99 73.69,876.49 30.95,181.53 66.66,171.12 13.73,192.47 -2.63,-10.1 -115.52,-174.82 -140.31,-219.89 -44.32,-80.57 -83.5,-183.61 -109.21,-268.17 -30.52,-100.44 -48.33,-201.74 -55.47,-303.22 -166.1,341.33 -413.2,643.87 -701.06,874.31zm6042.63 1971.79c20.03,-394.6 113.83,-685.73 -165.49,-1121 -158.39,-246.81 -418.44,-448.99 -753.59,-586.17 -316.68,-129.6 -680.94,-211.86 -1022.74,-316.78 -627.11,-199.98 -719.93,-294.85 -828.85,-581.57 -105.62,728.54 1033.57,778.86 1603.79,1034.52 316.23,100.99 580.63,299.12 790.82,562.04 370.33,463.2 242.67,812.21 376.06,1008.95zm-1990.98 1874.78c193.3,-53.1 447.36,-317.83 554.38,-438.67 224.81,-387.16 276.37,-665.77 41.34,-1102.6 -180.67,-335.8 -419.36,-565.32 -665.51,-777.86 -514.15,-443.98 -660.83,-477.36 -1176.83,-952.03 -86.13,-111.27 -270.02,-317.89 -326.48,-434.11 16.08,361.3 440.66,762.18 597.34,916.84 692.1,683.18 2045.69,1355.74 1222.61,2558.18 -20.5,29.94 -245.55,221.99 -246.85,230.25zm-4886.27 2019.87l1.94 374.73c172.49,-734.77 385.77,-2574.01 673.43,-2934.57 272.27,529.42 1261.09,1026.6 1817.21,446.47 -228.73,60.54 -292.51,110.75 -614.54,90.46 -406.49,-25.59 -708.75,-226.04 -926.9,-545.86 -81.78,-119.9 -207.55,-344.6 -239.42,-508.44l-37.42 -76.68c-216.33,476.45 -363.2,872.48 -479.82,1440.02 -101.09,491.98 -209.81,1196.91 -194.49,1713.87zm4512.03 -3349.99c51.53,327.21 -120.55,633.83 -272.11,789.62 -163.85,168.42 -542.01,294.2 -853.84,348.58 548.87,76.97 700.84,312.3 922.06,595.05 57.13,-43.04 40.22,-65.05 119.02,-79.76 71.84,-13.42 100.25,46.34 141.74,33.53 -112.95,-155.65 -366.15,-436.35 -516.41,-509.64 1521.34,-1188.36 68.59,-1938.39 -725.5,-2761.15 -120.85,-125.59 -255.74,-314.75 -338.73,-526.78 92.61,929.35 1404.64,1353.85 1523.77,2110.54zm1006.35 2942.69c-422.04,378.07 -833.76,63.37 -1100.62,-38.85 297.3,254.15 345.22,365.23 860.11,416.03 35.78,147.47 92.73,285.66 129.45,445.27 228.55,993.2 -328.73,1725.69 -1055.2,2268.3 -42.97,32.1 -229.81,162.53 -321.51,238.88 1480.82,-504.87 1921.08,-1683.07 1442.97,-2986.18 538.52,-306.09 458.34,-1182.09 -537.81,-1484.66 -19.74,18.09 -52.96,-10.53 21.14,37.54 139.99,90.8 229.42,134.87 365.27,273.27 210.31,214.2 505.2,553.55 196.18,830.41zm-961.48 -7564.99c-213.33,614.78 -865.55,1465.42 -1423.99,1820.34 -304.82,193.74 -382.26,132.75 -598.45,-110.61 -119.44,-134.46 -729.18,-966.02 -726.71,-1127.99 1.18,-78.23 524.3,-836.13 601.99,-1001.57 176.97,-376.77 233.36,-830.55 279.72,-917.17 58.41,35.22 232.1,234.49 308.97,289.02 411.94,292.3 1328.06,723.88 1558.48,1047.97zm-794.77 9173.53c-196.72,106.1 -627.99,105.7 -648.22,224.72 -1.09,399.59 823.25,49.79 1111.81,222.19 -321.75,-16.39 -831.31,263.76 -1082.15,128.59 -358.43,-193.13 -349.14,-491.17 111.5,-589.67 295.55,-55.82 366.38,-8.53 397.27,-127.65 -1207.45,-317.54 -658.92,-36.91 -1240.63,-24.4 192.63,-82.91 259.32,-233.24 400.33,-272.45 112.28,-33.58 311.16,41.13 439.27,78.34 605.83,172.45 720.53,34.01 510.82,360.34z"/>
   <path class="fil2" d="M7757.69 13603.4l-0.21 -2.7 -0.21 -2.73 -0.21 -2.78 -0.21 -2.84 -0.21 -2.87 -0.21 -2.92 -0.21 -2.96 -0.21 -3 -0.21 -3.04 -0.21 -3.09 -0.21 -3.11 -0.21 -3.17 -0.21 -3.2 -0.4 -6.52 -0.2 -3.3 -0.2 -3.35 -0.2 -3.38 -0.2 -3.42 -0.19 -3.45 -0.2 -3.49 -0.18 -3.52 -0.19 -3.54 -0.18 -3.58 -0.19 -3.61 -0.18 -3.64 -0.17 -3.66 -0.18 -3.69 -0.17 -3.72 -0.17 -3.75 -0.17 -3.77 -0.16 -3.79 -0.16 -3.82 -0.15 -3.84 -0.16 -3.87 -0.16 -3.88 -0.28 -7.83 -0.14 -3.95 -0.13 -3.96 -0.13 -3.99 -0.13 -4 -0.12 -4.01 -0.11 -4.04 -0.11 -4.04 -0.1 -4.07 -0.1 -4.07 -0.1 -4.1 -0.1 -4.1 -0.08 -4.11 -0.09 -4.11 -0.07 -4.14 -0.06 -4.14 -0.06 -4.15 -0.06 -4.15 -0.04 -4.17 -0.04 -4.17 -0.05 -4.18 -0.02 -4.18 -0.02 -4.18 -0.02 -4.19 -0.01 -4.19 -0.32 1.47 -0.32 1.47 -0.31 1.47 -0.32 1.46 -0.32 1.47 -3.79 17.4 -0.32 1.44 -0.32 1.43 -0.32 1.43 -0.32 1.43 -4.09 18.41 -0.31 1.39 -0.32 1.39 -0.31 1.4 -0.63 2.78 -0.31 1.39 -0.32 1.39c-2.41,10.61 -4.8,21.01 -7.19,31.18l-1.94 -374.73c-15.33,-516.97 93.39,-1221.89 194.49,-1713.87 116.62,-567.54 263.49,-963.57 479.82,-1440.02l18.71 38.34c765.13,-73.29 756.83,-1508.57 418.26,-1901.81l0.32 -0.01 -0.76 0.02c-451.28,14.1 -934.83,-307.07 -1311.9,92.88 -303.67,322.07 -483.51,726.01 -576.4,1175.14 -115.85,560.16 -176.87,1189.41 -210.37,1759.04 -47.72,811.19 16.87,1717.97 53.83,2537 16.03,6.79 32.04,13.32 48.02,19.66l3.49 1.39c15.68,6.18 31.32,12.17 46.94,17.96l2.87 1.06c16.01,5.9 32,11.63 47.95,17.11l0.22 0.08c16.11,5.55 32.21,10.88 48.27,16.02l1.62 0.52c15.75,5.03 31.47,9.86 47.17,14.51l2.93 0.87c15.57,4.58 31.12,9.02 46.64,13.25l2.32 0.63c15.22,4.14 30.43,8.12 45.62,11.93l2.74 0.7c15.07,3.77 30.12,7.36 45.15,10.82l4.98 1.15c14.89,3.39 29.75,6.65 44.59,9.76l3.46 0.72c14.96,3.1 29.89,6.07 44.81,8.9l2.08 0.4c14.99,2.82 29.96,5.5 44.89,8.05l4.73 0.81c14.74,2.5 29.46,4.88 44.15,7.12l3.89 0.59c14.84,2.25 29.66,4.37 44.45,6.4l0.67 0.1 0.33 0.05 1.39 0.17c14.33,1.93 28.62,3.75 42.91,5.46l6.03 0.74c13.76,1.62 27.49,3.16 41.21,4.6l7.76 0.81c13.42,1.39 26.83,2.68 40.23,3.9l6.55 0.58c13,1.15 25.97,2.23 38.93,3.24l7.29 0.57c12.93,0.98 25.85,1.89 38.74,2.73l10.29 0.67c12.95,0.81 25.87,1.57 38.78,2.26l7.62 0.4c11.33,0.59 22.64,1.13 33.94,1.63l14.95 0.64c10.47,0.44 20.92,0.82 31.37,1.18l15.49 0.53c9.72,0.31 19.42,0.59 29.12,0.84l19.2 0.48 24.61 0.52 22.72 0.4 23.88 0.35 -0.01 0 -4.33 -1.85 -4.29 -1.8 -4.26 -1.76 -4.21 -1.72 -4.16 -1.69 -4.11 -1.67 -0.02 0 -4.07 -1.64 -4.02 -1.62 -0.02 0 -3.98 -1.62 -3.95 -1.6 -3.88 -1.61 -0.18 -0.08 -0.18 -0.08 -0.18 -0.06 -0.17 -0.08 -0.18 -0.08 -0.18 -0.08 -0.18 -0.06 -0.18 -0.08 -0.18 -0.08 -0.17 -0.08 -0.18 -0.06 -0.18 -0.08 -0.18 -0.08 -0.17 -0.08 -0.36 -0.14 -0.18 -0.08 -1.43 -0.6 -0.17 -0.08 -0.54 -0.22 -0.18 -0.08 -0.17 -0.08 -0.54 -0.22 -0.17 -0.08 -0.17 -0.08 -0.18 -0.07 -0.53 -0.23 -0.17 -0.07 -0.71 -0.3 -0.17 -0.08 -0.18 -0.08 -0.17 -0.08 -0.18 -0.08 -0.17 -0.07 -0.18 -0.08 -0.17 -0.07 -0.17 -0.08 -0.18 -0.07 -0.17 -0.08 -0.18 -0.08 -0.17 -0.08 -0.17 -0.08 -0.17 -0.07 -0.17 -0.07 -0.17 -0.08 -0.17 -0.08 -0.18 -0.07 -0.17 -0.08 -0.02 0 -0.17 -0.08 -0.18 -0.08 -0.17 -0.08 -0.17 -0.07 -0.17 -0.08 -0.18 -0.08 -0.17 -0.08 -0.17 -0.07 -0.17 -0.08 -0.17 -0.08 -0.17 -0.08 -0.18 -0.08 -0.17 -0.07 -0.17 -0.08 -0.17 -0.08 -0.17 -0.08 -0.17 -0.08 -0.17 -0.07 -0.17 -0.08 -0.17 -0.08 -0.17 -0.08 -0.06 -0.02 -0.12 -0.06 -0.17 -0.08 -0.17 -0.08 -0.17 -0.08 -0.17 -0.08 -0.17 -0.07 -0.17 -0.08 -0.17 -0.08 -0.17 -0.08 -0.17 -0.08 -0.17 -0.08 -0.17 -0.08 -0.17 -0.08 -0.17 -0.08 -0.17 -0.08 -0.17 -0.07 -0.17 -0.08 -0.17 -0.08 -0.17 -0.08 -0.68 -0.32 -0.17 -0.08 -0.17 -0.07 -0.17 -0.09 -0.17 -0.08 -0.17 -0.08 -0.16 -0.08 -0.17 -0.07 -0.17 -0.09 -0.16 -0.08 -0.17 -0.08 -0.17 -0.08 -0.17 -0.09 -0.17 -0.07 -0.17 -0.08 -0.17 -0.08 -0.16 -0.09 -0.17 -0.08 -0.17 -0.07 -0.17 -0.09 -0.17 -0.08 -0.01 0 -0.11 -0.06 -0.12 -0.05 -0.11 -0.06 -0.11 -0.05 -0.11 -0.06 -0.11 -0.05 -0.11 -0.06 -0.11 -0.05 -0.11 -0.06 -0.1 -0.05 -0.12 -0.06 -0.11 -0.06 -0.11 -0.05 -0.11 -0.06 -0.11 -0.05 -0.11 -0.06 -0.11 -0.05 -0.12 -0.06 -0.1 -0.05 -0.11 -0.06 -0.11 -0.06 -0.11 -0.06 -0.11 -0.06 -0.11 -0.06 -0.1 -0.06 -0.11 -0.05 -0.12 -0.06 -0.11 -0.05 -0.11 -0.06 -0.21 -0.11 -0.11 -0.06 -0.01 0 -0.1 -0.06 -0.11 -0.06 -0.1 -0.05 -0.12 -0.06 -0.11 -0.05 -0.11 -0.06 -0.1 -0.06 -0.11 -0.06 -0.11 -0.06 -0.1 -0.05 -0.11 -0.06 -0.11 -0.06 -0.12 -0.06 -0.1 -0.06 -0.11 -0.06 -0.11 -0.05 -0.1 -0.06 -0.11 -0.06 -0.11 -0.06 -0.1 -0.06 -0.11 -0.06 -0.12 -0.06 -0.1 -0.06 -0.11 -0.06 -0.11 -0.06 -0.1 -0.05 -0.11 -0.06 -0.11 -0.06 -0.1 -0.06 -0.11 -0.06 -0.1 -0.06 -0.11 -0.06 -0.02 0 -3.46 -1.82 -0.1 -0.06 -0.11 -0.06 -0.1 -0.06 -0.11 -0.06 -0.1 -0.06 -0.1 -0.05 -0.11 -0.06 -0.1 -0.06 -0.21 -0.11 -0.1 -0.06 -0.12 -0.06 -0.1 -0.05 -0.1 -0.06 -0.11 -0.06 -0.1 -0.06 -0.1 -0.06 -0.11 -0.06 -0.1 -0.06 -0.1 -0.06 -0.11 -0.06 -0.1 -0.06 -0.1 -0.06 -0.1 -0.06 -0.12 -0.06 -0.1 -0.06 -0.1 -0.06 -0.11 -0.06 -0.1 -0.06 -0.1 -0.06 -0.1 -0.06 -0.11 -0.06 0 -0.01 -0.1 -0.05 -0.1 -0.06 -0.1 -0.06 -0.1 -0.06 -0.11 -0.06 -0.1 -0.06 -0.1 -0.06 -0.1 -0.05 -0.1 -0.06 -0.12 -0.06 -0.1 -0.06 -0.1 -0.06 -0.1 -0.06 -0.1 -0.06 -0.1 -0.06 -0.11 -0.06 -0.1 -0.06 -0.1 -0.06 -0.1 -0.06 -0.1 -0.06 -0.1 -0.06 -0.1 -0.06 -0.1 -0.06 -0.1 -0.06 -0.11 -0.06 -0.11 -0.06 -0.1 -0.06 -0.1 -0.06 -0.1 -0.06 -0.1 -0.06 -0.1 -0.06 -0.1 -0.06 -0.01 0 -0.1 -0.06 -0.1 -0.06 -0.1 -0.06 -0.1 -0.06 -0.1 -0.06 -0.1 -0.07 -0.1 -0.06 -0.1 -0.06 -0.1 -0.06 -0.1 -0.06 -0.1 -0.06 -0.1 -0.06 -0.1 -0.07 -0.11 -0.06 -0.1 -0.06 -0.1 -0.06 -0.1 -0.06 -0.1 -0.06 -0.1 -0.07 -0.1 -0.06 -0.1 -0.06 -0.1 -0.06 -0.1 -0.06 -0.07 -0.06 -0.02 -0.02 -0.1 -0.06 -0.1 -0.06 -0.1 -0.06 -0.1 -0.07 -0.1 -0.06 -0.1 -0.06 -0.1 -0.06 -0.1 -0.06 0 -0.01 -0.1 -0.06 -0.1 -0.06 -0.1 -0.06 -0.1 -0.07 -0.1 -0.06 -0.1 -0.06 -0.1 -0.07 -0.1 -0.06 -0.1 -0.06 -0.11 -0.06 -0.1 -0.06 -0.1 -0.06 -0.1 -0.06 -0.1 -0.06 -0.1 -0.07 -0.1 -0.06 -0.1 -0.06 -0.1 -0.07 -0.1 -0.06 -0.1 -0.07 -0.1 -0.06 -0.1 -0.06 -0.1 -0.07 -0.1 -0.06 -0.1 -0.07 -0.1 -0.06 -0.1 -0.06 -0.1 -0.06 -0.1 -0.07 -0.1 -0.06 -0.1 -0.07 -0.1 -0.06 -0.01 0 -0.1 -0.06 -0.1 -0.06 -0.1 -0.07 -0.1 -0.06 -0.1 -0.07 -2.09 -1.38 -0.1 -0.07 -0.1 -0.06 -0.1 -0.07 -0.1 -0.07 -0.1 -0.06 -0.1 -0.07 -0.01 0 -0.09 -0.06 -0.1 -0.06 -0.1 -0.07 -0.1 -0.07 -0.1 -0.06 -0.01 0 -0.39 -0.27 -0.1 -0.07 -0.1 -0.06 -0.1 -0.07 -0.49 -0.34 -0.1 -0.06 -0.1 -0.07 -0.1 -0.07 -0.1 -0.06 -0.1 -0.07 -0.1 -0.07 -0.1 -0.06 -0.1 -0.07 -0.1 -0.07 -0.1 -0.07 -0.1 -0.06 -0.1 -0.07 -0.1 -0.07 -0.1 -0.06 -0.1 -0.07 -0.01 0 -0.1 -0.07 -0.1 -0.06 -0.1 -0.07 -0.1 -0.07 -0.1 -0.07 -0.1 -0.07 -0.1 -0.07 -0.1 -0.07 -0.1 -0.06 -0.1 -0.07 -0.1 -0.07 -0.29 -0.21 -0.1 -0.07 -0.1 -0.06 -0.29 -0.22 -0.1 -0.06 -0.1 -0.07 -0.1 -0.07 -0.09 -0.07 -0.11 -0.07 -0.1 -0.07 -0.09 -0.07 -0.1 -0.07 -0.1 -0.07 -0.1 -0.07 -0.1 -0.06 -0.2 -0.15 -0.01 0 -0.09 -0.07 -0.1 -0.07 -0.1 -0.07 -0.1 -0.08 -0.1 -0.07 -0.1 -0.06 -0.1 -0.08 -0.1 -0.07 -0.1 -0.07 -0.1 -0.07 -0.1 -0.07 -0.1 -0.08 -0.1 -0.06 -0.1 -0.08 -0.1 -0.07 -0.1 -0.08 -0.1 -0.06 -0.1 -0.08 -0.1 -0.07 -0.09 -0.08 -0.1 -0.06 -0.1 -0.08 -0.19 -0.15 -0.1 -0.07 -0.1 -0.07 -0.1 -0.08 -0.09 -0.07 -0.1 -0.07 -0.1 -0.08 -0.1 -0.07 -0.1 -0.08 -0.01 0 -0.13 -0.11 -0.15 -0.11 -0.13 -0.11 -0.14 -0.11 -0.13 -0.11 -0.42 -0.35 -0.14 -0.11 -0.13 -0.11 -0.29 -0.23 -0.13 -0.11 -0.14 -0.12 -0.13 -0.11 -0.14 -0.12 -0.13 -0.11 -0.13 -0.12 -0.15 -0.11 -0.13 -0.12 -0.14 -0.12 -0.05 -0.03 -0.09 -0.08 -0.13 -0.12 -0.14 -0.11 -0.13 -0.12 -0.14 -0.13 -0.13 -0.11 -0.13 -0.12 -0.14 -0.11 -0.13 -0.12 -0.13 -0.13 -0.14 -0.12 -0.13 -0.11 -0.14 -0.12 -0.13 -0.12 -0.13 -0.13 -0.13 -0.12 -0.13 -0.12 -0.13 -0.11 -0.14 -0.12 -0.13 -0.13 -0.28 -0.24 -0.13 -0.12 -0.13 -0.13 -0.13 -0.12 -0.13 -0.13 -0.13 -0.12 -0.13 -0.12 -0.14 -0.13 -0.13 -0.12 -0.13 -0.12 -0.13 -0.13 -0.13 -0.13 -0.27 -0.25 -0.13 -0.12 -0.13 -0.13 -0.14 -0.13 -0.13 -0.12 -0.13 -0.13 -0.13 -0.13 -0.13 -0.12 -0.13 -0.13 -0.02 0 -0.13 -0.13 -0.13 -0.12 -0.13 -0.13 -1.84 -1.78 -0.13 -0.13 -0.13 -0.13 -0.13 -0.13 -0.13 -0.13 -0.04 -0.05 -0.09 -0.09 -0.13 -0.13 -0.13 -0.13 -0.13 -0.13 -0.13 -0.13 -0.13 -0.13 -0.13 -0.13 -0.13 -0.13 -0.13 -0.13 -0.13 -0.13 -0.25 -0.26 -0.13 -0.13 -0.13 -0.13 -0.13 -0.13 -0.13 -0.14 -0.13 -0.13 -0.13 -0.13 -0.13 -0.14 -0.13 -0.13 -0.13 -0.14 -0.38 -0.4 -0.13 -0.13 -0.13 -0.13 -0.13 -0.14 -0.13 -0.13 -0.13 -0.14 -0.12 -0.13 -0.13 -0.13 -0.13 -0.14 -0.12 -0.13 -0.13 -0.14 -0.13 -0.13 -0.12 -0.13 -0.13 -0.14 -0.13 -0.14 -0.13 -0.14 -0.12 -0.13 -0.13 -0.13 -0.13 -0.15 -0.12 -0.13 -0.01 0 -0.09 -0.1 -0.08 -0.1 -0.09 -0.1 -0.08 -0.1 -0.08 -0.1 -0.09 -0.1 -0.08 -0.1 -0.09 -0.1 -1.23 -1.43 -0.09 -0.1 -0.08 -0.1 -0.09 -0.1 -0.07 -0.1 -0.09 -0.1 -0.08 -0.1 -0.08 -0.1 -0.41 -0.49 -0.08 -0.1 -0.08 -0.1 -0.09 -0.1 -0.07 -0.1 -0.09 -0.1 -0.08 -0.1 -0.08 -0.1 -0.16 -0.2 -0.08 -0.1 -0.09 -0.1 -0.16 -0.2 -0.08 -0.1 -0.08 -0.1 -0.08 -0.1 -0.17 -0.2 -0.08 -0.1 -0.16 -0.2 -0.08 -0.1 -0.08 -0.1 -0.09 -0.1 -0.07 -0.1 -0.08 -0.1 -0.09 -0.1 -0.08 -0.1 -0.08 -0.11 -0.01 0 -2.51 -3.31 -0.11 -0.16 -0.12 -0.16 -0.12 -0.16 -0.12 -0.16 -0.11 -0.17 -1.27 -1.78 -0.11 -0.17 -0.12 -0.16 -0.11 -0.17 -0.11 -0.17 -0.12 -0.16 -0.23 -0.34 -0.11 -0.16 -0.11 -0.17 -0.11 -0.17 -0.11 -0.16 -0.12 -0.17 -0.11 -0.17 -0.11 -0.17 -0.11 -0.17 -0.46 -0.67 -0.11 -0.17 -0.1 -0.16 -0.11 -0.17 -0.11 -0.17 -0.56 -0.86 -0.11 -0.17 -0.11 -0.17 -0.1 -0.17 -0.11 -0.17 -0.11 -0.17 -0.11 -0.18 -0.1 -0.17 -0.12 -0.17 -0.11 -0.17 -0.11 -0.18 -0.1 -0.17 -0.11 -0.17 -0.11 -0.17 -0.1 -0.17 -0.11 -0.18 -0.11 -0.17 -0.1 -0.18 -0.12 -0.17 -0.1 -0.17 -0.11 -0.18 -0.01 0 -0.14 -0.24 -0.14 -0.24 -0.14 -0.24 -0.86 -1.46 -0.14 -0.24 -0.14 -0.25 -0.14 -0.25 -0.14 -0.25 -0.13 -0.25 -0.14 -0.25 -0.41 -0.71 -0.02 -0.03 -0.13 -0.25 -0.14 -0.25 -0.13 -0.25 -0.13 -0.25 -0.14 -0.26 -0.13 -0.25 -0.13 -0.25 -0.14 -0.25 -0.13 -0.25 -0.14 -0.25 -0.13 -0.25 -0.13 -0.26 -0.14 -0.25 -0.13 -0.26 -0.01 0 -0.13 -0.26 -0.13 -0.25 -0.13 -0.26 -0.14 -0.26 -0.26 -0.52 -0.14 -0.26 -0.13 -0.26 -0.4 -0.79 -0.14 -0.26 -0.13 -0.26 -0.13 -0.27 -0.13 -0.27 -0.26 -0.53 -0.13 -0.27 -0.13 -0.27 -0.13 -0.26 -0.13 -0.27 -0.13 -0.28 -0.13 -0.26 -0.53 -1.1 -0.13 -0.27 -0.13 -0.28 -0.13 -0.28 -0.13 -0.28 -0.13 -0.27 -0.01 0 -0.06 -0.14 -0.06 -0.13 -0.06 -0.14 -0.07 -0.14 -0.06 -0.14 -1.27 -2.82 -0.06 -0.15 -0.13 -0.28 -0.06 -0.15 -0.06 -0.13 -0.07 -0.15 -0.06 -0.13 0 -0.01 -0.06 -0.14 -0.06 -0.14 -0.06 -0.15 -0.07 -0.14 -0.06 -0.15 -0.06 -0.13 -0.06 -0.14 -0.06 -0.15 -0.06 -0.14 -0.31 -0.74 -0.06 -0.14 -0.06 -0.15 -0.06 -0.14 -0.31 -0.74 -0.06 -0.14 -0.06 -0.15 -0.06 -0.14 -0.06 -0.15 -0.06 -0.15 -0.06 -0.15 -0.06 -0.14 -0.06 -0.15 -0.06 -0.15 -0.06 -0.15 -0.02 0 -1.9 -4.87 -1.83 -5.06 -1.77 -5.25 -1.7 -5.44 -0.03 -0.09 -0.02 -0.09 -0.02 -0.09 -0.02 -0.09 -0.03 -0.09 -0.02 -0.09 -0.02 -0.08 -0.03 -0.09 -0.02 -0.1 -0.02 -0.09 -0.02 -0.09 -0.03 -0.09 -0.02 -0.09 -0.89 -3.08 -0.02 -0.09 -0.02 -0.09 -0.03 -0.1 -0.02 -0.08 -0.02 -0.09 -0.02 -0.1 -0.03 -0.09 -0.02 -0.1 -0.02 -0.09 -0.02 -0.09 0 -0.02 -0.02 -0.07 -0.02 -0.09 -0.02 -0.1 -0.02 -0.09 -0.06 -0.17 140.35 131.75 -155.83 -230.65z"/>
   <path class="fil2" d="M12246.34 5137.1c-230.42,-324.09 -1119.19,-723.76 -1531.12,-1016.06 -76.86,-54.53 -150.26,-135.26 -208.68,-170.48 -46.35,86.62 -70.83,389.96 -247.8,766.73 -77.7,165.42 -500.52,891.42 -501.7,969.64 -0.63,41.31 122.05,311.43 146.24,362.9 94.59,201.21 275.68,467.14 402.68,610.1 40.85,45.98 82.53,71.36 125.11,115.32 218.85,225.93 236.61,214.13 473.34,63.68 558.45,-354.92 1128.6,-1087.04 1341.93,-1701.83z"/>
   <path class="fil3" d="M10715.77 7277.44c2.62,185.97 73.73,225.42 3.03,363.19l13.71 32.98c3.11,5.58 7.39,15.43 12.51,28.27 83.27,182.93 201.44,344.27 308.6,455.61 794.09,822.76 2246.84,1572.78 725.5,2761.15 88.97,43.4 214.05,159.54 324.72,279.35 73.81,-11.88 368.68,-59.1 509.5,-126.75l-0.45 0.13c1.31,-8.26 226.35,-200.31 246.85,-230.25 823.08,-1202.44 -530.52,-1875 -1222.61,-2558.18 -156.68,-154.66 -581.26,-555.54 -597.34,-916.84 56.46,116.22 240.35,322.84 326.48,434.11 516,474.67 662.68,508.06 1176.83,952.03 246.15,212.54 484.84,442.06 665.51,777.86 235.03,436.83 183.47,715.44 -41.34,1102.6 -20.67,23.34 -46.85,52.06 -76.99,83.58 85.91,4.39 417.95,-130.65 567.77,-215.26 18.12,-221.03 898.74,-1062.66 -326.38,-1965l-476.06 -330.56c-508.57,-329.97 -1311.81,-718.15 -1469.78,-1329.53 -73.87,33.22 -261.66,179.38 -357.99,239.63 -103.44,64.7 -222.09,112.57 -312.06,161.9zm2950.01 3219.14c28.4,-16.4 49.37,-30.71 59.51,-41.41 -18.73,13.87 -38.5,27.63 -59.51,41.41z"/>
   <path class="fil4" d="M11867.88 16786.54c400.62,-42.8 919.86,-613.99 769.68,-1217.67l-6.73 -16.03c-240.94,184.71 -528.6,350.76 -873.6,460.71 -182.95,137.08 -322.46,234.28 -475.99,238.45 16.42,1.85 31.67,3.45 45.12,4.92 -110.86,79.59 -453.63,17.51 -703.37,-67.61 -99.83,83.35 -942.9,-154.69 -1082.39,-221.98 -62.33,-30.07 -97.38,-36.38 -161.19,-62.31 -113.98,-46.32 -364.89,-145.07 -572.52,-270.1 -8.56,-0.13 -17.13,-0.28 -25.6,-0.55 -287.73,-7.73 -556.33,-22.6 -807.96,-44.13 905.67,832.06 2368.94,1226.34 3752.09,1185.68 35.73,-2.17 110.96,-7.8 142.46,10.62zm-2162.61 -1194.85c-204.57,14.67 -544.68,47.71 -872.38,43.64 294.28,7.33 654.03,-26.56 872.38,-43.64zm2242.82 277.24l2.17 -1.57 -0.01 0 -2.16 1.57z"/>
   <path class="fil2" d="M9233.76 7967.4l-0.82 0.44 -0.25 0.15 -0.17 0.09 0.42 -0.24 0.67 -0.36 0.14 -0.08zm-1.24 0.67l-0.36 0.2 -0.37 0.21 0.74 -0.4zm15.55 -8.67l0.27 -0.16 -0.27 0.16zm1.85 -1.06l0.05 -0.02 -0.04 0.02 -0.01 0zm0.05 -0.02l0.22 -0.13 -0.22 0.13zm0.22 -0.13l0.26 -0.15 -0.26 0.15zm0.26 -0.15l0.26 -0.15 -0.26 0.15zm0.26 -0.15l0.27 -0.16 -0.27 0.16zm0.27 -0.16l0.25 -0.14 0.27 -0.16 -0.52 0.3zm0.52 -0.3l0.27 -0.15 -0.27 0.15zm0.27 -0.15l0.25 -0.15 0.27 -0.16 -0.52 0.31zm0.52 -0.31l0.27 -0.15 -0.27 0.15zm0.27 -0.15l0.25 -0.15 -0.25 0.15zm0.25 -0.15l0.27 -0.15 -0.27 0.15zm0.27 -0.15l0.26 -0.16 -0.26 0.16zm0.26 -0.16l0.52 -0.3 -0.52 0.3zm0.52 -0.3l0.27 -0.15 -0.27 0.15zm-10.58 6.05l-0.27 0.15 0.01 0 0.26 -0.15zm-1.86 1.05l-0.26 0.14 -0.26 0.15 -0.01 0 -0.27 0.15 -0.25 0.15 -0.02 0 0.27 -0.15 0.01 0 0.26 -0.15 0.27 -0.15 0.01 0 0.25 -0.14zm2018.32 596.67c-269.33,-259.91 -499.62,-546.05 -542.77,-909.87 -4.6,-1.3 -9.14,-2.69 -13.68,-4.09 -447.33,-128.88 -476.43,-379.2 -869.79,-544.19 -55.04,287.23 -121.16,558.27 -408.77,724.2l0 -0.04c-50.76,49.76 -107.43,93.17 -169.01,129.14 289.29,967.06 1435.79,1588.66 2004.03,604.84zm-538.66 -913.55c3.64,8.98 7.35,17.92 11.2,26.82l-11.06 -26.6 -0.01 0 -0.03 0.04 -0.1 -0.25zm31.92 72.87l-0.1 -0.19 0.52 1.09 -0.43 -0.9zm-0.1 -0.19l-0.13 -0.27 0.01 0.01 0.12 0.26zm-0.13 -0.27c-9.84,-20.36 -17.32,-36.41 -20.29,-45.08 4.07,9.46 8.23,18.87 12.49,28.23l0.02 0.04 0.24 0.51 0.62 1.36 0.63 1.36 1.25 2.73 0.63 1.36 0.57 1.24 0.06 0.13 0.63 1.36 0.63 1.36 0.63 1.36 0.63 1.36 0.64 1.36 0.63 1.35zm-20.29 -45.08l-0.02 -0.06 0.02 0.06z"/>
   <path class="fil5" d="M13980.04 10205.02c212.85,-92.17 599.36,-801.41 623.82,-1008.43 -133.39,-196.74 -5.73,-545.75 -376.06,-1008.95 -210.19,-262.92 -474.59,-461.05 -790.82,-562.04 -567.9,-254.62 -1699.93,-305.67 -1604.85,-1025.72 -20.34,-73.87 -75,-124.83 -154.77,-92.86 -192.85,280.83 16.81,488.61 138.75,675.78 477.97,673.9 3012.87,1340.81 2163.93,3022.22z"/>
   <path class="fil2" d="M12646.26 11549.54c-130.16,-67.46 -261.59,-124.79 -371.68,-149.42 7.41,9.76 14.42,19.17 20.94,28.16 -41.49,12.81 -69.9,-46.95 -141.74,-33.53 -78.81,14.71 -61.89,36.72 -119.02,79.76l-11.81 -15.12c-28.14,50.55 -32.86,130.27 -5.48,247.81 27.52,78.8 69.34,88.83 95.62,163.03 -61.43,77.26 -145.26,162.97 -146.96,275.06 -10.56,101.43 231.3,235.22 265.69,251.12 278.16,120.94 849.25,471.33 1134.36,-78.71 -43.98,-172.45 -194.98,-339.49 -317.38,-464.16 -135.85,-138.39 -225.28,-182.46 -365.27,-273.27 -54.66,-35.46 -50.93,-29.19 -37.29,-30.72z"/>
   <path class="fil4" d="M9676.34 7315.64c3.71,-6.93 7.39,-13.91 11.06,-20.94 -28.89,210.64 -123.53,394.73 -262.66,531.1l0 0.09c287.62,-165.93 353.74,-436.97 408.77,-724.2 397.41,166.68 422.95,420.48 883.67,548.15 -0.74,-6.39 -1.68,-12.7 -2.31,-19.12l3.92 9.91c69.89,-136.18 1.21,-176.31 -2.9,-356.88l-0.01 -0.17 -0.12 -6.13c-7.19,3.94 -14.19,7.89 -20.98,11.85 -122.96,41.08 -109.88,33.24 -215.7,-28.74 -200.74,-117.54 -295.6,-212.83 -461.7,-378.94 -41.49,-41.49 -93.5,-110.73 -130.15,-162.85 -41.47,-58.97 -78.35,-99.15 -118.03,-156.69 -32.09,-46.57 -271.1,-479.86 -289.35,-489.26 -25.32,256.61 29.79,618.99 73.69,876.49 20.91,122.7 44.01,157.71 40.43,174.11l22.75 36.53c32.59,60.5 54.25,85.59 59.61,155.68zm1043.07 326.46l1.79 4.44 0.04 -0.04 -1.83 -4.4zm-3.64 -364.66l0 -0.01 0 0.01z"/>
   <path class="fil6" d="M10613.91 3090.78c1700.34,295.46 1976.42,943.78 2194.31,1963.51l0 -0.24c-0.07,-8.39 -0.05,-21.28 -0.28,-40.73 5.98,-692.95 -179.78,-1199.56 -588.72,-1519.23 -404.56,-316.24 -954.16,-503.02 -1605.32,-403.31z"/>
   <path class="fil2" d="M6434.16 6758.85c44.01,-71.61 73.06,-152.24 87.74,-234.93 52.15,-178.15 97.52,-386.19 100.09,-416.96l4.3 6.78c5.24,8.37 10.48,16.71 15.85,25.02 4.67,7.22 9.43,14.42 14.22,21.59 2.92,4.39 5.82,8.79 8.78,13.16 4.66,6.89 9.39,13.77 14.16,20.62 3.59,5.15 7.2,10.29 10.83,15.41 4.12,5.82 8.27,11.66 12.47,17.45 5.98,8.27 12.07,16.5 18.19,24.71 1.94,2.62 3.86,5.25 5.82,7.85 151.82,201.66 342.95,382.08 550.7,531.11l2.45 1.75c8.38,5.98 16.75,11.96 25.18,17.84 414.18,291.52 893.21,463.66 1256.3,414.55l0.36 -0.29 0.36 -0.29 0.06 -0.06 0.67 -0.52 0.36 -0.29 0.36 -0.29 0.36 -0.29 1.36 -1.11c286.18,-230.04 531.8,-531.4 697.15,-871.15 7.13,101.48 24.95,202.78 55.47,303.22 25.7,84.56 64.89,187.6 109.21,268.17 24.79,45.07 137.68,209.79 140.31,219.89 1.11,-0.44 79.42,151.79 100.22,190.28 -148.23,272.67 -322.39,463.89 -682.16,521.01 -358.29,56.87 -659.49,-131.32 -1018.93,-115.09 -151.81,6.86 -269.26,32.34 -370.2,75.77 -5.49,-4.92 -10.37,-9.34 -10.25,-9.39 -550.05,-186.42 -950.45,-513.66 -1134.89,-999.24l-16.91 -46.27zm186.44 -654.15l-0.01 0.02 0.35 0.55 -0.34 -0.56z"/>
   <path class="fil4" d="M6430.31 6766.25c166.76,-13.7 203.29,-163.66 250.57,-307.1 253.54,355.13 845.45,818.93 1770.04,773.77 -345.44,5.94 -770.21,-158.92 -1142.93,-420.51 -279.2,-190.74 -526.47,-434.64 -685.97,-705.4l-0.03 -0.05c-39.65,187.9 -54.06,257.88 -98.54,415.28l-2.09 4.53c-0.65,3.63 -1.33,7.23 -2.04,10.81l-1.57 7.8c-0.73,3.52 -1.47,7.01 -2.26,10.49l-1.59 6.93c-0.86,3.68 -1.73,7.31 -2.65,10.94l-1.45 5.67c-1.01,3.84 -2.03,7.66 -3.09,11.45l-1.53 5.43c-1.14,3.98 -2.32,7.93 -3.53,11.86l-1.53 4.93c-1.25,3.95 -2.53,7.87 -3.84,11.78l-1.38 4.07c-1.42,4.16 -2.88,8.29 -4.38,12.39l-1.34 3.63c-1.48,3.99 -2.99,7.96 -4.54,11.9l-1.64 4.14c-1.53,3.8 -3.07,7.56 -4.66,11.31l-1.66 3.9c-1.79,4.18 -3.62,8.31 -5.48,12.42l-1.05 2.29c-1.95,4.24 -3.91,8.44 -5.94,12.61l-1.09 2.23c-2.14,4.37 -4.31,8.7 -6.52,13l-0.29 0.58 -0.11 0.21 -0.11 0.21c-2.28,4.41 -4.62,8.8 -6.99,13.13l-0.45 0.82 -0.4 0.71c-2.41,4.38 -4.87,8.73 -7.35,13.02l-0.42 0.73c-2.53,4.34 -5.1,8.64 -7.7,12.9l-0.3 0.51 -0.25 0.4 -1.78 3.98 -0.13 0.29z"/>
   <path class="fil2" d="M4404.39 11231.18c555.21,205.62 1355.13,-39.53 1996.22,-74.01 40.58,503.68 8.73,1010.44 -130.55,1517.91l-0.79 2.92c-4.8,17.42 -9.72,34.84 -14.77,52.27l3.82 -4.33 0.09 -0.09c81.78,-92.68 154.55,-187.12 213.94,-326.99l24.97 1089.21c-56.42,-33.58 -113.2,-70.2 -170.37,-110.41 896.46,1082.3 2272.98,539.91 3233.54,768.49 34.34,10.25 68.2,21.49 101.44,34.05 320.93,41.44 296.31,-47 476.39,-53.97 125.02,-2.69 197.77,-17.78 247.02,-36.63l0.51 -0.16c44.74,-16.89 66.58,-35.9 90.57,-50.1 44.27,-28.31 89.51,-49.16 228.19,-34.77 126.17,14.12 329.87,56.05 674.34,146.06 -1.78,6.14 -3.44,11.78 -5.1,17.01 -7.53,21.81 -17.27,36.78 -31.03,47.42 -18.45,11.86 -48.63,19.59 -103.23,28.55 -58.09,6.55 -140.15,12.42 -257.91,34.66 -9.99,2.14 -19.7,4.41 -29.27,6.73l-0.59 0.09c-47.34,10.76 -88.36,24.19 -123.78,39.7 -284.86,118.22 -273.46,344.59 -11.97,511.39 79.34,55.88 173.71,54.48 274.65,50.43 436.62,3.69 867.17,-339.95 1139.95,8.11 205.03,311.34 -73.34,558.85 -306.1,570.55 -89.16,4.48 -161.58,34.44 -225.38,41.64 -443.33,106.45 -711.87,301.83 -1265.07,22.74 -270.06,-124.41 -443.82,-163.2 -678.2,-157.72 -420.52,30.28 -935.6,48.61 -1469.26,29.37 -316.16,-32.86 -696.05,-49.86 -1086.68,-98.98 -760.17,-119.02 -1451.21,-353.9 -1841.21,-783.21l-2.78 -3.05c-12.05,-13.33 -23.75,-26.91 -35.2,-40.61 -1.16,-1.38 -2.35,-2.69 -3.52,-4.07 -12.73,-15.31 -25.04,-30.88 -37,-46.68 -26.5,-31.89 -52.15,-63.98 -76.97,-96.26 -897.28,-1185.82 -728.61,-2558.24 -798.89,-3097.27z"/>
   <path class="fil4" d="M5151.55 14259.38l0.13 0.17 1.81 2.5 1.95 2.67 0.16 0.2 3.76 5.15 0.17 0.22 1.8 2.45c37.61,51.11 77.22,101.79 118.92,151.98 1.51,1.99 3.15,3.89 4.66,5.87 51.56,64.4 106.87,124.56 165.46,180.7 902.3,834.89 3035.24,852.13 4305.53,760.66 234.38,-5.48 408.13,33.32 678.2,157.72 640.74,323.25 899.56,9.95 1490.45,-64.38 44.05,8.82 86.37,6.19 125.26,-5.72 6.41,0.28 12.83,0.64 19.26,1.11 104.66,-59.82 243.25,-228.49 223.9,-307.86 -6301.22,277.79 -7529.33,-1598.2 -7143.4,-896.18l1.98 2.74z"/>
   <path class="fil3" d="M8900.79 4036.62c-80.29,-46.4 -157.13,-94.75 -227.41,-153.35 -151.58,-155.99 -282.68,-376.75 -303.1,-579.94 -333.7,226.22 -554.58,587.1 -942.43,794.03 -66.11,62.09 -218.16,246.37 -231.21,338.41 10.35,-8.6 20.76,-17.07 31.22,-25.45 -11.61,12.96 -23.52,26.44 -35.87,40.57 -74.49,177.49 -365.43,-44.55 -627.21,80.26l-0.11 -8.04 -2.15 9.1c-4.69,2.26 -9.38,4.6 -14.03,7.05 -262.85,142.75 -261.08,-569.55 -245.74,-517.3 35.93,-709.22 189.63,-1193.22 614.55,-1582.67 465.13,-426.27 1031.6,-591.59 1663.61,-570.39 539.95,328.3 921.38,743.31 1187.87,1182.18l0.47 0.02c-31.87,-1.14 -62.8,1.7 -91.22,9.49 -350.12,109.07 -638.31,493.05 -777.26,976.03z"/>
   <path class="fil2" d="M9164.94 5658.94c20.41,66.37 5.95,71.64 -5.23,87.67 -63.36,-118.12 -158.66,-216.44 -234.66,-367.34 -131.9,-385.87 -142.39,-799.35 -66.51,-1170.25l-1.59 7.33c-203.37,-132.86 -468.79,-371.45 -543.58,-604.34 -263.6,325.55 -720.33,513.88 -1066.95,783.58 -20.59,16.26 -30.19,24.08 -49.77,40.17 -74.49,177.48 -370.07,-29.43 -631.85,95.37l-0.11 -8.04 -2.15 9.1c-4.69,2.26 -9.38,4.6 -14.03,7.05 -20.18,10.97 -38.8,16.84 -55.98,18.45 -19.1,85.61 -27.16,189.3 -20.3,313.74l67.39 -284.51c9.98,809.72 29.35,1429.26 856.03,2031.56 118.95,51.05 238.47,114.43 335.32,217.28 510.04,296.61 803.87,277.89 1136.47,-254.22 123.35,-159.46 201.4,-330.94 403.23,-546.62l-0.67 20.53 6.22 -47.48 -111.27 -349.04zm-504.52 -1789.22l0.21 0.23 0.21 0.22 0.21 0.23 0.21 0.23 0.22 0.23 0.21 0.22 0.21 0.23 1.28 1.36 -2.79 -2.95zm8.16 8.58l0.22 0.23 -0.22 -0.23zm4.11 4.25l0.21 0.22 -0.21 -0.22zm0.7 0.72l3.41 3.5 3.42 3.48 3.43 3.46 3.43 3.43 0.33 0.32 8.1 7.99 4.08 3.97 6.21 5.94 4.39 4.16 5.62 5.25 6.28 5.78 3.1 2.81 3.49 3.15 3.49 3.11 6.04 5.33 0.96 0.84 3.49 3.04 0.18 0.16 5.41 4.65 1.42 1.2 3.51 2.96 0.93 0.78 3.8 3.18 7.29 5.99 3.91 3.18 6.63 5.28 4.39 3.45 7.55 5.83 2.56 1.95 7.52 5.61 3.76 2.78 7.98 5.76 2.01 1.42c2.99,2.12 5.97,4.21 8.95,6.24l1.74 1.19c2.88,1.97 5.77,3.91 8.65,5.82l2.39 1.58 9.27 5.98 0.61 0.4c6.76,4.26 13.49,8.35 20.18,12.25l1.57 0.92c6.74,3.89 13.42,7.58 20.07,11.09l0.38 0.21 0.29 0.14c3.4,1.8 6.81,3.53 10.19,5.21l0.01 0 0.08 -0.28 0.09 -0.28 0.07 -0.29 0.08 -0.29c1.53,-5.45 3.06,-10.89 4.63,-16.31l-3.75 -2.17 -0.01 -0.01 -3.74 -2.17 -0.02 -0.01 -3.74 -2.17 -0.02 -0.01 -3.73 -2.18 -0.01 -0.01 -3.73 -2.18 -0.01 -0.01 -3.72 -2.2 -0.02 -0.01 -3.72 -2.19 -0.02 -0.01 -3.71 -2.19 -0.02 -0.01 -3.7 -2.2 -0.01 -0.01 -3.71 -2.21 -0.01 -0.01 -3.69 -2.2 -0.01 -0.01 -3.69 -2.22 -0.02 -0.01 -3.68 -2.21 -0.02 -0.01 -3.68 -2.23 -0.01 -0.01 -3.68 -2.23 -0.01 -0.01 -3.67 -2.23 -0.01 -0.01 -3.66 -2.24 -0.01 -0.01 -3.65 -2.24 -0.01 0 -3.65 -2.26 -0.01 -0.01 -3.65 -2.26 -0.01 -0.01 -3.64 -2.27 -0.01 -0.01 -3.62 -2.27 -0.01 0 -3.63 -2.28 -0.01 -0.01 -3.61 -2.29 -0.02 -0.01 -7.22 -4.6 -0.01 0 -3.59 -2.32 -0.01 0 -3.6 -2.32 -0.01 0 -3.57 -2.33 -0.01 -0.01 -3.57 -2.33 -0.01 -0.01 -3.57 -2.35 -0.01 -0.01 -3.57 -2.35 -0.02 -0.01 -3.54 -2.36 -0.02 0 -3.54 -2.38 -0.02 0 -3.53 -2.39 -0.01 0 -3.53 -2.39 -0.01 0 -3.53 -2.41 -0.01 -0.01 -3.51 -2.41 -0.01 0 -3.51 -2.43 -0.01 -0.01 -3.5 -2.43 -3.5 -2.45 -0.01 0 -3.48 -2.46 -0.01 0 -3.48 -2.47 -0.01 0 -3.46 -2.47 -0.02 -0.01 -3.46 -2.48 -0.01 -0.01 -3.46 -2.5 -3.44 -2.51 -0.02 -0.01 -3.43 -2.52 -3.44 -2.54 -3.42 -2.55 -0.01 0 -3.41 -2.56 -3.42 -2.58 -3.39 -2.58 -0.01 0 -3.38 -2.6 -3.39 -2.61 -3.37 -2.63 -3.37 -2.65 -3.35 -2.65 -3.34 -2.65 -0.01 0 -3.34 -2.69 -3.33 -2.69 -3.31 -2.71 -3.31 -2.73 -3.3 -2.74z"/>
   <path class="fil6" d="M9229.33 2153.41c-156.67,-125.26 -323.07,-234 -478.68,-280.64 2.71,2.31 5.62,4.42 8.28,6.76 -59.89,-5.14 -119.23,-8.68 -178,-10.64 539.95,328.3 921.38,743.31 1187.87,1182.18 89.88,3.1 187.28,37.94 256.74,83.2 -85.87,-190.42 -194.84,-370.67 -327.77,-526.06 -228.66,-267.28 -356.11,-289.73 -560.92,-458.29 31.56,-0.08 62.35,1.15 92.47,3.49z"/>
   <path class="fil2" d="M6192.58 4632.04c-3.11,-67.73 33.39,-391.28 111,-440.83 17.18,178.56 74.26,422.99 229.79,355.35l1.1 -0.26 1.83 -0.95 0.06 -0.03 0.07 -0.04c3.74,-1.69 7.55,-3.64 11.4,-5.71l0.21 -0.1 0.23 -0.11 0.21 -0.1 -125.59 540.34c-237.16,-90.91 -187.05,-155.86 -230.33,-447.55z"/>
   <path class="fil2" d="M9534.36 5700.68c-0.14,8.84 8.91,40.1 23.43,84.23 112.57,266.16 598.08,925.33 703.29,1043.77 216.19,243.36 293.63,304.35 598.45,110.61 558.44,-354.92 1210.66,-1205.56 1423.99,-1820.34 -230.42,-324.1 -1146.54,-755.67 -1558.48,-1047.97 -76.86,-54.53 -250.56,-253.8 -308.97,-289.02 -46.36,86.62 -102.75,540.41 -279.72,917.17 -77.7,165.43 -600.81,923.34 -601.99,1001.57z"/>
   <path class="fil7" d="M11426.54 7056.59c-17.6,-42.81 -32.42,-86.52 -43.97,-131.2 -48.12,21.65 -122.24,77.94 -194.69,131.2l238.66 0z"/>
   <path class="fil3" d="M9275.55 6012.91c64.49,-454.81 303.6,-897.58 543.57,-1264.8 83.18,-127.29 234.97,-422.87 304.04,-598.39 110.67,-281.23 111.19,-457.34 132.37,-778.15 81.9,48.19 208.04,176.71 314.44,260.4 736.75,767.57 2419.52,1095.62 2065.86,2250.68l0.02 0.63c33.93,-44.41 130.19,-272.65 148.54,-330.67 52.49,-165.96 88.96,-347.82 60.97,-521.27l-11.97 37.68c-23.32,-18.36 -24.92,17.95 -25.17,-14.98l0 0.24c-217.89,-1019.73 -493.98,-1668.04 -2194.31,-1963.51 40.52,-6.21 80.64,-11.32 120.35,-15.33 -48.89,4.95 -98.39,11.51 -148.49,19.79l-258.49 51.06 0 0.01c-22.87,24.31 -156.84,62.78 -232.06,58.21 -0.17,0.52 -0.07,0.6 -0.12,-0.01 -20.94,-1.28 -37.33,-5.92 -45.45,-15.13 -137.84,-37.01 -222.28,-40.46 -364.63,41.39 -632.07,363.51 -795.18,1407.77 -606.26,2149.92l86.18 278.24 111.27 349.04 -0.65 4.93zm3532.39 -999.58c0.09,-10.22 0.13,-20.39 0.13,-30.52 -0.01,10.14 -0.05,20.3 -0.13,30.52zm0.13 -32.34c0,-10.45 -0.04,-20.87 -0.13,-31.23zm-0.01 -1.43c-0.09,-9.87 -0.21,-19.69 -0.39,-29.46 0.17,9.79 0.3,19.6 0.39,29.46zm-0.46 -33.29c-0.17,-9.77 -0.4,-19.5 -0.66,-29.2 0.25,9.69 0.48,19.42 0.66,29.2zm-0.68 -29.73c-0.26,-9.87 -0.57,-19.69 -0.93,-29.49 0.36,9.8 0.67,19.61 0.93,29.49zm-1 -31.38c-0.36,-10.1 -0.78,-20.15 -1.24,-30.16 0.45,10.02 0.87,20.07 1.24,30.16zm-1.28 -31.01c-0.45,-9.83 -0.94,-19.63 -1.49,-29.37 0.55,9.76 1.04,19.53 1.49,29.37zm-1.58 -30.93c-0.52,-9.42 -1.1,-18.81 -1.7,-28.16 0.61,9.35 1.18,18.73 1.7,28.16zm-1.93 -31.54c-0.59,-8.8 -1.2,-17.56 -1.86,-26.29 0.66,8.74 1.28,17.5 1.86,26.29zm-2.21 -30.99c-0.64,-8.34 -1.32,-16.65 -2.03,-24.93 0.71,8.27 1.39,16.59 2.03,24.93zm-2.41 -29.41c-0.74,-8.52 -1.51,-17 -2.32,-25.45 0.81,8.46 1.58,16.93 2.32,25.45zm-2.71 -29.46c-0.81,-8.3 -1.66,-16.56 -2.54,-24.8 0.88,8.23 1.73,16.5 2.54,24.8zm-3.11 -30.06c-0.81,-7.44 -1.65,-14.86 -2.51,-22.25 0.86,7.39 1.7,14.81 2.51,22.25zm-3.42 -29.99c-0.94,-7.73 -1.88,-15.41 -2.87,-23.09 0.98,7.66 1.93,15.37 2.87,23.09zm-3.61 -28.64c-1,-7.64 -2.04,-15.26 -3.1,-22.84 1.07,7.58 2.1,15.2 3.1,22.84zm-2011.84 -1509.88l-0.18 -0.02c-12.2,1.03 -24.44,2.18 -36.72,3.42z"/>
   <path class="fil8" d="M9616.73 7159.95l-22.75 -36.53c-1.66,7.56 -8.98,11.17 -24.81,17.6 -193.19,425.89 -493.88,597.45 -804.96,719.45 71.88,5.67 145.22,4.64 221.13,-7.4 366.95,-58.25 540.82,-256.03 691,-537.44 -5.37,-70.1 -27.02,-95.19 -59.61,-155.68zm-778.84 913.92c338.57,393.24 346.87,1828.52 -418.26,1901.81 26.68,165.67 164.36,440.89 258.13,546.78 218.15,319.82 520.4,520.27 926.9,545.86 322.03,20.29 385.81,-29.92 614.54,-90.46 -556.12,580.13 -1544.94,82.96 -1817.21,-446.47 -276.58,346.68 -484.4,2060.17 -653.31,2844.75 0.14,89.45 5.08,177.61 9.43,232.5 14.91,187.92 79.59,192.58 172.5,232.55 615.27,7.81 1187.83,-59.9 1734.56,333.42 -323.19,-100.5 -700.8,-96.89 -1095.02,-90.17l0.13 0.1c352.34,-5.99 691.41,-9.49 990.21,61.62 34.34,10.25 68.2,21.49 101.44,34.05 320.93,41.44 296.31,-47 476.39,-53.97 192.63,-82.91 259.32,-233.24 400.33,-272.45 112.28,-33.58 311.16,41.13 439.27,78.34 605.83,172.45 720.53,34.01 510.82,360.34 -196.72,106.1 -627.99,105.7 -648.22,224.72 -1.09,399.59 823.25,49.79 1111.81,222.19 -12.69,-0.64 -25.7,-0.78 -38.95,-0.55 119.37,1.31 226.98,40.69 317.27,155.91 67.96,103.19 82.78,199.36 63.79,282.26 -7.48,85.48 -130.4,229.39 -225.37,283.67 10.25,0.73 20.63,1.71 30.82,3.04 -476.11,235.74 -933.24,522.45 -1496.56,330.46 -228.6,-98.33 -408.15,-153.54 -564.54,-182.26 317.05,266.09 655.73,486.91 950.66,566.83 32.74,26.2 96.8,43.49 163.96,55.49 209.58,62.99 371.74,-46.79 603.83,-220.67 91.69,-76.35 278.54,-206.78 321.51,-238.88 726.47,-542.61 1283.75,-1275.1 1055.2,-2268.3 -36.72,-159.61 -93.67,-297.79 -129.45,-445.27 -514.9,-50.79 -562.81,-161.87 -860.11,-416.03 17.7,6.78 36.04,14.51 54.98,22.9l-5.53 -4.72c51.22,19.62 109.46,49.75 173.1,82.97 248.6,114.36 592.32,331.7 909.98,47.12 102.34,-91.69 145.24,-263.17 140.11,-361.76 57.52,27 28.17,-72.08 -94.85,-228.28 19,37.58 34.19,75.84 44.01,114.37 -285.11,550.04 -856.2,199.65 -1134.36,78.71 -34.39,-15.9 -276.25,-149.69 -265.69,-251.12 1.7,-112.09 85.53,-197.8 146.96,-275.06 -26.28,-74.2 -68.11,-84.23 -95.62,-163.03 -27.38,-117.54 -22.67,-197.27 5.48,-247.81 -214.97,-275.98 -371.2,-504.33 -910.25,-579.93 311.83,-54.38 689.99,-180.16 853.84,-348.58 151.56,-155.8 323.64,-462.41 272.11,-789.62 -71.32,-452.98 -570.09,-786.95 -978.88,-1181.41 -568.24,983.81 -1714.73,362.22 -2004.03,-604.84 -122.58,71.65 -264.56,113.98 -417.84,118.89zm3457.63 3354.4c-79.96,-38.08 -132.58,-55.71 -190.31,-18.54 10.9,-5.83 25.7,-10.71 48.57,-14.99 71.84,-13.42 100.25,46.34 141.74,33.53zm-707.61 3366.33c-59.09,15.15 -119.06,31.65 -178.45,47.18 60.51,-14.88 120.14,-31.6 178.45,-47.18zm-743.28 58.99c-9.81,-5.73 -19.35,-11.51 -28.56,-17.39 9.31,6.56 18.84,12.32 28.56,17.39zm-16.59 -528.79c36.53,-15.17 77.99,-28.53 124.37,-39.78l-0.59 0.09c-47.34,10.76 -88.36,24.19 -123.78,39.7zm136.58 -42.68c5.63,-1.29 11.29,-2.59 17.07,-3.83 -5.78,1.24 -11.46,2.52 -17.07,3.83zm17.07 -3.83c9.2,-1.73 18.19,-3.38 26.95,-4.91 -8.77,1.54 -17.75,3.18 -26.95,4.91zm52.83 -9.32l19.45 -3.1c-6.36,0.98 -12.84,2.03 -19.45,3.1zm205.08 -25.34c49.28,-5.56 81.33,-11.6 103.23,-28.55 -18.45,11.86 -48.63,19.59 -103.23,28.55zm134.26 -75.98c1.82,-5.27 3.52,-10.91 5.1,-17.01 -1.78,6.14 -3.44,11.78 -5.1,17.01zm5.1 -17.01c-724.7,-190.59 -816.84,-165.67 -900.45,-112.6 43.63,-27.63 89.61,-47.61 226.11,-33.46 126.17,14.12 329.87,56.05 674.34,146.06zm-902.53 -111.29c-25.03,16.05 -49.81,34.46 -91.02,50.24l0.44 -0.13c45.43,-17.32 67.1,-36.72 90.57,-50.1zm-338.1 86.89c19.88,-0.43 40.38,-0.86 0,0zm-3704.18 -7367.44l16.93 46.32c184.44,485.57 584.84,812.82 1134.89,999.24 -0.12,0.06 4.75,4.47 10.25,9.39 -150.81,64.87 -264.74,169.8 -401.12,312.54 -411.22,430.42 -593.31,1397.23 -669.97,2407.88l-0.06 0.69c-10.47,-39.96 -21.4,-80.41 -32.75,-121.08 -107.75,-473.94 -278.51,-879.16 -491.65,-1056.14 4.85,14.55 9.65,29.1 14.46,43.67l6.71 20.45 6.87 21.08c173.56,533.9 322.24,1122.53 371.86,1713.81l0.05 0.52c-641.09,34.47 -1440.99,279.64 -1996.22,74.01 -12.42,-165.65 -28.32,-320.36 -53.8,-481.82l-0.24 -1.58 -1.27 -7.97 -0.52 -3.23 -0.77 -4.76 -1.3 -8c-131.14,-1055.37 -216.15,-1703.08 18.9,-2483.39 60.57,-189.8 235.46,-831.39 1534.41,-1115.08 152.53,-33.17 398.04,-141.82 534.33,-366.55z"/>
   <path class="fil2" d="M8806.89 15634.93c207.62,125.03 458.54,223.78 572.52,270.1 63.81,25.93 98.86,32.24 161.19,62.31 139.49,67.3 982.56,305.33 1082.39,221.98l-0.11 -0.04c-31.72,-10.82 -61.97,-22.01 -90.03,-33.32 -455,-173.94 -537.08,-333.81 -827.58,-564.28 -218.35,17.09 -578.1,50.97 -872.38,43.64l-0.34 -0.01c-8.56,-0.1 -17.12,-0.25 -25.66,-0.4z"/>
  </g>
  <path class="fil9" d="M8140.41 19997.32l-460.69 0 -592.33 0c-70.2,0 -109.69,37.9 -109.69,105.3l0 2737.85c0,67.4 39.49,105.31 109.69,105.31l482.63 0c70.21,0 109.7,-37.9 109.7,-105.31l0 -821.35 460.69 0c605.49,0 1074.96,-450.69 1074.96,-1010.89 0,-560.2 -469.47,-1010.9 -1074.96,-1010.9zm0 1389.99l-460.69 0 0 -758.18 460.69 0c214.99,0 372.95,164.27 372.95,379.09 0,214.81 -157.95,379.09 -372.95,379.09z"/>
  <path class="fil9" d="M6381.63 22827.83l-930.17 -2742.06c-17.55,-58.97 -65.82,-88.45 -127.24,-88.45l-702 0c-61.43,0 -109.7,29.48 -127.24,88.45l-930.17 2742.06c-26.33,75.82 13.16,117.94 92.14,117.94l539.67 0c61.43,0 105.3,-25.27 122.85,-88.45l115.54 -374.88 1076.42 0 115.54 374.88c17.55,63.18 61.43,88.45 122.85,88.45l539.67 0c78.98,0 118.46,-42.12 92.14,-117.94zm-1752.11 -977.2l343.7 -1116.2 343.7 1116.2 -687.39 0z"/>
  <path class="fil10" d="M15729.75 19997.32l-685.73 0c-75,0 -123.22,32.14 -155.36,96.43l-610.72 1169.66 -610.72 -1169.66c-32.14,-64.29 -80.36,-96.43 -155.36,-96.43l-685.73 0c-101.79,0 -144.65,64.29 -91.07,160.72l1114.3 1947.35 0 1508.06c0,85.72 48.22,133.93 133.93,133.93l589.3 0c85.72,0 133.93,-48.22 133.93,-133.93l0 -1508.06 1114.3 -1947.35c53.57,-96.43 10.71,-160.72 -91.07,-160.72z"/>
  <path class="fil10" d="M11218.8 19997.32l-562.5 0 -723.23 0c-85.72,0 -133.93,48.22 -133.93,133.93l0 3482.2c0,85.72 48.22,133.93 133.93,133.93l589.3 0c85.72,0 133.94,-48.22 133.94,-133.93l0 -1044.66 562.5 0c739.3,0 1312.53,-573.22 1312.53,-1285.74 0,-712.51 -573.23,-1285.74 -1312.53,-1285.74zm0 1767.89l-562.5 0 0 -964.3 562.5 0c262.5,0 455.36,208.93 455.36,482.15 0,273.22 -192.86,482.15 -455.36,482.15z"/>
  <path class="fil9" d="M2838.27 19997.32l-589.3 0c-85.72,0 -133.93,48.22 -133.93,133.93l0 1275.02 -1071.45 0 0 -1275.02c0,-85.72 -48.22,-133.93 -133.93,-133.93l-589.3 0c-85.72,0 -133.93,48.22 -133.93,133.93l0 3482.2c0,85.72 48.22,133.93 133.93,133.93l589.3 0c85.72,0 133.93,-48.22 133.93,-133.93l0 -1382.17 1071.45 0 0 1382.17c0,85.72 48.22,133.93 133.93,133.93l589.3 0c85.72,0 133.93,-48.22 133.93,-133.93l0 -3482.2c0,-85.72 -48.22,-133.93 -133.93,-133.93z"/>
  <path class="fil11" d="M16920.42 20505.39l589.3 0c73.66,0 133.93,60.27 133.93,133.93l0 804.45 804.45 0c73.66,0 133.93,60.27 133.93,133.93l0 589.3c0,73.66 -60.27,133.93 -133.93,133.93l-804.45 0 0 804.45c0,73.66 -60.27,133.93 -133.93,133.93l-589.3 0c-73.66,0 -133.92,-60.27 -133.92,-133.93l0 -804.45 -804.46 0c-73.66,0 -133.93,-60.27 -133.93,-133.93l0 -589.3c0,-73.66 60.27,-133.93 133.93,-133.93l804.46 0 0 -804.45c0,-73.66 60.26,-133.93 133.92,-133.93z"/>
  <path class="fil1" d="M9215.37 23371.65l0 306.15c0,38.27 -31.31,69.58 -69.58,69.58l-5519.5 0c-38.27,0 -69.58,-31.31 -69.58,-69.58l0 -306.15c0,-38.27 31.31,-69.58 69.58,-69.58l5519.5 0c38.27,0 69.58,31.31 69.58,69.58z"/>
 </g>
</svg>
