<?xml version="1.0" encoding="UTF-8"?>
<!DOCTYPE svg PUBLIC "-//W3C//DTD SVG 1.1//EN" "http://www.w3.org/Graphics/SVG/1.1/DTD/svg11.dtd">
<!-- Creator: CorelDRAW 2020 (64-Bit) -->
<svg xmlns="http://www.w3.org/2000/svg" xml:space="preserve" width="3.92263in" height="3.92263in" version="1.1" style="shape-rendering:geometricPrecision; text-rendering:geometricPrecision; image-rendering:optimizeQuality; fill-rule:evenodd; clip-rule:evenodd"
viewBox="0 0 165.76 165.76"
 xmlns:xlink="http://www.w3.org/1999/xlink"
 xmlns:xodm="http://www.corel.com/coreldraw/odm/2003">
 <defs>
  <style type="text/css">
   <![CDATA[
    .fil3 {fill:#655D67}
    .fil2 {fill:#796A77}
    .fil5 {fill:#918290}
    .fil6 {fill:#D58677}
    .fil9 {fill:#E5998A}
    .fil7 {fill:#EBDEDB}
    .fil4 {fill:#EDAC9F}
    .fil8 {fill:#F5F8F9}
    .fil1 {fill:#E6E6E6;fill-opacity:0.250980}
    .fil0 {fill:url(#id0)}
   ]]>
  </style>
  <linearGradient id="id0" gradientUnits="userSpaceOnUse" x1="25.15" y1="23.42" x2="140.62" y2="142.34">
   <stop offset="0" style="stop-opacity:1; stop-color:#9EA5F7"/>
   <stop offset="1" style="stop-opacity:1; stop-color:#D76EBD"/>
  </linearGradient>
 </defs>
 <g id="Layer_x0020_1">
  <metadata id="CorelCorpID_0Corel-Layer"/>
  <g id="_2592655226512">
   <circle class="fil0" cx="82.88" cy="82.88" r="82.88"/>
   <path class="fil1" d="M151.82 128.89c-14.87,22.23 -40.19,36.87 -68.94,36.87 -10.11,0 -19.8,-1.81 -28.76,-5.13l-11.36 -22.15c0.26,0.17 0.56,0.31 0.9,0.42l0.03 0.01c0.04,0.01 0.07,0.02 0.11,0.03 1.06,0.3 2.56,0.37 4.66,0.39l4.78 0 0 0 2.76 0 22.27 0.02 0 0.01 1.16 -0.01 29.95 0.03 0 0.01 3.25 0 0 -0.01 0.01 0c12.03,-0.03 11.94,0.07 11.94,-7.06 0,-6.39 -0,-12.78 0,-19.17 0,-9.97 -2.66,-14.35 -10.96,-17.59l-5.09 -1.96c-0.19,-0.07 -0.8,-0.31 -0.9,-0.36l-0.34 -0.2c-0.38,-0.25 -0.21,-0.11 -0.48,-0.4 4.37,-1.29 7.8,-6.98 5.81,-12.72 -1.83,-5.27 -7.54,-3.73 -8.26,-11.78l-0.15 -1.48c1.56,-0.68 2.78,-2.65 2.78,-5.22 -0.01,-3.16 -1.68,-3.62 -2.46,-4.87l0 0c-0.01,-0.02 -0.03,-0.04 -0.04,-0.07l-0 0c-0.01,-0.02 -0.03,-0.04 -0.04,-0.07l-0 0c-0.01,-0.02 -0.02,-0.05 -0.04,-0.07l-0.03 -0.07 -0.03 -0.07c-0.01,-0.02 -0.02,-0.05 -0.03,-0.07 -0.01,-2.85 0.34,-16.95 -0.18,-18.4 -0.05,-1.09 -0.31,-2.18 -0.73,-3.22l48.44 94.34zm-49.37 -96.15l0 -0 0 0 -0 -0z"/>
   <path class="fil2" d="M104.19 66.69c1.56,-0.68 2.78,-2.65 2.78,-5.22 -0.01,-3.49 -2.04,-3.69 -2.68,-5.29 -0.01,-2.85 0.34,-16.95 -0.18,-18.4 -0.21,-4.84 -4.61,-9.71 -8.9,-10.01 -2.7,-0.19 -3.22,0.84 -5,1.41 -1.86,-2.46 -2.22,-2.81 -6.18,-2.77l-0.01 0c-8.18,0.06 -16.82,-1.35 -22.16,6.97 -4.38,6.84 -0.99,12.01 -3.39,18.31 -0.49,1.3 -0.13,2.79 1.53,3.19 1.2,0.28 0.97,-0.24 1.52,0.54 0.01,3.78 0.29,9.24 -0.07,12.84 -0.95,9.55 -10.35,6.32 -8.7,16.83 0.5,3.21 3.04,6.94 5.8,7.26 1.99,0 4.44,-0.87 5.85,-1.38l-5.43 2.04 -4.32 1.72c-2.91,0.94 -8.9,4.08 -10.84,6.87 -2.98,4.29 -2.61,7.59 -2.61,13.35 0,5.21 0,10.43 0,15.64 -0,8.12 0.24,8.68 7.25,8.76l64.17 0.07c12.03,-0.03 11.94,0.07 11.94,-7.06 0,-6.39 -0,-12.78 0,-19.17 0,-9.97 -2.66,-14.35 -10.96,-17.59l-5.09 -1.96c-0.19,-0.07 -0.8,-0.31 -0.9,-0.36l-0.34 -0.2c-0.38,-0.25 -0.21,-0.11 -0.48,-0.4 4.37,-1.29 7.8,-6.98 5.81,-12.72 -1.83,-5.27 -7.54,-3.73 -8.26,-11.78l-0.15 -1.48z"/>
   <path class="fil3" d="M58.54 92.34c1.98,0.15 4.86,-0.76 6.58,-1.82 -0.21,-0.9 -1.5,-2.14 -1.99,-3.76 -0.7,-2.32 -0.58,-7.11 1.38,-9.37 0.45,-0.52 3.19,-2.23 3.88,-2.58 -0.77,-0.8 -1.61,-4.25 -1.54,-5.33l-0.27 -14.51 5.22 -0.01c-0.74,-1.48 -2.03,-1.25 -0.93,-3.66 2.61,-5.74 -2.75,-12.67 6.19,-21.06 1.08,-1.01 1.96,-1.55 3.29,-2.26 1.19,-0.64 2.96,-0.96 4.11,-1.59 -8.3,0.12 -17.16,-1.49 -22.58,6.97 -4.38,6.84 -0.99,12.01 -3.39,18.31 -0.5,1.3 -0.13,2.79 1.53,3.19 1.2,0.28 0.97,-0.24 1.52,0.54 0.01,3.78 0.29,9.24 -0.07,12.84 -0.95,9.55 -10.35,6.32 -8.7,16.83 0.5,3.21 3.04,6.94 5.8,7.26z"/>
   <path class="fil4" d="M80.96 54.77c-0.87,0.02 -3.3,0.07 -4.36,0.09 -0.07,3.46 -0.21,8.01 -0.02,11.41 0.28,4.9 0.93,8.62 4.33,12.31 1.11,1.2 6.14,4.17 7.03,4.17 1.42,0.01 3.19,-1.24 4.03,-1.92 8.93,-5.29 7.24,-15.98 7.06,-24.72 -3.53,-3.19 -6.89,-7.24 -7.14,-12.31 -0.06,-1.3 0.06,-1.41 -0.93,-1.85 -1.2,-0.09 -1.44,2.21 -2.03,3.86 -1.15,3.26 -4.05,8.91 -7.98,8.95z"/>
   <path class="fil3" d="M49.21 139.34l-0.02 -24.44c-0.26,-2.87 0.06,-9.39 0.71,-11.99 0.94,-3.78 3.23,-6.34 4.75,-8.18 -2.91,0.94 -8.9,4.08 -10.84,6.87 -2.98,4.29 -2.61,7.59 -2.61,13.35 0,5.21 0,10.43 0,15.64 -0,8.41 0.26,8.71 8,8.76z"/>
   <path class="fil5" d="M90.97 106.59l-1.62 7.9 -1.5 6.32c0.17,1.14 -0.33,2.44 -0.56,3.73l11.87 -13.01c1.33,-1.84 -1.28,-3.78 -1.41,-5.95 -0.1,-1.61 0.81,-1.85 1.77,-2.5 5.19,-3.53 4.66,-3.12 3.39,-6.89 -0.55,-1.61 -1.45,-5.23 -2.37,-5.74 -0.95,-0.52 -2.97,-0.77 -5.83,-2.25l-3.75 18.39z"/>
   <path class="fil5" d="M65.13 90.51l-0.72 0.44c-0.57,2.3 -2.8,7.05 -2.43,9.15 0.17,0.3 5.44,3.38 5.8,4.5 0.24,2.38 -2.19,4.59 -1.62,6.4 0.3,0.97 3.18,3.56 3.93,4.4 0.38,0.43 0.69,0.74 1.04,1.23l4.81 5.53c0.82,0.85 1.09,1.62 2.22,2.04l-3.69 -18.29 -0.17 -0.97 -3.39 -16.78c-1.35,0.79 -4.06,1.76 -5.79,2.38z"/>
   <path class="fil6" d="M70.91 88.14l3.45 17.13 9.09 -0.01 -0.08 -21.83c-2.15,-0.21 -3.4,0.03 -5.44,-0.57 -1.65,-0.49 -3,-1.14 -4.15,-1.98 0.05,1.37 0.15,3.77 0.02,5.08 -0.16,1.56 -1.38,1.92 -2.89,2.2zm28.12 -32.03l0.11 11.69c1.77,0.23 3.59,0.1 4.7,-0.71 0.3,-0.22 0.34,-0.4 0.33,-0.4 -0.14,-1.9 0.28,-3.55 0.25,-5.48 -0.03,-1.65 -0.16,-3.16 -0.14,-5.03 -1.91,-0.56 -3.5,-1.61 -5.25,-0.06z"/>
   <polygon class="fil7" points="78.17,124.18 78.27,139.38 83.28,139.33 83.46,105.25 74.37,105.22 "/>
   <path class="fil8" d="M89.36 114.49l1.62 -7.9 0.13 -1.29 -7.64 -0.04 -0.18 34.07 4 -0.04 0.03 -14.75c4.03,-4.05 2.49,-3.45 2.05,-10.05z"/>
   <path class="fil9" d="M104.43 61.2c0.03,1.94 -0.38,3.58 -0.25,5.48 1.56,-0.68 2.78,-2.65 2.78,-5.22 -0.01,-3.49 -2.03,-3.69 -2.67,-5.29 -0.08,1.79 0.09,3.36 0.14,5.03zm-37.58 8.28c-0.27,4.07 3.85,9.23 6.93,11.37 1.15,0.85 2.51,1.49 4.15,1.98 2.04,0.61 3.29,0.37 5.44,0.57l0.08 21.83 7.64 0.04 -0.13 1.29 3.75 -18.39c-1.42,-0.43 -2.6,-0.61 -2.77,-2.25 -0.13,-1.3 -0.04,-3.76 0.02,-5.12 -0.84,0.68 -2.61,1.94 -4.03,1.92 -0.89,-0.01 -5.92,-2.97 -7.03,-4.17 -3.4,-3.69 -4.05,-7.41 -4.33,-12.31 -0.2,-3.4 -0.05,-7.94 0.02,-11.41l-10.02 0.12c-0.07,4.69 0.27,9.89 0.27,14.51z"/>
   <path class="fil3" d="M54.86 106.75l0 0c0.89,0 1.62,0.73 1.62,1.62l0 30.97 -3.25 0 0 -30.97c0,-0.89 0.73,-1.62 1.62,-1.62z"/>
   <path class="fil3" d="M111 106.81l0 0c0.89,0 1.62,0.73 1.62,1.62l0 30.97 -3.25 0 0 -30.97c0,-0.89 0.73,-1.62 1.62,-1.62z"/>
  </g>
 </g>
</svg>
