<?xml version="1.0" encoding="UTF-8"?>
<!DOCTYPE svg PUBLIC "-//W3C//DTD SVG 1.1//EN" "http://www.w3.org/Graphics/SVG/1.1/DTD/svg11.dtd">
<!-- Creator: CorelDRAW 2020 (64-Bit) -->
<svg xmlns="http://www.w3.org/2000/svg" xml:space="preserve" width="3.92263in" height="3.92263in" version="1.1" style="shape-rendering:geometricPrecision; text-rendering:geometricPrecision; image-rendering:optimizeQuality; fill-rule:evenodd; clip-rule:evenodd"
viewBox="0 0 294.29 294.29"
 xmlns:xlink="http://www.w3.org/1999/xlink"
 xmlns:xodm="http://www.corel.com/coreldraw/odm/2003">
 <defs>
  <style type="text/css">
   <![CDATA[
    .fil10 {fill:#26A6FE;fill-rule:nonzero}
    .fil6 {fill:#43494D;fill-rule:nonzero}
    .fil5 {fill:#60B7FF;fill-rule:nonzero}
    .fil2 {fill:#626B70;fill-rule:nonzero}
    .fil3 {fill:#9FACBA;fill-rule:nonzero}
    .fil9 {fill:#FD4755;fill-rule:nonzero}
    .fil8 {fill:#FE646F;fill-rule:nonzero}
    .fil7 {fill:#FFC344;fill-rule:nonzero}
    .fil4 {fill:#FFD15B;fill-rule:nonzero}
    .fil1 {fill:#D3E2F0;fill-opacity:0.301961}
    .fil0 {fill:url(#id0)}
   ]]>
  </style>
  <linearGradient id="id0" gradientUnits="userSpaceOnUse" x1="163.39" y1="0.9" x2="130.9" y2="293.4">
   <stop offset="0" style="stop-opacity:1; stop-color:#A1B6F8"/>
   <stop offset="1" style="stop-opacity:1; stop-color:#9886E3"/>
  </linearGradient>
 </defs>
 <g id="Layer_x0020_1">
  <metadata id="CorelCorpID_0Corel-Layer"/>
  <g id="_2592655229536">
   <circle class="fil0" cx="147.15" cy="147.15" r="147.15"/>
   <path class="fil1" d="M215.45 72.3l0 -0 0 0 -0 -0zm67.61 131.31c-22.15,53.24 -74.65,90.68 -135.91,90.68 -11.5,0 -22.68,-1.32 -33.42,-3.81l-35.22 -68.68c0.57,0.37 1.25,0.58 1.98,0.58l25.45 0 -27.6 -53.79c0.61,0.44 1.35,0.7 2.15,0.7l26.1 0 -27.6 -53.83c0.46,0.21 0.97,0.32 1.5,0.32l133.32 0c2.02,0 3.68,-1.66 3.68,-3.68l0 -35.84 0 -0.67 65.57 128.02z"/>
   <path class="fil2" d="M213.81 222.38l-133.32 0c-2.03,0 -3.68,-1.65 -3.68,-3.68l0 -36.51c0,-2.03 1.65,-3.68 3.68,-3.68l133.32 0c2.03,0 3.68,1.65 3.68,3.68l0 36.51c-0,2.03 -1.65,3.68 -3.68,3.68z"/>
   <path class="fil3" d="M154.9 206.95l-62.08 0c-3.6,0 -6.51,-2.92 -6.51,-6.51 0,-3.6 2.92,-6.51 6.51,-6.51l62.08 0c3.6,0 6.51,2.92 6.51,6.51 -0,3.6 -2.92,6.51 -6.51,6.51z"/>
   <path class="fil4" d="M182.67 211.48c-2.8,0 -5.08,-2.27 -5.08,-5.08l0 -11.92c0,-2.8 2.27,-5.08 5.08,-5.08 2.8,0 5.08,2.27 5.08,5.08l0 11.92c0,2.8 -2.27,5.08 -5.08,5.08z"/>
   <path class="fil2" d="M213.81 169.29l-133.32 0c-2.03,0 -3.68,-1.65 -3.68,-3.68l0 -36.51c0,-2.03 1.65,-3.68 3.68,-3.68l133.32 0c2.03,0 3.68,1.65 3.68,3.68l0 36.51c-0,2.03 -1.65,3.68 -3.68,3.68z"/>
   <path class="fil3" d="M154.9 153.87l-62.08 0c-3.6,0 -6.51,-2.92 -6.51,-6.51 0,-3.6 2.92,-6.51 6.51,-6.51l62.08 0c3.6,0 6.51,2.91 6.51,6.51 -0,3.6 -2.92,6.51 -6.51,6.51z"/>
   <path class="fil5" d="M182.67 158.39c-2.8,0 -5.08,-2.27 -5.08,-5.08l0 -11.92c0,-2.8 2.27,-5.08 5.08,-5.08 2.8,0 5.08,2.27 5.08,5.08l0 11.92c0,2.8 -2.27,5.08 -5.08,5.08z"/>
   <path class="fil2" d="M213.81 115.79l-133.32 0c-2.03,0 -3.68,-1.65 -3.68,-3.68l0 -36.51c0,-2.03 1.65,-3.68 3.68,-3.68l133.32 0c2.03,0 3.68,1.65 3.68,3.68l0 36.51c-0,2.03 -1.65,3.68 -3.68,3.68z"/>
   <path class="fil3" d="M154.9 100.36l-62.08 0c-3.6,0 -6.51,-2.92 -6.51,-6.51 0,-3.6 2.92,-6.51 6.51,-6.51l62.08 0c3.6,0 6.51,2.92 6.51,6.51 -0,3.6 -2.92,6.51 -6.51,6.51z"/>
   <path class="fil5" d="M182.67 104.89c-2.8,0 -5.08,-2.27 -5.08,-5.08l0 -11.92c0,-2.8 2.27,-5.08 5.08,-5.08 2.8,0 5.08,2.27 5.08,5.08l0 11.92c0,2.8 -2.27,5.08 -5.08,5.08z"/>
   <g>
    <path class="fil6" d="M213.81 178.5l-11.66 0c2.03,0 3.68,1.65 3.68,3.68l0 36.51c0,2.03 -1.65,3.68 -3.68,3.68l11.66 0c2.03,0 3.68,-1.65 3.68,-3.68l0 -36.52c-0,-2.03 -1.65,-3.68 -3.68,-3.68l0 0z"/>
    <path class="fil6" d="M213.81 125.42l-11.66 0c2.03,0 3.68,1.65 3.68,3.68l0 36.51c0,2.03 -1.65,3.68 -3.68,3.68l11.66 0c2.03,0 3.68,-1.65 3.68,-3.68l0 -36.51c-0,-2.03 -1.65,-3.68 -3.68,-3.68z"/>
    <path class="fil6" d="M213.81 71.92l-11.66 0c2.03,0 3.68,1.65 3.68,3.68l0 36.51c0,2.03 -1.65,3.68 -3.68,3.68l11.66 0c2.03,0 3.68,-1.65 3.68,-3.68l0 -36.51c-0,-2.03 -1.65,-3.68 -3.68,-3.68z"/>
   </g>
   <path class="fil4" d="M202.91 82.81c-0.11,0 -0.21,0.01 -0.31,0.02 -2.66,0.16 -4.77,2.36 -4.77,5.06l0 11.92c0,2.7 2.11,4.9 4.77,5.06 0.1,0.01 0.21,0.02 0.31,0.02 2.8,0 5.08,-2.27 5.08,-5.08l0 -11.92c0,-2.8 -2.27,-5.08 -5.08,-5.08l0 -0z"/>
   <path class="fil7" d="M205.83 83.74l0 20.23c1.31,-0.92 2.16,-2.43 2.16,-4.15l0 -11.92c0,-1.72 -0.86,-3.23 -2.16,-4.15z"/>
   <path class="fil8" d="M202.91 136.32c-0.11,0 -0.21,0.01 -0.31,0.02 -2.66,0.16 -4.77,2.36 -4.77,5.06l0 11.92c0,2.7 2.11,4.9 4.77,5.06 0.1,0.01 0.21,0.02 0.31,0.02 2.8,0 5.08,-2.27 5.08,-5.08l0 -11.92c0,-2.81 -2.27,-5.08 -5.08,-5.08l0 0z"/>
   <path class="fil9" d="M205.83 137.24l0 20.23c1.31,-0.92 2.16,-2.43 2.16,-4.15l0 -11.92c0,-1.72 -0.86,-3.23 -2.16,-4.15z"/>
   <path class="fil5" d="M202.91 189.4c-0.11,0 -0.21,0.01 -0.31,0.02 -2.66,0.16 -4.77,2.36 -4.77,5.06l0 11.92c0,2.7 2.11,4.9 4.77,5.06 0.1,0.01 0.21,0.02 0.31,0.02 2.8,0 5.08,-2.27 5.08,-5.08l0 -11.92c0,-2.8 -2.27,-5.08 -5.08,-5.08l0 -0z"/>
   <path class="fil10" d="M205.83 190.33l0 20.23c1.31,-0.92 2.16,-2.43 2.16,-4.15l0 -11.92c0,-1.72 -0.86,-3.23 -2.16,-4.15z"/>
  </g>
 </g>
</svg>
